<svg width="140" height="79" viewBox="0 0 140 79" fill="none" xmlns="http://www.w3.org/2000/svg">
<rect x="2.4853" y="11.3731" width="130.638" height="65.256" rx="32.628" transform="rotate(-4.04192 2.4853 11.3731)" fill="#BC664B" stroke="#8B3D24" stroke-width="3"/>
<path d="M44.5921 53.6796C44.4419 53.6712 44.2903 53.6442 44.1375 53.5986C43.986 53.5716 43.8511 53.5153 43.733 53.4299C43.7118 53.3939 43.682 53.3679 43.6435 53.3519C43.6036 53.3172 43.5738 53.2912 43.5539 53.2738C43.4717 53.1672 43.3982 53.0506 43.3334 52.9241C43.2686 52.7976 43.2224 52.6698 43.1948 52.5407C43.157 52.2626 43.1657 51.9814 43.221 51.6969C43.2937 51.3926 43.3384 51.0901 43.3551 50.7896C43.3706 50.4704 43.3675 50.1526 43.3458 49.836C43.3388 49.4623 43.3225 49.0892 43.2969 48.7167C43.2713 48.3443 43.2464 47.9811 43.2221 47.6273C43.2157 47.5342 43.2 47.4417 43.175 47.3499C43.1673 47.2381 43.1509 47.1363 43.1259 47.0445C43.1009 46.9527 43.0845 46.8509 43.0769 46.7391C43.0692 46.6274 43.0621 46.525 43.0558 46.4319C43.0494 46.3388 43.0336 46.2463 43.0086 46.1544C43.0009 46.0427 42.9846 45.9409 42.9596 45.8491C42.9358 45.7759 42.9214 45.702 42.9163 45.6275C42.9298 45.5518 42.9247 45.4773 42.9009 45.4041C42.892 45.2737 42.883 45.1433 42.8741 45.013C42.8651 44.8826 42.8468 44.7529 42.8193 44.6238C42.7994 44.6065 42.7875 44.5699 42.7837 44.514L42.68 43.0056C42.655 42.9137 42.6399 42.8306 42.6348 42.7561C42.6284 42.663 42.622 42.5698 42.6156 42.4767C42.6304 42.4196 42.634 42.3351 42.6263 42.2234L42.6032 41.8882C42.5956 41.7765 42.5792 41.6747 42.5542 41.5828C42.5465 41.4711 42.5482 41.3587 42.5591 41.2457L42.5495 41.106C42.5207 40.9583 42.5017 40.8193 42.4928 40.6889C42.5012 40.5387 42.5102 40.3977 42.5199 40.2661C42.5334 40.1903 42.5344 40.0686 42.5229 39.901C42.4779 39.7919 42.4536 39.7093 42.4497 39.6535C42.4247 39.5616 42.4003 39.4791 42.3766 39.4059C42.3702 39.3128 42.3737 39.2283 42.3872 39.1526C42.3943 38.9837 42.3449 38.8093 42.239 38.6295C42.178 38.5588 42.1264 38.4876 42.084 38.4156C42.059 38.3238 42.0253 38.2419 41.9829 38.17L41.9772 38.0862C42.0119 38.0464 42.0491 38.0438 42.0889 38.0785C42.1461 38.0933 42.1734 38.082 42.1708 38.0448C42.1869 38.0063 42.1936 37.9684 42.1911 37.9311C42.1872 37.8753 42.194 37.8374 42.2113 37.8175C42.2261 37.7603 42.2117 37.6865 42.168 37.5959C42.1456 37.5413 42.1709 37.5022 42.2441 37.4784C42.2763 37.4014 42.3383 37.3504 42.4301 37.3253C42.5206 37.2817 42.5746 37.2499 42.5919 37.23C42.6427 37.1517 42.7053 37.11 42.7798 37.1048C42.8543 37.0997 42.9288 37.0946 43.0033 37.0895C43.0591 37.0857 43.1417 37.0613 43.2508 37.0163C43.3241 36.9926 43.3985 36.9875 43.4743 37.001C43.5128 37.0171 43.552 37.0424 43.5918 37.0771C43.6303 37.0932 43.6689 37.1092 43.7074 37.1253C43.8987 37.187 44.0673 37.3251 44.213 37.5396C44.2566 37.6302 44.3003 37.7207 44.3439 37.8113C44.3875 37.9019 44.4039 38.0036 44.3929 38.1167C44.3968 38.1725 44.4359 38.1979 44.5104 38.1928L44.7339 38.1774C44.8245 38.1338 44.9163 38.1088 45.0094 38.1024C45.1212 38.0947 45.2143 38.0883 45.2888 38.0832L46.015 38.0333C46.2186 38.0006 46.4241 37.9958 46.6315 38.019C46.8563 38.0223 47.0723 38.0355 47.2798 38.0586C47.8994 38.0909 48.4956 38.1903 49.0684 38.3567C49.6957 38.5008 50.2942 38.7684 50.8636 39.1596C51.0787 39.2945 51.3169 39.4933 51.5782 39.756C51.6578 39.8254 51.7288 39.9047 51.791 39.994C51.8706 40.0634 51.9416 40.1427 52.0038 40.232C52.2304 40.5345 52.3553 40.8533 52.3783 41.1885C52.4309 41.4095 52.4456 41.6236 52.4224 41.831C52.4339 41.9986 52.4069 42.1502 52.3414 42.2856C52.3414 42.2856 52.3327 42.2956 52.3154 42.3155C52.3154 42.3155 52.316 42.3248 52.3173 42.3434C52.2839 42.4019 52.2604 42.469 52.2469 42.5447C52.252 42.6192 52.228 42.677 52.1746 42.7181L51.9443 43.0426C51.8589 43.1608 51.7648 43.2889 51.662 43.4269C51.5766 43.545 51.4719 43.6551 51.3479 43.7572L51.082 43.9719C51.0274 43.9944 50.9735 44.0262 50.9202 44.0673C50.8669 44.1083 50.8235 44.1581 50.7901 44.2165C50.7381 44.2762 50.6761 44.3273 50.6042 44.3696C50.5335 44.4306 50.4535 44.4922 50.3643 44.5545C50.2923 44.5969 50.2111 44.6399 50.1205 44.6835C50.03 44.7272 50.0332 44.7737 50.1301 44.8232L50.3314 44.8935C50.4284 44.943 50.5346 44.9919 50.6502 45.04C50.7645 45.0696 50.8701 45.1091 50.9671 45.1586C51.1212 45.2229 51.2766 45.3057 51.4332 45.4072C51.6072 45.4888 51.7626 45.5717 51.8994 45.6559L52.2557 45.9401C52.3552 46.0268 52.446 46.1235 52.5282 46.2301C52.6277 46.3168 52.7186 46.4135 52.8007 46.5201C52.9625 46.6961 53.0976 46.8926 53.2061 47.1097C53.3332 47.3255 53.4237 47.5532 53.4775 47.7927C53.5237 47.9205 53.552 48.0589 53.5622 48.2079C53.5712 48.3383 53.5621 48.4792 53.5351 48.6307C53.5081 48.7823 53.527 48.9213 53.5918 49.0478C53.6143 49.1024 53.6114 49.1962 53.5831 49.3291L53.5242 49.698C53.4947 49.8123 53.4552 49.9179 53.4057 50.0149C53.3748 50.1105 53.3161 50.2081 53.2293 50.3076L52.9248 50.7776C52.8221 50.9157 52.71 51.0543 52.5886 51.1937C52.4858 51.3317 52.3631 51.4524 52.2205 51.5557L51.9806 51.7406C51.9434 51.7432 51.8888 51.7656 51.8169 51.808C51.0269 52.2926 50.1949 52.5743 49.3209 52.6531C49.2278 52.6595 49.1539 52.6739 49.0994 52.6964C48.933 52.7265 48.7574 52.7573 48.5724 52.7887C48.4048 52.8002 48.2279 52.8124 48.0417 52.8251C47.8927 52.8354 47.7357 52.8649 47.5707 52.9136C47.4229 52.9425 47.2746 52.962 47.1256 52.9723C47.0524 52.996 46.9792 53.0198 46.906 53.0435C46.8315 53.0486 46.757 53.0537 46.6825 53.0589C46.5907 53.0839 46.4895 53.1095 46.3791 53.1358C46.2872 53.1609 46.1961 53.1952 46.1055 53.2388C46.0509 53.2613 45.9963 53.2838 45.9417 53.3062C45.9058 53.3274 45.8611 53.3585 45.8078 53.3996C45.6305 53.5428 45.4209 53.6227 45.1788 53.6393L44.5921 53.6796ZM45.1822 44.2931C45.2566 44.288 45.3212 44.2742 45.3758 44.2517C45.449 44.228 45.5129 44.2049 45.5675 44.1824C45.8032 44.0727 46.0302 43.9729 46.2486 43.883C46.4656 43.7746 46.6927 43.6748 46.9296 43.5836C47.2026 43.4713 47.4749 43.3497 47.7465 43.2188C48.0169 43.0692 48.288 42.929 48.5596 42.7981C48.7767 42.6896 48.9825 42.5538 49.1772 42.3908C49.3904 42.2264 49.585 42.0634 49.761 41.9016C49.797 41.8804 49.8236 41.8599 49.841 41.84C49.857 41.8015 49.8737 41.7722 49.8911 41.7523C49.9245 41.6939 49.9206 41.638 49.8796 41.5847L49.7862 41.4508C49.7078 41.4001 49.6388 41.3487 49.5791 41.2967C49.5194 41.2446 49.4411 41.1939 49.3441 41.1444C49.2671 41.1123 49.1894 41.0708 49.1111 41.0201C49.0327 40.9693 48.9457 40.9285 48.85 40.8977L48.5871 40.7474C48.3001 40.6548 48.0144 40.5809 47.7299 40.5256C47.4454 40.4703 47.1542 40.4529 46.8563 40.4734L45.9065 40.5386C45.7575 40.5488 45.6092 40.5684 45.4615 40.5972C45.3138 40.6261 45.1667 40.6643 45.0203 40.7118C44.9644 40.7156 44.8819 40.74 44.7727 40.7849C44.6623 40.8112 44.6109 40.8802 44.6186 40.992L44.6627 41.6344C44.7127 41.8181 44.7262 42.0136 44.703 42.2211L44.7203 42.4725C44.7652 42.5816 44.7921 42.7014 44.8011 42.8318C44.8088 42.9435 44.8171 43.0646 44.826 43.1949C44.8677 43.5288 44.9479 43.8788 45.0666 44.2449C45.0691 44.2821 45.1077 44.2982 45.1822 44.2931ZM45.849 50.7305L45.9607 50.7228C46.0898 50.6953 46.2195 50.677 46.3499 50.668C46.4789 50.6405 46.608 50.6129 46.7371 50.5853C46.958 50.5327 47.1789 50.4801 47.3998 50.4275C47.6394 50.3736 47.8702 50.3297 48.0924 50.2957C48.5182 50.229 48.9334 50.1444 49.338 50.0418C49.503 49.993 49.6587 49.9449 49.8052 49.8974C49.9702 49.8486 50.1259 49.8005 50.2724 49.753C50.3629 49.7094 50.4442 49.6664 50.5161 49.624C50.6054 49.5618 50.686 49.5094 50.7579 49.4671C51.0058 49.2629 51.1356 48.9734 51.1473 48.5983C51.1416 48.2432 50.9914 47.9635 50.6967 47.7593C50.6569 47.7246 50.5786 47.6738 50.4617 47.607C50.1497 47.4226 49.8216 47.2768 49.4774 47.1694C49.1332 47.0621 48.7817 46.9834 48.4227 46.9332C48.2526 46.9074 48.083 46.891 47.9142 46.8839C47.7626 46.8569 47.6037 46.8585 47.4374 46.8886C47.3629 46.8937 47.2797 46.9088 47.1879 46.9338C47.1134 46.9389 47.0389 46.9441 46.9644 46.9492C46.8899 46.9543 46.8161 46.9687 46.7428 46.9925C46.6684 46.9976 46.5846 47.0033 46.4914 47.0097C46.3983 47.0161 46.2959 47.0232 46.1842 47.0308C46.0911 47.0372 45.9986 47.0529 45.9067 47.078L45.6553 47.0952C45.5648 47.1389 45.5221 47.198 45.5272 47.2724C45.556 47.4201 45.5762 47.5778 45.5877 47.7454C45.5993 47.913 45.6101 48.0713 45.6204 48.2203C45.6229 48.2575 45.6255 48.2948 45.628 48.332C45.6492 48.368 45.6611 48.4046 45.6637 48.4418L45.704 49.0285C45.693 49.1415 45.6914 49.2538 45.6991 49.3656C45.7067 49.4773 45.7138 49.5797 45.7202 49.6729C45.7291 49.8032 45.7381 49.9336 45.747 50.0639C45.7733 50.1744 45.7723 50.2961 45.7441 50.429C45.728 50.4675 45.7232 50.5333 45.7296 50.6265C45.7321 50.6637 45.7719 50.6984 45.849 50.7305ZM67.8576 53.8493C67.69 53.8608 67.5365 53.8059 67.3972 53.6845C67.3561 53.6312 67.315 53.5779 67.274 53.5246C67.2329 53.4712 67.1918 53.4179 67.1507 53.3646C66.9562 52.9851 66.8443 52.5811 66.8149 52.1528L66.685 51.4881C66.6112 51.2313 66.5467 50.9737 66.4916 50.7156C66.4364 50.4574 66.354 50.2105 66.2442 49.9748L66.044 49.5114C66.0414 49.4742 66.0296 49.4376 66.0084 49.4016C66.0058 49.3644 65.994 49.3277 65.9728 49.2918L65.452 47.8401C65.4309 47.8041 65.409 47.7588 65.3866 47.7042C65.3827 47.6484 65.3609 47.6031 65.3211 47.5684C65.2576 47.4605 65.2033 47.352 65.1584 47.2428C65.1308 47.1137 65.0939 46.9853 65.0477 46.8575C65.0227 46.7656 64.9983 46.6831 64.9746 46.6099C64.9496 46.5181 64.9152 46.4269 64.8716 46.3363C64.8267 46.2271 64.785 46.1645 64.7464 46.1484C64.7066 46.1138 64.6228 46.1195 64.495 46.1657C64.4032 46.1907 64.302 46.2164 64.1916 46.2427C64.0985 46.2491 64.0066 46.2741 63.9161 46.3178C63.8429 46.3415 63.751 46.3665 63.6406 46.3928C63.5475 46.3992 63.455 46.4149 63.3632 46.4399L62.9778 46.5506C62.886 46.5756 62.7855 46.6106 62.6763 46.6555C62.5845 46.6806 62.492 46.6963 62.3989 46.7027L61.9018 46.821C61.7554 46.8685 61.5997 46.9166 61.4346 46.9654C61.2696 47.0141 61.1139 47.0623 60.9674 47.1097C60.5282 47.2522 60.087 47.3667 59.6439 47.4533C59.4974 47.5007 59.4181 47.5717 59.4059 47.6661C59.3873 47.6674 59.3786 47.6773 59.3799 47.6959C59.2886 48.0016 59.1787 48.3085 59.0502 48.6167C58.939 48.905 58.8192 49.2032 58.6907 49.5114C58.6586 49.5885 58.6264 49.6655 58.5943 49.7426C58.5795 49.7997 58.5561 49.8668 58.5239 49.9439C58.5079 49.9824 58.4925 50.0302 58.4777 50.0874C58.4616 50.1259 58.4455 50.1644 58.4295 50.203C58.3267 50.341 58.2817 50.5031 58.2945 50.6894C58.2836 50.8024 58.254 50.9167 58.2058 51.0323C58.1563 51.1292 58.1069 51.2262 58.0574 51.3231C58.0426 51.3803 58.0073 51.4107 57.9514 51.4146C57.8782 51.4383 57.8056 51.4714 57.7337 51.5137C57.6618 51.5561 57.5805 51.5991 57.49 51.6428C57.4354 51.6652 57.3795 51.6691 57.3224 51.6543C57.2838 51.6382 57.236 51.6228 57.1788 51.608C57.139 51.5733 57.1005 51.5572 57.0633 51.5598C56.8571 51.5553 56.6998 51.4444 56.5914 51.2274C56.4219 50.9396 56.299 50.6487 56.2227 50.3546C56.1989 50.2814 56.1945 50.2162 56.2093 50.159C56.2427 50.1006 56.2668 50.0428 56.2815 49.9857C56.3882 49.9035 56.4476 49.8152 56.4598 49.7208L56.4579 49.6929C56.4413 49.4508 56.4725 49.2241 56.5515 49.0129C56.6479 48.7817 56.7263 48.5612 56.7867 48.3512C56.8163 48.2369 56.8551 48.122 56.9033 48.0064C56.9515 47.8908 56.9997 47.7753 57.0479 47.6597C57.1134 47.5242 57.161 47.3993 57.1906 47.285C57.2375 47.1508 57.2751 47.0173 57.3034 46.8844C57.349 46.7315 57.3394 46.5919 57.2746 46.4653C57.2297 46.3562 57.204 46.255 57.1976 46.1619C57.1899 46.0502 57.1916 45.9378 57.2025 45.8248C57.1884 45.6199 57.2508 45.4379 57.3895 45.2787C57.4576 45.1804 57.527 45.1008 57.5976 45.0398C57.6856 44.959 57.7643 44.8787 57.8337 44.7991C57.9898 44.62 58.1048 44.3875 58.1787 44.1018C58.2366 43.8546 58.2758 43.6087 58.2964 43.364C58.3344 43.0994 58.373 42.8442 58.4122 42.5983C58.4328 42.3536 58.4541 42.1183 58.4759 41.8922C58.5152 41.6463 58.5551 41.4097 58.5956 41.1824C58.6078 41.088 58.6207 41.0029 58.6342 40.9271C58.665 40.8314 58.6872 40.7457 58.7007 40.67C58.7463 40.5171 58.7926 40.3736 58.8395 40.2394C58.8851 40.0866 58.9122 39.9351 58.9205 39.7848C58.9527 39.7078 58.9482 39.6426 58.9071 39.5893C58.8821 39.4974 58.8763 39.4136 58.8898 39.3379C58.922 39.2608 58.9448 39.1844 58.9583 39.1086C59.0052 38.9744 59.0335 38.8415 59.0432 38.7099C59.0714 38.577 59.109 38.4434 59.156 38.3092C59.2324 38.0607 59.2935 37.8601 59.3391 37.7072C59.4021 37.5345 59.4545 37.3438 59.4963 37.1351C59.5258 37.0208 59.5561 36.9158 59.5869 36.8202C59.6351 36.7046 59.6647 36.5903 59.6756 36.4773C59.72 36.3058 59.755 36.135 59.7807 35.9649C59.8052 35.7761 59.8117 35.5979 59.8001 35.4303C59.8271 35.2787 59.8574 35.1738 59.8908 35.1153C59.9711 34.9227 60.0719 34.7567 60.1933 34.6174C60.3334 34.4768 60.4641 34.3369 60.5855 34.1975C60.6748 34.1353 60.7653 34.0916 60.8572 34.0666C60.9477 34.023 61.0415 34.0259 61.1384 34.0754C61.2155 34.1075 61.2633 34.1229 61.2819 34.1216C61.4483 34.0915 61.5905 34.1191 61.7086 34.2046C61.8267 34.29 61.9275 34.3954 62.011 34.5206C62.0508 34.5553 62.0819 34.5999 62.1044 34.6545C62.1268 34.7091 62.1487 34.7544 62.1699 34.7903C62.2732 34.9329 62.33 35.0787 62.3402 35.2277C62.3453 35.3022 62.3604 35.3853 62.3854 35.4772C62.4092 35.5504 62.4336 35.6329 62.4586 35.7247C62.5221 35.8326 62.6098 35.8828 62.7215 35.8751C62.7388 35.8552 62.7575 35.8539 62.7774 35.8712C62.7973 35.8886 62.8079 35.9066 62.8091 35.9252C62.9099 36.0305 62.9462 36.1497 62.9179 36.2826C62.8909 36.4341 62.8918 36.5837 62.9207 36.7314C62.9669 36.8592 63.0137 36.9964 63.0612 37.1428C63.1485 37.3239 63.2358 37.505 63.323 37.6861C63.4103 37.8672 63.4976 38.0483 63.5849 38.2294C63.6921 38.4279 63.7993 38.6263 63.9065 38.8248C64.0137 39.0233 64.1115 39.2223 64.2001 39.4221C64.3111 39.6764 64.4222 39.9307 64.5332 40.185C64.6628 40.4381 64.8018 40.6905 64.9501 40.9422L65.055 41.2438C65.0787 41.317 65.1025 41.3902 65.1262 41.4634C65.1686 41.5353 65.2016 41.6079 65.2254 41.6811C65.2664 41.7344 65.2982 41.7884 65.3207 41.843C65.3618 41.8963 65.4022 41.9403 65.442 41.975C65.5441 42.0989 65.6095 42.2348 65.6384 42.3825C65.7071 42.5648 65.8024 42.7267 65.9243 42.868C65.9654 42.9213 66.0232 42.9454 66.0977 42.9403C66.3745 42.8838 66.6519 42.8367 66.93 42.7989C67.2068 42.7425 67.4823 42.6674 67.7565 42.5737C67.9575 42.5038 68.1511 42.4624 68.3373 42.4496C68.6912 42.4253 69.0254 42.524 69.34 42.7456C69.713 43.0006 69.9236 43.3417 69.9716 43.7687C69.978 43.8618 69.9924 43.9357 70.0149 43.9903C70.0239 44.1206 69.9936 44.2256 69.9243 44.3052C69.9095 44.3624 69.8761 44.4208 69.824 44.4805C69.7906 44.5389 69.7572 44.5973 69.7238 44.6558C69.6917 44.7328 69.6583 44.7912 69.6236 44.8311L69.4656 44.9822C69.4495 45.0208 69.4248 45.0692 69.3914 45.1277C69.3567 45.1675 69.3121 45.1986 69.2575 45.2211C69.1843 45.2448 69.1117 45.2779 69.0398 45.3202C68.9665 45.344 68.8834 45.359 68.7903 45.3654C68.4576 45.4257 68.159 45.4369 67.8945 45.3989L67.4475 45.4296C67.4103 45.4322 67.3557 45.4546 67.2837 45.497C67.2118 45.5394 67.1778 45.5885 67.1816 45.6443L67.1893 45.7561C67.2567 45.9199 67.3061 46.0942 67.3375 46.2792C67.3862 46.4442 67.453 46.5987 67.5377 46.7425C67.5428 46.817 67.5666 46.8902 67.6089 46.9622C67.7136 47.1234 67.8002 47.2952 67.8689 47.4776C67.9363 47.6413 67.995 47.815 68.045 47.9987C68.0476 48.0359 68.0713 48.1092 68.1162 48.2183C68.1811 48.3449 68.2372 48.4813 68.2847 48.6278C68.3309 48.7556 68.3684 48.8933 68.3973 49.041C68.405 49.1527 68.4399 49.2533 68.5022 49.3425C68.5882 49.505 68.6556 49.6688 68.7043 49.8338C68.7531 49.9989 68.7932 50.1739 68.8246 50.3588C68.8445 50.3762 68.8564 50.4128 68.8602 50.4686C68.8628 50.5059 68.8747 50.5425 68.8958 50.5785C69.003 50.7769 69.0836 50.9959 69.1374 51.2354C69.19 51.4564 69.2519 51.6766 69.3232 51.8963C69.3681 52.0054 69.3944 52.1159 69.4021 52.2276C69.4296 52.3567 69.4479 52.4864 69.4569 52.6168C69.4633 52.7099 69.4424 52.8142 69.3942 52.9298C69.3422 52.9895 69.3161 53.0194 69.3161 53.0194C69.2057 53.0457 69.145 53.1153 69.134 53.2284L69.0617 53.4017C69.0296 53.4788 68.9769 53.5292 68.9037 53.5529C68.8292 53.558 68.766 53.5904 68.714 53.6501C68.6446 53.7298 68.5447 53.774 68.4144 53.783C68.3399 53.7881 68.2468 53.7945 68.135 53.8022C68.0419 53.8086 67.9494 53.8243 67.8576 53.8493ZM60.4288 44.1717C60.5392 44.1454 60.6497 44.1191 60.7602 44.0928C60.8892 44.0653 61.0276 44.037 61.1753 44.0082C61.2672 43.9832 61.3869 43.9562 61.5346 43.9274C61.6823 43.8985 61.8207 43.8703 61.9498 43.8427C62.0776 43.7965 62.2067 43.7689 62.3371 43.76C62.4661 43.7324 62.5952 43.7048 62.7243 43.6772C62.8335 43.6323 62.9439 43.606 63.0557 43.5983C63.1661 43.572 63.2766 43.5457 63.387 43.5194C63.5521 43.4707 63.6109 43.3731 63.5634 43.2267C63.5345 43.079 63.487 42.9325 63.4209 42.7874C63.3722 42.6224 63.2788 42.4884 63.1407 42.3857C63.1009 42.351 63.0785 42.2964 63.0734 42.2219L63.0676 42.1381C63.0201 41.9917 62.964 41.8552 62.8991 41.7287C62.8517 41.5822 62.7955 41.4458 62.7307 41.3193C62.6832 41.1728 62.6277 41.0457 62.5641 40.9378C62.5179 40.81 62.4624 40.6828 62.3976 40.5563L61.9933 39.5737C61.9285 39.4472 61.8637 39.3207 61.7988 39.1941C61.7526 39.0663 61.7064 38.9385 61.6602 38.8107L61.5687 38.7048L61.4849 38.7105L61.4348 38.7981C61.3609 39.0839 61.2684 39.3709 61.1572 39.6592C61.0647 39.9462 60.9827 40.2512 60.9113 40.5742C60.9139 40.6115 60.9078 40.6587 60.893 40.7158C60.8782 40.7729 60.8634 40.8301 60.8486 40.8872C60.7869 41.0786 60.7265 41.2886 60.6674 41.5171C60.6269 41.7445 60.5957 41.9711 60.5738 42.1972C60.5641 42.3288 60.5545 42.4604 60.5448 42.5921C60.5338 42.7051 60.5142 42.8281 60.4859 42.961L60.3094 44.0677C60.292 44.0876 60.3033 44.1149 60.3431 44.1496C60.3816 44.1656 60.4102 44.173 60.4288 44.1717ZM77.8628 51.2534C77.7883 51.2585 77.7231 51.263 77.6673 51.2668C77.6114 51.2707 77.5456 51.2659 77.4698 51.2523C77.4326 51.2549 77.3854 51.2488 77.3282 51.234C77.291 51.2366 77.2537 51.2391 77.2165 51.2417C76.9172 51.2435 76.6341 51.2069 76.367 51.1317C76.0998 51.0565 75.8314 50.9626 75.5618 50.8502C75.5431 50.8515 75.5245 50.8527 75.5059 50.854C75.5046 50.8354 75.4947 50.8267 75.476 50.828C75.2834 50.7477 75.1081 50.6475 74.9502 50.5273C74.8109 50.4059 74.6716 50.2845 74.5323 50.1631C74.3705 49.9871 74.2559 49.8173 74.1885 49.6535C74.1038 49.5096 73.9998 49.3577 73.8765 49.1978C73.6762 49.0058 73.5187 48.7546 73.4038 48.4444C73.3377 48.2993 73.2716 48.1542 73.2055 48.009C73.1394 47.8639 73.0819 47.7088 73.0332 47.5437C73.0107 47.4891 72.9883 47.4346 72.9658 47.38C72.9421 47.3068 72.909 47.2342 72.8666 47.1622C72.823 47.0717 72.7787 46.9718 72.7338 46.8626C72.7075 46.7522 72.6719 46.6424 72.627 46.5332C72.6032 46.46 72.567 46.3409 72.5182 46.1758C72.4868 45.9909 72.4698 45.8798 72.4672 45.8425L72.3847 44.6413C72.3957 44.5283 72.4073 44.4246 72.4195 44.3302C72.4304 44.2172 72.4414 44.1042 72.4523 43.9912L72.4783 43.9613C72.4796 43.98 72.4802 43.9893 72.4802 43.9893C72.4989 43.988 72.5088 43.9967 72.5101 44.0153C72.5287 44.014 72.5387 44.0227 72.54 44.0413C72.5599 44.0586 72.5685 44.0487 72.566 44.0114C72.5583 43.8997 72.5426 43.8072 72.5188 43.734C72.5163 43.6968 72.5044 43.6602 72.4832 43.6242C72.4807 43.587 72.516 43.5565 72.5892 43.5327C72.6078 43.5314 72.6152 43.5029 72.6114 43.447L72.7783 42.2006C72.7906 42.1062 72.8034 42.0212 72.8169 41.9454C72.8292 41.851 72.842 41.7659 72.8555 41.6901L72.8903 41.379C72.8742 41.4175 72.8791 41.3517 72.9048 41.1816C72.9492 41.0101 72.9787 40.8958 72.9935 40.8387C73.0244 40.743 73.0645 40.6467 73.114 40.5497C73.1821 40.4515 73.2242 40.3831 73.2402 40.3446C73.3777 40.1668 73.5014 39.9244 73.6112 39.6175L74.0844 38.743C74.1538 38.6634 74.1846 38.5677 74.177 38.456C74.1519 38.3641 74.1728 38.2598 74.2397 38.1429C74.2878 38.0273 74.336 37.9118 74.3842 37.7962C74.451 37.6793 74.5179 37.5625 74.5847 37.4456C74.6676 37.2903 74.7597 37.1342 74.8612 36.9776C74.9801 36.801 75.0909 36.6437 75.1937 36.5057C75.2271 36.4473 75.2605 36.3888 75.2939 36.3304C75.3459 36.2707 75.4086 36.229 75.4818 36.2052C75.519 36.2027 75.5463 36.1914 75.5636 36.1715C75.581 36.1516 75.5983 36.1317 75.6157 36.1118C75.9613 35.6952 76.3553 35.3032 76.7979 34.936C76.8326 34.8962 76.8672 34.8564 76.9019 34.8166C76.9366 34.7768 76.9719 34.7463 77.0079 34.7251C77.0972 34.6629 77.1977 34.6279 77.3094 34.6202C77.4025 34.6138 77.4764 34.5994 77.531 34.5769C77.5868 34.5731 77.6694 34.5487 77.7785 34.5038C77.9063 34.4576 78.01 34.4692 78.0897 34.5386C78.2091 34.6426 78.3979 34.6671 78.656 34.6119C78.8223 34.5818 78.9684 34.6653 79.0942 34.8625C79.1353 34.9158 79.1671 34.9697 79.1895 35.0243C79.2306 35.0776 79.2804 35.121 79.3388 35.1544C79.4024 35.2623 79.4839 35.3596 79.5834 35.4463C79.7015 35.5317 79.801 35.6185 79.8819 35.7065L80.2796 36.1843C80.3207 36.2376 80.3624 36.3002 80.4048 36.3722C80.4645 36.4242 80.5149 36.4769 80.556 36.5302C80.6555 36.6169 80.7177 36.7062 80.7428 36.798C80.7864 36.8886 80.8188 36.9518 80.84 36.9878C80.8785 37.0039 80.9122 37.0857 80.9411 37.2334C80.9648 37.3067 80.968 37.3532 80.9507 37.3731C80.9507 37.3731 80.9879 37.3706 81.0624 37.3654C81.1369 37.3603 81.1773 37.4043 81.1837 37.4974C81.1978 37.7023 81.1727 37.8818 81.1085 38.0359C81.0751 38.0943 81.0397 38.1248 81.0025 38.1273C80.9839 38.1286 80.9572 38.1492 80.9225 38.189C80.8731 38.2859 80.8143 38.3835 80.7462 38.4817C80.6967 38.5787 80.6386 38.6856 80.5718 38.8025C80.5223 38.8994 80.4536 38.9883 80.3656 39.0692C80.2962 39.1488 80.2175 39.2291 80.1295 39.31C79.9908 39.4692 79.8177 39.5372 79.6103 39.514C79.4427 39.5255 79.321 39.5245 79.2452 39.511C79.1881 39.4963 79.1309 39.4815 79.0738 39.4667C79.034 39.432 78.9855 39.4073 78.9283 39.3925C78.8911 39.395 78.8526 39.379 78.8128 39.3443C78.7916 39.3083 78.771 39.2817 78.7511 39.2643C78.73 39.2284 78.7001 39.2023 78.6616 39.1863C78.5646 39.1368 78.4857 39.0768 78.4247 39.0061C78.3624 38.9168 78.3101 38.8362 78.2677 38.7643C78.2453 38.7097 78.2321 38.6545 78.2283 38.5986C78.2244 38.5427 78.2212 38.4962 78.2187 38.4589C78.1924 38.3485 78.1661 38.238 78.1398 38.1276C78.1321 38.0158 78.1058 37.9054 78.0609 37.7962C78.0583 37.7589 78.0105 37.7435 77.9174 37.7499C77.8108 37.8321 77.7041 37.9143 77.5975 37.9964C77.4909 38.0786 77.3949 38.1787 77.3094 38.2969L76.5145 39.3899C76.4625 39.4496 76.4111 39.5187 76.3603 39.597C76.3269 39.6554 76.2935 39.7138 76.2601 39.7723C76.192 39.8705 76.1245 39.978 76.0577 40.0949C76.0083 40.1918 75.9402 40.2901 75.8534 40.3896C75.8188 40.4294 75.7934 40.4686 75.7773 40.5071C75.7304 40.6413 75.6735 40.7668 75.6067 40.8837C75.5585 40.9992 75.5116 41.1334 75.466 41.2863C75.3857 41.4789 75.3159 41.6895 75.2568 41.9181C75.215 42.1268 75.1832 42.3441 75.1613 42.5702C75.1619 42.8508 75.1252 43.134 75.0513 43.4197C75.039 43.5141 75.0274 43.6178 75.0165 43.7308C75.0056 43.8438 74.9946 43.9569 74.9837 44.0699C74.9766 44.2388 74.9601 44.4083 74.9344 44.5784C74.9087 44.7486 74.9115 44.9262 74.9429 45.1111C75.0058 45.481 75.0859 45.831 75.1835 46.1611C75.2521 46.3435 75.3115 46.5265 75.3615 46.7102C75.4289 46.8739 75.4969 47.047 75.5656 47.2294C75.5881 47.284 75.6105 47.3386 75.633 47.3932C75.6554 47.4478 75.6779 47.5024 75.7004 47.5569C75.83 47.81 76.0489 48.0008 76.3571 48.1293C76.4727 48.1775 76.5957 48.1971 76.726 48.1881C76.8378 48.1804 76.9501 48.1821 77.0632 48.193C77.1749 48.1854 77.286 48.1684 77.3965 48.1421C77.9141 48.0504 78.3925 47.9333 78.8318 47.7909C79.0341 47.7395 79.2258 47.6702 79.4069 47.5829C79.588 47.4957 79.7691 47.4084 79.9502 47.3211C80.0953 47.255 80.2292 47.1616 80.3519 47.0409C80.4932 46.9189 80.6345 46.7969 80.7758 46.675C80.9345 46.5331 81.0838 46.3919 81.2239 46.2513C81.3639 46.1107 81.5039 45.9701 81.6439 45.8295C81.784 45.6889 81.914 45.5396 82.0342 45.3817C82.0862 45.322 82.1655 45.251 82.2721 45.1689C82.3254 45.1278 82.3788 45.0867 82.4321 45.0456C82.4854 45.0045 82.5294 44.9641 82.5641 44.9243C82.6533 44.862 82.7333 44.8004 82.8039 44.7394C82.8932 44.6771 82.9937 44.6422 83.1055 44.6345C83.1588 44.5934 83.2134 44.571 83.2692 44.5671C83.3424 44.5434 83.4063 44.5203 83.4609 44.4978C83.6247 44.4304 83.7737 44.4202 83.9079 44.4671C83.965 44.4819 84.0222 44.4967 84.0793 44.5115C84.1365 44.5262 84.1943 44.5503 84.2527 44.5837C84.4081 44.6666 84.558 44.806 84.7024 45.0019C84.8109 45.219 84.8709 45.4113 84.8824 45.5789L84.8939 45.7465C84.9105 45.9886 84.8321 46.2092 84.6587 46.4082C84.4718 46.683 84.2717 46.9026 84.0584 47.0669C83.9332 47.1503 83.8099 47.2617 83.6885 47.401C83.5125 47.5628 83.3278 47.7345 83.1345 47.9162C82.9598 48.0966 82.7751 48.2684 82.5805 48.4314L82.4764 48.5508C82.4231 48.5919 82.3704 48.6423 82.3184 48.702C82.2664 48.7617 82.2044 48.8128 82.1325 48.8551C82.0111 48.9944 81.8704 49.1257 81.7105 49.249C81.5493 49.3536 81.3881 49.4582 81.2269 49.5629C81.0644 49.6489 80.9137 49.7715 80.775 49.9307C80.723 49.9904 80.6709 50.0501 80.6189 50.1098C80.5669 50.1695 80.5049 50.2206 80.433 50.2629C80.1998 50.4099 79.9294 50.5595 79.6218 50.7116C79.6045 50.7315 79.5778 50.752 79.5418 50.7732C79.5059 50.7944 79.4699 50.8156 79.434 50.8367C79.3261 50.9003 79.2082 50.9552 79.0804 51.0014C78.9699 51.0277 78.8595 51.054 78.749 51.0803C78.6013 51.1091 78.453 51.1287 78.304 51.1389C78.1563 51.1678 78.0092 51.2059 77.8628 51.2534ZM89.0106 50.8243C88.8989 50.832 88.7939 50.8018 88.6957 50.7337C88.636 50.6816 88.5676 50.6396 88.4905 50.6074C88.4135 50.5753 88.3451 50.5332 88.2854 50.4812C88.227 50.4478 88.1685 50.4144 88.1101 50.381C88.069 50.3277 88.0286 50.2837 87.9888 50.249C87.9066 50.1424 87.8338 50.0351 87.7702 49.9272C87.724 49.7994 87.7057 49.6697 87.7154 49.5381C87.7386 49.3306 87.7438 49.1338 87.731 48.9476C87.7355 48.7415 87.7407 48.5446 87.7465 48.3571C87.7588 48.2627 87.7617 48.169 87.7553 48.0759C87.7662 47.9629 87.7685 47.8598 87.7621 47.7667C87.7468 47.5432 87.7314 47.3197 87.716 47.0963C87.7193 46.8715 87.7319 46.6461 87.7538 46.4201L87.7499 46.3642C87.7289 45.7856 87.7085 45.2164 87.6887 44.6564C87.6863 44.0765 87.6653 43.4979 87.6256 42.9206C87.5776 42.4936 87.5388 42.0659 87.5094 41.6376C87.48 41.2093 87.4512 40.7903 87.423 40.3806C87.409 40.1757 87.3955 39.9802 87.3827 39.7939C87.3886 39.6064 87.3665 39.4208 87.3164 39.2372C87.276 38.9219 87.2363 38.6159 87.1972 38.3192C87.1767 38.0212 87.1563 37.7233 87.1358 37.4253C87.132 37.3694 87.1188 37.3142 87.0963 37.2596C87.0925 37.2037 87.0887 37.1479 87.0848 37.092C87.0611 37.0188 87.0467 36.9449 87.0415 36.8704C87.0351 36.7773 87.0201 36.6942 86.9963 36.621C86.9899 36.5278 86.9742 36.4354 86.9492 36.3435C86.9428 36.2504 86.9277 36.1673 86.904 36.094L86.8906 35.8985C86.8579 35.6949 86.8265 35.51 86.7963 35.3437C86.7649 35.1587 86.7242 34.9744 86.6741 34.7907C86.6453 34.643 86.6158 34.486 86.5856 34.3197C86.5741 34.1521 86.5626 33.9845 86.5511 33.8169C86.5434 33.7051 86.5749 33.6188 86.6456 33.5578C86.6802 33.518 86.6957 33.4702 86.6918 33.4143C86.724 33.3372 86.7381 33.2708 86.7343 33.2149C86.7799 33.0621 86.848 32.9639 86.9385 32.9202C86.9919 32.8791 87.0365 32.848 87.0725 32.8268C87.1258 32.7857 87.181 32.7726 87.2381 32.7874C87.3313 32.781 87.3852 32.7492 87.4 32.6921C87.436 32.6709 87.4626 32.6503 87.48 32.6304C87.496 32.5919 87.5134 32.572 87.532 32.5707C87.6251 32.5643 87.7083 32.5493 87.7815 32.5255C87.8733 32.5005 87.9671 32.5034 88.0627 32.5343C88.177 32.5638 88.2714 32.576 88.3459 32.5709C88.4403 32.5832 88.508 32.6159 88.5491 32.6692C88.5889 32.7039 88.6275 32.72 88.6647 32.7174C88.7591 32.7296 88.8288 32.7903 88.8737 32.8995C88.9135 32.9342 88.9353 32.9795 88.9391 33.0354C88.9603 33.0713 88.9809 33.098 89.0008 33.1153C89.1003 33.202 89.1359 33.3119 89.1076 33.4448C89.0844 33.6522 89.0985 33.857 89.1498 34.0593C89.1723 34.1139 89.1761 34.1698 89.1613 34.2269C89.1652 34.2828 89.1783 34.338 89.2008 34.3926C89.2097 34.523 89.2187 34.6533 89.2277 34.7837C89.254 34.8942 89.2815 35.0232 89.3104 35.1709C89.3341 35.2441 89.3486 35.318 89.3537 35.3925C89.3575 35.4484 89.3626 35.5228 89.369 35.616C89.378 35.7463 89.3882 35.8953 89.3997 36.0629C89.41 36.2119 89.4295 36.3602 89.4584 36.5079C89.4796 36.5439 89.4934 36.6084 89.4998 36.7016C89.5087 36.8319 89.5177 36.9623 89.5266 37.0926C89.5542 37.2217 89.5818 37.3508 89.6094 37.4799C89.6844 37.7554 89.7309 38.0235 89.7488 38.2842C89.7392 38.4158 89.7487 38.5555 89.7776 38.7032C89.8065 38.8509 89.826 38.9993 89.8362 39.1482C89.8388 39.1855 89.8587 39.2028 89.896 39.2003C89.9332 39.1977 89.9605 39.1865 89.9778 39.1666C90.0138 39.1454 90.0665 39.095 90.1358 39.0154L91.3846 37.5824C91.6422 37.2467 91.9302 36.9462 92.2488 36.6811C92.4075 36.5392 92.5568 36.398 92.6968 36.2574C92.8356 36.0982 92.965 35.9396 93.0851 35.7816C93.2573 35.564 93.4201 35.347 93.5737 35.1306C93.7458 34.913 93.918 34.6953 94.0901 34.4777C94.1768 34.3782 94.2536 34.27 94.3204 34.1531C94.4058 34.035 94.482 33.9175 94.5488 33.8007C94.6516 33.6626 94.7457 33.5345 94.8311 33.4164C94.9339 33.2784 95.0466 33.149 95.1693 33.0283C95.2226 32.9872 95.2666 32.9468 95.3013 32.907C95.3533 32.8473 95.416 32.8055 95.4892 32.7818C95.5078 32.7805 95.5171 32.7799 95.5171 32.7799C95.5344 32.76 95.5431 32.75 95.5431 32.75C95.7178 32.5696 95.9021 32.5289 96.096 32.6278C96.1545 32.6613 96.2395 32.6741 96.3513 32.6664C96.5003 32.6562 96.6345 32.7031 96.7539 32.8072C96.7924 32.8232 96.8216 32.8399 96.8415 32.8573C96.8788 32.8547 96.9073 32.8621 96.9272 32.8795L97.2066 32.8603C97.3183 32.8526 97.3755 32.8674 97.378 32.9046C97.3979 32.922 97.4018 32.9778 97.3895 33.0722C97.3561 33.1307 97.3786 33.1852 97.4569 33.236C97.5513 33.2482 97.5831 33.3022 97.5522 33.3978C97.5362 33.4364 97.558 33.4816 97.6177 33.5337C97.6761 33.5671 97.6793 33.6136 97.6273 33.6733C97.5444 33.8287 97.4988 33.9815 97.4904 34.1318C97.4596 34.2275 97.4194 34.3238 97.3699 34.4207C97.3378 34.4978 97.2784 34.5861 97.1917 34.6856C96.981 34.8872 96.7908 35.1154 96.6213 35.3703C96.4504 35.6066 96.2708 35.8528 96.0826 36.109L95.9265 36.2881C95.7518 36.4685 95.5871 36.6575 95.4322 36.8553C95.2961 37.0517 95.1599 37.2482 95.0237 37.4447C94.8355 37.7008 94.6286 37.9583 94.4032 38.217C94.195 38.4559 93.9869 38.6947 93.7788 38.9335C93.6747 39.0529 93.5961 39.1332 93.5427 39.1743C93.4548 39.2551 93.3674 39.3453 93.2807 39.4449C93.194 39.5444 93.1079 39.6532 93.0224 39.7713C93.0064 39.8098 92.9717 39.8496 92.9184 39.8907C92.8837 39.9305 92.849 39.9703 92.8143 40.0101C92.6929 40.1495 92.5722 40.2981 92.452 40.456C92.3306 40.5953 92.1999 40.7353 92.0599 40.8759C92.0612 40.8945 92.0531 40.9138 92.0358 40.9337C92.0358 40.9337 92.0364 40.943 92.0377 40.9616C92.039 40.9802 92.031 40.9995 92.0136 41.0194C92.0149 41.038 92.0255 41.056 92.0454 41.0734C92.0679 41.1279 92.1189 41.1899 92.1985 41.2593L93.0604 41.9579C93.237 42.0767 93.4055 42.2148 93.566 42.3722C93.7252 42.5109 93.8844 42.6497 94.0437 42.7884L94.346 43.1044C94.3858 43.1391 94.4263 43.1831 94.4674 43.2364C94.5072 43.2711 94.547 43.3058 94.5868 43.3405C94.8031 43.494 95.0195 43.6476 95.2359 43.8011C95.4522 43.9546 95.6593 44.1088 95.857 44.2636L96.2991 44.57C96.5353 44.7409 96.7896 44.9012 97.0618 45.0509C97.3341 45.2006 97.5963 45.3416 97.8487 45.4739C97.9842 45.5395 98.1103 45.6056 98.2272 45.6724C98.3614 45.7194 98.4956 45.7663 98.6298 45.8132C98.8795 45.9083 99.0885 46.0904 99.2567 46.3595C99.2766 46.3768 99.2978 46.4128 99.3202 46.4674C99.3414 46.5034 99.3626 46.5393 99.3838 46.5753C99.491 46.7737 99.5416 46.9667 99.5358 47.1542C99.5461 47.3032 99.5345 47.4069 99.5011 47.4653L99.4326 47.6946C99.4191 47.7703 99.3876 47.8567 99.3381 47.9537C99.306 48.0307 99.2453 48.1004 99.156 48.1626C99.1201 48.1838 99.086 48.2329 99.0539 48.31C98.9845 48.3896 98.9219 48.4313 98.866 48.4352C98.7742 48.4602 98.6731 48.4858 98.5626 48.5121C98.4708 48.5372 98.3789 48.5622 98.2871 48.5872C98.2139 48.6109 98.14 48.6254 98.0655 48.6305C97.9911 48.6356 97.9159 48.6314 97.8402 48.6179C97.8203 48.6006 97.7917 48.5932 97.7544 48.5957C97.6787 48.5822 97.6029 48.5687 97.5271 48.5552C97.47 48.5404 97.4128 48.5256 97.3557 48.5109C97.2972 48.4775 97.2388 48.444 97.1804 48.4106C97.1393 48.3573 97.0989 48.3133 97.0591 48.2786C97.0193 48.244 96.9701 48.2099 96.9117 48.1765C96.8533 48.1431 96.7955 48.119 96.7384 48.1042L96.3021 47.8816C96.2809 47.8456 96.2417 47.8203 96.1846 47.8055C96.1448 47.7708 96.1056 47.7454 96.0671 47.7293C95.99 47.6972 95.9416 47.6725 95.9216 47.6551C95.8408 47.5671 95.7425 47.499 95.627 47.4509C95.53 47.4014 95.4324 47.3426 95.3342 47.2745C95.1762 47.1544 95.0096 47.0442 94.8343 46.944C94.6764 46.8239 94.5185 46.7037 94.3605 46.5836C94.0248 46.326 93.689 46.0684 93.3532 45.8109C93.036 45.552 92.7182 45.2838 92.3998 45.0063C92.161 44.7982 91.9222 44.5901 91.6833 44.3819C91.4445 44.1738 91.187 43.967 90.911 43.7614C90.8326 43.7107 90.7543 43.6599 90.676 43.6092C90.6163 43.5571 90.538 43.5064 90.441 43.4569C90.4198 43.421 90.3912 43.4136 90.3553 43.4348C90.3379 43.4547 90.3305 43.4832 90.3331 43.5205C90.3158 43.5404 90.3096 43.5876 90.3148 43.6621L90.522 46.679C90.5348 46.8652 90.5483 47.0607 90.5623 47.2656C90.5751 47.4518 90.5699 47.6486 90.5468 47.856L90.5756 48.275C90.5659 48.4067 90.5655 48.5377 90.5745 48.668C90.6021 48.7971 90.6117 48.9368 90.6033 49.087L90.6321 49.5061C90.6173 49.5632 90.6025 49.6204 90.5877 49.6775C90.5729 49.7346 90.5488 49.7924 90.5154 49.8509C90.4634 49.9106 90.4213 49.9789 90.3892 50.056C90.3558 50.1144 90.3224 50.1729 90.289 50.2313C90.2543 50.2711 90.2183 50.2923 90.1811 50.2948C90.1079 50.3186 90.0359 50.3609 89.9653 50.4219C89.9133 50.4816 89.842 50.5333 89.7514 50.5769C89.6287 50.6976 89.4743 50.7644 89.288 50.7772C89.2495 50.7611 89.203 50.7643 89.1484 50.7868C89.1124 50.8079 89.0665 50.8205 89.0106 50.8243Z" fill="white"/>
</svg>
