<svg width="139" height="79" viewBox="0 0 139 79" fill="none" xmlns="http://www.w3.org/2000/svg">
<rect x="2.4853" y="11.3731" width="130.638" height="65.256" rx="32.628" transform="rotate(-4.04192 2.4853 11.3731)" fill="#4B9649" stroke="#255423" stroke-width="3"/>
<path d="M32.9378 56.7741C32.8819 56.7779 32.8341 56.7625 32.7943 56.7278C32.7557 56.7118 32.7172 56.6957 32.6787 56.6796C32.5965 56.573 32.533 56.4651 32.4881 56.3559C32.4618 56.2455 32.4355 56.135 32.4092 56.0246C32.3841 55.9327 32.3678 55.831 32.3601 55.7192C32.3563 55.6633 32.3518 55.5982 32.3467 55.5237C32.3428 55.4678 32.329 55.4033 32.3053 55.3301C32.2803 55.2382 32.2553 55.1464 32.2302 55.0546C32.2065 54.9813 32.1828 54.9081 32.159 54.8349C32.0865 54.5967 31.9707 54.4082 31.8114 54.2694C31.7145 54.2199 31.6349 54.1506 31.5726 54.0613C31.4333 53.9399 31.3027 53.8085 31.1807 53.6672C31.06 53.5445 30.948 53.4119 30.8446 53.2693L30.6877 53.0275C30.5471 52.8875 30.4245 52.7369 30.3198 52.5757C30.2338 52.4132 30.1478 52.2507 30.0618 52.0882L29.8635 51.6528L29.7682 51.4909C29.7393 51.3432 29.7018 51.2055 29.6556 51.0777C29.6081 50.9313 29.5613 50.7941 29.5151 50.6663C29.4901 50.5745 29.4663 50.5013 29.4439 50.4467C29.4201 50.3735 29.3964 50.3003 29.3726 50.2271C29.3438 50.0794 29.3149 49.9317 29.2861 49.784C29.2572 49.6363 29.2197 49.4985 29.1735 49.3707C29.1523 49.3347 29.1385 49.2702 29.1321 49.1771L28.9946 48.4007C28.9619 48.1971 28.9298 48.0029 28.8984 47.8179C28.867 47.633 28.8262 47.4487 28.7762 47.265L28.7685 47.1532C28.7583 47.0043 28.7387 46.8559 28.7099 46.7082C28.681 46.5605 28.6528 46.4221 28.6252 46.293C28.6015 46.2198 28.5877 46.1553 28.5839 46.0994C28.5787 46.0249 28.5736 45.9504 28.5685 45.876C28.5993 45.7803 28.5936 45.6965 28.5512 45.6245C28.5262 45.5327 28.5105 45.4402 28.5041 45.3471C28.4964 45.2354 28.49 45.1423 28.4849 45.0678C28.4721 44.8816 28.4506 44.7053 28.4205 44.539C28.4077 44.3527 28.3949 44.1665 28.3821 43.9803C28.3681 43.7754 28.354 43.5706 28.3399 43.3657C28.3445 43.1596 28.3496 42.9628 28.3555 42.7753L28.342 42.5797C28.3325 42.1687 28.3516 41.7652 28.3992 41.369C28.4468 40.9728 28.5137 40.5846 28.5998 40.2045L28.8583 39.0641C28.8878 38.9498 28.9181 38.8448 28.9489 38.7491C28.9785 38.6348 29.0087 38.5298 29.0395 38.4342C29.0852 38.2813 29.1308 38.1285 29.1764 37.9757C29.2208 37.8043 29.2565 37.6428 29.2835 37.4912C29.3079 37.3024 29.3417 37.113 29.3848 36.923C29.4265 36.7143 29.4597 36.5155 29.4841 36.3267C29.5394 36.0423 29.6233 35.7652 29.7357 35.4955C29.8482 35.2259 30.0004 34.9909 30.1925 34.7906C30.2272 34.7508 30.2619 34.711 30.2966 34.6712C30.33 34.6127 30.374 34.5723 30.4285 34.5498C30.5178 34.4876 30.5978 34.4259 30.6684 34.3649C30.7577 34.3027 30.847 34.2404 30.9363 34.1781C31.2946 33.9477 31.6556 33.7545 32.0191 33.5986L33.0518 33.1066C33.161 33.0617 33.2888 33.0155 33.4352 32.968C33.5257 32.9244 33.6176 32.8994 33.7107 32.893C33.8025 32.8679 33.8851 32.8436 33.9583 32.8198C34.5093 32.6697 35.0586 32.632 35.6064 32.7066C35.8151 32.7484 36.0257 32.8181 36.2382 32.9158C36.6036 33.0591 36.9721 33.2489 37.3438 33.4853C37.5602 33.6389 37.7685 33.8116 37.9688 34.0037C38.1679 34.1771 38.3415 34.3897 38.4898 34.6415C38.6368 34.8746 38.7745 35.1084 38.9028 35.3428C38.9728 35.5438 39.078 35.7144 39.2186 35.8544L39.5884 36.3342C39.6282 36.3689 39.6593 36.4135 39.6818 36.4681C39.7229 36.5214 39.754 36.566 39.7752 36.602C39.9273 36.9096 39.9882 37.2516 39.9579 37.6279C39.9225 37.9297 39.8461 38.1782 39.7285 38.3734C39.6617 38.4902 39.6109 38.5686 39.5762 38.6084C39.3347 38.9056 39.2287 39.2684 39.2581 39.6967L39.2639 39.7805C39.258 39.968 39.2621 40.1642 39.2762 40.3691C39.289 40.5553 39.2931 40.7515 39.2886 40.9576L39.3692 42.1308C39.357 42.2252 39.3547 42.3283 39.3624 42.44C39.3688 42.5331 39.3659 42.6269 39.3536 42.7213C39.3389 42.7784 39.334 42.8443 39.3391 42.9187C39.343 42.9746 39.3475 43.0398 39.3526 43.1143C39.3654 43.3005 39.3316 43.4899 39.2513 43.6826C39.1337 43.8777 38.9613 43.9551 38.734 43.9146C38.5625 43.8702 38.4431 43.7662 38.3757 43.6024C38.3533 43.5478 38.3215 43.4939 38.2804 43.4405C38.258 43.386 38.2348 43.3221 38.2111 43.2488C38.1861 43.157 38.1604 43.0559 38.1341 42.9454C38.1265 42.8337 38.1194 42.7312 38.113 42.6381C38.1041 42.5078 38.0864 42.3874 38.0601 42.2769C38.0512 42.1465 38.0422 42.0162 38.0333 41.8858L38.0275 41.802C37.9999 41.6729 37.973 41.5532 37.9467 41.4427C37.9377 41.3124 37.9288 41.182 37.9198 41.0516C37.8871 40.8481 37.8544 40.6445 37.8217 40.4409C37.789 40.2374 37.7477 40.0437 37.6976 39.8601L37.4002 39.2069C37.3154 39.0631 37.2307 38.9192 37.146 38.7753C37.0799 38.6302 37.0045 38.4857 36.9197 38.3418C36.8735 38.214 36.8093 38.0968 36.7272 37.9902C36.645 37.8836 36.5622 37.7676 36.4788 37.6424C36.3106 37.3733 36.1263 37.1427 35.926 36.9507C35.8862 36.916 35.8464 36.8813 35.8066 36.8466C35.7668 36.8119 35.727 36.7772 35.6872 36.7425C35.6102 36.7104 35.5331 36.6783 35.4561 36.6462C35.3964 36.5941 35.336 36.5328 35.275 36.4621C35.2551 36.4448 35.2265 36.4374 35.1893 36.44C35.1694 36.4226 35.1402 36.4059 35.1017 36.3898C34.7029 36.305 34.3577 36.3193 34.0662 36.4329L33.6529 36.5455C33.5784 36.5506 33.5046 36.5651 33.4314 36.5888C33.3755 36.5926 33.311 36.6064 33.2377 36.6302L33.048 36.7274C32.9934 36.7499 32.9327 36.8195 32.8659 36.9364C32.871 37.0109 32.8575 37.0866 32.8253 37.1637C32.8106 37.2208 32.7958 37.278 32.781 37.3351C32.7836 37.3724 32.7861 37.4096 32.7887 37.4469C32.7507 37.7114 32.6935 37.9679 32.617 38.2164C32.5405 38.4649 32.4554 38.7234 32.3616 38.9918C32.3307 39.0874 32.2819 39.1937 32.2151 39.3106C32.1817 39.369 32.1483 39.4274 32.1148 39.4858C32.0802 39.5257 32.0567 39.5928 32.0445 39.6871L31.8941 39.9501C31.8074 40.0496 31.7512 40.1844 31.7255 40.3546C31.6798 40.5074 31.6442 40.6689 31.6184 40.8391C31.61 40.9893 31.5923 41.1402 31.5653 41.2918C31.5248 41.5191 31.5029 41.7451 31.4997 41.9699C31.4964 42.1946 31.4931 42.4194 31.4899 42.6441L31.6165 44.4878C31.6216 44.5623 31.6168 44.6281 31.602 44.6852C31.6059 44.7411 31.6103 44.8063 31.6155 44.8808C31.6257 45.0297 31.6273 45.1887 31.6201 45.3576C31.6317 45.5252 31.6518 45.6828 31.6807 45.8305C31.7032 45.8851 31.7182 45.9683 31.7259 46.08C31.7425 46.3221 31.7878 46.5716 31.8615 46.8285C31.8667 46.903 31.8792 46.9489 31.8991 46.9662C31.9986 47.0529 32.0236 47.1448 31.9741 47.2417C31.978 47.2976 31.9898 47.3342 32.0097 47.3516C32.1009 47.5885 32.1827 47.8261 32.2552 48.0644C32.3264 48.284 32.4076 48.5123 32.4987 48.7493C32.5873 48.9491 32.6758 49.1488 32.7644 49.3485C32.8716 49.547 32.9974 49.7441 33.1418 49.94C33.3062 50.1533 33.5325 50.3155 33.8208 50.4267C33.9351 50.4562 34.0494 50.4858 34.1637 50.5154C34.278 50.5449 34.3916 50.5652 34.5046 50.5761C34.6363 50.5858 34.7586 50.5961 34.8716 50.607C34.9833 50.5994 35.0951 50.5917 35.2068 50.584C35.3558 50.5738 35.5041 50.5542 35.6518 50.5254C35.7995 50.4965 35.9379 50.4683 36.067 50.4407C36.2693 50.3894 36.453 50.3394 36.618 50.2906C36.8017 50.2406 36.9854 50.1905 37.169 50.1405C37.4818 50.0629 37.764 49.9499 38.0158 49.8016C38.0344 49.8004 38.0611 49.7798 38.0958 49.74C38.2383 49.6367 38.3716 49.534 38.4956 49.4319C38.6369 49.3099 38.7682 49.1793 38.8896 49.04C38.9937 48.9205 39.0978 48.8011 39.2018 48.6817C39.3245 48.561 39.4279 48.4323 39.5121 48.2955L39.7385 47.9151C39.8362 47.7026 39.947 47.5453 40.071 47.4432C40.1404 47.3636 40.1917 47.2946 40.2252 47.2362C40.2586 47.1777 40.3032 47.1466 40.3591 47.1428C40.4708 47.1351 40.5819 47.1181 40.6924 47.0918C40.8028 47.0655 40.9239 47.0572 41.0555 47.0669C41.1685 47.0778 41.2735 47.108 41.3705 47.1575C41.4847 47.1871 41.5897 47.2173 41.6854 47.2481C41.7239 47.2642 41.773 47.2982 41.8328 47.3502C41.9335 47.4556 42.0157 47.5622 42.0793 47.6701C42.1601 47.7581 42.2144 47.8666 42.242 47.9957C42.2894 48.1421 42.3151 48.2433 42.3189 48.2992C42.3452 48.4096 42.3356 48.5413 42.2899 48.6941C42.227 48.8668 42.1274 49.0514 41.9912 49.2479C41.9032 49.3287 41.8165 49.4282 41.731 49.5464C41.6456 49.6645 41.5595 49.7733 41.4728 49.8729C41.3514 50.0122 41.24 50.1602 41.1385 50.3168C41.0357 50.4548 40.9143 50.5942 40.7742 50.7348C40.7209 50.7758 40.6683 50.8262 40.6162 50.8859C40.5816 50.9258 40.5469 50.9656 40.5122 51.0054C40.3561 51.1845 40.1801 51.3463 39.9842 51.4907C39.8057 51.6152 39.6171 51.7311 39.4187 51.8383L38.6875 52.2253C38.5064 52.3126 38.3153 52.3912 38.1143 52.4611C37.9319 52.5298 37.7402 52.5991 37.5392 52.669C37.3568 52.7377 37.1651 52.807 36.9641 52.877C36.7804 52.927 36.5875 52.9777 36.3852 53.029L35.3073 53.2715C35.1782 53.299 35.0398 53.3272 34.8921 53.3561C34.7643 53.4023 34.6253 53.4212 34.475 53.4128C34.2875 53.407 34.0958 53.4763 33.8999 53.6207C33.7201 53.7266 33.6266 53.864 33.6195 54.0329C33.5899 54.1472 33.5771 54.2323 33.5809 54.2882L33.547 55.0202C33.5559 55.1506 33.5562 55.2909 33.5478 55.4412C33.5581 55.5901 33.559 55.7398 33.5506 55.89C33.5371 55.9658 33.5236 56.0416 33.5101 56.1173C33.4979 56.2117 33.4763 56.3068 33.4455 56.4024C33.3677 56.6323 33.1985 56.7562 32.9378 56.7741ZM56.7196 52.2774C56.5532 52.3076 56.3949 52.3185 56.2447 52.3101C56.0944 52.3017 55.9403 52.2374 55.7824 52.1173C55.7426 52.0826 55.6841 52.0492 55.6071 52.0171C55.5101 51.9676 55.4498 51.9063 55.426 51.8331C55.4023 51.7598 55.3612 51.7065 55.3028 51.6731C55.2431 51.6211 55.2014 51.5585 55.1776 51.4853C55.1552 51.4307 55.142 51.3755 55.1382 51.3196C55.1517 51.2438 55.1565 51.178 55.1527 51.1221C55.1488 51.0663 55.1357 51.011 55.1132 50.9564C55.1094 50.9006 55.1055 50.8447 55.1017 50.7888C55.0267 50.5133 54.9516 50.2378 54.8765 49.9623C54.8002 49.6682 54.7338 49.3827 54.6774 49.106C54.6498 48.9769 54.6222 48.8478 54.5946 48.7187C54.567 48.5896 54.5395 48.4606 54.5119 48.3315C54.4766 48.0907 54.4321 47.8505 54.3782 47.611C54.3429 47.3701 54.2984 47.13 54.2445 46.8904C54.197 46.744 54.1694 46.6149 54.1617 46.5032C54.1515 46.3542 54.1326 46.2152 54.105 46.0861C54.0762 45.9384 54.0479 45.8 54.0204 45.6709C53.9941 45.5605 53.9251 45.5091 53.8133 45.5167L53.6159 45.5022C53.5215 45.49 53.4184 45.4877 53.3067 45.4954C53.1949 45.5031 53.0825 45.5015 52.9695 45.4905L52.6902 45.5097C52.6542 45.5309 52.599 45.544 52.5245 45.5492C52.45 45.5543 52.3755 45.5594 52.301 45.5645C52.2439 45.5497 52.1694 45.5549 52.0776 45.5799C52.0031 45.585 51.9292 45.5994 51.856 45.6232C51.8001 45.627 51.725 45.6228 51.6306 45.6106C51.6107 45.5932 51.5735 45.5958 51.5189 45.6183C51.4816 45.6208 51.4444 45.6234 51.4071 45.6259C51.314 45.6323 51.2122 45.6487 51.1018 45.675C51.0087 45.6814 50.9156 45.6878 50.8224 45.6942C50.7666 45.698 50.7107 45.7018 50.6548 45.7057C50.599 45.7095 50.5437 45.7227 50.4892 45.7451C50.3601 45.7727 50.231 45.8003 50.1019 45.8279C49.9716 45.8368 49.8412 45.8458 49.7108 45.8547C49.5233 45.8489 49.3371 45.8617 49.1522 45.8931C48.9672 45.9245 48.7823 45.956 48.5973 45.9874L48.5135 45.9931C48.4229 46.0368 48.3802 46.0958 48.3853 46.1703C48.3866 46.189 48.3786 46.2082 48.3613 46.2281C48.3613 46.2281 48.3619 46.2374 48.3632 46.2561C48.3696 46.3492 48.384 46.423 48.4065 46.4776C48.434 46.6067 48.4623 46.7451 48.4911 46.8928C48.5187 47.0219 48.5469 47.1603 48.5758 47.308L48.7056 47.9726C48.7371 48.1576 48.7778 48.3419 48.8278 48.5255C48.8766 48.6906 48.916 48.8563 48.9462 49.0226C48.9661 49.0399 48.9773 49.0672 48.9799 49.1045C48.9811 49.1231 48.9924 49.1504 49.0136 49.1864C49.0572 49.2769 49.0829 49.3781 49.0905 49.4898C49.0982 49.6015 49.1059 49.7133 49.1136 49.825C49.1521 49.8411 49.1453 49.879 49.0933 49.9387C49.0772 49.9772 49.0612 50.0157 49.0451 50.0542C49.0291 50.0928 49.0223 50.1307 49.0249 50.1679C48.9818 50.358 48.8729 50.5432 48.6982 50.7236C48.5222 50.8854 48.351 50.9813 48.1847 51.0115C48.1661 51.0128 48.1481 51.0233 48.1308 51.0432C48.1121 51.0445 48.0842 51.0464 48.047 51.049C47.8087 51.1215 47.5467 51.1208 47.261 51.0469L47.1733 50.9968C47.1496 50.9236 47.1085 50.8702 47.0501 50.8368C46.9916 50.8034 46.9425 50.7694 46.9027 50.7347C46.8616 50.6814 46.8119 50.638 46.7535 50.6046C46.7124 50.5513 46.68 50.4881 46.6562 50.4148C46.6549 50.3962 46.645 50.3875 46.6264 50.3888C46.5455 50.3008 46.4919 50.2016 46.4656 50.0911C46.4393 49.9807 46.413 49.8702 46.3867 49.7598L46.2722 49.3186C46.242 49.1523 46.2026 48.9866 46.1538 48.8215C46.1224 48.6366 46.091 48.4516 46.0596 48.2667L45.8171 47.1888C45.7895 47.0597 45.762 46.9306 45.7344 46.8015C45.7055 46.6538 45.6773 46.5154 45.6497 46.3864L45.5045 45.4982C45.4731 45.3133 45.4417 45.1283 45.4103 44.9434C45.3788 44.7584 45.3381 44.5741 45.2881 44.3904L45.2708 44.139C45.2606 43.9901 45.241 43.8417 45.2121 43.694C45.2019 43.545 45.183 43.406 45.1554 43.2769C45.133 43.2223 45.1198 43.1671 45.116 43.1112C45.1121 43.0554 45.1083 42.9995 45.1045 42.9436C45.0981 42.8505 45.083 42.7674 45.0593 42.6941C45.0529 42.601 45.0371 42.5086 45.0121 42.4167L44.888 41.8359C44.8553 41.6323 44.8034 41.4207 44.7321 41.2011C44.6795 40.9801 44.609 40.7698 44.5204 40.5701C44.4755 40.4609 44.4212 40.3524 44.3577 40.2445C44.2929 40.1179 44.2374 39.9908 44.1912 39.863C44.1437 39.7166 44.0994 39.6167 44.0583 39.5634C43.9896 39.381 43.9775 39.2041 44.0218 39.0326L44.1607 38.6021C44.1742 38.5263 44.2256 38.4573 44.3148 38.3951C44.3482 38.3366 44.3916 38.2869 44.4449 38.2458C44.4969 38.1861 44.5496 38.1357 44.6029 38.0946C44.6389 38.0734 44.6848 38.0609 44.7407 38.0571C44.7978 38.0719 44.8717 38.0574 44.9622 38.0138L45.0422 37.9522C45.2034 37.8475 45.371 37.836 45.545 37.9176C45.6407 37.9485 45.7363 37.9793 45.832 38.0102C45.9463 38.0397 46.0439 38.0985 46.1248 38.1865C46.2378 38.1975 46.3181 38.2761 46.3655 38.4226L46.6553 38.964C46.8261 39.2703 46.9788 39.5873 47.1136 39.9148C47.2483 40.2423 47.3471 40.591 47.41 40.9609C47.4376 41.09 47.4658 41.2284 47.4946 41.3761C47.5408 41.5039 47.5784 41.6417 47.6072 41.7894L47.6226 42.0128C47.629 42.106 47.6428 42.1705 47.664 42.2065C47.6915 42.3355 47.7104 42.4746 47.7207 42.6236C47.7495 42.7713 47.7691 42.9196 47.7793 43.0686L47.7832 43.1244C47.8082 43.2163 47.8685 43.2776 47.9642 43.3085C48.0213 43.3233 48.0785 43.338 48.1356 43.3528C48.1915 43.349 48.2474 43.3451 48.3032 43.3413C48.3951 43.3163 48.4696 43.3112 48.5267 43.326C48.6012 43.3208 48.6757 43.3157 48.7502 43.3106C48.8805 43.3016 49.0016 43.2933 49.1133 43.2857C49.2238 43.2594 49.3442 43.2417 49.4746 43.2328L49.8098 43.2097C49.8656 43.2059 49.9221 43.2114 49.9793 43.2262C50.0538 43.221 50.1183 43.2072 50.1729 43.1848C50.2102 43.1822 50.2381 43.1803 50.2567 43.179C50.2927 43.1578 50.32 43.1466 50.3386 43.1453C50.5261 43.1512 50.713 43.1477 50.8992 43.1349C51.0841 43.1035 51.2697 43.0814 51.456 43.0686C51.6435 43.0744 51.8303 43.0709 52.0166 43.0581C52.2015 43.0267 52.3871 43.0046 52.5733 42.9918C52.7223 42.9816 52.8626 42.9813 52.9943 42.9909C53.1432 42.9807 53.2829 42.9711 53.4133 42.9622C53.5436 42.9532 53.605 42.8929 53.5973 42.7811C53.5909 42.688 53.5839 42.5856 53.5762 42.4738C53.5685 42.3621 53.5522 42.2603 53.5271 42.1685C53.4944 41.9649 53.463 41.78 53.4329 41.6136C53.4201 41.4274 53.398 41.2418 53.3666 41.0569C53.33 40.7974 53.3035 40.5467 53.2868 40.3046C53.2875 40.0426 53.2609 39.7918 53.2071 39.5523C53.1744 39.3487 53.1417 39.1451 53.109 38.9416C53.0949 38.7367 53.0628 38.5425 53.0128 38.3588L52.9859 37.9677C52.9808 37.8932 52.9863 37.8367 53.0024 37.7982C52.9998 37.7609 52.9979 37.733 52.9966 37.7144C53.0127 37.6759 53.02 37.6473 53.0188 37.6287C53.0124 37.5355 52.9899 37.481 52.9514 37.4649L52.8637 37.4148C52.7469 37.348 52.7225 37.2654 52.7906 37.1672C52.8414 37.0889 52.8449 37.0044 52.8013 36.9139C52.7974 36.858 52.8042 36.8201 52.8215 36.8002C52.8549 36.7418 52.8883 36.6834 52.9217 36.6249C52.9552 36.5665 52.9786 36.4994 52.9921 36.4237C53.0339 36.215 53.1113 36.1161 53.2243 36.127C53.3547 36.1181 53.4398 36.1309 53.4796 36.1656C53.4995 36.183 53.5187 36.191 53.5374 36.1897C53.5547 36.1698 53.5627 36.1506 53.5615 36.1319C53.5538 36.0202 53.6052 35.9512 53.7156 35.9249C53.8261 35.8986 53.9086 35.8742 53.9632 35.8517L54.1231 35.7285L54.2069 35.7227C54.3026 35.7536 54.3803 35.795 54.44 35.8471C54.517 35.8792 54.5941 35.9113 54.6711 35.9434C54.7097 35.9595 54.7588 35.9935 54.8185 36.0456C54.9604 36.2042 55.0682 36.412 55.142 36.6689C55.192 36.8525 55.2414 37.0269 55.2902 37.1919C55.3389 37.357 55.379 37.532 55.4104 37.7169C55.413 37.7542 55.4156 37.7914 55.4181 37.8287C55.4393 37.8646 55.4512 37.9012 55.4537 37.9385L55.4951 38.1321C55.5105 38.3556 55.5351 38.5784 55.5691 38.8006C55.6204 39.0029 55.6631 39.2151 55.697 39.4373C55.7169 39.4547 55.7288 39.4913 55.7327 39.5472C55.723 39.6788 55.7226 39.8098 55.7316 39.9401C55.7579 40.0506 55.7855 40.1797 55.8143 40.3274C55.8419 40.4565 55.8615 40.6048 55.873 40.7724C55.9018 40.9201 55.9214 41.0685 55.9316 41.2174C55.938 41.3106 55.945 41.413 55.9527 41.5247C55.979 41.6352 56.0047 41.7363 56.0297 41.8282C56.0547 41.92 56.0704 42.0125 56.0768 42.1056C56.0832 42.1987 56.0896 42.2918 56.096 42.3849C56.1024 42.478 56.1088 42.5711 56.1152 42.6643C56.139 42.7375 56.1633 42.82 56.1884 42.9118L56.196 43.0236C56.23 43.2458 56.264 43.468 56.298 43.6901C56.3493 43.8924 56.3919 44.1047 56.4259 44.3269C56.4458 44.3442 56.4577 44.3808 56.4615 44.4367C56.4756 44.6415 56.5089 44.8544 56.5615 45.0753C56.6128 45.2776 56.6549 45.4806 56.6875 45.6841L56.8385 46.6561C56.8398 46.6747 56.8424 46.7119 56.8462 46.7678C56.8674 46.8038 56.8793 46.8404 56.8818 46.8776C56.903 46.9136 56.9174 46.9874 56.9251 47.0992C56.9366 47.2668 56.9574 47.4337 56.9876 47.6001C57.0363 47.7651 57.0758 47.9308 57.1059 48.0971C57.156 48.2808 57.1967 48.4651 57.2281 48.6501C57.2595 48.835 57.3009 49.0286 57.3522 49.2309C57.4048 49.4518 57.4667 49.6721 57.538 49.8917C57.6092 50.1114 57.6711 50.3316 57.7237 50.5526C57.7474 50.6258 57.7625 50.7089 57.7689 50.8021C57.7926 50.8753 57.8077 50.9584 57.8141 51.0515C57.8205 51.1447 57.799 51.2397 57.7495 51.3366C57.7321 51.3565 57.7161 51.3951 57.7013 51.4522C57.7039 51.4895 57.6878 51.528 57.6531 51.5678C57.6358 51.5877 57.6277 51.607 57.629 51.6256C57.6303 51.6442 57.6216 51.6541 57.603 51.6554C57.5298 51.6792 57.4678 51.7302 57.417 51.8085C57.3663 51.8869 57.305 51.9472 57.233 51.9896C57.1637 52.0692 57.0651 52.1321 56.9373 52.1783L56.7196 52.2774ZM66.5872 51.4872C66.3997 51.4814 66.2116 51.4663 66.0228 51.4418C65.8539 51.4347 65.6831 51.3997 65.5104 51.3367L64.7948 51.1333C64.5463 51.0568 64.3158 50.9697 64.1032 50.872C63.8894 50.7558 63.6756 50.6395 63.4618 50.5232C63.3623 50.4365 63.2634 50.3591 63.1652 50.291C63.0657 50.2043 62.9668 50.1268 62.8686 50.0588C62.7094 49.92 62.5502 49.7813 62.3909 49.6425C62.2304 49.4851 62.0786 49.3178 61.9355 49.1406L61.194 48.153C61.0085 47.9038 60.841 47.6441 60.6914 47.3737C60.5406 47.0847 60.4084 46.7944 60.2948 46.5028C60.0516 45.9582 59.9114 45.4159 59.8743 44.8758L59.8436 44.4289C59.8116 43.9633 59.8082 43.5051 59.8333 43.0543C59.845 42.6793 59.9058 42.3383 60.0157 42.0314C60.0774 41.8401 60.1297 41.6494 60.1728 41.4593C60.2159 41.2692 60.2689 41.0878 60.3319 40.9151L60.4023 40.7138C60.4229 40.4692 60.492 40.2492 60.6095 40.0541C60.7258 39.8403 60.8241 39.637 60.9044 39.4444C60.9687 39.2903 61.0435 39.1542 61.129 39.0361C61.2131 38.8993 61.288 38.7632 61.3535 38.6277C61.3869 38.5693 61.4303 38.5195 61.4836 38.4784C61.5356 38.4187 61.5783 38.3597 61.6117 38.3012C61.6464 38.2614 61.6712 38.213 61.6859 38.1558C61.7181 38.0788 61.7415 38.0117 61.7563 37.9545C61.7897 37.8961 61.8498 37.8171 61.9365 37.7176C62.0444 37.6541 62.1379 37.5167 62.2169 37.3054C62.249 37.2284 62.2824 37.1699 62.3171 37.1301C62.4225 37.0294 62.5079 36.9112 62.5734 36.7757C62.6576 36.639 62.7517 36.5109 62.8558 36.3915C62.9251 36.3119 62.9553 36.2069 62.9464 36.0765C62.94 35.9834 62.9342 35.8996 62.9291 35.8251C62.9413 35.7307 62.9356 35.6469 62.9118 35.5737C62.8868 35.4819 62.909 35.3962 62.9784 35.3166C63.0131 35.2768 63.0378 35.2283 63.0526 35.1711C63.0674 35.114 63.0821 35.0568 63.0969 34.9997C63.14 34.8096 63.2781 34.6411 63.5112 34.4941C63.5459 34.4543 63.5912 34.4325 63.6471 34.4286C63.7203 34.4049 63.7842 34.3818 63.8388 34.3593C63.9653 34.2945 64.1136 34.275 64.2838 34.3007C64.3596 34.3142 64.4254 34.319 64.4813 34.3152C64.5359 34.2927 64.5904 34.2703 64.645 34.2478C64.717 34.2054 64.7802 34.173 64.8348 34.1506C64.908 34.1268 64.9719 34.1037 65.0265 34.0813C65.2808 33.9702 65.5515 33.961 65.8385 34.0535C66.1442 34.1448 66.3718 34.3256 66.5213 34.596C66.565 34.6866 66.6086 34.7771 66.6522 34.8677C66.6959 34.9582 66.7302 35.0494 66.7552 35.1413C66.8066 35.3436 66.8094 35.5211 66.7638 35.6739C66.7316 35.751 66.7162 35.7988 66.7175 35.8174C66.704 35.8932 66.7271 35.9571 66.7868 36.0091C66.8279 36.0625 66.8776 36.1058 66.9361 36.1392C67.1537 36.3114 67.362 36.4842 67.5611 36.6576C67.7588 36.8124 67.9485 36.9865 68.1302 37.1798C68.2894 37.3186 68.4213 37.4685 68.526 37.6297C68.6479 37.7711 68.7619 37.9316 68.8678 38.1114C68.9114 38.202 68.965 38.3012 69.0286 38.4091C69.0908 38.4984 69.1531 38.5877 69.2154 38.677C69.32 38.8382 69.4066 39.01 69.4753 39.1923C69.5626 39.3735 69.6499 39.5546 69.7372 39.7357L69.7391 39.7636C69.7853 39.8914 69.8228 40.0292 69.8517 40.1769C69.8979 40.3047 69.9633 40.4405 70.0481 40.5844C70.1129 40.7109 70.169 40.8474 70.2165 40.9938C70.2627 41.1216 70.3096 41.2587 70.3571 41.4051C70.4058 41.5702 70.4546 41.7352 70.5033 41.9003C70.5707 42.064 70.6195 42.2291 70.6496 42.3954C70.6734 42.4686 70.6971 42.5418 70.7208 42.615C70.7433 42.6696 70.7664 42.7335 70.7901 42.8067C70.8389 42.9718 70.8877 43.1368 70.9364 43.3019C70.9852 43.4669 71.0246 43.6326 71.0548 43.7989L71.152 43.9887C71.1969 44.0979 71.2444 44.2443 71.2945 44.428C71.367 44.6662 71.4115 44.9064 71.4282 45.1485C71.4634 45.3893 71.4807 45.6407 71.48 45.9027C71.4889 46.0331 71.4867 46.1361 71.4732 46.2119C71.3883 46.6107 71.2761 47.0207 71.1367 47.4419C71.0711 47.5774 71.0056 47.7128 70.9401 47.8483C70.8732 47.9652 70.8071 48.0913 70.7415 48.2268L70.517 48.6352C70.4354 48.8092 70.3432 48.9652 70.2404 49.1032C70.0747 49.414 69.8691 49.69 69.6238 49.9314C69.3784 50.1728 69.1138 50.4062 68.8299 50.6315C68.2126 51.1791 67.4651 51.4643 66.5872 51.4872ZM66.2855 48.7294C66.6766 48.7025 67.0041 48.5678 67.2681 48.3251C67.3548 48.2256 67.4422 48.1354 67.5302 48.0545C67.6355 47.9537 67.7222 47.8542 67.7903 47.756C68.1173 47.3406 68.3685 46.9117 68.5439 46.4693L68.6085 46.1842C68.6227 45.8464 68.5997 45.5112 68.5394 45.1786L68.3085 44.2683C68.236 44.03 68.1734 43.8004 68.1208 43.5795C68.067 43.34 67.9951 43.111 67.9052 42.8927C67.8404 42.7661 67.8148 42.665 67.8283 42.5892C67.8405 42.4948 67.8341 42.4017 67.8091 42.3099C67.7841 42.2181 67.7497 42.1269 67.7061 42.0363C67.6336 41.798 67.5518 41.5604 67.4606 41.3235C67.3695 41.0865 67.2784 40.8495 67.1873 40.6125C67.1648 40.5579 67.1423 40.5033 67.1199 40.4488C67.0974 40.3942 67.075 40.3396 67.0525 40.285C66.9042 40.0332 66.7473 39.7914 66.5817 39.5596C66.4161 39.3277 66.2331 39.1157 66.0328 38.9237C65.932 38.8183 65.8225 38.723 65.7044 38.6375C65.585 38.5335 65.4662 38.4387 65.3481 38.3533C65.3269 38.3173 65.2977 38.3006 65.2604 38.3032C65.2405 38.2858 65.2113 38.2691 65.1728 38.253C65.1118 38.1824 65.038 38.1968 64.9513 38.2963C64.8645 38.3958 64.7692 38.5053 64.6651 38.6247C64.5797 38.7429 64.4942 38.861 64.4088 38.9791C64.3246 39.1159 64.2312 39.2533 64.1284 39.3913C64.0442 39.5281 63.9601 39.6648 63.8759 39.8016C63.7571 39.9781 63.6475 40.1541 63.5473 40.3293C63.4471 40.5046 63.3469 40.6799 63.2466 40.8552C62.8991 41.5152 62.6398 42.2347 62.4688 43.0136C62.4392 43.1279 62.4263 43.213 62.4302 43.2688C62.4205 43.4005 62.4108 43.5321 62.4012 43.6638C62.4101 43.7941 62.4197 43.9338 62.4299 44.0828L62.4453 44.3062C62.4678 44.3608 62.4809 44.4161 62.4847 44.4719C62.4886 44.5278 62.5017 44.583 62.5242 44.6376C62.5396 44.8611 62.6121 45.0993 62.7417 45.3524C62.9163 45.7146 63.1088 46.0662 63.3194 46.4073C63.5299 46.7483 63.7671 47.0688 64.0309 47.3688C64.0919 47.4394 64.1529 47.5101 64.2139 47.5807C64.2935 47.6501 64.3638 47.7201 64.4248 47.7908C64.6052 47.9655 64.7936 48.1209 64.9901 48.2571C65.2052 48.392 65.419 48.5083 65.6315 48.606C65.8627 48.7023 66.0807 48.7435 66.2855 48.7294ZM79.5723 50.5951C79.3848 50.5893 79.1966 50.5741 79.0078 50.5497C78.8389 50.5426 78.6681 50.5075 78.4954 50.4445L77.7798 50.2411C77.5313 50.1646 77.3008 50.0776 77.0883 49.9799C76.8744 49.8636 76.6606 49.7473 76.4468 49.631C76.3473 49.5443 76.2485 49.4669 76.1502 49.3988C76.0507 49.3121 75.9518 49.2347 75.8536 49.1666C75.6944 49.0279 75.5352 48.8891 75.376 48.7504C75.2155 48.593 75.0636 48.4257 74.9205 48.2484L74.179 47.2609C73.9935 47.0117 73.826 46.7519 73.6764 46.4815C73.5256 46.1925 73.3934 45.9022 73.2798 45.6107C73.0366 45.0661 72.8964 44.5237 72.8593 43.9837L72.8286 43.5367C72.7966 43.0712 72.7932 42.613 72.8184 42.1622C72.83 41.7872 72.8908 41.4462 73.0007 41.1393C73.0624 40.9479 73.1148 40.7572 73.1578 40.5672C73.2009 40.3771 73.2539 40.1957 73.3169 40.023L73.3873 39.8217C73.4079 39.577 73.477 39.3571 73.5945 39.1619C73.7108 38.9481 73.8091 38.7449 73.8894 38.5523C73.9537 38.3982 74.0285 38.2621 74.114 38.1439C74.1981 38.0072 74.273 37.8711 74.3385 37.7356C74.3719 37.6772 74.4153 37.6274 74.4686 37.5863C74.5206 37.5266 74.5633 37.4675 74.5968 37.4091C74.6314 37.3693 74.6562 37.3208 74.671 37.2637C74.7031 37.1866 74.7265 37.1195 74.7413 37.0624C74.7747 37.004 74.8348 36.925 74.9215 36.8255C75.0294 36.7619 75.1229 36.6245 75.2019 36.4133C75.234 36.3362 75.2675 36.2778 75.3021 36.238C75.4075 36.1372 75.4929 36.0191 75.5584 35.8836C75.6426 35.7469 75.7367 35.6188 75.8408 35.4994C75.9101 35.4197 75.9404 35.3148 75.9314 35.1844C75.925 35.0913 75.9192 35.0075 75.9141 34.933C75.9264 34.8386 75.9206 34.7548 75.8969 34.6816C75.8718 34.5898 75.894 34.504 75.9634 34.4244C75.9981 34.3846 76.0228 34.3361 76.0376 34.279C76.0524 34.2218 76.0672 34.1647 76.0819 34.1075C76.125 33.9175 76.2631 33.749 76.4963 33.602C76.531 33.5622 76.5762 33.5403 76.6321 33.5365C76.7053 33.5128 76.7692 33.4897 76.8238 33.4672C76.9503 33.4024 77.0987 33.3828 77.2688 33.4086C77.3446 33.4221 77.4104 33.4269 77.4663 33.4231C77.5209 33.4006 77.5755 33.3781 77.63 33.3557C77.702 33.3133 77.7652 33.2809 77.8198 33.2584C77.893 33.2347 77.9569 33.2116 78.0115 33.1891C78.2659 33.0781 78.5365 33.0689 78.8235 33.1614C79.1292 33.2527 79.3568 33.4335 79.5063 33.7039C79.55 33.7944 79.5936 33.885 79.6373 33.9755C79.6809 34.0661 79.7152 34.1573 79.7403 34.2491C79.7916 34.4514 79.7944 34.629 79.7488 34.7818C79.7167 34.8588 79.7012 34.9067 79.7025 34.9253C79.689 35.0011 79.7121 35.065 79.7718 35.117C79.8129 35.1703 79.8627 35.2137 79.9211 35.2471C80.1387 35.4192 80.3471 35.592 80.5461 35.7655C80.7438 35.9203 80.9335 36.0943 81.1152 36.2877C81.2744 36.4264 81.4064 36.5764 81.511 36.7376C81.633 36.8789 81.7469 37.0395 81.8528 37.2193C81.8964 37.3099 81.95 37.4091 82.0136 37.517C82.0759 37.6063 82.1381 37.6955 82.2004 37.7848C82.305 37.946 82.3917 38.1178 82.4603 38.3002C82.5476 38.4813 82.6349 38.6624 82.7222 38.8435L82.7241 38.8715C82.7703 38.9993 82.8078 39.137 82.8367 39.2847C82.8829 39.4125 82.9484 39.5484 83.0331 39.6922C83.0979 39.8188 83.1541 39.9552 83.2015 40.1016C83.2477 40.2294 83.2946 40.3666 83.3421 40.513C83.3908 40.678 83.4396 40.8431 83.4884 41.0081C83.5557 41.1719 83.6045 41.3369 83.6346 41.5033C83.6584 41.5765 83.6821 41.6497 83.7059 41.7229C83.7283 41.7775 83.7514 41.8414 83.7752 41.9146C83.8239 42.0796 83.8727 42.2447 83.9214 42.4097C83.9702 42.5748 84.0097 42.7405 84.0398 42.9068L84.137 43.0966C84.1819 43.2057 84.2294 43.3522 84.2795 43.5358C84.352 43.7741 84.3965 44.0143 84.4132 44.2564C84.4484 44.4972 84.4657 44.7486 84.465 45.0106C84.4739 45.141 84.4717 45.244 84.4582 45.3198C84.3733 45.7185 84.2611 46.1285 84.1217 46.5497C84.0561 46.6852 83.9906 46.8207 83.9251 46.9562C83.8583 47.073 83.7921 47.1992 83.7266 47.3347L83.502 47.743C83.4204 47.917 83.3282 48.073 83.2254 48.2111C83.0597 48.5218 82.8541 48.7979 82.6088 49.0393C82.3634 49.2807 82.0988 49.514 81.8149 49.7394C81.1976 50.287 80.4501 50.5722 79.5723 50.5951ZM79.2705 47.8373C79.6616 47.8104 79.9891 47.6756 80.2531 47.433C80.3398 47.3335 80.4272 47.2433 80.5152 47.1624C80.6205 47.0616 80.7072 46.9621 80.7753 46.8639C81.1023 46.4485 81.3535 46.0196 81.5289 45.5772L81.5935 45.2921C81.6077 44.9543 81.5847 44.6191 81.5244 44.2864L81.2935 43.3761C81.221 43.1379 81.1584 42.9083 81.1058 42.6874C81.052 42.4478 80.9801 42.2189 80.8903 42.0005C80.8254 41.874 80.7998 41.7729 80.8133 41.6971C80.8255 41.6027 80.8191 41.5096 80.7941 41.4178C80.7691 41.3259 80.7347 41.2347 80.6911 41.1442C80.6186 40.9059 80.5368 40.6683 80.4457 40.4313C80.3545 40.1943 80.2634 39.9574 80.1723 39.7204C80.1498 39.6658 80.1274 39.6112 80.1049 39.5566C80.0824 39.502 80.06 39.4474 80.0375 39.3929C79.8892 39.1411 79.7323 38.8993 79.5667 38.6674C79.4011 38.4356 79.2181 38.2236 79.0178 38.0315C78.917 37.9262 78.8076 37.8308 78.6894 37.7454C78.57 37.6413 78.4512 37.5466 78.3331 37.4611C78.3119 37.4252 78.2827 37.4085 78.2455 37.411C78.2256 37.3937 78.1963 37.377 78.1578 37.3609C78.0968 37.2903 78.023 37.3047 77.9363 37.4042C77.8496 37.5037 77.7542 37.6132 77.6501 37.7326C77.5647 37.8507 77.4792 37.9689 77.3938 38.087C77.3096 38.2237 77.2162 38.3611 77.1134 38.4992C77.0292 38.6359 76.9451 38.7727 76.8609 38.9094C76.7421 39.086 76.6325 39.2619 76.5323 39.4372C76.4321 39.6125 76.3319 39.7878 76.2317 39.9631C75.8841 40.6231 75.6248 41.3426 75.4538 42.1215C75.4242 42.2358 75.4113 42.3208 75.4152 42.3767C75.4055 42.5083 75.3958 42.64 75.3862 42.7716C75.3951 42.902 75.4047 43.0416 75.415 43.1906L75.4303 43.4141C75.4528 43.4687 75.4659 43.5239 75.4698 43.5798C75.4736 43.6357 75.4868 43.6909 75.5092 43.7455C75.5246 43.9689 75.5971 44.2072 75.7267 44.4602C75.9013 44.8225 76.0938 45.1741 76.3044 45.5151C76.5149 45.8562 76.7521 46.1767 77.016 46.4766C77.0769 46.5473 77.1379 46.6179 77.1989 46.6886C77.2785 46.758 77.3488 46.828 77.4098 46.8986C77.5902 47.0733 77.7786 47.2288 77.9751 47.365C78.1902 47.4999 78.404 47.6162 78.6165 47.7138C78.8477 47.8102 79.0657 47.8514 79.2705 47.8373ZM91.419 50.5951L90.9383 50.5439C90.6937 50.5233 90.4397 50.5033 90.1764 50.484C89.9318 50.4634 89.6784 50.4527 89.4165 50.452C89.1557 50.4699 88.8899 50.4133 88.6189 50.2823C88.3679 50.1685 88.1862 49.9752 88.0739 49.7023C88.0489 49.6104 88.0146 49.5192 87.9709 49.4287C87.9459 49.3368 87.9209 49.245 87.8958 49.1532C87.8805 48.9297 87.9155 48.7589 88.001 48.6408C88.0877 48.5412 88.1558 48.443 88.2053 48.3461C88.2733 48.2478 88.3421 48.1589 88.4115 48.0793C88.4461 48.0395 88.4815 48.009 88.5174 47.9878C88.5534 47.9666 88.5894 47.9455 88.6253 47.9243C88.7146 47.862 88.8052 47.8184 88.897 47.7934C88.9876 47.7497 89.0787 47.7154 89.1706 47.6904C89.2065 47.6692 89.2345 47.6673 89.2544 47.6846C89.2916 47.682 89.3196 47.6801 89.3382 47.6788C89.4326 47.6911 89.5363 47.7027 89.6493 47.7136C89.761 47.7059 89.8647 47.7175 89.9604 47.7484L91.1452 47.8354C91.4084 47.8547 91.6387 47.8014 91.8358 47.6756C91.9078 47.6333 91.9704 47.5915 92.0237 47.5505C92.0956 47.5081 92.1583 47.4664 92.2116 47.4253C92.6046 47.155 92.9412 46.8793 93.2212 46.5981C93.4306 46.3779 93.6307 46.1584 93.8215 45.9394C94.0123 45.7205 94.1832 45.4843 94.3341 45.2306C94.453 45.0541 94.5253 44.8807 94.551 44.7106C94.5754 44.5218 94.572 44.3349 94.5405 44.15L94.4414 43.9322C94.4164 43.8404 94.374 43.7685 94.3143 43.7164C94.2546 43.6644 94.1942 43.6031 94.1333 43.5324C94.0151 43.447 93.8963 43.3522 93.7769 43.2482C93.6761 43.1428 93.5673 43.0568 93.4505 42.9899C93.1558 42.7857 92.8617 42.5907 92.5683 42.405C92.2935 42.2181 92.0094 42.0318 91.716 41.8461C91.6948 41.8102 91.6364 41.7768 91.5407 41.7459C91.3654 41.6457 91.1895 41.5362 91.0129 41.4173C90.8537 41.2786 90.6951 41.1491 90.5372 41.029C90.3382 40.8556 90.1212 40.6927 89.8862 40.5405C89.7706 40.4923 89.6618 40.4062 89.5597 40.2823C89.4788 40.1943 89.3607 40.1088 89.2053 40.026C89.0698 39.9604 88.943 39.8849 88.8249 39.7995C88.7055 39.6954 88.5867 39.6007 88.4686 39.5152L88.0824 39.205C88.0015 39.117 87.912 39.0389 87.8137 38.9709C87.7328 38.8829 87.6426 38.7955 87.5431 38.7088C87.4995 38.6182 87.4385 38.5476 87.3602 38.4968C87.3005 38.4448 87.2401 38.3835 87.1791 38.3128C87.1579 38.2768 87.1275 38.2415 87.0876 38.2068C87.0466 38.1535 87.0148 38.0996 86.9923 38.045C86.8652 37.8292 86.7288 37.614 86.5831 37.3995C86.456 37.1837 86.3376 36.958 86.2279 36.7223C86.1618 36.5771 86.0963 36.4413 86.0315 36.3148C85.984 36.1683 85.9372 36.0312 85.891 35.9034C85.8621 35.7557 85.8159 35.6279 85.7523 35.52C85.7061 35.3922 85.6599 35.2644 85.6137 35.1366C85.5624 34.9343 85.5024 34.742 85.4338 34.5596C85.3824 34.3573 85.3318 34.1643 85.2817 33.9807L85.2105 33.761C85.1778 33.5575 85.1644 33.3619 85.1702 33.1744C85.1895 32.9111 85.2294 32.6745 85.2898 32.4645C85.349 32.236 85.4579 32.0507 85.6165 31.9088C85.7925 31.7471 85.9685 31.5853 86.1445 31.4235C86.3205 31.2617 86.5077 31.1273 86.7061 31.0201C86.7434 31.0175 86.7707 31.0063 86.788 30.9864C86.964 30.8246 87.1618 30.7081 87.3815 30.6369C87.5998 30.547 87.8188 30.4665 88.0385 30.3953C88.9144 30.0731 89.8228 29.8143 90.7636 29.6187L91.043 29.5995C91.2292 29.5867 91.4061 29.5745 91.5737 29.563C91.7413 29.5515 91.9176 29.53 92.1026 29.4986C92.326 29.4833 92.5514 29.4958 92.7787 29.5363C93.0048 29.5582 93.2234 29.6087 93.4347 29.6877C93.5888 29.752 93.7435 29.8256 93.8989 29.9084C94.053 29.9727 94.1984 30.0469 94.3352 30.1311C94.4918 30.2326 94.5932 30.3472 94.6394 30.475L94.7367 30.6648C94.8413 30.826 94.9 30.9997 94.9128 31.1859C94.943 31.3523 94.9458 31.5298 94.9213 31.7186C94.9252 31.7745 94.9204 31.8403 94.9069 31.9161C94.9107 31.9719 94.9145 32.0278 94.9184 32.0837C94.8906 32.4972 94.7169 32.8272 94.397 33.0737C94.2049 33.274 93.94 33.3671 93.6023 33.3529C93.5252 33.3207 93.4892 33.3419 93.4944 33.4164C93.4995 33.4909 93.4555 33.5314 93.3624 33.5378L93.1948 33.5493C93.083 33.5569 92.9675 33.5088 92.848 33.4047C92.7485 33.318 92.6969 33.2467 92.693 33.1908C92.6879 33.1163 92.7213 33.0579 92.7932 33.0155C92.7496 32.925 92.7066 32.8437 92.6642 32.7718C92.6219 32.6999 92.5808 32.6466 92.541 32.6119C92.4787 32.5226 92.3904 32.4632 92.2761 32.4336C92.1817 32.4214 92.0873 32.4092 91.993 32.3969C91.8986 32.3847 91.8042 32.3725 91.7098 32.3603C91.6353 32.3654 91.5515 32.3711 91.4584 32.3775C91.364 32.3653 91.2696 32.3531 91.1752 32.3409C91.118 32.3261 91.0349 32.3411 90.9257 32.3861C90.8711 32.4085 90.8165 32.431 90.7619 32.4534C90.7061 32.4573 90.6402 32.4524 90.5645 32.4389C90.5086 32.4428 90.4434 32.4473 90.3689 32.4524C90.3131 32.4562 90.2492 32.4793 90.1772 32.5217L89.6522 32.6419C89.3581 32.7183 89.0771 32.8499 88.8093 33.0367C88.7547 33.0591 88.7001 33.0816 88.6456 33.104C88.591 33.1265 88.5351 33.1303 88.4779 33.1156C88.3649 33.1046 88.2737 33.1389 88.2044 33.2185C88.1883 33.2571 88.1437 33.2882 88.0704 33.3119C88.0146 33.3158 87.9693 33.3376 87.9346 33.3774C87.8652 33.457 87.8331 33.5341 87.8382 33.6086C87.8594 33.6445 87.8726 33.6998 87.8777 33.7742L88.5814 35.4379C88.7136 35.7282 88.8724 35.998 89.058 36.2472C89.2608 36.4765 89.473 36.7051 89.6945 36.9331C90.0367 37.2839 90.3843 37.578 90.7374 37.8157L91.6831 38.5085C91.8809 38.6634 92.0873 38.8082 92.3024 38.9431C92.5175 39.078 92.7232 39.2136 92.9197 39.3498C93.2131 39.5354 93.5072 39.7304 93.8019 39.9347C94.0953 40.1203 94.3893 40.3153 94.684 40.5196C94.9203 40.6905 95.1473 40.862 95.3649 41.0341C95.5999 41.1864 95.8175 41.3585 96.0178 41.5506C96.1584 41.6906 96.299 41.8306 96.4396 41.9707C96.5802 42.1107 96.7035 42.2706 96.8094 42.4504C96.9538 42.6463 97.0822 42.8808 97.1945 43.1537C97.3305 43.4999 97.4001 43.8319 97.4033 44.1497C97.3872 44.1883 97.3817 44.2448 97.3868 44.3193C97.4022 44.5427 97.389 44.7588 97.3472 44.9675C97.3227 45.1563 97.271 45.3563 97.1919 45.5676C97.1116 45.7602 97.0226 45.9628 96.925 46.1753C96.8447 46.3679 96.7457 46.5618 96.6281 46.757C96.4585 47.0119 96.279 47.2581 96.0895 47.4957C95.9174 47.7133 95.7173 47.9329 95.4892 48.1543C95.3666 48.275 95.2445 48.405 95.1231 48.5444C95.0004 48.6651 94.8678 48.7771 94.7252 48.8804C94.6372 48.9613 94.5486 49.0329 94.4593 49.0952C94.3713 49.176 94.2833 49.2569 94.1953 49.3378C94.1234 49.3802 94.0521 49.4319 93.9814 49.4928C93.9108 49.5538 93.8401 49.6148 93.7695 49.6758C93.7001 49.7554 93.6108 49.8177 93.5017 49.8626C93.4124 49.9249 93.3225 49.9778 93.2319 50.0215L92.4449 50.4123C92.2811 50.4797 92.116 50.5285 91.9497 50.5586C91.7834 50.5887 91.6065 50.6009 91.419 50.5951ZM102.508 48.6545C102.396 48.6621 102.321 48.6579 102.282 48.6419C102.187 48.611 102.092 48.5988 101.999 48.6052C101.926 48.6289 101.843 48.644 101.75 48.6504C101.731 48.6517 101.712 48.653 101.694 48.6542C101.676 48.6741 101.658 48.6847 101.64 48.686C101.511 48.7136 101.381 48.7319 101.251 48.7408C101.139 48.7485 101.026 48.7376 100.912 48.708C100.892 48.6906 100.872 48.6826 100.854 48.6839C100.725 48.7115 100.61 48.6819 100.511 48.5952C100.411 48.5085 100.313 48.4311 100.214 48.363C100.115 48.2763 100.061 48.177 100.053 48.0653L99.9543 47.8476C99.8895 47.7211 99.8626 47.6013 99.8735 47.4883C99.8896 47.4497 99.887 47.4125 99.8658 47.3765C99.8633 47.3393 99.8607 47.302 99.8582 47.2648C99.837 47.2288 99.8251 47.1922 99.8226 47.155C99.8187 47.0991 99.8062 47.0532 99.785 47.0172C99.7363 46.8522 99.6968 46.6865 99.6667 46.5202C99.6539 46.3339 99.651 46.1564 99.6582 45.9875C99.6691 45.8745 99.7215 45.6838 99.8153 45.4154C99.9078 45.1284 99.9615 44.9563 99.9763 44.8991C100.026 44.8022 100.049 44.7258 100.045 44.6699C100.012 44.4663 99.9887 44.2621 99.9746 44.0573C99.9779 43.8325 99.9725 43.6177 99.9584 43.4129C99.9494 43.2825 99.9703 43.1782 100.021 43.0998C100.087 42.9644 100.086 42.824 100.02 42.6789L99.9153 42.3774C99.7895 42.1802 99.7867 42.0027 99.9068 41.8447C99.9055 41.8261 99.9049 41.8168 99.9049 41.8168C99.9222 41.7969 99.9302 41.7776 99.929 41.759C99.9636 41.7192 99.9698 41.672 99.9473 41.6174C99.9235 41.5442 99.9104 41.489 99.9078 41.4517C99.9027 41.3772 99.9069 41.3021 99.9204 41.2263C99.9513 41.1307 99.9548 41.0462 99.9311 40.973C99.9311 40.973 99.9112 40.9557 99.8714 40.921C99.8502 40.885 99.8358 40.8112 99.8281 40.6994C99.839 40.5864 99.8439 40.5206 99.8426 40.502L99.7888 39.7198C99.8011 39.6254 99.8046 39.541 99.7995 39.4665C99.7931 39.3734 99.796 39.2796 99.8083 39.1852C99.8192 39.0722 99.8115 38.9605 99.7852 38.85C99.7763 38.7196 99.7673 38.5893 99.7584 38.4589C99.7333 38.3671 99.7077 38.2659 99.6814 38.1555C99.6737 38.0438 99.666 37.932 99.6583 37.8203C99.6372 37.7843 99.6247 37.7384 99.6208 37.6825C99.617 37.6267 99.6138 37.5801 99.6112 37.5429C99.5862 37.451 99.5612 37.3592 99.5362 37.2674C99.5298 37.1742 99.5234 37.0811 99.517 36.988C99.5144 36.9508 99.4688 36.8323 99.3803 36.6325C99.2904 36.4142 99.2497 36.2299 99.2581 36.0796C99.2742 36.0411 99.2803 35.9939 99.2764 35.938C99.2726 35.8822 99.2508 35.8369 99.211 35.8022C99.1724 35.7861 99.1513 35.7502 99.1474 35.6943L99.1417 35.6105C99.1822 35.3832 99.1389 35.1616 99.0118 34.9458C98.9296 34.8392 98.894 34.7294 98.905 34.6164C98.8947 34.4674 98.8219 34.3601 98.6864 34.2946C98.5869 34.2079 98.4954 34.1019 98.412 33.9767C98.3285 33.8514 98.273 33.7243 98.2454 33.5952C98.2204 33.5034 98.2047 33.4109 98.1983 33.3178C98.1919 33.2247 98.1861 33.1408 98.181 33.0664C98.1759 32.9919 98.182 32.9447 98.1994 32.9248C98.2687 32.8452 98.3002 32.7588 98.2938 32.6657C98.2861 32.5539 98.2897 32.4695 98.3045 32.4124C98.3218 32.3925 98.3398 32.3819 98.3584 32.3806C98.3771 32.3793 98.395 32.3687 98.4124 32.3488C98.4856 32.3251 98.5184 32.2573 98.5107 32.1456C98.4683 32.0737 98.4452 32.0098 98.4414 31.9539C98.4176 31.8807 98.4411 31.8136 98.5117 31.7526C98.5439 31.6755 98.5892 31.6537 98.6476 31.6871C98.7818 31.734 98.9295 31.7052 99.0907 31.6006C99.1626 31.5582 99.2079 31.5364 99.2265 31.5351C99.2824 31.5313 99.3103 31.5293 99.3103 31.5293C99.3277 31.5094 99.3829 31.4963 99.476 31.4899C99.589 31.5008 99.6889 31.4566 99.7756 31.357C99.897 31.2177 100.051 31.1417 100.237 31.1289L101.969 31.0099C102.399 30.9991 102.827 30.9696 103.254 30.9216C103.681 30.8735 104.099 30.8354 104.509 30.8073C104.602 30.8009 104.677 30.7958 104.733 30.7919C104.806 30.7682 104.879 30.7445 104.952 30.7207C105.06 30.6572 105.189 30.6203 105.337 30.6101L105.98 30.5659C106.129 30.5557 106.259 30.5467 106.371 30.539C106.5 30.5115 106.629 30.4839 106.758 30.4563C106.832 30.4326 106.896 30.4188 106.952 30.4149C107.026 30.4098 107.101 30.4047 107.175 30.3996C107.25 30.3945 107.324 30.3893 107.399 30.3842C107.473 30.3791 107.547 30.3647 107.62 30.3409C107.768 30.3121 107.926 30.2919 108.093 30.2804C108.26 30.2502 108.417 30.2301 108.566 30.2198C108.641 30.2147 108.706 30.2102 108.762 30.2064C108.835 30.1826 108.908 30.1589 108.982 30.1352C109.128 30.0877 109.266 30.0595 109.397 30.0505C109.544 30.0216 109.683 29.9934 109.812 29.9658C109.96 29.937 110.098 29.9088 110.227 29.8812C110.375 29.8523 110.513 29.8241 110.642 29.7965C110.81 29.785 110.932 29.7953 111.009 29.8275C111.126 29.8943 111.233 29.9524 111.33 30.0019C111.445 30.0501 111.553 30.1175 111.653 30.2042C111.732 30.2736 111.783 30.3356 111.806 30.3902C111.829 30.4634 111.853 30.5366 111.877 30.6098C111.901 30.683 111.925 30.7656 111.95 30.8574L111.963 31.0529C111.951 31.1473 111.94 31.251 111.929 31.364C111.935 31.4572 111.933 31.5602 111.922 31.6732C111.89 31.7503 111.848 31.8187 111.796 31.8784L111.327 32.4157C111.145 32.4844 110.961 32.5344 110.776 32.5659C110.61 32.596 110.433 32.6081 110.246 32.6023L110.05 32.6158C109.958 32.6408 109.866 32.6565 109.773 32.6629C109.68 32.6693 109.586 32.6664 109.491 32.6541C109.378 32.6432 109.267 32.6509 109.156 32.6772C109.044 32.6848 108.933 32.6925 108.821 32.7002C108.746 32.7053 108.673 32.7197 108.599 32.7435C108.544 32.7473 108.478 32.7425 108.402 32.729C108.308 32.7168 108.214 32.7232 108.123 32.7482C108.048 32.7533 107.965 32.7684 107.873 32.7934C107.799 32.7985 107.715 32.8136 107.624 32.8386C107.549 32.8437 107.465 32.8495 107.372 32.8559C107.133 32.9097 106.873 32.9463 106.594 32.9655C106.333 32.9834 106.074 33.0199 105.816 33.0751C105.647 33.068 105.489 33.0882 105.343 33.1356C105.195 33.1645 105.038 33.194 104.872 33.2241C104.724 33.253 104.566 33.2732 104.399 33.2847C104.231 33.2962 104.074 33.3257 103.928 33.3732C103.741 33.386 103.557 33.4267 103.375 33.4954C103.21 33.5441 103.035 33.5842 102.85 33.6156L102.656 33.657C102.526 33.666 102.406 33.6929 102.297 33.7378C102.186 33.7641 102.067 33.8004 101.939 33.8466C101.866 33.8703 101.793 33.8941 101.72 33.9178C101.645 33.9229 101.562 33.938 101.47 33.963C101.414 33.9669 101.35 33.99 101.279 34.0323C101.224 34.0548 101.2 34.1126 101.206 34.2057L101.307 34.4513C101.328 34.4873 101.326 34.581 101.299 34.7326C101.29 34.8829 101.279 34.9959 101.266 35.0716C101.27 35.1275 101.283 35.1827 101.305 35.2373C101.328 35.2919 101.35 35.3465 101.373 35.4011C101.439 35.5462 101.478 35.7119 101.491 35.8981C101.502 36.0658 101.532 36.2228 101.579 36.3692C101.603 36.4424 101.618 36.5256 101.625 36.6187C101.63 36.6932 101.645 36.7763 101.67 36.8682C101.672 36.9054 101.676 36.952 101.679 37.0078C101.701 37.0438 101.713 37.0897 101.717 37.1456C101.721 37.2015 101.714 37.2393 101.697 37.2592C101.646 37.3376 101.624 37.4233 101.63 37.5164C101.637 37.6095 101.643 37.7026 101.649 37.7957C101.755 37.9756 101.815 38.1586 101.827 38.3448C101.84 38.5311 101.853 38.7173 101.866 38.9035C101.87 38.9594 101.917 38.9748 102.009 38.9498L102.037 38.9479C102.069 38.8708 102.103 38.8124 102.137 38.7726C102.193 38.7688 102.257 38.7457 102.329 38.7033C102.382 38.6622 102.456 38.6385 102.549 38.6321C102.699 38.6405 102.839 38.6309 102.968 38.6033C103.096 38.5571 103.223 38.5109 103.351 38.4647C104.211 38.1811 105.011 37.8361 105.75 37.4298C105.948 37.3226 106.157 37.2334 106.377 37.1622C106.595 37.0724 106.816 37.0105 107.038 36.9765L107.122 36.9707C107.288 36.9406 107.454 36.9104 107.621 36.8803C107.787 36.8502 107.954 36.8293 108.122 36.8178C108.344 36.7838 108.556 36.7412 108.758 36.6899C108.979 36.6373 109.201 36.594 109.423 36.56C109.551 36.5138 109.67 36.4776 109.78 36.4513C109.889 36.4063 110.007 36.3515 110.134 36.2866C110.37 36.1769 110.59 36.115 110.795 36.1009C110.945 36.1093 111.087 36.1369 111.221 36.1839C111.354 36.2121 111.488 36.2591 111.624 36.3246C111.916 36.4916 112.075 36.7614 112.101 37.1338C112.111 37.2828 112.102 37.4331 112.075 37.5846C112.067 37.7349 112.068 37.8845 112.078 38.0335C112.081 38.0707 112.065 38.1093 112.03 38.1491L111.956 38.2945C111.942 38.3703 111.929 38.446 111.915 38.5218C111.902 38.5976 111.859 38.6566 111.787 38.699C111.682 38.7998 111.568 38.9105 111.445 39.0312C111.34 39.132 111.214 39.2062 111.067 39.2536C110.994 39.2774 110.921 39.3011 110.848 39.3249C110.793 39.3473 110.729 39.3611 110.654 39.3662C110.356 39.3867 110.05 39.4264 109.736 39.4854C109.441 39.5431 109.136 39.6015 108.822 39.6605C108.581 39.6958 108.341 39.7403 108.101 39.7942C107.881 39.8468 107.649 39.8814 107.407 39.898C107.184 39.9134 106.935 39.9772 106.662 40.0895C106.479 40.1396 106.286 40.1903 106.083 40.2416C105.881 40.2929 105.678 40.3349 105.475 40.3676C105.327 40.3965 105.171 40.4353 105.006 40.484C104.858 40.5129 104.71 40.5417 104.562 40.5706L104.093 40.687C104.057 40.7082 104.002 40.7214 103.928 40.7265C103.8 40.7727 103.671 40.8096 103.542 40.8372C103.413 40.8647 103.285 40.9016 103.157 40.9478C103.028 40.9754 102.899 41.0123 102.772 41.0585C102.662 41.1034 102.544 41.149 102.416 41.1952C102.324 41.2202 102.252 41.2626 102.2 41.3223C102.147 41.3634 102.104 41.4224 102.072 41.4995C102.057 41.5566 102.061 41.6125 102.084 41.6671C102.107 41.7403 102.103 41.8154 102.071 41.8925C102.103 42.0774 102.125 42.263 102.137 42.4492C102.169 42.6342 102.182 42.8204 102.176 43.0079C102.223 43.1543 102.243 43.3027 102.234 43.4529C102.245 43.6019 102.246 43.7516 102.237 43.9018C102.215 44.1278 102.237 44.3134 102.304 44.4586C102.376 44.6968 102.375 44.9495 102.3 45.2166C102.27 45.3309 102.275 45.4054 102.315 45.4401C102.356 45.4934 102.36 45.5586 102.328 45.6356L102.34 45.8033C102.331 45.9535 102.402 46.0235 102.551 46.0133L102.607 46.0095C102.737 46.0005 102.871 46.0381 103.007 46.1223C103.107 46.209 103.22 46.2292 103.348 46.183L104.125 46.0455C104.235 46.0192 104.346 46.0022 104.458 45.9945C104.568 45.9682 104.679 45.9512 104.791 45.9436C104.827 45.9224 104.884 45.9279 104.961 45.96C105.058 46.0094 105.142 46.013 105.214 45.9706C105.249 45.9308 105.293 45.8997 105.348 45.8772C105.421 45.8535 105.475 45.8217 105.51 45.7819C105.614 45.6625 105.751 45.6157 105.921 45.6414C106.073 45.6684 106.193 45.6508 106.282 45.5885C106.446 45.5211 106.603 45.4916 106.753 45.5C106.848 45.5122 106.94 45.4965 107.031 45.4529C107.121 45.4093 107.213 45.3842 107.306 45.3778C107.344 45.3753 107.372 45.3827 107.392 45.4C107.411 45.3987 107.429 45.3881 107.446 45.3682C107.483 45.3657 107.52 45.3538 107.556 45.3326C107.592 45.3114 107.619 45.3002 107.638 45.2989C107.764 45.2341 107.884 45.2072 107.997 45.2181C108.09 45.2117 108.137 45.2085 108.137 45.2085C108.21 45.1848 108.275 45.1803 108.332 45.1951C108.408 45.2086 108.475 45.232 108.534 45.2655C108.628 45.2777 108.704 45.3005 108.763 45.3339C108.84 45.366 108.916 45.3888 108.992 45.4024C109.029 45.3998 109.058 45.4072 109.078 45.4245C109.176 45.4926 109.292 45.5501 109.426 45.597C109.579 45.6427 109.667 45.7021 109.691 45.7753C109.736 45.8845 109.762 45.9949 109.77 46.1067C109.776 46.1998 109.793 46.3016 109.819 46.412C109.823 46.4679 109.818 46.5244 109.803 46.5816C109.807 46.6374 109.801 46.6939 109.786 46.7511C109.754 46.8281 109.713 46.9151 109.664 47.0121C109.633 47.1078 109.583 47.1954 109.514 47.275C109.479 47.3148 109.444 47.3546 109.41 47.3944C109.393 47.4329 109.368 47.4721 109.333 47.5119C109.264 47.5915 109.185 47.6625 109.095 47.7247C109.006 47.787 108.906 47.822 108.794 47.8296C108.719 47.8348 108.664 47.8479 108.628 47.8691C108.556 47.9114 108.483 47.9352 108.409 47.9403C108.334 47.9454 108.25 47.9512 108.157 47.9576C108.028 47.9852 107.899 48.0127 107.77 48.0403C107.658 48.048 107.537 48.047 107.405 48.0373C107.329 48.0238 107.264 48.0283 107.209 48.0508C107.027 48.1194 106.841 48.1415 106.653 48.1171C106.466 48.1299 106.281 48.152 106.096 48.1834C105.928 48.1949 105.761 48.2064 105.593 48.218L105.23 48.2429C105.174 48.2467 105.128 48.2592 105.092 48.2804C105.02 48.3228 104.928 48.3478 104.817 48.3555C104.723 48.3619 104.63 48.359 104.535 48.3467L104.256 48.3659C104.237 48.3672 104.209 48.3691 104.172 48.3717C104.136 48.3929 104.099 48.3954 104.06 48.3794C104.003 48.3646 103.947 48.3591 103.891 48.363C103.855 48.3841 103.81 48.406 103.755 48.4284C103.718 48.431 103.681 48.4335 103.643 48.4361C103.626 48.456 103.599 48.4672 103.561 48.4698C103.374 48.464 103.197 48.4761 103.031 48.5063C102.866 48.555 102.691 48.6044 102.508 48.6545Z" fill="white"/>
</svg>
