<svg width="89" height="85" viewBox="0 0 89 85" fill="none" xmlns="http://www.w3.org/2000/svg">
<g filter="url(#filter0_d_208_6)">
<path d="M15 17L33.5 2H48.5L65 9.5L76.5 23.5L82 42.5L73 60.5L59.5 69.5L38 74L19 67L9 54L7 36L15 17Z" fill="#FFCB45" stroke="#D28512" stroke-width="4"/>
<path d="M32.6102 31.9189L43.7966 16H47.3559L41.7627 51.9459M41.7627 51.9459H26M41.7627 51.9459L56 54" stroke="#D28512" stroke-width="4"/>
<path d="M57.5 14H63.5L71.5 25.5L77.5 43.5L71.5 57L60.5 63L57.5 60L63.5 54L66.5 47L63.5 36L57.5 23V14Z" fill="#E9B42E"/>
<path d="M12 41.5L15 36V34L16.5 31.5L19.5 30.5L21.5 36L19.5 47L26 60L34.5 63L30.5 67L21.5 63L15 54L12 41.5Z" fill="#E9B42E"/>
<path d="M57.5 14H63.5L71.5 25.5L77.5 43.5L71.5 57L60.5 63L57.5 60L63.5 54L66.5 47L63.5 36L57.5 23V14Z" stroke="#FFCB45"/>
<path d="M12 41.5L15 36V34L16.5 31.5L19.5 30.5L21.5 36L19.5 47L26 60L34.5 63L30.5 67L21.5 63L15 54L12 41.5Z" stroke="#FFCB45"/>
</g>
<defs>
<filter id="filter0_d_208_6" x="0.954712" y="0" width="87.1838" height="84.0752" filterUnits="userSpaceOnUse" color-interpolation-filters="sRGB">
<feFlood flood-opacity="0" result="BackgroundImageFix"/>
<feColorMatrix in="SourceAlpha" type="matrix" values="0 0 0 0 0 0 0 0 0 0 0 0 0 0 0 0 0 0 127 0" result="hardAlpha"/>
<feOffset dy="4"/>
<feGaussianBlur stdDeviation="2"/>
<feComposite in2="hardAlpha" operator="out"/>
<feColorMatrix type="matrix" values="0 0 0 0 0 0 0 0 0 0 0 0 0 0 0 0 0 0 0.25 0"/>
<feBlend mode="normal" in2="BackgroundImageFix" result="effect1_dropShadow_208_6"/>
<feBlend mode="normal" in="SourceGraphic" in2="effect1_dropShadow_208_6" result="shape"/>
</filter>
</defs>
</svg>
