<svg width="636" height="174" viewBox="0 0 636 174" fill="none" xmlns="http://www.w3.org/2000/svg">
<path d="M47.0335 103.901C47.5455 103.944 47.8442 104.072 47.9295 104.285C48.0575 104.498 48.1002 104.797 48.0575 105.181C48.0575 105.522 48.0575 105.778 48.0575 105.949C48.1002 106.504 47.9935 106.888 47.7375 107.101C47.4815 107.314 47.0762 107.421 46.5215 107.421C46.1802 107.421 45.5189 107.442 44.5375 107.485C43.5989 107.528 42.4469 107.528 41.0815 107.485H40.8255L40.6975 119.069L40.6335 130.333C40.6335 132.04 40.7189 134.216 40.8895 136.861C41.1029 139.464 41.2309 141.106 41.2735 141.789C41.5295 145.202 41.6575 147.122 41.6575 147.549C41.7002 148.402 41.5082 148.957 41.0815 149.213C40.6549 149.469 39.9082 149.597 38.8415 149.597L36.0255 149.533C35.8122 149.533 32.3135 149.469 25.5295 149.341L21.5615 149.277C21.1349 149.277 20.9215 148.85 20.9215 147.997C20.9215 147.698 20.9642 147.122 21.0495 146.269C21.1349 145.16 21.1775 144.306 21.1775 143.709C21.0922 142.6 21.0495 140.658 21.0495 137.885C21.0495 134.173 21.0922 130.205 21.1775 125.981C21.3055 121.757 21.4549 118.578 21.6255 116.445C21.7109 115.336 21.7535 113.842 21.7535 111.965C21.7535 109.874 21.6895 108.296 21.5615 107.229L20.4095 107.165L15.0975 107.293C14.7562 107.293 14.5855 106.952 14.5855 106.269L14.6495 104.861C14.6495 104.52 14.6922 104.306 14.7775 104.221C14.9055 104.093 15.0975 104.029 15.3535 104.029C15.5242 104.029 15.7375 104.05 15.9935 104.093C16.2495 104.136 16.5482 104.157 16.8895 104.157L30.5215 104.093L41.6575 103.965C43.4069 103.922 45.1989 103.901 47.0335 103.901ZM66.4335 124.829L68.8015 124.893C70.8495 124.978 72.2789 125.021 73.0895 125.021C76.4175 125.021 78.9562 125 80.7055 124.957C82.7962 124.957 84.3962 124.936 85.5055 124.893V122.973L85.4415 119.453C85.4415 117.832 85.5269 114.504 85.6975 109.469L85.8255 104.989C85.8682 104.605 86.1029 104.413 86.5295 104.413L87.2335 104.477C87.4042 104.52 87.7242 104.541 88.1935 104.541C88.7055 104.541 89.0682 104.584 89.2815 104.669C89.7082 104.797 89.9215 105.01 89.9215 105.309L89.7935 105.821C89.7509 106.12 89.6869 106.696 89.6015 107.549C89.5162 108.36 89.3882 109.618 89.2175 111.325C89.0895 112.605 88.9829 115.528 88.8975 120.093C88.8122 124.616 88.7695 128.157 88.7695 130.717C88.7695 132.509 88.6842 135.624 88.5135 140.061L88.3855 144.285L88.3215 146.845C88.3215 147.485 88.3642 148.104 88.4495 148.701L88.5135 149.085C88.5135 149.341 88.4069 149.49 88.1935 149.533C88.0229 149.533 87.9162 149.533 87.8735 149.533C87.4469 149.618 86.6789 149.661 85.5695 149.661C85.2282 149.661 85.0575 149.448 85.0575 149.021L85.1215 139.677C85.0789 138.994 85.0575 138.29 85.0575 137.565C85.1002 136.797 85.1215 136.114 85.1215 135.517V132.829V128.093L79.9375 128.221C78.1029 128.264 75.6282 128.285 72.5135 128.285H66.4975C64.8762 128.285 63.6175 128.264 62.7215 128.221C62.7215 128.946 62.7002 129.501 62.6575 129.885C62.5722 131.25 62.5295 132.552 62.5295 133.789L62.4655 140.701C62.4655 144.072 62.5722 146.29 62.7855 147.357C62.8709 147.869 62.9135 148.189 62.9135 148.317C62.9135 148.914 62.7429 149.298 62.4015 149.469C62.1029 149.597 61.7615 149.661 61.3775 149.661C61.0362 149.618 60.8015 149.597 60.6735 149.597C59.1802 149.512 57.4735 149.576 55.5535 149.789C54.8282 149.874 54.3802 149.704 54.2095 149.277C54.0815 148.85 54.0175 148.253 54.0175 147.485C54.0602 146.717 54.0815 146.141 54.0815 145.757L53.9535 123.613L54.0815 107.037C54.0815 106.184 54.1669 105.65 54.3375 105.437C54.5509 105.181 54.8709 105.053 55.2975 105.053L56.7055 105.117C56.9189 105.117 57.4095 105.074 58.1775 104.989C58.3909 104.946 58.7535 104.925 59.2655 104.925L60.9295 104.989C61.2709 105.032 61.7402 105.053 62.3375 105.053C62.8069 105.053 63.0842 105.202 63.1695 105.501C63.2975 105.757 63.3402 106.034 63.2975 106.333C63.2975 106.632 63.2975 106.845 63.2975 106.973C63.2975 108.936 63.2122 111.474 63.0415 114.589L62.7855 120.925L62.5935 124.701L66.4335 124.829ZM124.331 108.061C124.331 109.042 124.245 109.533 124.075 109.533C123.819 109.533 123.52 109.512 123.179 109.469C122.88 109.384 122.496 109.341 122.027 109.341H111.787L103.851 109.277C103.595 109.277 102.635 109.341 100.971 109.469L99.4985 109.597L99.3705 111.325C99.3279 111.965 99.3065 112.968 99.3065 114.333C99.3065 115.016 99.3492 115.912 99.4345 117.021C99.5199 118.045 99.5625 118.792 99.5625 119.261V121.821C99.5625 122.504 99.5839 123.037 99.6265 123.421C100.011 123.464 100.587 123.485 101.355 123.485H103.915C104.171 123.485 104.683 123.442 105.451 123.357C106.56 123.272 107.52 123.229 108.331 123.229C108.672 123.229 109.867 123.293 111.915 123.421L113.323 123.485C113.664 123.485 114.155 123.464 114.795 123.421C115.435 123.336 116.053 123.293 116.651 123.293L118.763 123.357C119.872 123.442 120.64 123.485 121.067 123.485C121.536 123.485 121.856 123.464 122.027 123.421L122.411 123.357C122.709 123.357 122.923 123.464 123.051 123.677C123.179 123.848 123.221 124.018 123.179 124.189C123.136 124.488 123.115 124.872 123.115 125.341C123.115 125.768 123.093 126.152 123.051 126.493C123.008 126.834 122.944 127.048 122.859 127.133C122.773 127.176 122.517 127.197 122.091 127.197L119.531 126.941C116.331 126.642 114.24 126.493 113.259 126.493C109.632 126.493 106.965 126.557 105.259 126.685C104.576 126.77 103.829 126.813 103.019 126.813C102.208 126.813 101.696 126.813 101.483 126.813C100.672 126.813 100.075 126.792 99.6905 126.749L99.4985 127.773C99.4132 128.541 99.3705 129.224 99.3705 129.821C99.3705 130.333 99.4132 130.93 99.4985 131.613C99.5839 132.296 99.6265 132.893 99.6265 133.405L99.6905 141.021L99.6265 144.221C99.5839 144.605 99.5625 145.138 99.5625 145.821C100.117 145.864 100.928 145.885 101.995 145.885C102.891 145.928 104.277 145.949 106.155 145.949L109.611 146.013C110.336 146.056 111.445 146.077 112.939 146.077C113.835 146.077 115.008 146.034 116.459 145.949L119.147 145.885C120.171 145.885 121.024 145.906 121.707 145.949C122.389 145.992 122.901 146.013 123.243 146.013C123.584 146.013 123.776 146.077 123.819 146.205C123.904 146.333 123.947 146.61 123.947 147.037C123.947 147.336 123.925 147.656 123.883 147.997C123.84 148.296 123.819 148.637 123.819 149.021C123.819 149.32 123.712 149.533 123.499 149.661C123.285 149.746 122.944 149.789 122.475 149.789C122.005 149.789 121.621 149.768 121.323 149.725C120.171 149.597 117.845 149.533 114.347 149.533C112.213 149.533 110.677 149.554 109.739 149.597C109.013 149.64 107.819 149.661 106.155 149.661L100.203 149.597C99.5199 149.554 98.7092 149.533 97.7705 149.533C97.1732 149.533 96.7679 149.469 96.5545 149.341C96.3839 149.17 96.2985 148.914 96.2985 148.573L96.3625 147.549C96.4052 147.378 96.4265 147.186 96.4265 146.973C96.4265 146.845 96.4052 146.546 96.3625 146.077C96.3199 145.565 96.2985 144.648 96.2985 143.325C96.2985 142.045 96.2559 139.954 96.1705 137.053C96.0425 134.664 95.9785 132.36 95.9785 130.141C95.9785 129.202 96.0852 126.493 96.2985 122.013C96.3412 121.117 96.3839 120.221 96.4265 119.325C96.4692 118.429 96.4905 117.618 96.4905 116.893C96.4905 111.944 96.4265 108.68 96.2985 107.101C96.1705 106.077 96.7892 105.565 98.1545 105.565C98.4959 105.565 99.0505 105.608 99.8185 105.693C100.501 105.778 101.013 105.821 101.355 105.821L105.387 105.693C108.288 105.522 110.528 105.437 112.107 105.437C113.941 105.437 116.523 105.48 119.851 105.565C120.917 105.608 122.048 105.629 123.243 105.629C123.755 105.629 124.075 105.757 124.203 106.013C124.331 106.269 124.373 106.546 124.331 106.845C124.331 107.101 124.331 107.272 124.331 107.357V108.061ZM161.37 80.2848C159.237 80.2848 157.103 81.1808 154.97 82.9728C152.922 84.7648 151.173 87.7515 149.722 91.9328C148.271 96.0288 147.546 101.32 147.546 107.805C147.546 114.12 148.442 119.154 150.234 122.909C152.111 126.578 154.202 129.138 156.506 130.589C158.895 132.04 160.943 132.765 162.65 132.765C164.186 132.765 165.765 132.253 167.386 131.229C169.007 130.12 170.415 128.968 171.61 127.773C171.781 127.602 172.037 127.304 172.378 126.877C172.805 126.45 173.189 126.237 173.53 126.237C173.957 126.237 174.469 126.408 175.066 126.749L185.946 132.765C186.287 132.936 186.799 133.192 187.482 133.533C188.25 133.789 188.762 134.045 189.018 134.301C189.359 134.557 189.53 134.898 189.53 135.325C189.53 135.752 189.402 136.221 189.146 136.733C187.269 139.89 184.325 143.133 180.314 146.461C176.303 149.789 170.757 151.453 163.674 151.453C158.127 151.453 152.794 149.405 147.674 145.309C142.639 141.128 138.586 135.453 135.514 128.285C132.442 121.117 130.906 113.224 130.906 104.605C130.906 96.0715 132.357 88.3915 135.258 81.5648C138.245 74.7382 142.042 69.4048 146.65 65.5648C151.258 61.7248 155.994 59.8048 160.858 59.8048C166.917 59.8048 171.781 61.0848 175.45 63.6448C179.205 66.1195 181.893 68.5088 183.514 70.8128C183.855 71.3248 184.154 71.7942 184.41 72.2208C184.751 72.6475 184.922 73.0742 184.922 73.5008C184.922 74.0128 184.453 74.6955 183.514 75.5488C179.589 78.6208 176.773 81.3088 175.066 83.6128C174.213 84.7222 173.487 85.5755 172.89 86.1728C172.293 86.6848 171.695 86.9408 171.098 86.9408C170.501 86.9408 169.818 86.5142 169.05 85.6608C167.258 83.6982 165.85 82.3328 164.826 81.5648C163.887 80.7115 162.735 80.2848 161.37 80.2848ZM259.715 144.669C262.019 146.973 263.171 148.552 263.171 149.405C263.171 149.576 262.958 149.874 262.531 150.301C261.763 150.813 259.843 151.069 256.771 151.069C254.552 151.069 253.144 150.898 252.547 150.557C251.95 150.301 251.48 149.832 251.139 149.149C250.883 148.466 250.67 147.954 250.499 147.613C250.243 147.101 249.176 145.65 247.299 143.261C245.507 140.786 244.142 138.909 243.203 137.629C238.68 131.826 234.755 126.578 231.427 121.885C229.379 118.984 225.582 113.992 220.035 106.909L217.987 104.349L209.155 93.3408L208.643 98.4608C208.302 101.021 208.216 104.093 208.387 107.677C208.643 110.066 208.814 116.253 208.899 126.237C208.984 136.221 209.027 143.517 209.027 148.125C209.027 149.49 208.515 150.344 207.491 150.685C206.467 151.112 205.272 151.325 203.907 151.325C203.31 151.325 202.926 151.069 202.755 150.557C202.584 150.045 202.456 149.49 202.371 148.893C202.371 148.296 202.371 147.912 202.371 147.741C202.2 146.376 202.115 144.37 202.115 141.725C202.115 140.018 202.158 138.738 202.243 137.885C202.328 133.277 202.456 125.256 202.627 113.821C202.798 102.301 202.883 91.9755 202.883 82.8448C202.883 73.0315 202.755 67.3142 202.499 65.6928C202.414 65.0102 202.371 64.1142 202.371 63.0048C202.371 61.7248 202.542 60.9142 202.883 60.5728C203.31 60.2315 203.907 60.0608 204.675 60.0608C206.382 60.0608 208.046 60.1035 209.667 60.1888L223.619 60.4448C228.739 60.4448 234.072 61.3408 239.619 63.1328C245.166 64.9248 247.939 68.2528 247.939 73.1168C247.939 77.7248 246.232 81.3088 242.819 83.8688C239.406 86.4288 235.566 88.1782 231.299 89.1168C227.118 90.0555 223.448 90.5248 220.291 90.5248C219.182 90.5248 218.584 90.4822 218.499 90.3968C219.011 90.9088 222.382 95.4315 228.611 103.965C247.384 129.138 257.752 142.706 259.715 144.669ZM208.771 85.2768C211.587 85.2768 213.72 85.2342 215.171 85.1488C220.12 84.9782 223.96 84.6368 226.691 84.1248C230.616 83.4422 233.56 82.5035 235.523 81.3088C237.571 80.1142 238.595 78.2368 238.595 75.6768C238.595 73.9702 237.699 72.5195 235.907 71.3248C234.115 70.0448 231.939 69.1062 229.379 68.5088C226.904 67.8262 224.728 67.4848 222.851 67.4848C220.718 67.3995 217.731 67.3568 213.891 67.3568H209.539L208.771 85.2768ZM338.505 147.357C338.932 148.21 339.145 148.765 339.145 149.021C339.145 149.704 338.377 150.045 336.841 150.045H327.625C327.284 150.045 326.942 149.746 326.601 149.149C326.26 148.552 325.961 147.954 325.705 147.357C325.449 146.76 325.236 146.248 325.065 145.821C324.638 144.968 323.828 143.005 322.633 139.933C321.524 136.861 320.67 134.429 320.073 132.637C319.817 131.784 319.305 130.546 318.537 128.925C317.769 127.218 317.214 126.024 316.873 125.341C316.532 124.317 316.19 123.634 315.849 123.293C315.593 122.952 315.166 122.781 314.569 122.781C313.972 122.781 313.204 122.824 312.265 122.909C311.412 122.994 310.473 123.08 309.449 123.165C308.766 123.336 306.633 123.421 303.049 123.421C300.574 123.421 298.142 123.506 295.753 123.677C294.985 123.762 293.62 123.805 291.657 123.805L284.873 123.677C284.446 123.677 284.105 123.848 283.849 124.189C283.678 124.53 283.55 124.957 283.465 125.469C283.38 125.896 283.294 126.237 283.209 126.493L282.441 129.693C282.185 130.888 281.844 132.296 281.417 133.917C281.076 135.453 280.777 136.904 280.521 138.269L279.113 143.773L278.089 147.485C277.833 148.509 277.577 149.192 277.321 149.533C277.15 149.789 276.852 149.917 276.425 149.917H268.873C268.446 149.917 268.233 149.746 268.233 149.405C268.233 149.234 268.404 148.637 268.745 147.613C269.428 145.992 270.025 144.37 270.537 142.749C273.694 132.168 275.572 125.256 276.169 122.013C276.937 117.746 278.516 112.242 280.905 105.501C281.673 102.6 282.398 99.9542 283.081 97.5648C283.337 96.3702 283.721 94.9195 284.233 93.2128C285.854 87.2395 287.476 81.6502 289.097 76.4448L292.297 66.2048C292.98 63.5595 293.833 60.8288 294.857 58.0128C295.369 56.7328 295.966 56.4342 296.649 57.1168C297.161 57.4582 297.545 58.0555 297.801 58.9088C298.057 59.7622 298.228 60.3595 298.313 60.7008C298.569 61.7248 300.83 66.8448 305.097 76.0608C306.804 79.5595 308.638 84.1248 310.601 89.7568C311.454 92.2315 313.801 97.5648 317.641 105.757C319.604 109.768 320.884 112.541 321.481 114.077C322.846 117.064 326.516 124.317 332.489 135.837L334.025 139.037C335.988 143.389 337.481 146.162 338.505 147.357ZM304.969 105.117C305.566 105.032 306.078 104.989 306.505 104.989C306.932 104.989 307.273 104.946 307.529 104.861C307.785 104.776 307.913 104.648 307.913 104.477C307.913 104.306 307.785 103.965 307.529 103.453C307.102 102.685 306.121 100.552 304.585 97.0528C303.049 93.4688 301.982 90.7808 301.385 88.9888C300.532 86.9408 299.849 85.2342 299.337 83.8688C298.91 82.5035 298.569 81.5648 298.313 81.0528C298.142 80.6262 297.929 80.1995 297.673 79.7728C297.502 79.3462 297.332 79.0048 297.161 78.7488C296.99 78.4928 296.82 78.3648 296.649 78.3648C296.393 78.3648 296.094 79.0048 295.753 80.2848C295.497 81.5648 295.284 82.5462 295.113 83.2288C293.577 88.1782 292.468 91.9328 291.785 94.4928C291.444 95.7728 290.932 97.3515 290.249 99.2288C289.652 101.021 289.225 102.258 288.969 102.941C288.713 103.794 288.585 104.477 288.585 104.989C288.585 105.501 288.969 105.757 289.737 105.757C291.529 105.757 294.26 105.714 297.929 105.629C301.684 105.458 304.03 105.288 304.969 105.117ZM374.599 58.1408C382.706 58.1408 389.362 59.7622 394.567 63.0048C399.858 66.1622 403.954 69.1915 406.855 72.0928C407.196 72.4342 407.367 72.8182 407.367 73.2448C407.367 73.5008 407.239 73.8422 406.983 74.2688C406.812 74.6102 406.684 74.8662 406.599 75.0368C406.172 75.6342 405.447 76.7008 404.423 78.2368C403.484 79.6875 402.716 80.7542 402.119 81.4368C401.863 81.7782 401.564 82.1622 401.223 82.5888C400.967 82.9302 400.711 83.1862 400.455 83.3568C400.284 83.5275 399.986 83.6128 399.559 83.6128C399.388 83.6128 398.962 83.3568 398.279 82.8448C397.682 82.2475 397.084 81.7355 396.487 81.3088C393.074 78.3222 389.746 75.7622 386.503 73.6288C383.26 71.4955 380.146 70.4288 377.159 70.4288C374.77 70.4288 372.807 70.9835 371.271 72.0928C369.735 73.1168 368.967 75.5062 368.967 79.2608C368.967 82.9302 370.332 85.7888 373.063 87.8368C375.794 89.8848 379.42 91.8475 383.943 93.7248C384.37 93.8955 386.844 94.9622 391.367 96.9248C395.975 98.8875 400.028 102.642 403.527 108.189C407.111 113.736 408.903 120.349 408.903 128.029C408.903 136.221 405.831 142.365 399.687 146.461C393.543 150.557 385.052 152.605 374.215 152.605C361.927 152.605 354.119 150.258 350.791 145.565C347.463 140.786 345.714 138.312 345.543 138.141C345.202 137.714 345.031 137.288 345.031 136.861C345.031 136.605 345.372 136.05 346.055 135.197C347.164 133.661 348.786 131.826 350.919 129.693C351.26 129.352 351.602 129.181 351.943 129.181C352.37 129.181 352.839 129.522 353.351 130.205C353.863 130.802 354.29 131.272 354.631 131.613C359.666 136.648 365.383 139.165 371.783 139.165C375.026 139.165 377.842 138.568 380.231 137.373C382.62 136.093 383.815 133.746 383.815 130.333C383.815 124.445 379.164 118.173 369.863 111.517C368.327 110.493 366.876 109.64 365.511 108.957C361.927 106.994 358.855 105.074 356.295 103.197C353.735 101.32 351.474 98.8448 349.511 95.7728C347.548 92.7008 346.567 89.1168 346.567 85.0208C346.567 79.9008 348.146 75.2928 351.303 71.1968C354.546 67.1008 358.386 63.9008 362.823 61.5968C367.346 59.2928 371.271 58.1408 374.599 58.1408ZM451.805 95.0048C453.597 95.0048 455.261 94.9195 456.797 94.7488C457.309 94.6635 458.12 94.6208 459.229 94.6208C460.424 94.6208 461.32 94.6635 461.917 94.7488L464.861 95.0048L465.245 91.1648L465.629 85.0208L465.885 72.4768L466.141 62.6208C466.226 61.3408 466.397 60.4875 466.653 60.0608C466.909 59.6342 467.506 59.3782 468.445 59.2928C469.298 59.2928 471.688 59.0368 475.613 58.5248C476.296 58.4395 477.533 58.3968 479.325 58.3968C482.056 58.3968 484.317 58.5248 486.109 58.7808C487.048 58.9515 487.602 59.1648 487.773 59.4208C488.029 59.5915 488.157 59.9328 488.157 60.4448C488.242 60.9568 488.328 61.4262 488.413 61.8528C488.413 63.2182 488.285 65.5222 488.029 68.7648C487.688 74.7382 487.517 78.8342 487.517 81.0528C487.517 82.1622 487.261 85.7035 486.749 91.6768C486.237 98.1622 485.981 102.386 485.981 104.349L486.237 129.693C486.237 139.25 486.408 145.096 486.749 147.229V147.485C486.749 148.424 486.578 149.021 486.237 149.277C485.896 149.448 485.512 149.533 485.085 149.533C484.658 149.448 484.36 149.405 484.189 149.405C483.506 149.234 482.653 149.149 481.629 149.149C481.288 149.149 480.178 149.234 478.301 149.405C475.912 149.661 472.072 149.789 466.781 149.789H466.525C465.33 149.789 464.733 149.405 464.733 148.637C464.733 147.016 464.69 143.816 464.605 139.037C464.605 134.258 464.477 130.76 464.221 128.541C464.05 125.298 463.965 122.141 463.965 119.069C463.88 117.789 463.837 115.826 463.837 113.181H460.125L454.621 113.309L452.317 113.437L449.757 113.309C448.477 113.309 447.453 113.266 446.685 113.181L446.301 121.245C446.045 124.232 445.917 128.114 445.917 132.893V139.421C445.917 144.029 446.002 146.802 446.173 147.741C446.344 148.765 446.173 149.405 445.661 149.661C445.234 149.832 444.68 149.917 443.997 149.917C443.4 149.917 442.973 149.917 442.717 149.917C442.034 149.832 440.882 149.746 439.261 149.661C437.64 149.49 436.317 149.405 435.293 149.405L431.581 149.661C430.984 149.746 428.765 149.917 424.925 150.173C422.962 150.429 421.981 149.234 421.981 146.589L422.109 141.597L422.365 132.381C422.365 130.504 422.408 128.754 422.493 127.133L422.621 112.285C422.621 108.872 422.578 106.696 422.493 105.757C422.237 103.794 422.109 101.234 422.109 98.0768L422.237 90.2688C422.322 88.9888 422.365 87.3248 422.365 85.2768C422.365 82.8875 422.621 77.9382 423.133 70.4288L423.517 61.5968C423.517 60.9142 423.645 60.4448 423.901 60.1888C424.157 59.9328 424.541 59.8048 425.053 59.8048L426.717 59.9328C427.826 60.1035 429.277 60.2315 431.069 60.3168C432.861 60.4022 434.61 60.4448 436.317 60.4448L442.205 60.3168C443.144 60.2315 444.21 60.1888 445.405 60.1888H445.533C446.216 60.1888 446.557 60.6582 446.557 61.5968C446.642 61.7675 446.685 63.4742 446.685 66.7168C446.77 69.8742 446.813 73.6288 446.813 77.9808C446.813 80.7115 446.728 84.3808 446.557 88.9888L446.301 94.8768L451.805 95.0048ZM555.318 73.5008C555.318 75.2075 555.19 76.7862 554.934 78.2368C554.849 79.5168 554.251 80.1568 553.142 80.1568C552.801 80.1568 552.331 80.0715 551.734 79.9008C551.137 79.7302 550.667 79.6022 550.326 79.5168C549.046 79.2608 545.334 79.1328 539.19 79.1328L534.326 79.0048C533.217 78.9195 531.595 78.8768 529.462 78.8768C527.926 78.8768 526.774 78.9195 526.006 79.0048C523.446 79.1755 521.185 79.2608 519.222 79.2608L512.438 79.1328C511.755 79.1328 511.371 79.3035 511.286 79.6448C511.201 79.9008 511.158 80.5835 511.158 81.6928C511.158 83.2288 511.115 84.5515 511.03 85.6608C510.859 89.0742 510.774 91.8475 510.774 93.9808V101.533C510.774 103.325 510.817 104.69 510.902 105.629C511.585 105.714 512.737 105.757 514.358 105.757C515.809 105.842 518.795 105.885 523.318 105.885C525.195 105.885 527.926 105.8 531.51 105.629C534.241 105.458 536.033 105.373 536.886 105.373C538.081 105.373 539.275 105.458 540.47 105.629C541.665 105.714 542.561 105.757 543.158 105.757C544.267 105.757 544.822 106.269 544.822 107.293C544.822 107.634 544.779 108.146 544.694 108.829C544.609 109.426 544.566 110.237 544.566 111.261L544.694 118.045C544.694 118.813 544.609 119.368 544.438 119.709C544.267 119.965 543.969 120.093 543.542 120.093C543.286 120.093 542.902 120.05 542.39 119.965C541.963 119.794 541.579 119.709 541.238 119.709C540.47 119.709 539.019 119.666 536.886 119.581C534.838 119.496 532.022 119.453 528.438 119.453C524.598 119.453 521.27 119.624 518.454 119.965C515.638 120.306 513.931 120.477 513.334 120.477C512.395 120.477 511.841 120.434 511.67 120.349C511.243 120.349 510.987 120.306 510.902 120.221V133.021C511.499 133.021 511.969 132.978 512.31 132.893L515.894 132.765L530.998 132.637C534.07 132.637 536.502 132.68 538.294 132.765L547.126 132.893L552.502 132.765C553.526 132.765 554.209 133.021 554.55 133.533C554.891 133.96 555.062 134.6 555.062 135.453L554.934 138.013L554.806 146.973C554.806 148.338 554.507 149.192 553.91 149.533C553.313 149.789 552.459 149.917 551.35 149.917C550.241 149.832 549.345 149.789 548.662 149.789C544.993 149.789 541.835 149.746 539.19 149.661L526.134 149.533C525.11 149.533 519.99 149.661 510.774 149.917L505.91 150.045L505.142 150.173C504.63 150.173 504.331 150.045 504.246 149.789C504.161 149.448 504.118 148.85 504.118 147.997C504.033 147.058 503.99 145.48 503.99 143.261C503.99 142.578 503.947 141.853 503.862 141.085C503.777 140.232 503.734 139.122 503.734 137.757V120.221C503.734 118.514 503.777 116.85 503.862 115.229C504.033 113.608 504.118 112.413 504.118 111.645C504.459 107.72 504.63 103.965 504.63 100.381C504.63 95.9435 504.502 92.4448 504.246 89.8848C504.075 86.9835 503.99 84.3382 503.99 81.9488C503.99 76.5728 504.118 70.3008 504.374 63.1328C504.374 62.0235 504.587 61.2982 505.014 60.9568C505.441 60.5302 506.038 60.3168 506.806 60.3168L508.726 60.4448C509.494 60.4448 510.731 60.5302 512.438 60.7008C514.145 60.7862 516.235 60.8288 518.71 60.8288C521.526 60.8288 524.854 60.6155 528.694 60.1888C533.302 59.8475 536.374 59.6768 537.91 59.6768C541.409 59.6768 544.609 59.8048 547.51 60.0608L552.118 60.1888C553.227 60.1888 553.953 60.4448 554.294 60.9568C554.635 61.4688 554.806 62.4075 554.806 63.7728C554.806 64.5408 554.891 65.8635 555.062 67.7408C555.233 69.9595 555.318 71.8795 555.318 73.5008ZM628.2 146.333C629.395 148.21 629.992 149.448 629.992 150.045C629.992 150.386 629.779 150.6 629.352 150.685C628.925 150.77 628.541 150.813 628.2 150.813C627.944 150.813 627.731 150.813 627.56 150.813L613.096 151.197C612.413 151.197 611.859 150.898 611.432 150.301C611.091 149.704 610.579 148.637 609.896 147.101C609.469 145.821 608.701 144.114 607.592 141.981C605.885 138.909 602.941 133.149 598.76 124.701L592.232 112.029L592.616 118.813L593.256 128.541C593.768 139.976 594.195 146.29 594.536 147.485C594.621 147.826 594.664 148.253 594.664 148.765C594.664 150.301 593.853 151.069 592.232 151.069C591.72 151.069 591.293 151.026 590.952 150.941C589.587 150.77 586.259 150.941 580.968 151.453C577.384 151.794 575.208 151.965 574.44 151.965C573.331 151.965 572.563 151.752 572.136 151.325C571.795 150.898 571.624 150.173 571.624 149.149L571.752 146.205L571.496 138.781C570.984 129.906 570.728 122.184 570.728 115.613C570.728 112.2 570.856 109.853 571.112 108.573C571.539 106.44 571.752 100.424 571.752 90.5248C571.752 80.1995 571.581 72.3915 571.24 67.1008C571.155 66.4182 571.112 65.4795 571.112 64.2848C571.112 62.9195 571.24 61.9382 571.496 61.3408C571.752 60.7435 572.008 60.4448 572.264 60.4448C572.605 60.3595 573.16 60.3168 573.928 60.3168L576.744 60.0608C582.632 59.3782 587.325 59.0368 590.824 59.0368C600.381 59.0368 607.549 61.5115 612.328 66.4608C617.192 71.3248 619.624 77.6822 619.624 85.5328C619.624 91.7622 617.619 97.7355 613.608 103.453C611.901 105.928 609.939 108.146 607.72 110.109L616.68 126.365C623.251 138.141 627.091 144.797 628.2 146.333ZM591.464 95.0048C592.744 95.0048 593.896 94.7488 594.92 94.2368C597.309 93.1275 598.504 90.8662 598.504 87.4528C598.504 84.9782 598.12 83.1435 597.352 81.9488C596.584 80.7542 595.603 80.1568 594.408 80.1568C593.469 80.1568 592.659 80.4982 591.976 81.1808C591.891 81.2662 591.891 81.8635 591.976 82.9728C592.061 84.0822 592.104 85.1915 592.104 86.3008C592.104 87.2395 592.061 87.9222 591.976 88.3488C591.635 89.7995 591.464 91.2928 591.464 92.8288L591.336 93.9808L591.464 95.0048Z" fill="black"/>
<path d="M37.4382 59.1691L30.072 58.6796L27.6965 53.0576L48.9539 19.1736L55.0494 18.8659L56.8355 28.2499L54.3282 37.8917L45.8253 51.4453L37.4382 59.1691Z" fill="#828181" stroke="black"/>
<path d="M43.0183 50.2745L43.9732 49.6931L51.679 37.4102L51.7869 36.2974L52.1605 34.761L52.1106 32.9589L51.1057 31.7382L49.835 30.9411L47.7672 31.4146L45.5915 33.0009L43.7315 35.9657L41.34 39.7777L38.9486 43.5896L37.62 45.7074L37.2464 47.2438L37.7199 49.3116L39.4141 50.3744L40.9505 50.748L43.0183 50.2745Z" fill="#5C5C5C"/>
<path d="M92.176 97.0508L41.8055 46.5625L48.7142 35.5502L113.433 63.1668L125.245 98.9088L92.176 97.0508Z" fill="#D9D9D9" stroke="black"/>
<path d="M16.0689 33.9579L22.8038 31.6903L27.5867 24.0664L27.229 16.1688L20.4523 11.9173L14.8802 16.0949L11.1601 22.0246L9.29213 29.7064L16.0689 33.9579Z" fill="#828080" stroke="black"/>
<path d="M16.3426 28.8174L17.7711 30.3038L20.113 30.1085L20.9517 29.9382L25.4689 22.7378L25.6847 20.5122L24.2562 19.0258L22.7198 18.6522L20.1206 19.9728L17.837 22.6719L16.1348 26.326L16.3426 28.8174Z" fill="#5C5C5C"/>
<path d="M19.9468 28.7175L34.8709 41.6217L41.7796 30.6094L23.9325 22.3642L19.9468 28.7175Z" fill="#D5A061" stroke="black"/>
<path d="M93.9281 95.1987L64.2457 65.3625L119.789 97.2565L93.9281 95.1987Z" fill="white"/>
<path d="M32.4375 38.9146L34.7131 40.9325L41.0903 30.7673L37.4362 29.0651L36.0577 29.3808L34.837 30.3857L33.3505 31.8142L32.2877 33.5084L31.3826 35.8918L31.4326 37.6939L32.4375 38.9146Z" fill="#A47C4D"/>
</svg>
