<svg width="153" height="79" viewBox="0 0 153 79" fill="none" xmlns="http://www.w3.org/2000/svg">
<rect x="2.4853" y="11.3731" width="130.638" height="65.256" rx="32.628" transform="rotate(-4.04192 2.4853 11.3731)" fill="#4B9649" stroke="#255423" stroke-width="3"/>
<path d="M62.0249 49.6557C61.8374 49.6499 61.6493 49.6347 61.4605 49.6103C61.2916 49.6032 61.1208 49.5681 60.9481 49.5052L60.2325 49.3017C59.984 49.2253 59.7535 49.1382 59.5409 49.0405C59.3271 48.9242 59.1133 48.808 58.8995 48.6917C58.8 48.605 58.7011 48.5275 58.6029 48.4595C58.5034 48.3727 58.4045 48.2953 58.3063 48.2272C58.1471 48.0885 57.9878 47.9497 57.8286 47.811C57.6681 47.6536 57.5163 47.4863 57.3731 47.309L56.6317 46.3215C56.4462 46.0723 56.2787 45.8125 56.1291 45.5422C55.9783 45.2531 55.8461 44.9629 55.7325 44.6713C55.4893 44.1267 55.3491 43.5843 55.312 43.0443L55.2813 42.5973C55.2493 42.1318 55.2459 41.6736 55.271 41.2228C55.2827 40.8478 55.3435 40.5068 55.4533 40.1999C55.515 40.0086 55.5674 39.8179 55.6105 39.6278C55.6536 39.4377 55.7066 39.2563 55.7696 39.0836L55.8399 38.8823C55.8606 38.6377 55.9296 38.4177 56.0472 38.2226C56.1635 38.0087 56.2618 37.8055 56.3421 37.6129C56.4064 37.4588 56.4812 37.3227 56.5667 37.2046C56.6508 37.0678 56.7257 36.9317 56.7912 36.7962C56.8246 36.7378 56.868 36.688 56.9213 36.6469C56.9733 36.5872 57.016 36.5282 57.0494 36.4697C57.0841 36.4299 57.1088 36.3815 57.1236 36.3243C57.1558 36.2473 57.1792 36.1802 57.194 36.123C57.2274 36.0646 57.2875 35.9856 57.3742 35.8861C57.4821 35.8226 57.5756 35.6852 57.6546 35.4739C57.6867 35.3969 57.7201 35.3384 57.7548 35.2986C57.8602 35.1978 57.9456 35.0797 58.0111 34.9442C58.0953 34.8075 58.1894 34.6794 58.2934 34.56C58.3628 34.4804 58.393 34.3754 58.3841 34.245C58.3777 34.1519 58.3719 34.0681 58.3668 33.9936C58.379 33.8992 58.3733 33.8154 58.3495 33.7422C58.3245 33.6504 58.3467 33.5646 58.4161 33.485C58.4507 33.4452 58.4755 33.3968 58.4903 33.3396C58.505 33.2825 58.5198 33.2253 58.5346 33.1682C58.5777 32.9781 58.7158 32.8096 58.9489 32.6626C58.9836 32.6228 59.0289 32.601 59.0848 32.5971C59.158 32.5734 59.2219 32.5503 59.2765 32.5278C59.403 32.463 59.5513 32.4434 59.7215 32.4692C59.7973 32.4827 59.8631 32.4875 59.919 32.4837C59.9735 32.4612 60.0281 32.4387 60.0827 32.4163C60.1547 32.3739 60.2179 32.3415 60.2725 32.3191C60.3457 32.2953 60.4096 32.2722 60.4642 32.2497C60.7185 32.1387 60.9892 32.1295 61.2762 32.222C61.5819 32.3133 61.8095 32.4941 61.959 32.7645C62.0026 32.8551 62.0463 32.9456 62.0899 33.0362C62.1336 33.1267 62.1679 33.2179 62.1929 33.3097C62.2442 33.512 62.2471 33.6896 62.2015 33.8424C62.1693 33.9195 62.1539 33.9673 62.1552 33.9859C62.1417 34.0617 62.1648 34.1256 62.2245 34.1776C62.2656 34.2309 62.3153 34.2743 62.3738 34.3077C62.5914 34.4799 62.7997 34.6526 62.9988 34.8261C63.1965 34.9809 63.3862 35.155 63.5679 35.3483C63.7271 35.487 63.859 35.637 63.9637 35.7982C64.0856 35.9395 64.1996 36.1001 64.3055 36.2799C64.3491 36.3705 64.4027 36.4697 64.4663 36.5776C64.5285 36.6669 64.5908 36.7562 64.6531 36.8454C64.7577 37.0066 64.8443 37.1784 64.913 37.3608C65.0003 37.5419 65.0876 37.7231 65.1749 37.9042L65.1768 37.9321C65.223 38.0599 65.2605 38.1976 65.2894 38.3454C65.3356 38.4732 65.401 38.609 65.4858 38.7528C65.5506 38.8794 65.6067 39.0158 65.6542 39.1623C65.7004 39.2901 65.7473 39.4272 65.7947 39.5736C65.8435 39.7386 65.8923 39.9037 65.941 40.0687C66.0084 40.2325 66.0572 40.3976 66.0873 40.5639C66.111 40.6371 66.1348 40.7103 66.1585 40.7835C66.181 40.8381 66.2041 40.902 66.2278 40.9752C66.2766 41.1403 66.3254 41.3053 66.3741 41.4703C66.4229 41.6354 66.4623 41.8011 66.4925 41.9674L66.5897 42.1572C66.6346 42.2664 66.6821 42.4128 66.7321 42.5965C66.8046 42.8347 66.8492 43.0749 66.8658 43.317C66.9011 43.5578 66.9184 43.8092 66.9177 44.0712C66.9266 44.2016 66.9243 44.3046 66.9108 44.3804C66.826 44.7792 66.7138 45.1891 66.5744 45.6104C66.5088 45.7458 66.4433 45.8813 66.3778 46.0168C66.3109 46.1336 66.2448 46.2598 66.1792 46.3953L65.9547 46.8036C65.8731 46.9776 65.7809 47.1337 65.6781 47.2717C65.5124 47.5825 65.3068 47.8585 65.0614 48.0999C64.8161 48.3413 64.5514 48.5747 64.2676 48.8C63.6503 49.3476 62.9028 49.6328 62.0249 49.6557ZM61.7232 46.8979C62.1143 46.871 62.4418 46.7363 62.7058 46.4936C62.7925 46.3941 62.8799 46.3039 62.9679 46.223C63.0732 46.1222 63.1599 46.0227 63.228 45.9245C63.555 45.5091 63.8062 45.0802 63.9816 44.6378L64.0462 44.3527C64.0604 44.0149 64.0374 43.6797 63.9771 43.3471L63.7462 42.4367C63.6737 42.1985 63.6111 41.9689 63.5585 41.748C63.5046 41.5085 63.4328 41.2795 63.3429 41.0612C63.2781 40.9346 63.2525 40.8335 63.266 40.7577C63.2782 40.6633 63.2718 40.5702 63.2468 40.4784C63.2217 40.3865 63.1874 40.2953 63.1438 40.2048C63.0713 39.9665 62.9895 39.7289 62.8983 39.4919C62.8072 39.255 62.7161 39.018 62.625 38.781C62.6025 38.7264 62.58 38.6718 62.5576 38.6172C62.5351 38.5626 62.5127 38.5081 62.4902 38.4535C62.3419 38.2017 62.185 37.9599 62.0194 37.728C61.8537 37.4962 61.6708 37.2842 61.4705 37.0922C61.3697 36.9868 61.2602 36.8914 61.1421 36.806C61.0227 36.7019 60.9039 36.6072 60.7858 36.5218C60.7646 36.4858 60.7354 36.4691 60.6981 36.4716C60.6782 36.4543 60.649 36.4376 60.6105 36.4215C60.5495 36.3509 60.4757 36.3653 60.3889 36.4648C60.3022 36.5643 60.2068 36.6738 60.1028 36.7932C60.0173 36.9113 59.9319 37.0295 59.8465 37.1476C59.7623 37.2844 59.6688 37.4218 59.5661 37.5598C59.4819 37.6966 59.3977 37.8333 59.3136 37.9701C59.1947 38.1466 59.0852 38.3226 58.985 38.4978C58.8848 38.6731 58.7845 38.8484 58.6843 39.0237C58.3367 39.6837 58.0775 40.4032 57.9064 41.1821C57.8769 41.2964 57.864 41.3815 57.8678 41.4373C57.8582 41.569 57.8485 41.7006 57.8388 41.8322C57.8478 41.9626 57.8574 42.1023 57.8676 42.2512L57.883 42.4747C57.9054 42.5293 57.9186 42.5845 57.9224 42.6404C57.9263 42.6963 57.9394 42.7515 57.9619 42.8061C57.9772 43.0296 58.0497 43.2678 58.1794 43.5209C58.354 43.8831 58.5465 44.2347 58.7571 44.5758C58.9676 44.9168 59.2048 45.2373 59.4686 45.5372C59.5296 45.6079 59.5906 45.6785 59.6516 45.7492C59.7312 45.8186 59.8015 45.8886 59.8625 45.9592C60.0429 46.1339 60.2313 46.2894 60.4278 46.4256C60.6429 46.5605 60.8567 46.6768 61.0692 46.7744C61.3003 46.8708 61.5183 46.912 61.7232 46.8979ZM71.3758 48.9291C71.2641 48.9367 71.1591 48.9065 71.0609 48.8384C71.0011 48.7864 70.9328 48.7443 70.8557 48.7122C70.7787 48.6801 70.7103 48.638 70.6506 48.586C70.5922 48.5526 70.5337 48.5191 70.4753 48.4857C70.4342 48.4324 70.3938 48.3884 70.354 48.3537C70.2718 48.2471 70.1989 48.1399 70.1354 48.032C70.0892 47.9042 70.0709 47.7745 70.0806 47.6428C70.1038 47.4354 70.109 47.2386 70.0962 47.0524C70.1007 46.8462 70.1059 46.6494 70.1117 46.4619C70.124 46.3675 70.1269 46.2738 70.1205 46.1806C70.1314 46.0676 70.1337 45.9646 70.1273 45.8714C70.1119 45.648 70.0966 45.4245 70.0812 45.201C70.0845 44.9763 70.0971 44.7509 70.119 44.5248L70.1151 44.469C70.0941 43.8904 70.0737 43.3211 70.0539 42.7612C70.0515 42.1813 70.0305 41.6027 69.9908 41.0254C69.9428 40.5984 69.904 40.1707 69.8746 39.7424C69.8452 39.314 69.8164 38.895 69.7882 38.4853C69.7742 38.2805 69.7607 38.0849 69.7479 37.8987C69.7538 37.7112 69.7316 37.5256 69.6816 37.3419C69.6412 37.0266 69.6015 36.7206 69.5624 36.4239C69.5419 36.126 69.5215 35.828 69.501 35.5301C69.4971 35.4742 69.484 35.419 69.4615 35.3644C69.4577 35.3085 69.4539 35.2526 69.45 35.1968C69.4263 35.1235 69.4119 35.0497 69.4067 34.9752C69.4003 34.8821 69.3853 34.7989 69.3615 34.7257C69.3551 34.6326 69.3394 34.5401 69.3144 34.4483C69.308 34.3552 69.2929 34.272 69.2692 34.1988L69.2558 34.0033C69.2231 33.7997 69.1916 33.6148 69.1615 33.4484C69.1301 33.2635 69.0894 33.0792 69.0393 32.8955C69.0105 32.7478 68.981 32.5908 68.9508 32.4245C68.9393 32.2569 68.9278 32.0892 68.9163 31.9216C68.9086 31.8099 68.9401 31.7235 69.0107 31.6626C69.0454 31.6228 69.0609 31.5749 69.057 31.5191C69.0891 31.442 69.1033 31.3755 69.0994 31.3197C69.1451 31.1669 69.2132 31.0686 69.3037 31.025C69.357 30.9839 69.4017 30.9528 69.4376 30.9316C69.491 30.8905 69.5462 30.8773 69.6033 30.8921C69.6964 30.8857 69.7504 30.854 69.7652 30.7968C69.8011 30.7756 69.8278 30.7551 69.8451 30.7352C69.8612 30.6967 69.8785 30.6768 69.8972 30.6755C69.9903 30.6691 70.0734 30.654 70.1467 30.6303C70.2385 30.6053 70.3322 30.6082 70.4279 30.639C70.5422 30.6686 70.6366 30.6808 70.7111 30.6757C70.8055 30.6879 70.8732 30.7207 70.9143 30.774C70.9541 30.8087 70.9926 30.8247 71.0299 30.8222C71.1243 30.8344 71.1939 30.8951 71.2389 31.0043C71.2787 31.039 71.3005 31.0843 71.3043 31.1401C71.3255 31.1761 71.3461 31.2027 71.366 31.2201C71.4655 31.3068 71.5011 31.4166 71.4728 31.5495C71.4496 31.7569 71.4637 31.9618 71.515 32.1641C71.5375 32.2187 71.5413 32.2745 71.5265 32.3317C71.5304 32.3876 71.5435 32.4428 71.566 32.4974C71.5749 32.6277 71.5839 32.7581 71.5928 32.8885C71.6191 32.9989 71.6467 33.128 71.6756 33.2757C71.6993 33.3489 71.7138 33.4228 71.7189 33.4973C71.7227 33.5531 71.7278 33.6276 71.7342 33.7207C71.7432 33.8511 71.7534 34.0001 71.7649 34.1677C71.7752 34.3167 71.7947 34.465 71.8236 34.6127C71.8448 34.6487 71.8585 34.7132 71.8649 34.8063C71.8739 34.9367 71.8829 35.067 71.8918 35.1974C71.9194 35.3265 71.947 35.4556 71.9745 35.5846C72.0496 35.8601 72.0961 36.1282 72.114 36.389C72.1043 36.5206 72.1139 36.6603 72.1428 36.808C72.1717 36.9557 72.1912 37.104 72.2014 37.253C72.204 37.2903 72.2239 37.3076 72.2611 37.305C72.2984 37.3025 72.3257 37.2912 72.343 37.2713C72.379 37.2502 72.4317 37.1998 72.501 37.1202L73.7498 35.6872C74.0073 35.3514 74.2954 35.051 74.614 34.7858C74.7726 34.644 74.922 34.5027 75.062 34.3621C75.2008 34.2029 75.3302 34.0443 75.4503 33.8864C75.6225 33.6688 75.7853 33.4517 75.9388 33.2354C76.111 33.0177 76.2832 32.8001 76.4553 32.5824C76.542 32.4829 76.6188 32.3748 76.6856 32.2579C76.771 32.1398 76.8472 32.0223 76.914 31.9054C77.0168 31.7674 77.1109 31.6393 77.1963 31.5212C77.2991 31.3831 77.4118 31.2538 77.5345 31.1331C77.5878 31.092 77.6318 31.0515 77.6665 31.0117C77.7185 30.952 77.7811 30.9103 77.8544 30.8866C77.873 30.8853 77.8823 30.8846 77.8823 30.8846C77.8996 30.8647 77.9083 30.8548 77.9083 30.8548C78.083 30.6744 78.2673 30.6337 78.4612 30.7326C78.5197 30.766 78.6047 30.7789 78.7165 30.7712C78.8655 30.761 78.9997 30.8079 79.1191 30.9119C79.1576 30.928 79.1868 30.9447 79.2067 30.962C79.244 30.9595 79.2725 30.9669 79.2924 30.9842L79.5718 30.965C79.6835 30.9574 79.7407 30.9721 79.7432 31.0094C79.7631 31.0267 79.767 31.0826 79.7547 31.177C79.7213 31.2354 79.7438 31.29 79.8221 31.3408C79.9165 31.353 79.9483 31.4069 79.9174 31.5026C79.9014 31.5411 79.9232 31.5864 79.9829 31.6384C80.0413 31.6718 80.0445 31.7184 79.9925 31.7781C79.9096 31.9335 79.864 32.0863 79.8556 32.2366C79.8247 32.3322 79.7846 32.4286 79.7351 32.5255C79.703 32.6026 79.6436 32.6908 79.5568 32.7903C79.3462 32.9919 79.156 33.2202 78.9864 33.4751C78.8156 33.7113 78.636 33.9575 78.4478 34.2137L78.2917 34.3928C78.117 34.5732 77.9522 34.7623 77.7974 34.96C77.6612 35.1565 77.5251 35.353 77.3889 35.5494C77.2006 35.8056 76.9938 36.0631 76.7683 36.3218C76.5602 36.5606 76.3521 36.7994 76.144 37.0383C76.0399 37.1577 75.9612 37.2379 75.9079 37.279C75.8199 37.3599 75.7326 37.4501 75.6459 37.5496C75.5591 37.6491 75.4731 37.7579 75.3876 37.8761C75.3716 37.9146 75.3369 37.9544 75.2836 37.9955C75.2489 38.0353 75.2142 38.0751 75.1795 38.1149C75.0581 38.2542 74.9374 38.4028 74.8172 38.5608C74.6958 38.7001 74.5651 38.8401 74.4251 38.9807C74.4264 38.9993 74.4183 39.0185 74.401 39.0384C74.401 39.0384 74.4016 39.0478 74.4029 39.0664C74.4042 39.085 74.3962 39.1043 74.3788 39.1242C74.3801 39.1428 74.3907 39.1608 74.4106 39.1781C74.433 39.2327 74.4841 39.2947 74.5637 39.3641L75.4256 40.0626C75.6022 40.1815 75.7707 40.3196 75.9312 40.4769C76.0904 40.6157 76.2496 40.7544 76.4088 40.8932L76.7112 41.2092C76.751 41.2439 76.7915 41.2879 76.8325 41.3412C76.8723 41.3759 76.9122 41.4106 76.952 41.4452C77.1683 41.5988 77.3847 41.7523 77.6011 41.9058C77.8174 42.0594 78.0245 42.2135 78.2222 42.3684L78.6643 42.6748C78.9005 42.8456 79.1548 43.0059 79.427 43.1556C79.6992 43.3053 79.9615 43.4463 80.2139 43.5787C80.3493 43.6442 80.4755 43.7104 80.5924 43.7772C80.7266 43.8241 80.8608 43.871 80.995 43.9179C81.2447 44.013 81.4537 44.1952 81.6219 44.4643C81.6418 44.4816 81.663 44.5176 81.6854 44.5722C81.7066 44.6081 81.7278 44.6441 81.749 44.6801C81.8562 44.8785 81.9068 45.0715 81.901 45.259C81.9112 45.408 81.8997 45.5117 81.8662 45.5701L81.7978 45.7993C81.7843 45.8751 81.7528 45.9615 81.7033 46.0584C81.6712 46.1355 81.6105 46.2051 81.5212 46.2674C81.4853 46.2886 81.4512 46.3377 81.4191 46.4147C81.3497 46.4944 81.2871 46.5361 81.2312 46.5399C81.1394 46.5649 81.0382 46.5906 80.9278 46.6169C80.836 46.6419 80.7441 46.6669 80.6523 46.692C80.5791 46.7157 80.5052 46.7301 80.4307 46.7352C80.3562 46.7404 80.2811 46.7362 80.2053 46.7227C80.1854 46.7053 80.1569 46.6979 80.1196 46.7005C80.0438 46.687 79.9681 46.6735 79.8923 46.66C79.8352 46.6452 79.778 46.6304 79.7209 46.6156C79.6624 46.5822 79.604 46.5488 79.5456 46.5154C79.5045 46.4621 79.4641 46.4181 79.4242 46.3834C79.3844 46.3487 79.3353 46.3147 79.2769 46.2813C79.2185 46.2479 79.1607 46.2238 79.1035 46.209L78.6673 45.9864C78.6461 45.9504 78.6069 45.925 78.5498 45.9102C78.51 45.8755 78.4708 45.8502 78.4323 45.8341C78.3552 45.802 78.3067 45.7772 78.2868 45.7599C78.2059 45.6719 78.1077 45.6038 77.9921 45.5556C77.8952 45.5061 77.7976 45.4474 77.6994 45.3793C77.5414 45.2591 77.3748 45.149 77.1995 45.0488C77.0416 44.9286 76.8837 44.8085 76.7257 44.6884C76.3899 44.4308 76.0542 44.1732 75.7184 43.9156C75.4012 43.6567 75.0834 43.3886 74.765 43.1111C74.5262 42.9029 74.2873 42.6948 74.0485 42.4867C73.8097 42.2786 73.5522 42.0718 73.2762 41.8662C73.1978 41.8154 73.1195 41.7647 73.0412 41.7139C72.9815 41.6619 72.9031 41.6112 72.8062 41.5617C72.785 41.5257 72.7564 41.5183 72.7205 41.5395C72.7031 41.5594 72.6957 41.588 72.6983 41.6252C72.6809 41.6451 72.6748 41.6923 72.68 41.7668L72.8872 44.7837C72.9 44.9699 72.9135 45.1655 72.9275 45.3703C72.9403 45.5566 72.9351 45.7534 72.912 45.9608L72.9408 46.3798C72.9311 46.5114 72.9307 46.6424 72.9397 46.7728C72.9673 46.9019 72.9769 47.0415 72.9685 47.1918L72.9973 47.6108C72.9825 47.668 72.9677 47.7251 72.9529 47.7823C72.9381 47.8394 72.914 47.8972 72.8806 47.9556C72.8286 48.0153 72.7865 48.0837 72.7544 48.1608C72.721 48.2192 72.6876 48.2776 72.6542 48.336C72.6195 48.3758 72.5835 48.397 72.5463 48.3996C72.4731 48.4233 72.4011 48.4657 72.3305 48.5267C72.2784 48.5864 72.2072 48.6381 72.1166 48.6817C71.9939 48.8024 71.8395 48.8691 71.6532 48.8819C71.6147 48.8659 71.5681 48.8691 71.5136 48.8915C71.4776 48.9127 71.4317 48.9252 71.3758 48.9291Z" fill="white"/>
</svg>
