<svg width="266" height="357" viewBox="0 0 266 357" fill="none" xmlns="http://www.w3.org/2000/svg">
<g filter="url(#filter0_d_209_22)">
<path d="M86.5 49.5L22.5 92.5L199.5 348L227 343.5L250.5 327.5L254.5 324L260.5 301.5L86.5 49.5Z" fill="#1E9814" stroke="#664141"/>
<path d="M22.5 93L8.5 16L12 18H17L22.5 13V7.5L87 49.5L75 76.5L49 93H22.5Z" fill="#FFC49A" stroke="#664141"/>
<path d="M28 11L10.5 26L8.5 16.5L5.5 4.5L13 1.5L28 11Z" fill="#277D2A" stroke="#664141"/>
<path d="M201.5 339L36 101.5H49L212 339H201.5Z" fill="#277D2A"/>
<path d="M223.5 331.5L59 97L73.5 87L238.5 323L223.5 331.5Z" fill="#277D2A"/>
<path d="M84 80.5L88 66L250.5 298L247.5 310L84 80.5Z" fill="#277D2A"/>
<path d="M201.5 339L36 101.5H49L212 339H201.5Z" stroke="#277D2A"/>
<path d="M223.5 331.5L59 97L73.5 87L238.5 323L223.5 331.5Z" stroke="#277D2A"/>
<path d="M84 80.5L88 66L250.5 298L247.5 310L84 80.5Z" stroke="#277D2A"/>
<path d="M27.5 82.5L15 31.5H18L41.5 82.5H27.5Z" fill="#D59669"/>
<path d="M62 69L49 78L22.5 29L27.5 26L62 69Z" fill="#D59669"/>
<path d="M69 59.5L74.5 48.5L33 18L30.5 23L69 59.5Z" fill="#D59669"/>
<path d="M27.5 82.5L15 31.5H18L41.5 82.5H27.5Z" stroke="#E98D4B"/>
<path d="M62 69L49 78L22.5 29L27.5 26L62 69Z" stroke="#E98D4B"/>
<path d="M69 59.5L74.5 48.5L33 18L30.5 23L69 59.5Z" stroke="#E98D4B"/>
</g>
<defs>
<filter id="filter0_d_209_22" x="0.90918" y="0.940826" width="264.133" height="355.604" filterUnits="userSpaceOnUse" color-interpolation-filters="sRGB">
<feFlood flood-opacity="0" result="BackgroundImageFix"/>
<feColorMatrix in="SourceAlpha" type="matrix" values="0 0 0 0 0 0 0 0 0 0 0 0 0 0 0 0 0 0 127 0" result="hardAlpha"/>
<feOffset dy="4"/>
<feGaussianBlur stdDeviation="2"/>
<feComposite in2="hardAlpha" operator="out"/>
<feColorMatrix type="matrix" values="0 0 0 0 0 0 0 0 0 0 0 0 0 0 0 0 0 0 0.25 0"/>
<feBlend mode="normal" in2="BackgroundImageFix" result="effect1_dropShadow_209_22"/>
<feBlend mode="normal" in="SourceGraphic" in2="effect1_dropShadow_209_22" result="shape"/>
</filter>
</defs>
</svg>
