<svg width="263" height="354" viewBox="0 0 263 354" fill="none" xmlns="http://www.w3.org/2000/svg">
<g filter="url(#filter0_d_209_22)">
<path d="M83.5 46.5L19.5 89.5L196.5 345L224 340.5L247.5 324.5L251.5 321L257.5 298.5L83.5 46.5Z" fill="#E9D20A" stroke="#664141"/>
<path d="M19.5 90L5.5 13L9 15H14L19.5 10V4.5L84 46.5L72 73.5L46 90H19.5Z" fill="#FFC49A" stroke="#664141"/>
<path d="M25 8L7.5 23L5.5 14L5 9L15.5 1L25 8Z" fill="#E4D127" stroke="#664141"/>
<path d="M198.5 336L33 98.5H46L209 336H198.5Z" fill="#C2A717"/>
<path d="M220.5 328.5L56 94L70.5 84L235.5 320L220.5 328.5Z" fill="#C2A717"/>
<path d="M81 77.5L85 63L247.5 295L244.5 307L81 77.5Z" fill="#C2A717"/>
<path d="M198.5 336L33 98.5H46L209 336H198.5Z" stroke="#C2C622"/>
<path d="M220.5 328.5L56 94L70.5 84L235.5 320L220.5 328.5Z" stroke="#C2C622"/>
<path d="M81 77.5L85 63L247.5 295L244.5 307L81 77.5Z" stroke="#C2C622"/>
<path d="M24.5 79.5L12 28.5H15L38.5 79.5H24.5Z" fill="#D59669"/>
<path d="M59 66L46 75L19.5 26L24.5 23L59 66Z" fill="#D59669"/>
<path d="M66 56.5L71.5 45.5L30 15L27.5 20L66 56.5Z" fill="#D59669"/>
<path d="M24.5 79.5L12 28.5H15L38.5 79.5H24.5Z" stroke="#E98D4B"/>
<path d="M59 66L46 75L19.5 26L24.5 23L59 66Z" stroke="#E98D4B"/>
<path d="M66 56.5L71.5 45.5L30 15L27.5 20L66 56.5Z" stroke="#E98D4B"/>
</g>
<defs>
<filter id="filter0_d_209_22" x="0.474609" y="0.375244" width="261.568" height="353.169" filterUnits="userSpaceOnUse" color-interpolation-filters="sRGB">
<feFlood flood-opacity="0" result="BackgroundImageFix"/>
<feColorMatrix in="SourceAlpha" type="matrix" values="0 0 0 0 0 0 0 0 0 0 0 0 0 0 0 0 0 0 127 0" result="hardAlpha"/>
<feOffset dy="4"/>
<feGaussianBlur stdDeviation="2"/>
<feComposite in2="hardAlpha" operator="out"/>
<feColorMatrix type="matrix" values="0 0 0 0 0 0 0 0 0 0 0 0 0 0 0 0 0 0 0.25 0"/>
<feBlend mode="normal" in2="BackgroundImageFix" result="effect1_dropShadow_209_22"/>
<feBlend mode="normal" in="SourceGraphic" in2="effect1_dropShadow_209_22" result="shape"/>
</filter>
</defs>
</svg>
