<svg width="270" height="365" viewBox="0 0 270 365" fill="none" xmlns="http://www.w3.org/2000/svg">
<g filter="url(#filter0_d_209_22)">
<path d="M90.5 57.5L26.5 100.5L203.5 356L231 351.5L254.5 335.5L258.5 332L264.5 309.5L90.5 57.5Z" fill="#BF2D2D" stroke="#664141"/>
<path d="M26.5 101L12.5 24L16 26H21L26.5 21V15.5L91 57.5L79 84.5L53 101H26.5Z" fill="#FFC49A" stroke="#664141"/>
<path d="M32 19L14.5 34L12.5 24.5L5 3.5L8 1.5L32 19Z" fill="#A63131" stroke="#664141"/>
<path d="M205.5 347L40 109.5H53L216 347H205.5Z" fill="#A42727"/>
<path d="M227.5 339.5L63 105L77.5 95L242.5 331L227.5 339.5Z" fill="#A42727"/>
<path d="M88 88.5L92 74L254.5 306L251.5 318L88 88.5Z" fill="#A42727"/>
<path d="M205.5 347L40 109.5H53L216 347H205.5Z" stroke="#A42727"/>
<path d="M227.5 339.5L63 105L77.5 95L242.5 331L227.5 339.5Z" stroke="#A42727"/>
<path d="M88 88.5L92 74L254.5 306L251.5 318L88 88.5Z" stroke="#A42727"/>
<path d="M31.5 90.5L19 39.5H22L45.5 90.5H31.5Z" fill="#D59669"/>
<path d="M66 77L53 86L26.5 37L31.5 34L66 77Z" fill="#D59669"/>
<path d="M73 67.5L78.5 56.5L37 26L34.5 31L73 67.5Z" fill="#D59669"/>
<path d="M31.5 90.5L19 39.5H22L45.5 90.5H31.5Z" stroke="#E98D4B"/>
<path d="M66 77L53 86L26.5 37L31.5 34L66 77Z" stroke="#E98D4B"/>
<path d="M73 67.5L78.5 56.5L37 26L34.5 31L73 67.5Z" stroke="#E98D4B"/>
</g>
<defs>
<filter id="filter0_d_209_22" x="0.397949" y="0.890533" width="268.645" height="363.654" filterUnits="userSpaceOnUse" color-interpolation-filters="sRGB">
<feFlood flood-opacity="0" result="BackgroundImageFix"/>
<feColorMatrix in="SourceAlpha" type="matrix" values="0 0 0 0 0 0 0 0 0 0 0 0 0 0 0 0 0 0 127 0" result="hardAlpha"/>
<feOffset dy="4"/>
<feGaussianBlur stdDeviation="2"/>
<feComposite in2="hardAlpha" operator="out"/>
<feColorMatrix type="matrix" values="0 0 0 0 0 0 0 0 0 0 0 0 0 0 0 0 0 0 0.25 0"/>
<feBlend mode="normal" in2="BackgroundImageFix" result="effect1_dropShadow_209_22"/>
<feBlend mode="normal" in="SourceGraphic" in2="effect1_dropShadow_209_22" result="shape"/>
</filter>
</defs>
</svg>
