<svg width="381" height="183" viewBox="0 0 381 183" fill="none" xmlns="http://www.w3.org/2000/svg">
<rect y="23.4979" width="371.009" height="159.731" rx="79.8653" transform="rotate(-3.63126 0 23.4979)" fill="#C8654F"/>
<path d="M91.0878 140.311C90.4141 140.137 89.8715 139.734 89.4598 139.101L89.0466 137.917C88.948 137.556 88.8859 137.193 88.8605 136.827C88.835 136.461 88.773 136.098 88.6744 135.737C88.5808 135.45 88.4873 135.162 88.3938 134.874C88.3785 134.655 88.2901 134.441 88.1285 134.231C87.9618 133.949 87.7951 133.666 87.6284 133.384C87.4617 133.102 87.2951 132.819 87.1284 132.537C86.2014 130.837 85.8283 129.172 86.0089 127.542L85.9707 126.994C85.9827 126.111 85.9973 125.264 86.0144 124.455C86.0265 123.572 86.0385 122.689 86.0506 121.806C86.0302 121.513 86.0098 121.22 85.9895 120.928C86.0422 120.63 86.0585 120.335 86.0381 120.042C86.0228 119.823 86.0075 119.603 85.9922 119.384C86.0501 119.159 86.074 118.974 86.0638 118.828C86.0383 118.462 86.0103 118.059 85.9798 117.62C86.0224 117.176 86.0309 116.772 86.0055 116.406L85.9596 115.747C85.805 114.582 85.6895 113.451 85.6131 112.353C85.5316 111.183 85.4501 110.012 85.3687 108.842C85.3432 108.476 85.3177 108.11 85.2923 107.744C85.2617 107.305 85.1971 106.906 85.0985 106.545C85.0152 106.404 84.9633 106.187 84.9429 105.894C84.9804 105.377 84.9473 104.901 84.8436 104.468C84.8131 104.029 84.7825 103.59 84.752 103.151C84.7316 102.858 84.7138 102.602 84.6985 102.383C84.6781 102.09 84.6969 101.831 84.7548 101.607C84.777 100.87 84.7286 100.175 84.6096 99.5219C84.4753 98.6492 84.3411 97.7764 84.2068 96.9036C84.0725 96.0308 83.9042 95.1971 83.7019 94.4026C83.469 93.1691 83.2361 91.9357 83.0033 90.7022C82.8435 89.4636 82.7569 88.22 82.7435 86.9712L82.5144 83.6792C82.4889 83.3134 82.4634 82.9476 82.438 82.5818C82.4857 82.211 82.4993 81.8792 82.479 81.5866L82.4179 80.7087C82.304 80.1286 82.2266 79.5459 82.1859 78.9606C82.2132 78.2971 82.2405 77.6336 82.2679 76.9701L82.1838 75.763C82.1125 74.7388 82.0412 73.7147 81.9699 72.6905C81.9718 71.6612 81.9396 70.671 81.8734 69.72C81.8327 69.1347 81.7945 68.5861 81.7589 68.074C81.7181 67.4887 81.6068 66.9452 81.4248 66.4432C81.2905 65.5705 81.2975 64.6143 81.4457 63.5749C81.6244 62.9743 81.8422 62.4078 82.0992 61.8754C82.3562 61.3429 82.6523 60.8445 82.9875 60.3801C84.1974 58.7521 85.8631 57.8643 87.9846 57.7166C88.6481 57.744 89.2801 57.847 89.8807 58.0257C90.5493 58.1262 91.1549 58.3781 91.6975 58.7814C91.8489 58.8443 92.0811 59.012 92.3941 59.2842C92.7803 59.5514 93.203 59.816 93.6623 60.078C94.1897 60.2619 94.7145 60.4091 95.2368 60.5198C95.8271 60.5522 96.42 60.6212 97.0155 60.7268C97.6841 60.8272 98.3161 60.9303 98.9115 61.0358C99.1361 61.0937 99.4312 61.1099 99.797 61.0845C100.163 61.059 100.448 60.9289 100.652 60.6942C100.788 60.5376 100.927 60.4177 101.068 60.3344C101.277 60.1728 101.489 60.0478 101.703 59.9594C102.546 59.3861 103.348 59.2936 104.11 59.6816C104.335 59.7394 104.525 59.8364 104.682 59.9726C104.906 60.0305 105.094 60.0909 105.246 60.1538C106.076 60.4636 106.728 60.8593 107.203 61.3408C107.599 61.7543 108.095 62.0138 108.69 62.1194C109.061 62.1671 109.361 62.2564 109.591 62.3875C109.894 62.5134 110.202 62.7125 110.515 62.9848C110.823 63.1839 111.128 63.3464 111.431 63.4723C111.807 63.5932 112.146 63.7166 112.449 63.8425C113.039 63.8749 113.538 64.171 113.944 64.7308C114.278 65.2957 114.781 65.6649 115.455 65.8386C115.826 65.8863 116.207 66.0803 116.598 66.4206C116.76 66.6299 117.143 66.8605 117.749 67.1124C118.12 67.1601 118.425 67.3226 118.665 67.5999C118.973 67.799 119.249 68.0738 119.494 68.4243L119.737 68.7382C120.325 69.7999 121.238 70.7656 122.474 71.6351C122.939 71.9703 123.372 72.3813 123.773 72.8679C124.17 73.2814 124.461 73.7756 124.648 74.3507C124.815 74.6332 124.982 74.9156 125.148 75.198C125.388 75.4754 125.594 75.7918 125.766 76.1474C125.927 76.3567 126.052 76.5686 126.141 76.7829C126.229 76.9973 126.32 77.2483 126.414 77.5358C126.507 77.8233 126.598 78.0743 126.687 78.2887C126.775 78.503 126.866 78.754 126.96 79.0415C127.043 79.1827 127.092 79.3631 127.108 79.5826C127.118 79.7289 127.164 79.8726 127.248 80.0139C127.523 80.8033 127.728 81.6344 127.862 82.5072C128.07 83.3749 128.241 84.2451 128.375 85.1179C128.484 85.6249 128.519 86.137 128.482 86.6542C128.518 87.1663 128.556 87.715 128.597 88.3002C128.622 88.666 128.613 89.0709 128.571 89.5149C128.596 89.8807 128.585 90.249 128.537 90.6199C128.553 90.8394 128.497 91.1005 128.371 91.4033C127.851 93.4244 126.912 95.254 125.556 96.8921C125.284 97.2051 125.014 97.5547 124.747 97.9408C124.474 98.2538 124.202 98.5668 123.93 98.8798C123.522 99.3493 123.111 99.7822 122.697 100.179C122.284 100.575 121.87 100.971 121.457 101.368L121.15 101.72C120.586 102.053 120.021 102.386 119.456 102.72C118.891 103.053 118.284 103.316 117.636 103.508C117.417 103.523 117.273 103.57 117.205 103.648C116.713 103.977 116.138 104.164 115.48 104.21C114.894 104.25 114.307 104.254 113.716 104.222C113.419 104.169 113.123 104.153 112.831 104.173C112.606 104.115 112.348 104.097 112.055 104.117C111.104 104.183 110.192 104.284 109.319 104.418C108.446 104.552 107.54 104.725 106.599 104.938L101.605 106.058C101.385 106.073 101.132 106.127 100.844 106.221C100.625 106.236 100.371 106.29 100.083 106.384C99.5765 106.493 99.072 106.638 98.5701 106.82C98.1363 106.924 97.6608 106.957 97.1436 106.919C96.9241 106.935 96.8246 107.089 96.8449 107.381L96.9748 109.247C96.8845 110.062 96.9405 110.866 97.1428 111.661C97.335 112.309 97.2975 112.826 97.0303 113.212C96.8465 113.74 96.8481 114.291 97.0352 114.866C97.2273 115.514 97.3854 116.202 97.5095 116.928C97.7017 117.576 97.8938 118.225 98.086 118.873C98.1846 119.233 98.2466 119.597 98.2721 119.963C98.3707 120.323 98.4327 120.686 98.4582 121.052C98.7115 122.578 99.0379 124.099 99.4374 125.615C99.6143 126.044 99.718 126.478 99.7486 126.917C99.8472 127.277 99.9484 127.675 100.052 128.109C100.088 128.621 100.079 129.026 100.026 129.323C99.9685 129.548 99.9132 129.809 99.8604 130.107C99.8756 130.326 99.8178 130.551 99.6867 130.78L99.411 131.571C99.2749 131.728 99.1438 131.958 99.0179 132.26C98.766 132.866 98.287 133.377 97.5809 133.794C96.7285 134.221 95.934 134.423 95.1973 134.401C94.8315 134.426 94.578 134.481 94.4368 134.564C94.071 134.59 93.8617 134.751 93.809 135.049C93.746 135.2 93.6856 135.388 93.6277 135.613C93.5698 135.837 93.5094 136.025 93.4464 136.177C93.4668 136.469 93.4506 136.765 93.3978 137.062C93.4233 137.428 93.4121 137.796 93.3644 138.167C93.332 138.758 93.0776 139.327 92.6012 139.874C92.1928 140.344 91.6883 140.489 91.0878 140.311ZM98.0868 96.7092C98.5258 96.6787 98.9281 96.6507 99.2939 96.6252C99.7277 96.5215 100.162 96.4178 100.595 96.3141C101.097 96.1321 101.602 95.9867 102.109 95.8779C102.616 95.7691 103.123 95.6603 103.63 95.5515C104.644 95.3339 105.616 95.0457 106.547 94.6868C106.834 94.5933 107.124 94.5364 107.417 94.516C107.705 94.4225 107.995 94.3655 108.287 94.3452C108.799 94.3095 109.163 94.2475 109.377 94.159C109.879 93.9771 110.349 93.8708 110.788 93.8403C111.3 93.8046 111.849 93.7664 112.434 93.7257L114.08 93.6111C114.953 93.4768 115.623 93.0627 116.089 92.3686L116.898 91.3199C117.165 90.9337 117.396 90.5501 117.59 90.1691C117.852 89.7098 118.002 89.2215 118.039 88.7043C118.109 87.5968 118.004 86.6117 117.723 85.7491C117.443 84.8865 117.128 84.0631 116.779 83.2787C116.426 82.4212 116.004 81.642 115.514 80.941C115.009 80.0205 114.299 79.3347 113.386 78.8838C113.088 78.831 112.853 78.6268 112.682 78.2712C112.505 77.8424 112.226 77.5311 111.845 77.3371C111.767 77.269 111.688 77.2009 111.61 77.1329C111.532 77.0648 111.417 76.9993 111.266 76.9363C110.953 76.6641 110.54 76.5458 110.028 76.5814C109.735 76.6018 109.404 76.5881 109.033 76.5404C108.73 76.4145 108.43 76.3251 108.132 76.2723C107.829 76.1464 107.526 76.0204 107.223 75.8945C106.994 75.7635 106.764 75.6324 106.534 75.5014C105.772 75.1134 104.952 74.9499 104.074 75.011C103.416 75.0569 102.677 74.9981 101.857 74.8346C101.016 74.3785 100.155 74.1445 99.2719 74.1324C99.1255 74.1426 98.901 74.0847 98.5982 73.9588L97.6974 73.6907C97.2432 73.5018 96.8697 73.4175 96.5771 73.4379C95.6057 73.2115 94.9336 73.589 94.5609 74.5706C94.503 74.7952 94.4477 75.0563 94.3949 75.3541C94.337 75.5786 94.2817 75.8398 94.2289 76.1375C94.1965 76.7278 94.1641 77.3182 94.1317 77.9085C94.0993 78.4988 94.0668 79.0892 94.0344 79.6795C93.9918 80.1236 93.9492 80.5676 93.9066 81.0116C93.864 81.4557 93.858 81.8971 93.8886 82.3361C93.8816 83.2922 93.9112 84.2458 93.9774 85.1968C94.1168 86.1427 94.2953 87.1227 94.5129 88.1367L94.5893 89.2341C94.6249 89.7462 94.6606 90.2583 94.6962 90.7704C94.805 91.2774 94.9138 91.7844 95.0226 92.2914C95.1111 92.5057 95.168 92.7958 95.1935 93.1616L95.7289 96.1015C95.7595 96.5404 95.9942 96.7446 96.4332 96.7141C96.7309 96.7669 96.9895 96.7856 97.2089 96.7703C97.5016 96.75 97.7942 96.7296 98.0868 96.7092ZM149.58 130.064C149.01 130.324 148.346 130.297 147.589 129.982L145.326 129.147C144.95 129.026 144.634 128.717 144.379 128.221L144.004 127.585C143.832 127.229 143.632 126.986 143.402 126.855C143.016 126.588 142.724 126.094 142.527 125.372C142.33 124.651 142.169 123.927 142.045 123.201C141.921 122.474 141.797 121.748 141.673 121.021C141.559 120.441 141.481 119.858 141.441 119.273C141.4 118.688 141.362 118.139 141.326 117.627L141.382 116.851C141.503 116.475 141.551 116.104 141.525 115.739C141.5 115.373 141.477 115.044 141.457 114.751L140.066 94.7793C140.141 93.745 140.143 92.7157 140.072 91.6915C139.996 90.5941 139.922 89.5334 139.85 88.5092C139.852 87.4799 139.82 86.4898 139.754 85.5387C139.683 84.5145 139.541 83.532 139.328 82.5912C139.23 82.2305 139.165 81.8307 139.134 81.3917C139.104 80.9528 139.073 80.5139 139.043 80.0749C138.997 79.4165 138.951 78.7581 138.905 78.0997C138.859 77.4413 138.74 76.788 138.548 76.1398L138.525 75.8105C138.454 74.7864 138.312 73.8038 138.1 72.863C137.955 71.8439 137.813 70.8614 137.674 69.9154C137.56 69.3353 137.449 68.7917 137.34 68.2847C137.231 67.7777 137.086 67.2732 136.904 66.7713C136.81 66.4838 136.753 66.1937 136.733 65.9011C136.713 65.6085 136.692 65.3159 136.672 65.0232C136.636 64.5111 136.676 64.0305 136.792 63.5814C136.903 63.0591 137.016 62.5734 137.132 62.1243C137.195 61.9729 137.362 61.7407 137.634 61.4277C137.771 61.2712 137.909 61.1513 138.05 61.0679C138.192 60.9846 138.296 60.9038 138.364 60.8256C138.763 60.2097 139.33 59.913 140.067 59.9352C140.218 59.9982 140.435 59.9463 140.717 59.7796C141.063 59.4615 141.39 59.402 141.697 59.6011C141.927 59.7322 142.293 59.7067 142.795 59.5247C143.014 59.5095 143.202 59.5699 143.359 59.706C143.599 59.9834 143.906 60.1825 144.282 60.3033C144.658 60.4242 144.93 60.6258 145.096 60.9083C145.331 61.1124 145.566 61.3166 145.801 61.5208C145.962 61.7301 146.124 61.9394 146.285 62.1487C146.515 62.2797 146.64 62.4915 146.66 62.7842C146.754 63.0717 146.774 63.3643 146.722 63.662C146.737 63.8815 146.755 64.1376 146.775 64.4302C146.821 65.0886 146.906 65.781 147.03 66.5075C147.222 67.1557 147.378 67.8065 147.497 68.4598C147.694 69.1812 147.857 69.9417 147.986 70.7413C148.11 71.4678 148.237 72.2308 148.366 73.0305L148.443 74.1278C148.624 74.6297 148.733 75.1367 148.769 75.6488C148.805 76.1609 148.877 76.6704 148.986 77.1774L148.993 77.2872C149.128 78.16 149.262 79.0328 149.396 79.9055C149.53 80.7783 149.665 81.6511 149.799 82.5239C149.897 82.8846 149.962 83.2844 149.993 83.7233C150.018 84.0891 150.044 84.4549 150.069 84.8207L152.101 114.01C152.147 114.668 152.229 115.324 152.348 115.978C152.54 116.626 152.693 117.24 152.807 117.82C152.833 118.186 153.065 118.354 153.504 118.323C154.172 118.423 154.794 118.38 155.369 118.193C156.164 117.991 156.927 117.864 157.658 117.813C158.463 117.757 159.268 117.701 160.073 117.645C160.877 117.589 161.645 117.536 162.377 117.485C163.177 117.356 163.94 117.229 164.666 117.105L165.873 117.021C166.464 117.053 166.981 117.091 167.425 117.133C167.937 117.098 168.449 117.062 168.961 117.026C169.766 116.97 170.573 116.951 171.383 116.968C172.261 116.907 173.105 116.885 173.914 116.902C174.505 116.935 175.093 116.93 175.678 116.89C176.336 116.844 176.995 116.798 177.653 116.752L178.202 116.714C179.66 116.539 181.002 116.813 182.229 117.536C182.756 117.72 183.147 118.06 183.402 118.557C183.569 118.84 183.699 119.125 183.793 119.412C183.954 119.622 184.084 119.907 184.183 120.267C184.276 120.555 184.333 120.845 184.354 121.137C184.442 121.352 184.533 121.603 184.627 121.89C184.892 122.533 184.87 123.27 184.56 124.1C184.502 124.325 184.444 124.549 184.386 124.774C184.328 124.999 184.234 125.226 184.103 125.455C183.972 125.685 183.802 125.881 183.593 126.042C183.593 126.042 183.451 126.126 183.169 126.292C182.619 126.845 181.984 127.22 181.262 127.417C180.614 127.609 179.893 127.807 179.098 128.009L177.993 127.976C176.87 127.686 175.758 127.543 174.655 127.546C174.358 127.494 174.026 127.48 173.66 127.505C173.289 127.458 172.921 127.447 172.555 127.472C172.043 127.508 171.531 127.543 171.019 127.579C170.502 127.542 169.948 127.507 169.358 127.474L168.253 127.441C167.599 127.56 166.943 127.642 166.285 127.688C165.622 127.661 164.963 127.707 164.31 127.826C164.017 127.846 163.725 127.866 163.432 127.887C163.134 127.834 162.839 127.818 162.546 127.838C161.961 127.879 161.376 127.92 160.791 127.96C160.279 127.996 159.735 128.107 159.16 128.294C158.872 128.388 158.512 128.486 158.078 128.59C157.712 128.616 157.346 128.641 156.981 128.667C155.888 128.816 154.799 129.002 153.711 129.225C152.619 129.374 151.569 129.595 150.56 129.885C150.345 129.974 150.019 130.033 149.58 130.064ZM240.337 131.465C239.678 131.511 239.075 131.295 238.527 130.819C238.366 130.609 238.204 130.4 238.043 130.191C237.881 129.982 237.72 129.772 237.558 129.563C236.793 128.073 236.351 126.486 236.234 124.804L235.722 122.193C235.431 121.184 235.177 120.172 234.959 119.158C234.742 118.144 234.417 117.175 233.985 116.249L233.196 114.429C233.186 114.283 233.14 114.139 233.056 113.998C233.046 113.852 232.999 113.708 232.916 113.567L230.865 107.865C230.782 107.724 230.696 107.546 230.607 107.332C230.592 107.113 230.506 106.935 230.35 106.799C230.1 106.375 229.886 105.949 229.709 105.52C229.601 105.013 229.455 104.509 229.273 104.007C229.175 103.646 229.078 103.322 228.985 103.034C228.886 102.674 228.751 102.316 228.579 101.96C228.403 101.531 228.238 101.285 228.087 101.222C227.93 101.086 227.601 101.109 227.099 101.291C226.739 101.39 226.341 101.491 225.908 101.595C225.542 101.62 225.181 101.719 224.825 101.89C224.538 101.984 224.177 102.083 223.743 102.186C223.378 102.212 223.014 102.274 222.654 102.372L221.14 102.809C220.78 102.907 220.385 103.045 219.956 103.222C219.596 103.32 219.232 103.382 218.866 103.408L216.914 103.875C216.339 104.062 215.727 104.251 215.079 104.443C214.431 104.636 213.819 104.825 213.244 105.012C211.519 105.573 209.786 106.025 208.046 106.367C207.471 106.554 207.159 106.833 207.112 107.203C207.039 107.209 207.004 107.248 207.01 107.321C206.652 108.522 206.222 109.728 205.718 110.939C205.282 112.072 204.812 113.244 204.309 114.456C204.183 114.758 204.057 115.061 203.931 115.364C203.873 115.589 203.781 115.852 203.655 116.155C203.592 116.306 203.532 116.494 203.474 116.719C203.411 116.87 203.348 117.022 203.285 117.173C202.881 117.716 202.705 118.353 202.756 119.085C202.714 119.529 202.598 119.978 202.409 120.432C202.215 120.813 202.021 121.194 201.827 121.575C201.769 121.8 201.63 121.92 201.411 121.935C201.123 122.028 200.838 122.158 200.556 122.325C200.274 122.492 199.955 122.661 199.599 122.833C199.385 122.921 199.165 122.937 198.941 122.879C198.789 122.816 198.601 122.755 198.377 122.697C198.22 122.561 198.069 122.498 197.922 122.509C197.113 122.491 196.494 122.057 196.067 121.204C195.401 120.074 194.917 118.932 194.616 117.777C194.522 117.489 194.504 117.233 194.562 117.009C194.693 116.779 194.788 116.552 194.846 116.327C195.264 116.004 195.497 115.657 195.545 115.286L195.537 115.176C195.471 114.225 195.593 113.335 195.903 112.505C196.281 111.596 196.588 110.729 196.824 109.904C196.94 109.455 197.092 109.004 197.281 108.549C197.47 108.095 197.659 107.641 197.848 107.187C198.105 106.654 198.291 106.163 198.407 105.714C198.591 105.187 198.738 104.662 198.849 104.14C199.028 103.539 198.99 102.991 198.734 102.494C198.558 102.065 198.456 101.668 198.431 101.302C198.4 100.863 198.406 100.422 198.449 99.9775C198.393 99.1728 198.637 98.4575 199.182 97.8315C199.449 97.4453 199.721 97.1323 199.998 96.8925C200.344 96.5744 200.653 96.2589 200.925 95.9459C201.538 95.2416 201.989 94.3281 202.278 93.2053C202.504 92.2339 202.658 91.2676 202.738 90.3064C202.886 89.2669 203.037 88.264 203.19 87.2977C203.27 86.3365 203.353 85.4119 203.438 84.5238C203.591 83.5575 203.747 82.6277 203.905 81.7346C203.953 81.3637 204.003 81.0294 204.056 80.7317C204.177 80.3557 204.264 80.0189 204.316 79.7212C204.495 79.1207 204.676 78.5567 204.86 78.0293C205.039 77.4288 205.145 76.8334 205.177 76.243C205.303 75.9402 205.285 75.6842 205.124 75.4749C205.025 75.1142 205.002 74.785 205.055 74.4873C205.181 74.1845 205.27 73.8842 205.323 73.5865C205.507 73.0591 205.617 72.5368 205.655 72.0196C205.766 71.4974 205.913 70.9725 206.097 70.4452C206.396 69.4687 206.635 68.6802 206.814 68.0796C207.061 67.4009 207.266 66.6515 207.429 65.8315C207.545 65.3823 207.663 64.9698 207.784 64.5938C207.973 64.1396 208.089 63.6905 208.132 63.2465C208.305 62.5728 208.442 61.9016 208.543 61.2331C208.638 60.4913 208.663 59.7912 208.617 59.1328C208.723 58.5374 208.841 58.1248 208.972 57.8952C209.287 57.1382 209.683 56.4858 210.159 55.938C210.709 55.3852 211.222 54.8349 211.698 54.2872C212.049 54.0422 212.404 53.8705 212.765 53.7718C213.12 53.6001 213.489 53.6112 213.87 53.8052C214.173 53.9311 214.361 53.9916 214.434 53.9865C215.087 53.8675 215.646 53.9756 216.11 54.3108C216.575 54.646 216.971 55.0595 217.299 55.5512C217.456 55.6874 217.578 55.8626 217.667 56.077C217.755 56.2914 217.841 56.4692 217.924 56.6104C218.331 57.1702 218.555 57.7427 218.595 58.3279C218.616 58.6206 218.675 58.9472 218.774 59.3079C218.867 59.5955 218.963 59.9196 219.062 60.2803C219.312 60.7039 219.656 60.9005 220.095 60.8699C220.163 60.7917 220.237 60.7866 220.315 60.8546C220.393 60.9227 220.435 60.9933 220.44 61.0665C220.836 61.4799 220.979 61.9478 220.868 62.4701C220.763 63.0655 220.767 63.6533 220.881 64.2335C221.063 64.7354 221.247 65.2739 221.434 65.8489C221.778 66.5601 222.122 67.2713 222.465 67.9825C222.809 68.6937 223.152 69.4049 223.496 70.1161C223.918 70.8954 224.339 71.6746 224.761 72.4539C225.183 73.2331 225.568 74.0149 225.917 74.7993C226.354 75.798 226.791 76.7967 227.228 77.7955C227.738 78.7891 228.285 79.7802 228.868 80.7687L229.282 81.9529C229.375 82.2404 229.469 82.5279 229.562 82.8155C229.729 83.0979 229.859 83.3829 229.953 83.6704C230.114 83.8797 230.239 84.0915 230.328 84.3059C230.489 84.5152 230.648 84.6879 230.805 84.824C231.206 85.3107 231.464 85.8441 231.578 86.4242C231.848 87.1405 232.223 87.776 232.703 88.3307C232.864 88.54 233.092 88.6344 233.384 88.6141C234.471 88.3914 235.561 88.2052 236.653 88.0557C237.74 87.833 238.823 87.5371 239.899 87.1681C240.689 86.8926 241.449 86.7294 242.181 86.6785C243.571 86.5817 244.884 86.9681 246.121 87.8377C247.587 88.8383 248.416 90.1773 248.606 91.8548C248.631 92.2206 248.688 92.5107 248.777 92.7251C248.812 93.2372 248.694 93.6497 248.422 93.9627C248.364 94.1873 248.233 94.4169 248.029 94.6517C247.898 94.8813 247.767 95.111 247.636 95.3406C247.51 95.6434 247.379 95.8731 247.243 96.0296L246.622 96.6241C246.559 96.7755 246.462 96.966 246.331 97.1957C246.195 97.3522 246.02 97.4746 245.806 97.5631C245.518 97.6566 245.233 97.7867 244.951 97.9534C244.663 98.0469 244.336 98.1064 243.971 98.1319C242.664 98.3698 241.491 98.4148 240.452 98.2666L238.696 98.3888C238.549 98.399 238.335 98.4874 238.053 98.6541C237.77 98.8208 237.637 99.0139 237.652 99.2333L237.682 99.6723C237.948 100.315 238.142 101 238.267 101.727C238.459 102.375 238.721 102.981 239.055 103.546C239.075 103.839 239.169 104.126 239.335 104.409C239.747 105.042 240.088 105.716 240.358 106.433C240.624 107.076 240.855 107.758 241.052 108.48C241.062 108.626 241.156 108.913 241.333 109.342C241.588 109.839 241.809 110.375 241.996 110.95C242.178 111.452 242.326 111.993 242.44 112.573C242.47 113.012 242.608 113.407 242.853 113.757C243.192 114.395 243.457 115.038 243.649 115.687C243.841 116.335 243.999 117.022 244.123 117.749C244.202 117.817 244.248 117.96 244.264 118.18C244.274 118.326 244.321 118.47 244.404 118.611C244.826 119.39 245.143 120.251 245.355 121.191C245.563 122.059 245.807 122.924 246.087 123.787C246.264 124.216 246.368 124.649 246.399 125.088C246.507 125.595 246.58 126.105 246.615 126.617C246.641 126.983 246.559 127.393 246.37 127.847C246.166 128.082 246.064 128.199 246.064 128.199C245.63 128.303 245.392 128.577 245.349 129.021L245.066 129.702C244.94 130.005 244.733 130.203 244.445 130.297C244.153 130.317 243.904 130.444 243.7 130.679C243.428 130.992 243.036 131.167 242.524 131.202C242.231 131.223 241.865 131.248 241.426 131.279C241.061 131.304 240.697 131.366 240.337 131.465ZM211.118 93.4721C211.552 93.3684 211.985 93.2646 212.419 93.1609C212.926 93.0521 213.47 92.9408 214.05 92.8269C214.411 92.7283 214.881 92.622 215.461 92.5081C216.041 92.3942 216.585 92.2829 217.092 92.1741C217.594 91.9921 218.101 91.8833 218.613 91.8476C219.12 91.7388 219.627 91.63 220.134 91.5212C220.563 91.3444 220.997 91.2406 221.436 91.2101C221.869 91.1064 222.303 91.0027 222.737 90.899C223.385 90.7068 223.616 90.3232 223.429 89.7481C223.315 89.168 223.128 88.5929 222.868 88.0229C222.676 87.3747 222.308 86.849 221.766 86.4457C221.609 86.3095 221.521 86.0952 221.5 85.8025L221.477 85.4733C221.29 84.8983 221.069 84.3623 220.814 83.8655C220.627 83.2905 220.406 82.7545 220.151 82.2577C219.964 81.6826 219.745 81.1833 219.495 80.7596C219.313 80.2577 219.095 79.7583 218.84 79.2615L217.248 75.4027C216.993 74.9059 216.738 74.4091 216.482 73.9123C216.3 73.4104 216.119 72.9085 215.937 72.4066L215.577 71.9906L215.248 72.0135L215.051 72.3579C214.762 73.4808 214.399 74.6087 213.963 75.7416C213.601 76.8695 213.28 78.0681 213.001 79.3372C213.011 79.4835 212.987 79.6689 212.929 79.8935C212.871 80.1181 212.813 80.3426 212.756 80.5672C212.514 81.3191 212.277 82.1442 212.046 83.0424C211.887 83.9356 211.766 84.8262 211.68 85.7143C211.643 86.2315 211.605 86.7486 211.568 87.2658C211.525 87.7099 211.449 88.193 211.338 88.7153L210.648 93.0637C210.58 93.1419 210.624 93.2491 210.781 93.3852C210.932 93.4482 211.045 93.4772 211.118 93.4721ZM281.045 127.859C280.831 127.947 280.611 127.963 280.387 127.905C280.167 127.92 279.985 127.933 279.838 127.943C279.018 127.78 278.293 127.389 277.662 126.771C277.109 126.222 276.585 125.56 276.09 124.786C275.996 124.498 275.866 124.213 275.7 123.931C275.606 123.643 275.549 123.353 275.529 123.061L275.475 122.292C275.273 121.498 275.107 120.701 274.978 119.901C274.922 119.096 274.866 118.292 274.81 117.487C274.739 116.463 274.667 115.439 274.596 114.414C274.598 113.385 274.563 112.358 274.492 111.334C274.456 110.822 274.465 110.417 274.518 110.12C274.494 108.724 274.392 107.261 274.212 105.73C274.113 105.369 274.012 104.972 273.909 104.538C273.878 104.099 273.847 103.66 273.817 103.222C273.834 102.412 273.778 101.607 273.649 100.807C273.52 100.008 273.354 99.2106 273.152 98.4161L272.693 96.5735C272.682 96.4272 272.636 96.2835 272.552 96.1422C272.537 95.9228 272.527 95.7765 272.522 95.7033C271.784 93.5494 270.841 91.6302 269.695 89.9457C269.283 89.3128 268.835 88.6824 268.35 88.0545C267.934 87.3484 267.517 86.6423 267.1 85.9362C266.684 85.2301 266.34 84.5189 266.07 83.8026C265.867 83.0081 265.668 82.2501 265.47 81.5288C265.46 81.3824 265.447 81.1996 265.432 80.9801C265.49 80.7555 265.511 80.5335 265.496 80.314C265.465 79.8751 265.435 79.4362 265.404 78.9972C265.442 78.48 265.443 77.9654 265.407 77.4533C265.371 76.9412 265.197 76.549 264.884 76.2768L264.165 75.4447C263.847 75.0993 263.565 74.7514 263.32 74.4009C263.07 73.9772 262.786 73.5927 262.468 73.2473L261.146 71.6853C260.823 71.2667 260.463 70.8507 260.067 70.4372C259.671 70.0237 259.272 69.5737 258.87 69.087C258.714 68.9509 258.557 68.8148 258.401 68.6787C258.239 68.4694 258.046 68.3358 257.822 68.2779C257.524 68.2251 257.292 68.0575 257.125 67.7751C256.89 67.5709 256.611 67.2595 256.288 66.8409C255.798 66.1399 255.272 65.4415 254.709 64.7456C254.214 63.9714 253.721 63.2338 253.232 62.5328L252.872 62.1168C252.117 60.7726 251.362 59.4285 250.606 58.0844C249.919 56.662 249.271 55.2736 248.662 53.9193C248.324 53.2813 248.054 52.565 247.851 51.7705C247.748 51.3366 247.607 50.9053 247.43 50.4766C247.253 50.0478 247.043 49.6582 246.798 49.3077C246.553 48.9572 246.381 48.6016 246.282 48.2409C246.257 47.8751 246.231 47.5093 246.206 47.1435C246.191 46.9241 246.212 46.7021 246.27 46.4775C246.401 46.2478 246.495 46.0207 246.553 45.7962C246.747 45.4151 246.944 45.0706 247.143 44.7627C247.41 44.3766 247.68 44.027 247.952 43.714C248.292 43.3228 248.682 43.1119 249.121 43.0813C249.34 43.066 249.484 43.0193 249.552 42.941C250.117 42.6077 250.697 42.4938 251.293 42.5993C251.961 42.6998 252.559 42.842 253.087 43.0258C253.311 43.0837 253.504 43.2172 253.666 43.4265C253.822 43.5627 253.979 43.6988 254.135 43.8349L255.48 45.7261C255.636 45.8622 255.722 46.04 255.738 46.2595C255.826 46.4739 255.914 46.6882 256.003 46.9026C256.086 47.0438 256.172 47.2216 256.261 47.436C256.849 48.4977 257.401 49.562 257.916 50.6287C258.5 51.6173 259.049 52.645 259.564 53.7117C259.996 54.6373 260.428 55.5629 260.86 56.4884C261.36 57.3358 261.897 58.1805 262.47 59.0228C262.897 59.8752 263.395 60.6859 263.963 61.455C264.531 62.2241 265.099 62.9931 265.667 63.7622C265.98 64.0345 266.259 64.3458 266.504 64.6963C266.749 65.0468 267.03 65.3948 267.348 65.7402L267.943 66.3604C268.569 66.9049 268.955 67.1721 269.101 67.1619C269.248 67.1517 269.554 66.7996 270.02 66.1056C270.287 65.7194 270.518 65.3358 270.712 64.9547C270.974 64.4954 271.241 64.1093 271.513 63.7963C272.048 63.024 272.548 62.2908 273.014 61.5968C273.554 60.8976 274.057 60.201 274.523 59.5069C275.261 58.4999 276.219 57.4776 277.397 56.44C277.878 55.9654 278.321 55.4568 278.724 54.9141C279.19 54.2201 279.742 53.7038 280.381 53.3653C280.872 53.0371 281.327 52.7113 281.746 52.3882C282.159 51.9918 282.575 51.6321 282.994 51.3089C283.402 50.8394 283.852 50.4405 284.344 50.1122C284.622 49.8724 284.862 49.6351 285.066 49.4004C285.339 49.0874 285.574 48.7769 285.774 48.469C285.905 48.2394 286.038 48.0463 286.174 47.8898C286.378 47.655 286.585 47.4569 286.794 47.2953L288.262 46.2007C288.403 46.1174 288.51 46.0732 288.584 46.0681C288.652 45.9898 288.72 45.9116 288.788 45.8333C288.934 45.8231 289.044 45.8155 289.117 45.8104C289.185 45.7322 289.256 45.6905 289.329 45.6854C289.684 45.5136 290.006 45.381 290.293 45.2874C290.654 45.1888 291.017 45.1268 291.383 45.1013C291.837 45.2902 292.292 45.4791 292.746 45.6681C293.2 45.857 293.586 46.1241 293.904 46.4695C294.056 46.5325 294.168 46.5615 294.241 46.5564C294.387 46.5462 294.5 46.5751 294.578 46.6432C294.656 46.7112 294.698 46.7819 294.703 46.855C294.708 46.9282 294.682 47.077 294.624 47.3016C294.561 47.453 294.532 47.5653 294.537 47.6384C294.542 47.7116 294.618 47.7431 294.764 47.7329C294.91 47.7227 295.023 47.7516 295.101 47.8197C295.179 47.8878 295.255 47.9193 295.328 47.9142C295.401 47.9091 295.443 47.9797 295.453 48.126C295.421 48.7163 295.537 49.3331 295.802 49.9762C295.964 50.1855 296.052 50.3999 296.068 50.6193C296.083 50.8388 296.062 51.0608 296.004 51.2854L294.761 54.0183C294.708 54.316 294.54 54.5482 294.258 54.7149C293.227 55.7423 292.18 56.5503 291.118 57.1388C289.832 57.6694 288.776 58.331 287.949 59.1237C287.603 59.4418 287.258 59.7599 286.912 60.0779C286.562 60.3229 286.217 60.641 285.876 61.0322C285.74 61.1887 285.531 61.3503 285.248 61.517L284.628 62.1115C283.885 63.0454 283.141 63.9793 282.397 64.9132C281.722 65.7688 281.012 66.6636 280.269 67.5975C280.143 67.9003 279.97 68.0593 279.75 68.0746C279.4 68.3195 279.091 68.6351 278.824 69.0212C278.499 69.6319 278.137 70.2452 277.739 70.861C277.336 71.4037 277.05 72.0484 276.881 72.7952L276.299 73.9384C276.231 74.0167 276.166 74.1315 276.103 74.2829C276.035 74.3612 275.969 74.476 275.906 74.6274C275.649 75.1598 275.651 75.7111 275.911 76.281C276.068 76.4172 276.19 76.5924 276.278 76.8068C276.44 77.0161 276.565 77.2279 276.654 77.4423C276.898 77.7928 276.887 78.1611 276.62 78.5473C276.479 78.6306 276.419 78.8186 276.439 79.1112C276.606 79.3937 276.694 79.608 276.704 79.7543C276.881 80.1831 276.873 80.588 276.679 80.9691C276.553 81.2719 276.492 81.4599 276.497 81.533C276.455 81.977 276.519 82.3769 276.691 82.7325C276.858 83.0149 277.029 83.3705 277.206 83.7992C277.451 84.1497 277.733 84.4977 278.051 84.8431C278.468 85.5492 278.882 86.2187 279.293 86.8517C279.705 87.4846 280.083 88.1567 280.426 88.8679L282.041 93.0559C282.233 93.7041 282.391 94.3914 282.515 95.1179C282.634 95.7712 282.753 96.4245 282.872 97.0778C282.976 97.5117 283.08 97.9455 283.183 98.3794C283.282 98.7401 283.31 99.1424 283.267 99.5865C283.526 101.186 283.674 102.793 283.713 104.407C283.82 105.943 283.93 107.516 284.042 109.126C284.052 109.272 284.025 109.421 283.962 109.572C283.945 110.382 283.967 111.226 284.028 112.104C284.089 112.982 284.111 113.826 284.094 114.635C284.13 115.147 284.166 115.66 284.201 116.172C284.31 116.679 284.385 117.225 284.426 117.81C284.441 118.029 284.488 118.173 284.566 118.241C284.738 118.597 284.875 118.992 284.979 119.425C285.078 119.786 285.176 120.147 285.275 120.508C285.369 120.795 285.423 121.049 285.438 121.268C285.459 121.561 285.406 121.858 285.28 122.161C285.096 122.689 285.134 123.237 285.394 123.807C285.4 123.88 285.297 123.998 285.088 124.159C284.942 124.17 284.798 124.216 284.657 124.3C284.584 124.305 284.479 124.386 284.343 124.542C284.353 124.688 284.324 124.801 284.256 124.879C284.208 125.25 283.946 125.709 283.47 126.257C283.203 126.643 282.821 126.964 282.324 127.219C281.9 127.469 281.474 127.682 281.045 127.859Z" fill="#FBFBFB"/>
</svg>
