<svg width="192" height="153" viewBox="0 0 192 153" fill="none" xmlns="http://www.w3.org/2000/svg">
<g filter="url(#filter0_d_1_288)">
<path d="M47.5 40.5C47.5 42.1 39.1667 54.8333 35 61L29.5 93V105V111L25 112.5L18.5 120.5L13.5 116V123L5 127.5H16.5L13.5 134.5L21 132.5L25 139L27.5 130.5L33 132.5L37.5 127.5H44L47.5 130.5L55 134.5H62H127H135.5L143.5 130.5L151.5 127.5H160.5L163.5 134.5H169.5L173 143L176 134.5L184 139L181.5 130.5L187 123H176V118L169.5 116V109L167.5 102L169.5 81.5L167.5 69.5L163.5 57L158.5 48.5C155.167 45 148.2 37.8 147 37C145.8 36.2 137.5 30.3333 133.5 27.5L120 21.5L102 14.5C95.6667 14.3333 82.6 14.1 81 14.5C79.4 14.9 76.6667 19.3333 75.5 21.5H69C61.8333 27.1667 47.5 38.9 47.5 40.5Z" fill="#963434" stroke="black"/>
<path d="M55.3918 43.8302L69.5773 31.1509L82.433 23L102.381 24.3585L125.433 31.1509L147.155 43.8302L164 68.7359V92.283L155.134 114.925L140.505 128.509L121 138.925L85.5361 143L55.3918 133.943L42.9794 122.623L35 100.434V77.7925L42.9794 57.4151L55.3918 43.8302Z" fill="#FFE3DA" stroke="black"/>
<path d="M171 74L164 76.5V92.5L171 95L177.5 88.5V80L171 74Z" fill="#FFE3DA" stroke="black"/>
<path d="M29.5 74L35 77.5V94.5H26.5L21 91.5L19 85L23 77.5L29.5 74Z" fill="#FFE3DA" stroke="black"/>
<path d="M106 81L109.5 76H114.5L117.5 83V88.5L109.5 90.5L106 88.5V81Z" fill="black" stroke="black"/>
<path d="M79 75L75 80.5L76 87.5L81 91L88.5 89V80.5L84.5 75H79Z" fill="black" stroke="black"/>
<path d="M88 103L93.6571 99H100.343L106 103" stroke="black"/>
<path d="M71.6454 56.9846L88.3546 70.0154" stroke="#5B1818" stroke-width="3"/>
<path d="M105.052 69.6884L117.948 59.3117" stroke="#5B1818" stroke-width="3"/>
<path d="M53 15V25L55 28.5L62.5 21L82.5 12.5L110.5 15L139.5 28.5V18L129.5 9.5L114 4L93.5 1L72 4L53 15Z" fill="#D9D9D9" stroke="black"/>
<path d="M47 32L52.5 38L63.5 30L84.5 19.5H100.5L142 35.5L145 30L139 25.5L121 16L103.5 9.5H84.5L67.5 14.5L55 23.5L47 32Z" fill="#7A7A7A" stroke="black"/>
<path d="M28.5 81.5V89.5" stroke="black"/>
<path d="M170 80V89.5" stroke="black"/>
<path d="M63 89L74 94L80.5 101.5L82 106.5V113" stroke="black"/>
<path d="M123.5 89.5L118.5 93.5L114.5 99V105.5L117 112" stroke="black"/>
<path d="M59.5 93L49 95.5L45 106.5L49 115.5L59.5 122.5H71L77 115.5V106.5L71 97.5L59.5 93Z" fill="#E0C7BF"/>
<path d="M120.5 96L125.5 91.5L127.5 90H132.5L137 91.5L141.5 97L144.5 103L143 110.5L139.5 115.5L132.5 118H125.5L120.5 113L118.5 106V101L120.5 96Z" fill="#E0C7BF"/>
<path d="M59.5 93L49 95.5L45 106.5L49 115.5L59.5 122.5H71L77 115.5V106.5L71 97.5L59.5 93Z" stroke="black"/>
<path d="M120.5 96L125.5 91.5L127.5 90H132.5L137 91.5L141.5 97L144.5 103L143 110.5L139.5 115.5L132.5 118H125.5L120.5 113L118.5 106V101L120.5 96Z" stroke="black"/>
<path d="M60 43.5L46 58L42 66.5L46 70L54 62.5L64 51L78 40.5L90 37.5L108 40.5L124.5 43.5L139.5 51L146 60.5H152.5V56.5L149 51L141 43.5L127 35.5L111 29L95 26.5H81.5L73 32.5L60 43.5Z" fill="#E0C7BF"/>
<path d="M53 35L51 31.5L62.5 22.5L75 15.5L99 12.5L122.5 19.5L141.5 29.5L138.5 31.5L131.5 27.5L112.5 19.5L95 16.5L76.5 19.5L62.5 27.5L53 35Z" fill="#5E5E5E"/>
<path d="M56.5 19V15.5L70.5 7L84 5.5L82 8.5L67.5 12.5L56.5 19Z" fill="white"/>
<path d="M44.5 107V96.5L48.5 107L59.5 125L44.5 107Z" fill="#932424"/>
<path d="M48.5 96.5V88.5L54 96.5L59.5 115L48.5 96.5Z" fill="#932424"/>
<path d="M64.5 115L62 103.5L69 113L73.5 129.5L64.5 115Z" fill="#932424"/>
<path d="M134 58L117 44.5L127.5 47.5L134 58Z" fill="#932424"/>
<path d="M44.5 107V96.5L48.5 107L59.5 125L44.5 107Z" stroke="black"/>
<path d="M48.5 96.5V88.5L54 96.5L59.5 115L48.5 96.5Z" stroke="black"/>
<path d="M64.5 115L62 103.5L69 113L73.5 129.5L64.5 115Z" stroke="black"/>
<path d="M134 58L117 44.5L127.5 47.5L134 58Z" stroke="black"/>
<path d="M135 74L139 68.5H145.5V71.5V77.5L151 82.5V91.5H143.5L135 80.5V74Z" fill="#969EBC"/>
<path d="M40 77.5L43 71.5L50 74V80.5L43 86.5L40 82.5V77.5Z" fill="#969EBC"/>
<path d="M135 74L139 68.5H145.5V71.5V77.5L151 82.5V91.5H143.5L135 80.5V74Z" stroke="black"/>
<path d="M40 77.5L43 71.5L50 74V80.5L43 86.5L40 82.5V77.5Z" stroke="black"/>
<path d="M41.5 82V78.5H47.5V80.5L42.5 84.5L41.5 82Z" fill="#5B6075"/>
<path d="M143.5 89.5L139.5 84L144.5 83.5L145.5 80L148.5 83.5V89.5H143.5Z" fill="#5B6075"/>
<path d="M41.5 82V78.5H47.5V80.5L42.5 84.5L41.5 82Z" stroke="black"/>
<path d="M143.5 89.5L139.5 84L144.5 83.5L145.5 80L148.5 83.5V89.5H143.5Z" stroke="black"/>
</g>
<defs>
<filter id="filter0_d_1_288" x="0.766056" y="0.494919" width="191.221" height="151.906" filterUnits="userSpaceOnUse" color-interpolation-filters="sRGB">
<feFlood flood-opacity="0" result="BackgroundImageFix"/>
<feColorMatrix in="SourceAlpha" type="matrix" values="0 0 0 0 0 0 0 0 0 0 0 0 0 0 0 0 0 0 127 0" result="hardAlpha"/>
<feOffset dy="4"/>
<feGaussianBlur stdDeviation="2"/>
<feComposite in2="hardAlpha" operator="out"/>
<feColorMatrix type="matrix" values="0 0 0 0 0 0 0 0 0 0 0 0 0 0 0 0 0 0 0.25 0"/>
<feBlend mode="normal" in2="BackgroundImageFix" result="effect1_dropShadow_1_288"/>
<feBlend mode="normal" in="SourceGraphic" in2="effect1_dropShadow_1_288" result="shape"/>
</filter>
</defs>
</svg>
