<svg width="199" height="167" viewBox="0 0 199 167" fill="none" xmlns="http://www.w3.org/2000/svg">
<g filter="url(#filter0_d_1_404)">
<path d="M47.5 40.5C47.5 42.1 39.1667 54.8333 35 61L29.5 93V105V111L25 112.5L18.5 120.5L13.5 116V123L5 127.5H16.5L13.5 134.5L21 132.5L25 139L27.5 130.5L33 132.5L37.5 127.5H44L47.5 130.5L55 134.5H62H127H135.5L143.5 130.5L151.5 127.5H160.5L163.5 134.5H169.5L173 143L176 134.5L184 139L181.5 130.5L187 123H176V118L169.5 116V109L167.5 102L169.5 81.5L167.5 69.5L163.5 57L158.5 48.5C155.167 45 148.2 37.8 147 37C145.8 36.2 137.5 30.3333 133.5 27.5L120 21.5L102 14.5C95.6667 14.3333 82.6 14.1 81 14.5C79.4 14.9 76.6667 19.3333 75.5 21.5H69C61.8333 27.1667 47.5 38.9 47.5 40.5Z" fill="#963434" stroke="black"/>
<path d="M55.3918 43.8302L69.5773 31.1509L82.433 23L102.381 24.3585L125.433 31.1509L147.155 43.8302L164 68.7359V92.283L155.134 114.925L140.505 128.509L121 138.925L85.5361 143L55.3918 133.943L42.9794 122.623L35 100.434V77.7925L42.9794 57.4151L55.3918 43.8302Z" fill="#FFE3DA" stroke="black"/>
<path d="M69.5 74.5L75 68.5H81.5L91.5 76.5L96.5 85.5L91.5 95.5H79L69.5 85.5V74.5Z" fill="#969EBC"/>
<path d="M98 88.5L100.5 76.5L105 101.5L102 114.5L98 88.5Z" fill="#932424"/>
<path d="M171 74L164 76.5V92.5L171 95L177.5 88.5V80L171 74Z" fill="#FFE3DA" stroke="black"/>
<path d="M29.5 74L35 77.5V94.5H26.5L21 91.5L19 85L23 77.5L29.5 74Z" fill="#FFE3DA" stroke="black"/>
<path d="M95 96.9497L99.4919 97.3777L104.43 99.0059L108.296 101.333" stroke="black"/>
<path d="M69.6998 65.9812L90.3002 61.0188" stroke="#5B1818" stroke-width="3"/>
<path d="M107 69.1979L123.535 69.9722" stroke="#5B1818" stroke-width="3"/>
<path d="M53 15V25L55 28.5L62.5 21L82.5 12.5L110.5 15L139.5 28.5V18L129.5 9.5L114 4L93.5 1L72 4L53 15Z" fill="#D9D9D9" stroke="black"/>
<path d="M47 32L52.5 38L63.5 30L84.5 19.5H100.5L142 35.5L145 30L139 25.5L121 16L103.5 9.5H84.5L67.5 14.5L55 23.5L47 32Z" fill="#7A7A7A" stroke="black"/>
<path d="M28.5 81.5V89.5" stroke="black"/>
<path d="M170 80V89.5" stroke="black"/>
<path d="M63 89L74 94L80.5 101.5L82 106.5V113" stroke="black"/>
<path d="M123.5 89.5L118.5 93.5L114.5 99V105.5L117 112" stroke="black"/>
<path d="M59.5 93L49 95.5L45 106.5L49 115.5L59.5 122.5H71L77 115.5V106.5L71 97.5L59.5 93Z" fill="#E0C7BF"/>
<path d="M120.5 96L125.5 91.5L127.5 90H132.5L137 91.5L141.5 97L144.5 103L143 110.5L139.5 115.5L132.5 118H125.5L120.5 113L118.5 106V101L120.5 96Z" fill="#E0C7BF"/>
<path d="M59.5 93L49 95.5L45 106.5L49 115.5L59.5 122.5H71L77 115.5V106.5L71 97.5L59.5 93Z" stroke="black"/>
<path d="M120.5 96L125.5 91.5L127.5 90H132.5L137 91.5L141.5 97L144.5 103L143 110.5L139.5 115.5L132.5 118H125.5L120.5 113L118.5 106V101L120.5 96Z" stroke="black"/>
<path d="M60 43.5L46 58L42 66.5L46 70L54 62.5L64 51L78 40.5L90 37.5L108 40.5L124.5 43.5L139.5 51L146 60.5H152.5V56.5L149 51L141 43.5L127 35.5L111 29L95 26.5H81.5L73 32.5L60 43.5Z" fill="#E0C7BF"/>
<path d="M53 35L51 31.5L62.5 22.5L75 15.5L99 12.5L122.5 19.5L141.5 29.5L138.5 31.5L131.5 27.5L112.5 19.5L95 16.5L76.5 19.5L62.5 27.5L53 35Z" fill="#5E5E5E"/>
<path d="M56.5 19V15.5L70.5 7L84 5.5L82 8.5L67.5 12.5L56.5 19Z" fill="white"/>
<path d="M44.5 107V96.5L48.5 107L59.5 125L44.5 107Z" fill="#932424"/>
<path d="M48.5 96.5V88.5L54 96.5L59.5 115L48.5 96.5Z" fill="#932424"/>
<path d="M64.5 115L62 103.5L69 113L73.5 129.5L64.5 115Z" fill="#932424"/>
<path d="M134 58L117 44.5L127.5 47.5L134 58Z" fill="#932424"/>
<path d="M44.5 107V96.5L48.5 107L59.5 125L44.5 107Z" stroke="black"/>
<path d="M48.5 96.5V88.5L54 96.5L59.5 115L48.5 96.5Z" stroke="black"/>
<path d="M64.5 115L62 103.5L69 113L73.5 129.5L64.5 115Z" stroke="black"/>
<path d="M134 58L117 44.5L127.5 47.5L134 58Z" stroke="black"/>
<path d="M135 74L139 68.5H145.5V71.5V77.5L151 82.5V91.5H143.5L135 80.5V74Z" fill="#969EBC"/>
<path d="M40 77.5L43 71.5L50 74V80.5L43 86.5L40 82.5V77.5Z" fill="#969EBC"/>
<path d="M135 74L139 68.5H145.5V71.5V77.5L151 82.5V91.5H143.5L135 80.5V74Z" stroke="black"/>
<path d="M40 77.5L43 71.5L50 74V80.5L43 86.5L40 82.5V77.5Z" stroke="black"/>
<path d="M41.5 82V78.5H47.5V80.5L42.5 84.5L41.5 82Z" fill="#5B6075"/>
<path d="M143.5 89.5L139.5 84L144.5 83.5L145.5 80L148.5 83.5V89.5H143.5Z" fill="#5B6075"/>
<path d="M41.5 82V78.5H47.5V80.5L42.5 84.5L41.5 82Z" stroke="black"/>
<path d="M143.5 89.5L139.5 84L144.5 83.5L145.5 80L148.5 83.5V89.5H143.5Z" stroke="black"/>
<path d="M67.5 11L66 4L53 12L51 23.5L58.5 18.5L60 13.5L67.5 11Z" fill="white"/>
<path d="M52.5 22.5L59 18.5L61 15.5L67.5 12L67 6.5" stroke="black"/>
<path d="M139 139.5L135 133L144 129.5L160 119L169.5 109.5L178.5 114.5L192.5 119V124.5L189 136L187.5 148L169.5 145.5L156.5 136L139 139.5Z" fill="white"/>
<path d="M142 150.5L135 133L136 132L144.5 128L160 117.5L168 109.5H169.5L181 113L176.5 119L193 122.5L174 132L179 141.5H161.5V157.5L147 145L142 150.5Z" fill="#963434" stroke="#963434"/>
<path d="M135.5 134L142 150.5L147 145C151.667 149.5 161.1 158.3 161.5 157.5C161.9 156.7 161.667 146.5 161.5 141.5H179L174 132L193 122.5L176.5 119L181.5 113L169.5 109.5C169.5 108.7 169.5 108.833 169.5 109" stroke="black"/>
<path d="M94.5 32.5L99 25.5V52.5L96 68.5L93 52.5L94.5 32.5Z" fill="#932424"/>
<path d="M99 133L87.5 137.5L107.5 135L129 123L99 133Z" fill="#932424"/>
<path d="M94.5 32.5L99 25.5V52.5L96 68.5L93 52.5L94.5 32.5Z" stroke="#963434"/>
<path d="M99 133L87.5 137.5L107.5 135L129 123L99 133Z" stroke="#963434"/>
<path d="M97.5 15L100.5 11L102 15L98 18.5L97.5 15Z" fill="#3A3A3A"/>
<path d="M99.5 6L101 3.5L103 7.5L99.5 8.5V6Z" fill="#A3A3A3"/>
<path d="M57.2857 25.8148L59 21V21.963V26.7778L56 34L57.2857 25.8148Z" fill="#373434"/>
<path d="M60.5 23.5L61.5 20.5L62 23.5L60.5 27.5V23.5Z" fill="#373434"/>
<path d="M57.2857 25.8148L59 21V21.963V26.7778L56 34L57.2857 25.8148Z" stroke="black"/>
<path d="M60.5 23.5L61.5 20.5L62 23.5L60.5 27.5V23.5Z" stroke="black"/>
<path d="M65.5 74.5L94.5 90.5" stroke="black" stroke-width="3"/>
<path d="M90 68.5L76.5 93" stroke="black" stroke-width="3"/>
<path d="M109 88L125.5 78" stroke="black" stroke-width="3"/>
<path d="M113.5 76.5L120.5 88.5" stroke="black" stroke-width="3"/>
<path d="M112.5 9.5L115 1.5H128L146 15.5V25L137 27L129.5 18.5L117.5 19.5L112.5 9.5Z" fill="white"/>
<path d="M114 3.5L112.5 9.5L117.5 19.5L129.5 18.5L137 27L140.5 26.5" stroke="black"/>
</g>
<defs>
<filter id="filter0_d_1_404" x="0.766052" y="0.494919" width="197.737" height="166.096" filterUnits="userSpaceOnUse" color-interpolation-filters="sRGB">
<feFlood flood-opacity="0" result="BackgroundImageFix"/>
<feColorMatrix in="SourceAlpha" type="matrix" values="0 0 0 0 0 0 0 0 0 0 0 0 0 0 0 0 0 0 127 0" result="hardAlpha"/>
<feOffset dy="4"/>
<feGaussianBlur stdDeviation="2"/>
<feComposite in2="hardAlpha" operator="out"/>
<feColorMatrix type="matrix" values="0 0 0 0 0 0 0 0 0 0 0 0 0 0 0 0 0 0 0.25 0"/>
<feBlend mode="normal" in2="BackgroundImageFix" result="effect1_dropShadow_1_404"/>
<feBlend mode="normal" in="SourceGraphic" in2="effect1_dropShadow_1_404" result="shape"/>
</filter>
</defs>
</svg>
