<svg width="170" height="176" viewBox="0 0 170 176" fill="none" xmlns="http://www.w3.org/2000/svg">
<g filter="url(#filter0_d_1_468)">
<path d="M5.5 100.5L21 91L147.5 92L162.5 100.5L149.5 111L164 121L146 129L151 142H135V157L121 147C120.667 151 119.9 159 119.5 159C119.1 159 104 154.333 96.5 152L91 167L69.5 150L63 159L51 147L38 155.5L33 136.5L21 142L19 119L7 121L12.5 105.5L5.5 100.5Z" fill="#FFDD66" stroke="black"/>
<path d="M33.5 40.5L20.5 60V87L25.5 109.5L40 127L62.5 140.5L89 143L114.5 137L135 123.5L147 99.5V64.5L135 40.5L109.5 23.5H76H54.5L33.5 40.5Z" fill="#FFD3BA" stroke="black"/>
<path d="M23 74.5L24 87L25.5 89H27.5L29.5 87L30.5 82.5V76V70L32 66L34 60.5L38 58L43.5 53.5L48 51.5L54.5 48H66L78 51.5H87L89.5 49H98L106 50L112 54.5H118.5H123.5L128.5 57L133 63L136.5 74.5L137.5 82.5V86.5L140.5 87.5L143.5 86.5V78.5V66.5C143.5 62.5 141.5 58.5 140.5 57L134.5 46L128.5 40L115 30.5L106 26H67H56L53.5 27L43.5 35L36 42L30.5 50L23 61.5V74.5Z" fill="#E8BCA3"/>
<path d="M16 70H20.5L21.5 91L17 91.5L13 89L9.5 84.5V78.5L11.5 72.5L16 70Z" fill="#EDB08E" stroke="black"/>
<path d="M151.5 69L147 72V92.5H151.5L158 90.5C159.167 89 161.5 85.8 161.5 85V78L158 70.5L151.5 69Z" fill="#EDB08E" stroke="black"/>
<path d="M46 77.5L50 71L57 73.5L60 79.5L57 85H50L46 77.5Z" fill="#030303" stroke="black"/>
<path d="M108 77L114 71L120 75L122.5 80.5L120 86.5L114 88.5L108 84.5V77Z" fill="#030303" stroke="black"/>
<path d="M76 93H87.5" stroke="black"/>
<path d="M62 114.5L67 103L72 101H86H96.5L101.5 110L94 107V119.5C94 123.5 87 114.833 83.5 110L79 123L72 110L62 114.5Z" fill="#FFDD66" stroke="black"/>
<path d="M54.5 14.5C54.3333 17.1667 54.1 22.7 54.5 23.5L58 26L63.5 28L70 29H80.5H93H100L107.5 26L109 23.5V13.5L105.5 14.5L100 16H86.5H72.5H63.5L54.5 14.5Z" fill="#585858" stroke="black"/>
<path d="M60.5 6L55.5 15L63.5 16H100L107.5 14L104 8L96.5 3.5L89 1H78.5H70.5L60.5 6Z" fill="#D9D9D9" stroke="black"/>
<path d="M20 95L10.5 100.5L17.5 104V107.5L15 115.5L23 115L24 118.5L25 135L36.5 131.5L37 133.5L41.5 148L53 142.5L63 152.5L68.5 145.5L71.5 146.5L90 155.5L94 147.5L115.5 150.5L118.5 141L129.5 144V135.5L141.5 134.5L140.5 125L153.5 117L146 110.5L147 109.5L158.5 100L148.5 96.5V101L137 125L115 139L87.5 145L61 141.5L37.5 127L23 108.5L20 95Z" fill="#D3B64C"/>
<path d="M66 109.5L68.5 104L94 102.5L97.5 106.5L93 104.5L90.5 106.5L90 113L84.5 107.5H81L77.5 113L71.5 107.5L66 109.5Z" fill="#D3B64C"/>
<path d="M20 95L10.5 100.5L17.5 104V107.5L15 115.5L23 115L24 118.5L25 135L36.5 131.5L37 133.5L41.5 148L53 142.5L63 152.5L68.5 145.5L71.5 146.5L90 155.5L94 147.5L115.5 150.5L118.5 141L129.5 144V135.5L141.5 134.5L140.5 125L153.5 117L146 110.5L147 109.5L158.5 100L148.5 96.5V101L137 125L115 139L87.5 145L61 141.5L37.5 127L23 108.5L20 95Z" stroke="black"/>
<path d="M66 109.5L68.5 104L94 102.5L97.5 106.5L93 104.5L90.5 106.5L90 113L84.5 107.5H81L77.5 113L71.5 107.5L66 109.5Z" stroke="black"/>
<path d="M77 83L77.5 84.5C78.3333 85.1667 80.1 86.5 80.5 86.5C80.9 86.5 83 86.5 84 86.5L86 85.5L87 83.5" stroke="black"/>
<path d="M56 22.5V17.5L75 22.5L98.5 21L107 19V24L97 27.5H75L62.5 25.5L56 22.5Z" fill="#363333"/>
<path d="M96 6.5L87.5 4.5L94 12.5H104L96 6.5Z" fill="#FFF8F8"/>
<path d="M109.5 36.5H118L129.5 46.5L115 42L109.5 36.5Z" fill="#FFF8F8"/>
<path d="M96 6.5L87.5 4.5L94 12.5H104L96 6.5Z" stroke="black"/>
<path d="M109.5 36.5H118L129.5 46.5L115 42L109.5 36.5Z" stroke="black"/>
<path d="M44 52H54" stroke="#A08936" stroke-width="3"/>
<path d="M107 53.5H118.5" stroke="#A08936" stroke-width="3"/>
</g>
<defs>
<filter id="filter0_d_1_468" x="0.595154" y="0.5" width="168.423" height="175.321" filterUnits="userSpaceOnUse" color-interpolation-filters="sRGB">
<feFlood flood-opacity="0" result="BackgroundImageFix"/>
<feColorMatrix in="SourceAlpha" type="matrix" values="0 0 0 0 0 0 0 0 0 0 0 0 0 0 0 0 0 0 127 0" result="hardAlpha"/>
<feOffset dy="4"/>
<feGaussianBlur stdDeviation="2"/>
<feComposite in2="hardAlpha" operator="out"/>
<feColorMatrix type="matrix" values="0 0 0 0 0 0 0 0 0 0 0 0 0 0 0 0 0 0 0.25 0"/>
<feBlend mode="normal" in2="BackgroundImageFix" result="effect1_dropShadow_1_468"/>
<feBlend mode="normal" in="SourceGraphic" in2="effect1_dropShadow_1_468" result="shape"/>
</filter>
</defs>
</svg>
