<svg width="169" height="180" viewBox="0 0 169 180" fill="none" xmlns="http://www.w3.org/2000/svg">
<g filter="url(#filter0_d_1_528)">
<path d="M5 104.5L20.5 95L147 96L162 104.5L149 115L163.5 125L145.5 133L150.5 146H134.5V161L120.5 151C120.167 155 119.4 163 119 163C118.6 163 103.5 158.333 96 156L90.5 171L69 154L62.5 163L50.5 151L37.5 159.5L32.5 140.5L20.5 146L18.5 123L6.5 125L12 109.5L5 104.5Z" fill="#FFDD66" stroke="black"/>
<path d="M33 44.5L20 64V91L25 113.5L39.5 131L62 144.5L88.5 147L114 141L134.5 127.5L146.5 103.5V68.5L134.5 44.5L109 27.5H75.5H54L33 44.5Z" fill="#FFD3BA" stroke="black"/>
<path d="M22.5 78.5L23.5 91L25 93H27L29 91L30 86.5V80V74L31.5 70L33.5 64.5L37.5 62L43 57.5L47.5 55.5L54 52H65.5L77.5 55.5H86.5L89 53H97.5L105.5 54L111.5 58.5H118H123L128 61L132.5 67L136 78.5L137 86.5V90.5L140 91.5L143 90.5V82.5V70.5C143 66.5 141 62.5 140 61L134 50L128 44L114.5 34.5L105.5 30H66.5H55.5L53 31L43 39L35.5 46L30 54L22.5 65.5V78.5Z" fill="#E8BCA3"/>
<path d="M15.5 74H20L21 95L16.5 95.5L12.5 93L9 88.5V82.5L11 76.5L15.5 74Z" fill="#EDB08E" stroke="black"/>
<path d="M151 73L146.5 76V96.5H151L157.5 94.5C158.667 93 161 89.8 161 89V82L157.5 74.5L151 73Z" fill="#EDB08E" stroke="black"/>
<path d="M100 90.5L103 83L109 81.5L120.5 86L123.5 89V96L119 100.5L112 103.5L103 98L100 90.5Z" fill="#969EBC"/>
<path d="M81 35H72L70.5 40.5C71.6667 41.3333 74.2 43.4 75 45C75.8 46.6 80.6667 45.6667 83 45L88 43L96 47.5L100 43V39L93.5 35H81Z" fill="#969EBC"/>
<path d="M153 75L148.5 77V80.5L153 81.5L155 86L157.5 87.5L159.5 83L157.5 78.5L153 75Z" fill="#969EBC"/>
<path d="M100 90.5L103 83L109 81.5L120.5 86L123.5 89V96L119 100.5L112 103.5L103 98L100 90.5Z" stroke="#932424"/>
<path d="M81 35H72L70.5 40.5C71.6667 41.3333 74.2 43.4 75 45C75.8 46.6 80.6667 45.6667 83 45L88 43L96 47.5L100 43V39L93.5 35H81Z" stroke="#932424"/>
<path d="M153 75L148.5 77V80.5L153 81.5L155 86L157.5 87.5L159.5 83L157.5 78.5L153 75Z" stroke="#932424"/>
<path d="M45.5 81.5L49.5 75L56.5 77.5L59.5 83.5L56.5 89H49.5L45.5 81.5Z" fill="#030303" stroke="black"/>
<path d="M107.5 81L113.5 75L119.5 79L122 84.5L119.5 90.5L113.5 92.5L107.5 88.5V81Z" fill="#030303" stroke="black"/>
<path d="M61.5 118.5L66.5 107L71.5 105H85.5H96L101 114L93.5 111V123.5C93.5 127.5 86.5 118.833 83 114L78.5 127L71.5 114L61.5 118.5Z" fill="#FFDD66" stroke="black"/>
<path d="M54 18.5C53.8333 21.1667 53.6 26.7 54 27.5L57.5 30L63 32L69.5 33H80H92.5H99.5L107 30L108.5 27.5V17.5L105 18.5L99.5 20H86H72H63L54 18.5Z" fill="#585858" stroke="black"/>
<path d="M60 10L55 19L63 20H99.5L107 18L103.5 12L96 7.5L88.5 5H78H70L60 10Z" fill="#D9D9D9" stroke="black"/>
<path d="M19.5 99L10 104.5L17 108V111.5L14.5 119.5L22.5 119L23.5 122.5L24.5 139L36 135.5L36.5 137.5L41 152L52.5 146.5L62.5 156.5L68 149.5L71 150.5L89.5 159.5L93.5 151.5L115 154.5L118 145L129 148V139.5L141 138.5L140 129L153 121L145.5 114.5L146.5 113.5L158 104L148 100.5V105L136.5 129L114.5 143L87 149L60.5 145.5L37 131L22.5 112.5L19.5 99Z" fill="#D3B64C"/>
<path d="M65.5 113.5L68 108L93.5 106.5L97 110.5L92.5 108.5L90 110.5L89.5 117L84 111.5H80.5L77 117L71 111.5L65.5 113.5Z" fill="#D3B64C"/>
<path d="M19.5 99L10 104.5L17 108V111.5L14.5 119.5L22.5 119L23.5 122.5L24.5 139L36 135.5L36.5 137.5L41 152L52.5 146.5L62.5 156.5L68 149.5L71 150.5L89.5 159.5L93.5 151.5L115 154.5L118 145L129 148V139.5L141 138.5L140 129L153 121L145.5 114.5L146.5 113.5L158 104L148 100.5V105L136.5 129L114.5 143L87 149L60.5 145.5L37 131L22.5 112.5L19.5 99Z" stroke="black"/>
<path d="M65.5 113.5L68 108L93.5 106.5L97 110.5L92.5 108.5L90 110.5L89.5 117L84 111.5H80.5L77 117L71 111.5L65.5 113.5Z" stroke="black"/>
<path d="M76.5 87L77 88.5C77.8333 89.1667 79.6 90.5 80 90.5C80.4 90.5 82.5 90.5 83.5 90.5L85.5 89.5L86.5 87.5" stroke="black"/>
<path d="M55.5 26.5V21.5L74.5 26.5L98 25L106.5 23V28L96.5 31.5H74.5L62 29.5L55.5 26.5Z" fill="#363333"/>
<path d="M95.5 10.5L87 8.5L93.5 16.5H103.5L95.5 10.5Z" fill="#FFF8F8"/>
<path d="M109 40.5H117.5L129 50.5L114.5 46L109 40.5Z" fill="#FFF8F8"/>
<path d="M95.5 10.5L87 8.5L93.5 16.5H103.5L95.5 10.5Z" stroke="black"/>
<path d="M109 40.5H117.5L129 50.5L114.5 46L109 40.5Z" stroke="black"/>
<path d="M47 69L64.4003 70.2169" stroke="#A08936" stroke-width="3"/>
<path d="M104 65.5L122.5 59" stroke="#A08936" stroke-width="3"/>
<path d="M34 105L37 93V105L39.5 118.5L34 105Z" fill="#932424"/>
<path d="M41.5 108V99.5L46 109L43.5 123L41.5 108Z" fill="#932424"/>
<path d="M26.5 99.5L28 90.5L31 99.5L29.5 105L26.5 99.5Z" fill="#932424"/>
<path d="M46 46.5L53.5 39L61 34L56 43.5L46 46.5Z" fill="#932424"/>
<path d="M129.5 71V63L135 72.5L142 87L129.5 71Z" fill="#932424"/>
<path d="M70.5 52.5L59 58H70.5L85 65L93.5 63L104 52.5L88.5 61L70.5 52.5Z" fill="#932424"/>
<path d="M100 127L88.5 143.5L111.5 127L137 99.5L100 127Z" fill="#932424"/>
<path d="M34 105L37 93V105L39.5 118.5L34 105Z" stroke="#932424"/>
<path d="M41.5 108V99.5L46 109L43.5 123L41.5 108Z" stroke="#932424"/>
<path d="M26.5 99.5L28 90.5L31 99.5L29.5 105L26.5 99.5Z" stroke="#932424"/>
<path d="M46 46.5L53.5 39L61 34L56 43.5L46 46.5Z" stroke="#932424"/>
<path d="M129.5 71V63L135 72.5L142 87L129.5 71Z" stroke="#932424"/>
<path d="M70.5 52.5L59 58H70.5L85 65L93.5 63L104 52.5L88.5 61L70.5 52.5Z" stroke="#932424"/>
<path d="M100 127L88.5 143.5L111.5 127L137 99.5L100 127Z" stroke="#932424"/>
<path d="M103.5 94L104.5 92L112 96L118 95L119 98L112 100.5L106.5 98L103.5 94Z" fill="#5B6075"/>
<path d="M74 40.5V37H85L86 40.5L82 43H76.5L74 40.5Z" fill="#5B6075"/>
<path d="M149.5 77L152.5 76.5C153.5 77.3333 155.7 79 156.5 79C157.5 79 158 81.5 158 83C158 84.2 157 84.5 156.5 84.5L153.5 79H149.5V77Z" fill="#5B6075"/>
<path d="M103.5 94L104.5 92L112 96L118 95L119 98L112 100.5L106.5 98L103.5 94Z" stroke="black"/>
<path d="M74 40.5V37H85L86 40.5L82 43H76.5L74 40.5Z" stroke="black"/>
<path d="M149.5 77L152.5 76.5C153.5 77.3333 155.7 79 156.5 79C157.5 79 158 81.5 158 83C158 84.2 157 84.5 156.5 84.5L153.5 79H149.5V77Z" stroke="black"/>
<path d="M15.5 79.5L14.5 73H10.5L6.5 79.5V87L11.5 83.5V79.5H15.5Z" fill="white"/>
<path d="M9 85.5V85L11.5 83.5V79.5H15.5L15 74" stroke="black"/>
<path d="M13 84.5L10 86.5L12 90.5L13.5 89.5L15.5 84.5H19V77.5L17.5 77L16.5 81.5H13.5L13 84.5Z" fill="#932424"/>
<path d="M64 10.5L70 7L67 14L59.5 16.5L64 10.5Z" fill="#5C5B5B"/>
<path d="M70 15L71.5 10.5L73.5 15L70 17.5V15Z" fill="#5C5B5B"/>
<path d="M64 10.5L70 7L67 14L59.5 16.5L64 10.5Z" stroke="#932424"/>
<path d="M70 15L71.5 10.5L73.5 15L70 17.5V15Z" stroke="#932424"/>
<path d="M78 10.5V2L90 0.5L106 6L116 19L106 22L101.5 16H91.5L89 9.5L78 10.5Z" fill="white"/>
<path d="M77.5 5C77.5 5.4 77.8333 8.83333 78 10.5L88 9.5L91.5 16L101.5 16.5L106 22L108.5 21V22" stroke="black"/>
<path d="M72.5 99.5H79.5H89.5H91.5L94.5 101.5" stroke="black"/>
</g>
<defs>
<filter id="filter0_d_1_528" x="0.0951614" y="0.5" width="168.423" height="179.321" filterUnits="userSpaceOnUse" color-interpolation-filters="sRGB">
<feFlood flood-opacity="0" result="BackgroundImageFix"/>
<feColorMatrix in="SourceAlpha" type="matrix" values="0 0 0 0 0 0 0 0 0 0 0 0 0 0 0 0 0 0 127 0" result="hardAlpha"/>
<feOffset dy="4"/>
<feGaussianBlur stdDeviation="2"/>
<feComposite in2="hardAlpha" operator="out"/>
<feColorMatrix type="matrix" values="0 0 0 0 0 0 0 0 0 0 0 0 0 0 0 0 0 0 0.25 0"/>
<feBlend mode="normal" in2="BackgroundImageFix" result="effect1_dropShadow_1_528"/>
<feBlend mode="normal" in="SourceGraphic" in2="effect1_dropShadow_1_528" result="shape"/>
</filter>
</defs>
</svg>
