<svg width="169" height="180" viewBox="0 0 169 180" fill="none" xmlns="http://www.w3.org/2000/svg">
<g filter="url(#filter0_d_2_2)">
<path d="M5 104L20.5 94.5L147 95.5L162 104L149 114.5L163.5 124.5L145.5 132.5L150.5 145.5H134.5V160.5L120.5 150.5C120.167 154.5 119.4 162.5 119 162.5C118.6 162.5 103.5 157.833 96 155.5L90.5 170.5L69 153.5L62.5 162.5L50.5 150.5L37.5 159L32.5 140L20.5 145.5L18.5 122.5L6.5 124.5L12 109L5 104Z" fill="#FFDD66" stroke="black"/>
<path d="M33 44L20 63.5V90.5L25 113L39.5 130.5L62 144L88.5 146.5L114 140.5L134.5 127L146.5 103V68L134.5 44L109 27H75.5H54L33 44Z" fill="#FFD3BA" stroke="black"/>
<path d="M22.5 78L23.5 90.5L25 92.5H27L29 90.5L30 86V79.5V73.5L31.5 69.5L33.5 64L37.5 61.5L43 57L47.5 55L54 51.5H65.5L77.5 55H86.5L89 52.5H97.5L105.5 53.5L111.5 58H118H123L128 60.5L132.5 66.5L136 78L137 86V90L140 91L143 90V82V70C143 66 141 62 140 60.5L134 49.5L128 43.5L114.5 34L105.5 29.5H66.5H55.5L53 30.5L43 38.5L35.5 45.5L30 53.5L22.5 65V78Z" fill="#E8BCA3"/>
<path d="M15.5 73.5H20L21 94.5L16.5 95L12.5 92.5L9 88V82L11 76L15.5 73.5Z" fill="#EDB08E" stroke="black"/>
<path d="M151 72.5L146.5 75.5V96H151L157.5 94C158.667 92.5 161 89.3 161 88.5V81.5L157.5 74L151 72.5Z" fill="#EDB08E" stroke="black"/>
<path d="M100 90L103 82.5L109 81L120.5 85.5L123.5 88.5V95.5L119 100L112 103L103 97.5L100 90Z" fill="#969EBC"/>
<path d="M81 34.5H72L70.5 40C71.6667 40.8333 74.2 42.9 75 44.5C75.8 46.1 80.6667 45.1667 83 44.5L88 42.5L96 47L100 42.5V38.5L93.5 34.5H81Z" fill="#969EBC"/>
<path d="M153 74.5L148.5 76.5V80L153 81L155 85.5L157.5 87L159.5 82.5L157.5 78L153 74.5Z" fill="#969EBC"/>
<path d="M35 69L44.5 58H55.5L68.5 67V78C69.6667 81.5 72 88.8 72 90C72 91.2 68 97.1667 66 100L55.5 103L44.5 95.5L35 82.5V69Z" fill="#969EBC"/>
<path d="M55.5 128.5L47.5 132L49 134.5L63 142L77.5 144V141L75 136L65 132L55.5 128.5Z" fill="#969EBC"/>
<path d="M100 90L103 82.5L109 81L120.5 85.5L123.5 88.5V95.5L119 100L112 103L103 97.5L100 90Z" stroke="#932424"/>
<path d="M81 34.5H72L70.5 40C71.6667 40.8333 74.2 42.9 75 44.5C75.8 46.1 80.6667 45.1667 83 44.5L88 42.5L96 47L100 42.5V38.5L93.5 34.5H81Z" stroke="#932424"/>
<path d="M153 74.5L148.5 76.5V80L153 81L155 85.5L157.5 87L159.5 82.5L157.5 78L153 74.5Z" stroke="#932424"/>
<path d="M35 69L44.5 58H55.5L68.5 67V78C69.6667 81.5 72 88.8 72 90C72 91.2 68 97.1667 66 100L55.5 103L44.5 95.5L35 82.5V69Z" stroke="#932424"/>
<path d="M55.5 128.5L47.5 132L49 134.5L63 142L77.5 144V141L75 136L65 132L55.5 128.5Z" stroke="#932424"/>
<path d="M107.5 80.5L113.5 74.5L119.5 78.5L122 84L119.5 90L113.5 92L107.5 88V80.5Z" fill="#030303" stroke="black"/>
<path d="M61.5 118L66.5 106.5L71.5 104.5H85.5H96L101 113.5L93.5 110.5V123C93.5 127 86.5 118.333 83 113.5L78.5 126.5L71.5 113.5L61.5 118Z" fill="#FFDD66" stroke="black"/>
<path d="M54 18C53.8333 20.6667 53.6 26.2 54 27L57.5 29.5L63 31.5L69.5 32.5H80H92.5H99.5L107 29.5L108.5 27V17L105 18L99.5 19.5H86H72H63L54 18Z" fill="#585858" stroke="black"/>
<path d="M60 9.5L55 18.5L63 19.5H99.5L107 17.5L103.5 11.5L96 7L88.5 4.5H78H70L60 9.5Z" fill="#D9D9D9" stroke="black"/>
<path d="M19.5 98.5L10 104L17 107.5V111L14.5 119L22.5 118.5L23.5 122L24.5 138.5L36 135L36.5 137L41 151.5L52.5 146L62.5 156L68 149L71 150L89.5 159L93.5 151L115 154L118 144.5L129 147.5V139L141 138L140 128.5L153 120.5L145.5 114L146.5 113L158 103.5L148 100V104.5L136.5 128.5L114.5 142.5L87 148.5L60.5 145L37 130.5L22.5 112L19.5 98.5Z" fill="#D3B64C"/>
<path d="M65.5 113L68 107.5L93.5 106L97 110L92.5 108L90 110L89.5 116.5L84 111H80.5L77 116.5L71 111L65.5 113Z" fill="#D3B64C"/>
<path d="M19.5 98.5L10 104L17 107.5V111L14.5 119L22.5 118.5L23.5 122L24.5 138.5L36 135L36.5 137L41 151.5L52.5 146L62.5 156L68 149L71 150L89.5 159L93.5 151L115 154L118 144.5L129 147.5V139L141 138L140 128.5L153 120.5L145.5 114L146.5 113L158 103.5L148 100V104.5L136.5 128.5L114.5 142.5L87 148.5L60.5 145L37 130.5L22.5 112L19.5 98.5Z" stroke="black"/>
<path d="M65.5 113L68 107.5L93.5 106L97 110L92.5 108L90 110L89.5 116.5L84 111H80.5L77 116.5L71 111L65.5 113Z" stroke="black"/>
<path d="M76.5 86.5L77 88C77.8333 88.6667 79.6 90 80 90C80.4 90 82.5 90 83.5 90L85.5 89L86.5 87" stroke="black"/>
<path d="M55.5 26V21L74.5 26L98 24.5L106.5 22.5V27.5L96.5 31H74.5L62 29L55.5 26Z" fill="#363333"/>
<path d="M95.5 10L87 8L93.5 16H103.5L95.5 10Z" fill="#FFF8F8"/>
<path d="M109 40H117.5L129 50L114.5 45.5L109 40Z" fill="#FFF8F8"/>
<path d="M95.5 10L87 8L93.5 16H103.5L95.5 10Z" stroke="black"/>
<path d="M109 40H117.5L129 50L114.5 45.5L109 40Z" stroke="black"/>
<path d="M47 68.5L64.4003 69.7169" stroke="#A08936" stroke-width="3"/>
<path d="M98 67L117.501 69.0546" stroke="#A08936" stroke-width="3"/>
<path d="M34 104.5L37 92.5V104.5L39.5 118L34 104.5Z" fill="#932424"/>
<path d="M41.5 107.5V99L46 108.5L43.5 122.5L41.5 107.5Z" fill="#932424"/>
<path d="M26.5 99L28 90L31 99L29.5 104.5L26.5 99Z" fill="#932424"/>
<path d="M46 46L53.5 38.5L61 33.5L56 43L46 46Z" fill="#932424"/>
<path d="M129.5 70.5V62.5L135 72L142 86.5L129.5 70.5Z" fill="#932424"/>
<path d="M70.5 52L59 57.5H70.5L85 64.5L93.5 62.5L104 52L88.5 60.5L70.5 52Z" fill="#932424"/>
<path d="M100 126.5L88.5 143L111.5 126.5L137 99L100 126.5Z" fill="#932424"/>
<path d="M34 104.5L37 92.5V104.5L39.5 118L34 104.5Z" stroke="#932424"/>
<path d="M41.5 107.5V99L46 108.5L43.5 122.5L41.5 107.5Z" stroke="#932424"/>
<path d="M26.5 99L28 90L31 99L29.5 104.5L26.5 99Z" stroke="#932424"/>
<path d="M46 46L53.5 38.5L61 33.5L56 43L46 46Z" stroke="#932424"/>
<path d="M129.5 70.5V62.5L135 72L142 86.5L129.5 70.5Z" stroke="#932424"/>
<path d="M70.5 52L59 57.5H70.5L85 64.5L93.5 62.5L104 52L88.5 60.5L70.5 52Z" stroke="#932424"/>
<path d="M100 126.5L88.5 143L111.5 126.5L137 99L100 126.5Z" stroke="#932424"/>
<path d="M103.5 93.5L104.5 91.5L112 95.5L118 94.5L119 97.5L112 100L106.5 97.5L103.5 93.5Z" fill="#5B6075"/>
<path d="M74 40V36.5H85L86 40L82 42.5H76.5L74 40Z" fill="#5B6075"/>
<path d="M149.5 76.5L152.5 76C153.5 76.8333 155.7 78.5 156.5 78.5C157.5 78.5 158 81 158 82.5C158 83.7 157 84 156.5 84L153.5 78.5H149.5V76.5Z" fill="#5B6075"/>
<path d="M54 100L52 95.5L61 91.5L63 86L68.5 89L67 93.5L61 99L54 100Z" fill="#5B6075"/>
<path d="M36.5 70L39.5 66.5L43 68.5V74.5L41 79.5H37.5L36.5 70Z" fill="#5B6075"/>
<path d="M55 131L52 132V134L63.5 140.5L65.5 139.5L63 134L55 131Z" fill="#5B6075"/>
<path d="M103.5 93.5L104.5 91.5L112 95.5L118 94.5L119 97.5L112 100L106.5 97.5L103.5 93.5Z" stroke="black"/>
<path d="M74 40V36.5H85L86 40L82 42.5H76.5L74 40Z" stroke="black"/>
<path d="M149.5 76.5L152.5 76C153.5 76.8333 155.7 78.5 156.5 78.5C157.5 78.5 158 81 158 82.5C158 83.7 157 84 156.5 84L153.5 78.5H149.5V76.5Z" stroke="black"/>
<path d="M54 100L52 95.5L61 91.5L63 86L68.5 89L67 93.5L61 99L54 100Z" stroke="black"/>
<path d="M36.5 70L39.5 66.5L43 68.5V74.5L41 79.5H37.5L36.5 70Z" stroke="black"/>
<path d="M55 131L52 132V134L63.5 140.5L65.5 139.5L63 134L55 131Z" stroke="black"/>
<path d="M15.5 79L14.5 72.5H10.5L6.5 79V86.5L11.5 83V79H15.5Z" fill="white"/>
<path d="M9 85V84.5L11.5 83V79H15.5L15 73.5" stroke="black"/>
<path d="M13 84L10 86L12 90L13.5 89L15.5 84H19V77L17.5 76.5L16.5 81H13.5L13 84Z" fill="#932424"/>
<path d="M64 10L70 6.5L67 13.5L59.5 16L64 10Z" fill="#5C5B5B"/>
<path d="M70 14.5L71.5 10L73.5 14.5L70 17V14.5Z" fill="#5C5B5B"/>
<path d="M64 10L70 6.5L67 13.5L59.5 16L64 10Z" stroke="#932424"/>
<path d="M70 14.5L71.5 10L73.5 14.5L70 17V14.5Z" stroke="#932424"/>
<path d="M78 10V1.5L90 0L106 5.5L116 18.5L106 21.5L101.5 15.5H91.5L89 9L78 10Z" fill="white"/>
<path d="M77.5 4.5C77.5 4.9 77.8333 8.33333 78 10L88 9L91.5 15.5L101.5 16L106 21.5L108.5 20.5V21.5" stroke="black"/>
<path d="M75.5392 97L82.4252 98.2583L92.2623 100.056L94.2298 100.415L96.6416 103.906" stroke="black"/>
<path d="M69.5 12L68 2.5L64 3.5L52.5 14.5L51 22H61.5L63 17L69.5 12Z" fill="white"/>
<path d="M53.5 22H61.5L63 17L69.5 12L68.5 5" stroke="black"/>
<path d="M44.5 81.5C45.3 81.5 49.5 83.8333 51.5 85H57L64 81.5" stroke="black" stroke-width="3"/>
</g>
<defs>
<filter id="filter0_d_2_2" x="0.0951538" y="0" width="168.423" height="179.321" filterUnits="userSpaceOnUse" color-interpolation-filters="sRGB">
<feFlood flood-opacity="0" result="BackgroundImageFix"/>
<feColorMatrix in="SourceAlpha" type="matrix" values="0 0 0 0 0 0 0 0 0 0 0 0 0 0 0 0 0 0 127 0" result="hardAlpha"/>
<feOffset dy="4"/>
<feGaussianBlur stdDeviation="2"/>
<feComposite in2="hardAlpha" operator="out"/>
<feColorMatrix type="matrix" values="0 0 0 0 0 0 0 0 0 0 0 0 0 0 0 0 0 0 0.25 0"/>
<feBlend mode="normal" in2="BackgroundImageFix" result="effect1_dropShadow_2_2"/>
<feBlend mode="normal" in="SourceGraphic" in2="effect1_dropShadow_2_2" result="shape"/>
</filter>
</defs>
</svg>
