<svg width="169" height="176" viewBox="0 0 169 176" fill="none" xmlns="http://www.w3.org/2000/svg">
<g filter="url(#filter0_d_1_487)">
<path d="M5 100.5L20.5 91L147 92L162 100.5L149 111L163.5 121L145.5 129L150.5 142H134.5V157L120.5 147C120.167 151 119.4 159 119 159C118.6 159 103.5 154.333 96 152L90.5 167L69 150L62.5 159L50.5 147L37.5 155.5L32.5 136.5L20.5 142L18.5 119L6.5 121L12 105.5L5 100.5Z" fill="#FFDD66" stroke="black"/>
<path d="M33 40.5L20 60V87L25 109.5L39.5 127L62 140.5L88.5 143L114 137L134.5 123.5L146.5 99.5V64.5L134.5 40.5L109 23.5H75.5H54L33 40.5Z" fill="#FFD3BA" stroke="black"/>
<path d="M22.5 74.5L23.5 87L25 89H27L29 87L30 82.5V76V70L31.5 66L33.5 60.5L37.5 58L43 53.5L47.5 51.5L54 48H65.5L77.5 51.5H86.5L89 49H97.5L105.5 50L111.5 54.5H118H123L128 57L132.5 63L136 74.5L137 82.5V86.5L140 87.5L143 86.5V78.5V66.5C143 62.5 141 58.5 140 57L134 46L128 40L114.5 30.5L105.5 26H66.5H55.5L53 27L43 35L35.5 42L30 50L22.5 61.5V74.5Z" fill="#E8BCA3"/>
<path d="M15.5 70H20L21 91L16.5 91.5L12.5 89L9 84.5V78.5L11 72.5L15.5 70Z" fill="#EDB08E" stroke="black"/>
<path d="M151 69L146.5 72V92.5H151L157.5 90.5C158.667 89 161 85.8 161 85V78L157.5 70.5L151 69Z" fill="#EDB08E" stroke="black"/>
<path d="M45.5 77.5L49.5 71L56.5 73.5L59.5 79.5L56.5 85H49.5L45.5 77.5Z" fill="#030303" stroke="black"/>
<path d="M107.5 77L113.5 71L119.5 75L122 80.5L119.5 86.5L113.5 88.5L107.5 84.5V77Z" fill="#030303" stroke="black"/>
<path d="M61.5 114.5L66.5 103L71.5 101H85.5H96L101 110L93.5 107V119.5C93.5 123.5 86.5 114.833 83 110L78.5 123L71.5 110L61.5 114.5Z" fill="#FFDD66" stroke="black"/>
<path d="M54 14.5C53.8333 17.1667 53.6 22.7 54 23.5L57.5 26L63 28L69.5 29H80H92.5H99.5L107 26L108.5 23.5V13.5L105 14.5L99.5 16H86H72H63L54 14.5Z" fill="#585858" stroke="black"/>
<path d="M60 6L55 15L63 16H99.5L107 14L103.5 8L96 3.5L88.5 1H78H70L60 6Z" fill="#D9D9D9" stroke="black"/>
<path d="M19.5 95L10 100.5L17 104V107.5L14.5 115.5L22.5 115L23.5 118.5L24.5 135L36 131.5L36.5 133.5L41 148L52.5 142.5L62.5 152.5L68 145.5L71 146.5L89.5 155.5L93.5 147.5L115 150.5L118 141L129 144V135.5L141 134.5L140 125L153 117L145.5 110.5L146.5 109.5L158 100L148 96.5V101L136.5 125L114.5 139L87 145L60.5 141.5L37 127L22.5 108.5L19.5 95Z" fill="#D3B64C"/>
<path d="M65.5 109.5L68 104L93.5 102.5L97 106.5L92.5 104.5L90 106.5L89.5 113L84 107.5H80.5L77 113L71 107.5L65.5 109.5Z" fill="#D3B64C"/>
<path d="M19.5 95L10 100.5L17 104V107.5L14.5 115.5L22.5 115L23.5 118.5L24.5 135L36 131.5L36.5 133.5L41 148L52.5 142.5L62.5 152.5L68 145.5L71 146.5L89.5 155.5L93.5 147.5L115 150.5L118 141L129 144V135.5L141 134.5L140 125L153 117L145.5 110.5L146.5 109.5L158 100L148 96.5V101L136.5 125L114.5 139L87 145L60.5 141.5L37 127L22.5 108.5L19.5 95Z" stroke="black"/>
<path d="M65.5 109.5L68 104L93.5 102.5L97 106.5L92.5 104.5L90 106.5L89.5 113L84 107.5H80.5L77 113L71 107.5L65.5 109.5Z" stroke="black"/>
<path d="M76.5 83L77 84.5C77.8333 85.1667 79.6 86.5 80 86.5C80.4 86.5 82.5 86.5 83.5 86.5L85.5 85.5L86.5 83.5" stroke="black"/>
<path d="M55.5 22.5V17.5L74.5 22.5L98 21L106.5 19V24L96.5 27.5H74.5L62 25.5L55.5 22.5Z" fill="#363333"/>
<path d="M95.5 6.5L87 4.5L93.5 12.5H103.5L95.5 6.5Z" fill="#FFF8F8"/>
<path d="M109 36.5H117.5L129 46.5L114.5 42L109 36.5Z" fill="#FFF8F8"/>
<path d="M95.5 6.5L87 4.5L93.5 12.5H103.5L95.5 6.5Z" stroke="black"/>
<path d="M109 36.5H117.5L129 46.5L114.5 42L109 36.5Z" stroke="black"/>
<path d="M47 57L62.5 65" stroke="#A08936" stroke-width="3"/>
<path d="M104 61.5L122.5 55" stroke="#A08936" stroke-width="3"/>
<path d="M69 94L76.6415 96H83.7736H89.3774L96 94" stroke="black"/>
</g>
<defs>
<filter id="filter0_d_1_487" x="0.0951538" y="0.5" width="168.423" height="175.321" filterUnits="userSpaceOnUse" color-interpolation-filters="sRGB">
<feFlood flood-opacity="0" result="BackgroundImageFix"/>
<feColorMatrix in="SourceAlpha" type="matrix" values="0 0 0 0 0 0 0 0 0 0 0 0 0 0 0 0 0 0 127 0" result="hardAlpha"/>
<feOffset dy="4"/>
<feGaussianBlur stdDeviation="2"/>
<feComposite in2="hardAlpha" operator="out"/>
<feColorMatrix type="matrix" values="0 0 0 0 0 0 0 0 0 0 0 0 0 0 0 0 0 0 0.25 0"/>
<feBlend mode="normal" in2="BackgroundImageFix" result="effect1_dropShadow_1_487"/>
<feBlend mode="normal" in="SourceGraphic" in2="effect1_dropShadow_1_487" result="shape"/>
</filter>
</defs>
</svg>
