<svg width="360" height="360" viewBox="0 0 360 360" fill="none" xmlns="http://www.w3.org/2000/svg">
<g filter="url(#filter0_d_21_31)">
<path d="M69.8581 35.38L23.6978 86.1047L5 118.23L9.67446 131.193H23.6978L33.6311 118.23L48.2387 97.3768L73.9482 67.5056L105.501 45.525L142.896 31.9984L172.112 29.1804L220.609 35.38L266.185 55.6699L305.918 82.1594L330.459 134.575L336.886 198.262L310.008 266.459L270.275 297.457L230.543 320.565L186.135 323.947L137.053 315.493L96.1519 301.403L73.9482 260.259L66.9366 215.171L69.8581 173.464L90.3089 131.193L112.513 104.704L137.053 92.3044L181.461 79.3414L214.766 92.3044L259.174 118.23L288.973 159.937L291.895 201.081L281.377 236.024L259.174 255.75L214.766 264.205L165.1 255.75L130.042 211.225L149.324 165.01L214.766 154.865L259.174 176.845L278.456 165.01L230.543 122.176H181.461L130.042 140.775L99.6578 211.225L130.042 274.349L214.766 294.639L298.322 255.75L315.851 176.845L278.456 106.958L197.237 60.7424L99.6578 86.1047L48.2387 165.01V264.205L85.6344 323.947L214.766 351L315.851 294.639L355 201.081L345.651 106.958L296.569 45.525L230.543 11.1449L149.324 1L69.8581 35.38Z" fill="#64B7D1" stroke="#3A626F"/>
<path d="M73.364 143.593L93.8147 120.485L103.164 112.031L134.716 120.485C139.585 124.054 150.726 131.982 156.336 135.138C161.945 138.295 163.737 161.628 163.932 172.9L149.324 206.717L110.175 220.807L85.0501 206.717L69.2738 179.1L73.364 143.593Z" fill="white"/>
<path d="M236.97 159.937L252.746 146.974H273.781L290.142 157.119L300.659 179.1V206.717L276.703 224.188L252.746 220.807L234.048 210.098L229.958 179.1L236.97 159.937Z" fill="white"/>
<path d="M73.364 143.593L93.8147 120.485L103.164 112.031L134.716 120.485C139.585 124.054 150.726 131.982 156.336 135.138C161.945 138.295 163.737 161.628 163.932 172.9L149.324 206.717L110.175 220.807L85.0501 206.717L69.2738 179.1L73.364 143.593Z" stroke="#3A626F"/>
<path d="M236.97 159.937L252.746 146.974H273.781L290.142 157.119L300.659 179.1V206.717L276.703 224.188L252.746 220.807L234.048 210.098L229.958 179.1L236.97 159.937Z" stroke="#3A626F"/>
<path d="M116.018 137.957L125.952 131.757H135.885L150.493 144.72V160.501L132.379 166.7L113.681 152.61L116.018 137.957Z" fill="#291E1E"/>
<path d="M263.848 166.7L273.197 158.246L286.052 163.319L294.816 178.536V189.245L288.973 193.754L270.275 189.245L263.848 175.718V166.7Z" fill="#291E1E"/>
<path d="M116.018 137.957L125.952 131.757H135.885L150.493 144.72V160.501L132.379 166.7L113.681 152.61L116.018 137.957Z" stroke="#3A626F"/>
<path d="M263.848 166.7L273.197 158.246L286.052 163.319L294.816 178.536V189.245L288.973 193.754L270.275 189.245L263.848 175.718V166.7Z" stroke="#3A626F"/>
<path d="M89 195.5L77.5 175.5V167L89 173L99.5 187.5L113.5 195.5L134 190.5L145.5 187.5L148 193L142.5 199.5L121 209.5H104.5L89 195.5Z" fill="#E9E9E9"/>
<path d="M238 199.5V193L245.5 190.5L256 203L272 206L288.5 203L290.5 209.5L272 219C267.333 218.167 257.6 216.3 256 215.5C254.4 214.7 245 211.167 240.5 209.5L238 199.5Z" fill="#E9E9E9"/>
</g>
<defs>
<filter id="filter0_d_21_31" x="0.4505" y="0.487061" width="359.06" height="359.041" filterUnits="userSpaceOnUse" color-interpolation-filters="sRGB">
<feFlood flood-opacity="0" result="BackgroundImageFix"/>
<feColorMatrix in="SourceAlpha" type="matrix" values="0 0 0 0 0 0 0 0 0 0 0 0 0 0 0 0 0 0 127 0" result="hardAlpha"/>
<feOffset dy="4"/>
<feGaussianBlur stdDeviation="2"/>
<feComposite in2="hardAlpha" operator="out"/>
<feColorMatrix type="matrix" values="0 0 0 0 0 0 0 0 0 0 0 0 0 0 0 0 0 0 0.25 0"/>
<feBlend mode="normal" in2="BackgroundImageFix" result="effect1_dropShadow_21_31"/>
<feBlend mode="normal" in="SourceGraphic" in2="effect1_dropShadow_21_31" result="shape"/>
</filter>
</defs>
</svg>
