<svg width="360" height="360" viewBox="0 0 360 360" fill="none" xmlns="http://www.w3.org/2000/svg">
<g filter="url(#filter0_d_22_82)">
<path d="M35.2273 292.76L90.3788 340.92L160.909 351L248.409 340.92L297.727 301.16L332.727 240.68L343.333 176.28L355 115.8L343.333 93.4L321.061 105.72L312.045 127L283.939 143.24L263.788 115.8L275.455 81.08L291.894 61.48L297.727 36.84L283.939 26.76H263.788L234.621 57.56L214.47 93.4L208.636 127V165.08H184.242L177.348 143.24L184.242 127V88.36L177.348 57.56L151.364 15.56L128.03 1H116.364L109.47 15.56L116.364 57.56L128.03 105.72L116.364 135.4L97.803 150.52L79.7727 143.24V105.72L90.3788 72.68V36.84L79.7727 26.76L45.8333 57.56L5 165.08V240.68L35.2273 292.76Z" fill="#AC3939" stroke="#690A0A"/>
<path d="M141.818 166.2L126.439 177.4V203.16L140.227 218.28L162.5 221.64L182.652 203.16V182.44L162.5 166.2H141.818Z" fill="white"/>
<path d="M201.742 197L211.818 186.92L228.258 182.44L240.985 197L245.758 218.28L235.152 236.2C228.788 237.133 215.212 238.44 211.818 236.2C208.424 233.96 200.152 223.32 196.439 218.28L201.742 197Z" fill="white"/>
<path d="M141.818 166.2L126.439 177.4V203.16L140.227 218.28L162.5 221.64L182.652 203.16V182.44L162.5 166.2H141.818Z" stroke="#910F0F"/>
<path d="M201.742 197L211.818 186.92L228.258 182.44L240.985 197L245.758 218.28L235.152 236.2C228.788 237.133 215.212 238.44 211.818 236.2C208.424 233.96 200.152 223.32 196.439 218.28L201.742 197Z" stroke="#910F0F"/>
<path d="M133.333 177.96L142.348 170.12L158.257 175.16L161.439 185.8L153.485 195.88H142.348L133.333 190.84V177.96Z" fill="black"/>
<path d="M207.576 195.88L217.121 190.84L225.606 195.88L229.848 205.4L222.954 213.8H211.818L204.394 205.4L207.576 195.88Z" fill="black"/>
<path d="M133.333 177.96L142.348 170.12L158.257 175.16L161.439 185.8L153.485 195.88H142.348L133.333 190.84V177.96Z" stroke="black"/>
<path d="M207.576 195.88L217.121 190.84L225.606 195.88L229.848 205.4L222.954 213.8H211.818L204.394 205.4L207.576 195.88Z" stroke="black"/>
<path d="M125.909 230.6L100.454 208.2L91.4393 197.56L85.0757 217.72V248.52L91.4393 277.08L125.909 306.76L211.288 316.28L245.227 301.16L258.485 277.08V248.52L237.803 258.04H202.803L159.848 248.52L125.909 230.6Z" fill="#6B1313" stroke="#8C1A1A"/>
<path d="M134.394 263.08L106.288 282.12L128.561 303.4L208.106 312.36L212.348 309L208.106 295.56L198.561 282.12L182.121 270.36L159.318 263.08H134.394Z" fill="#CD3232" stroke="#D8240C"/>
<path d="M52.7274 67.0801L71.8183 41.3201L62.2729 74.9201L42.1214 160.6L24.0911 230.04L27.8032 149.96L52.7274 67.0801Z" fill="#D57A26"/>
<path d="M55.9092 149.96L62.2729 120.84L76.5911 169L67.5759 204.28L55.9092 149.96Z" fill="#D57A26"/>
<path d="M34.1668 251.88L52.7274 218.28L67.5759 260.28L42.1214 290.52L34.1668 251.88Z" fill="#D57A26"/>
<path d="M123.788 41.3201L121.137 13.3201L150.303 28.4401L157.727 77.7201L123.788 41.3201Z" fill="#D57A26"/>
<path d="M133.333 92.2801V74.9201L153.485 97.8801L166.212 125.88L116.894 160.6L143.94 120.84L133.333 92.2801Z" fill="#D57A26"/>
<path d="M248.94 55.3201L269.091 35.7201L248.94 87.8001L221.894 130.92L248.94 55.3201Z" fill="#D57A26"/>
<path d="M269.091 55.3201L283.409 35.7201V55.3201L269.091 74.9201V55.3201Z" fill="#D57A26"/>
<path d="M239.394 160.6L248.94 130.92L274.924 175.72L279.697 256.92L239.394 160.6Z" fill="#D57A26"/>
<path d="M322.121 117.48L334.318 106.84L330.076 149.96L298.258 185.24L322.121 117.48Z" fill="#D57A26"/>
<path d="M298.258 230.04L316.288 200.92V247.4L274.924 298.92L298.258 230.04Z" fill="#D57A26"/>
<path d="M87.7274 185.24L97.2729 169L116.894 189.72V212.12L87.7274 185.24Z" fill="#D57A26"/>
<path d="M65.985 301.16L79.7729 285.48L112.121 306.76L157.727 323.56L121.137 331.4L65.985 301.16Z" fill="#D57A26"/>
<path d="M192.727 323.56L178.94 334.2L217.121 331.4L248.94 315.72L192.727 323.56Z" fill="#D57A26"/>
<path d="M52.7274 67.0801L71.8183 41.3201L62.2729 74.9201L42.1214 160.6L24.0911 230.04L27.8032 149.96L52.7274 67.0801Z" stroke="#BB691C"/>
<path d="M55.9092 149.96L62.2729 120.84L76.5911 169L67.5759 204.28L55.9092 149.96Z" stroke="#BB691C"/>
<path d="M34.1668 251.88L52.7274 218.28L67.5759 260.28L42.1214 290.52L34.1668 251.88Z" stroke="#BB691C"/>
<path d="M123.788 41.3201L121.137 13.3201L150.303 28.4401L157.727 77.7201L123.788 41.3201Z" stroke="#BB691C"/>
<path d="M133.333 92.2801V74.9201L153.485 97.8801L166.212 125.88L116.894 160.6L143.94 120.84L133.333 92.2801Z" stroke="#BB691C"/>
<path d="M248.94 55.3201L269.091 35.7201L248.94 87.8001L221.894 130.92L248.94 55.3201Z" stroke="#BB691C"/>
<path d="M269.091 55.3201L283.409 35.7201V55.3201L269.091 74.9201V55.3201Z" stroke="#BB691C"/>
<path d="M239.394 160.6L248.94 130.92L274.924 175.72L279.697 256.92L239.394 160.6Z" stroke="#BB691C"/>
<path d="M322.121 117.48L334.318 106.84L330.076 149.96L298.258 185.24L322.121 117.48Z" stroke="#BB691C"/>
<path d="M298.258 230.04L316.288 200.92V247.4L274.924 298.92L298.258 230.04Z" stroke="#BB691C"/>
<path d="M87.7274 185.24L97.2729 169L116.894 189.72V212.12L87.7274 185.24Z" stroke="#BB691C"/>
<path d="M65.985 301.16L79.7729 285.48L112.121 306.76L157.727 323.56L121.137 331.4L65.985 301.16Z" stroke="#BB691C"/>
<path d="M192.727 323.56L178.94 334.2L217.121 331.4L248.94 315.72L192.727 323.56Z" stroke="#BB691C"/>
<path d="M53.7877 71.56L60.1514 59.24L42.1211 143.24L29.3938 188.6L32.5756 145.48L53.7877 71.56Z" fill="#A8AA51"/>
<path d="M58.0302 148.84L62.2726 133.72L73.409 168.44L67.0453 186.92L58.0302 148.84Z" fill="#A8AA51"/>
<path d="M91.9696 183.56L97.8029 174.04L111.06 189.72L111.591 203.16L91.9696 183.56Z" fill="#A8AA51"/>
<path d="M37.8786 249.64L50.6059 227.24L56.9696 259.16L44.2423 280.44L37.8786 249.64Z" fill="#A8AA51"/>
<path d="M71.818 299.48L80.3029 290.52L137.045 323L120.606 327.48L71.818 299.48Z" fill="#A8AA51"/>
<path d="M195.379 327.48L188.485 329.72H212.348L229.848 320.2L195.379 327.48Z" fill="#A8AA51"/>
<path d="M300.909 231.16L312.576 211.56L310.454 246.84L286.06 277.08L300.909 231.16Z" fill="#A8AA51"/>
<path d="M243.636 161.16L248.939 140.44L267.5 175.72L272.803 227.24L243.636 161.16Z" fill="#A8AA51"/>
<path d="M261.136 48.6L251.06 57L238.333 95.08L246.818 82.2L261.136 48.6Z" fill="#A8AA51"/>
<path d="M271.212 57L280.227 44.12V57L271.212 65.96V57Z" fill="#A8AA51"/>
<path d="M137.045 92.28V85.56L150.303 99L158.788 124.76L137.045 138.76L148.712 119.16L137.045 92.28Z" fill="#A8AA51"/>
<path d="M127.5 38.52V22.28L146.591 32.92L150.303 63.72L127.5 38.52Z" fill="#A8AA51"/>
<path d="M322.651 121.96L328.485 115.8L326.364 148.84L307.803 166.2L322.651 121.96Z" fill="#A8AA51"/>
<path d="M53.7877 71.56L60.1514 59.24L42.1211 143.24L29.3938 188.6L32.5756 145.48L53.7877 71.56Z" stroke="#BB691C"/>
<path d="M58.0302 148.84L62.2726 133.72L73.409 168.44L67.0453 186.92L58.0302 148.84Z" stroke="#BB691C"/>
<path d="M91.9696 183.56L97.8029 174.04L111.06 189.72L111.591 203.16L91.9696 183.56Z" stroke="#BB691C"/>
<path d="M37.8786 249.64L50.6059 227.24L56.9696 259.16L44.2423 280.44L37.8786 249.64Z" stroke="#BB691C"/>
<path d="M71.818 299.48L80.3029 290.52L137.045 323L120.606 327.48L71.818 299.48Z" stroke="#BB691C"/>
<path d="M195.379 327.48L188.485 329.72H212.348L229.848 320.2L195.379 327.48Z" stroke="#BB691C"/>
<path d="M300.909 231.16L312.576 211.56L310.454 246.84L286.06 277.08L300.909 231.16Z" stroke="#BB691C"/>
<path d="M243.636 161.16L248.939 140.44L267.5 175.72L272.803 227.24L243.636 161.16Z" stroke="#BB691C"/>
<path d="M261.136 48.6L251.06 57L238.333 95.08L246.818 82.2L261.136 48.6Z" stroke="#BB691C"/>
<path d="M271.212 57L280.227 44.12V57L271.212 65.96V57Z" stroke="#BB691C"/>
<path d="M137.045 92.28V85.56L150.303 99L158.788 124.76L137.045 138.76L148.712 119.16L137.045 92.28Z" stroke="#BB691C"/>
<path d="M127.5 38.52V22.28L146.591 32.92L150.303 63.72L127.5 38.52Z" stroke="#BB691C"/>
<path d="M322.651 121.96L328.485 115.8L326.364 148.84L307.803 166.2L322.651 121.96Z" stroke="#BB691C"/>
<path d="M132.273 203.16V198.12H139.697L151.894 203.16H167.273V209.88L159.318 214.36H144.47L132.273 203.16Z" fill="#E1E1E1"/>
<path d="M202.273 219.4L205.455 217.16L219.773 221.64H230.379L235.682 226.12L230.379 232.84H219.773L209.697 228.36L202.273 219.4Z" fill="#E1E1E1"/>
<path d="M132.273 203.16V198.12H139.697L151.894 203.16H167.273V209.88L159.318 214.36H144.47L132.273 203.16Z" stroke="#DCDCDC"/>
<path d="M202.273 219.4L205.455 217.16L219.773 221.64H230.379L235.682 226.12L230.379 232.84H219.773L209.697 228.36L202.273 219.4Z" stroke="#DCDCDC"/>
</g>
<defs>
<filter id="filter0_d_22_82" x="0.5" y="0.5" width="359.024" height="359.004" filterUnits="userSpaceOnUse" color-interpolation-filters="sRGB">
<feFlood flood-opacity="0" result="BackgroundImageFix"/>
<feColorMatrix in="SourceAlpha" type="matrix" values="0 0 0 0 0 0 0 0 0 0 0 0 0 0 0 0 0 0 127 0" result="hardAlpha"/>
<feOffset dy="4"/>
<feGaussianBlur stdDeviation="2"/>
<feComposite in2="hardAlpha" operator="out"/>
<feColorMatrix type="matrix" values="0 0 0 0 0 0 0 0 0 0 0 0 0 0 0 0 0 0 0.25 0"/>
<feBlend mode="normal" in2="BackgroundImageFix" result="effect1_dropShadow_22_82"/>
<feBlend mode="normal" in="SourceGraphic" in2="effect1_dropShadow_22_82" result="shape"/>
</filter>
</defs>
</svg>
