<svg width="360" height="360" viewBox="0 0 360 360" fill="none" xmlns="http://www.w3.org/2000/svg">
<g filter="url(#filter0_d_21_62)">
<path d="M34.3445 145.733L5 217.274V280.56L54.6189 332.84L96.7683 351H184.268H273.369L349.131 305.874L355 236.535L316.052 161.142L254.695 67.5881L205.076 1H133.582L82.8963 67.5881L34.3445 145.733Z" fill="#571798" stroke="#CA66C0"/>
<path d="M86.0974 109.412L105.838 62.6353L118.11 49.978L144.253 68.6887L153.857 117.667V166.645L144.253 200.764L127.713 210.67L105.838 196.362L86.0974 147.384V109.412Z" fill="white"/>
<path d="M175.198 128.123L187.469 97.3051L196.539 86.2988H216.28L240.289 128.123L248.293 183.704L240.289 229.381L216.28 249.742L191.738 242.038L175.198 210.67L170.396 171.047L175.198 128.123Z" fill="white"/>
<path d="M86.0974 109.412L105.838 62.6353L118.11 49.978L144.253 68.6887L153.857 117.667V166.645L144.253 200.764L127.713 210.67L105.838 196.362L86.0974 147.384V109.412Z" stroke="#E191D9"/>
<path d="M175.198 128.123L187.469 97.3051L196.539 86.2988H216.28L240.289 128.123L248.293 183.704L240.289 229.381L216.28 249.742L191.738 242.038L175.198 210.67L170.396 171.047L175.198 128.123Z" stroke="#E191D9"/>
<path d="M191.204 103.909L202.942 95.654L217.881 102.258L223.75 113.814L220.015 129.774L199.207 135.827L186.936 120.968L191.204 103.909Z" fill="black"/>
<path d="M107.439 75.8427L117.576 65.3867H120.778L136.784 75.8427V91.8018L120.778 98.9559L107.439 87.3993V75.8427Z" fill="black"/>
<path d="M191.204 103.909L202.942 95.654L217.881 102.258L223.75 113.814L220.015 129.774L199.207 135.827L186.936 120.968L191.204 103.909Z" stroke="#CA66C0"/>
<path d="M107.439 75.8427L117.576 65.3867H120.778L136.784 75.8427V91.8018L120.778 98.9559L107.439 87.3993V75.8427Z" stroke="#CA66C0"/>
<path d="M127.18 238.736L139.451 223.327L155.991 218.925L168.796 228.28L180 249.192" stroke="#391F37"/>
<path d="M24.2072 192.509L42.881 147.934L55.6859 133.075H67.4237L77.5609 155.088L86.0975 182.053L74.8932 210.67C71.692 218.007 64.756 233.343 62.6218 235.984C60.4877 238.626 66.7123 266.435 70.0914 280.009L77.5609 309.176L62.6218 316.88L42.881 302.022C35.4115 293.4 20.4725 275.387 20.4725 272.305C20.4725 269.223 16.9155 246.807 15.1371 235.984L24.2072 192.509Z" fill="#973988"/>
<path d="M266.966 173.248L276.036 160.591L295.777 147.934L306.982 164.994L329.924 206.267L342.729 240.387L338.994 284.962L315.518 311.928C300.401 321.283 269.527 339.994 266.966 339.994C264.405 339.994 237.444 341.828 224.283 342.745L168.262 339.994L163.994 328.987L174.665 309.176L192.271 294.318L227.485 284.962L255.229 267.902L276.036 235.984V206.267L266.966 173.248Z" fill="#973988"/>
<path d="M128.247 33.4685L142.119 13.1068L174.665 9.80493L199.741 13.1068L213.613 26.3144L235.488 56.5817L227.485 71.4402L192.271 75.2924L174.665 102.808H168.262L163.994 84.6477L152.256 60.9842L137.851 51.6288L128.247 33.4685Z" fill="#973988"/>
<path d="M24.2072 192.509L42.881 147.934L55.6859 133.075H67.4237L77.5609 155.088L86.0975 182.053L74.8932 210.67C71.692 218.007 64.756 233.343 62.6218 235.984C60.4877 238.626 66.7123 266.435 70.0914 280.009L77.5609 309.176L62.6218 316.88L42.881 302.022C35.4115 293.4 20.4725 275.387 20.4725 272.305C20.4725 269.223 16.9155 246.807 15.1371 235.984L24.2072 192.509Z" stroke="#973988"/>
<path d="M266.966 173.248L276.036 160.591L295.777 147.934L306.982 164.994L329.924 206.267L342.729 240.387L338.994 284.962L315.518 311.928C300.401 321.283 269.527 339.994 266.966 339.994C264.405 339.994 237.444 341.828 224.283 342.745L168.262 339.994L163.994 328.987L174.665 309.176L192.271 294.318L227.485 284.962L255.229 267.902L276.036 235.984V206.267L266.966 173.248Z" stroke="#973988"/>
<path d="M128.247 33.4685L142.119 13.1068L174.665 9.80493L199.741 13.1068L213.613 26.3144L235.488 56.5817L227.485 71.4402L192.271 75.2924L174.665 102.808H168.262L163.994 84.6477L152.256 60.9842L137.851 51.6288L128.247 33.4685Z" stroke="#973988"/>
<path d="M141.585 33.4685L155.991 19.7106L177.866 15.8584L193.339 19.7106L212.012 33.4685L220.549 56.5817L200.808 63.1854L181.067 78.0439L171.997 66.4873L152.79 52.1791L141.585 33.4685Z" fill="#F54EB2"/>
<path d="M279.771 178.201L292.576 176L305.381 178.201C311.606 189.024 324.375 210.89 325.656 211.77C326.936 212.651 330.457 234.15 332.058 244.789L329.39 282.761L295.778 314.679L266.433 330.088L238.689 327.336L225.351 316.33V300.371L240.29 287.163L266.433 271.755L279.771 257.997C281.906 248.275 286.174 228.17 286.174 225.528V202.965L279.771 178.201Z" fill="#F54EB2"/>
<path d="M39.68 168.296L52.4849 147.384H63.1556L74.3599 168.296L78.6282 187.006L60.4879 214.522L56.2196 240.387L60.4879 257.997L56.2196 270.104L39.68 261.299L29.0093 249.742L24.741 227.729L29.0093 195.811L39.68 168.296Z" fill="#F54EB2"/>
<path d="M141.585 33.4685L155.991 19.7106L177.866 15.8584L193.339 19.7106L212.012 33.4685L220.549 56.5817L200.808 63.1854L181.067 78.0439L171.997 66.4873L152.79 52.1791L141.585 33.4685Z" stroke="#CA66C0"/>
<path d="M279.771 178.201L292.576 176L305.381 178.201C311.606 189.024 324.375 210.89 325.656 211.77C326.936 212.651 330.457 234.15 332.058 244.789L329.39 282.761L295.778 314.679L266.433 330.088L238.689 327.336L225.351 316.33V300.371L240.29 287.163L266.433 271.755L279.771 257.997C281.906 248.275 286.174 228.17 286.174 225.528V202.965L279.771 178.201Z" stroke="#CA66C0"/>
<path d="M39.68 168.296L52.4849 147.384H63.1556L74.3599 168.296L78.6282 187.006L60.4879 214.522L56.2196 240.387L60.4879 257.997L56.2196 270.104L39.68 261.299L29.0093 249.742L24.741 227.729L29.0093 195.811L39.68 168.296Z" stroke="#CA66C0"/>
<path d="M47.1493 169.947L57.2865 160.591L69.5579 169.947V186.456L59.9542 200.764L49.817 221.126L39.6798 212.871V190.859L47.1493 169.947Z" fill="#F498DA"/>
<path d="M158.658 38.4215L167.195 31.2674L184.268 23.0127L204.009 38.4215V51.629L184.268 61.5347L163.994 51.629L158.658 38.4215Z" fill="#F498DA"/>
<path d="M290.976 243.138L296.311 221.126L303.247 204.616L314.985 212.871L321.387 243.138V276.157L303.247 294.318L276.037 312.478L258.963 308.076V294.318L276.037 280.56L290.976 243.138Z" fill="#F498DA"/>
<path d="M47.1493 169.947L57.2865 160.591L69.5579 169.947V186.456L59.9542 200.764L49.817 221.126L39.6798 212.871V190.859L47.1493 169.947Z" stroke="#CA66C0"/>
<path d="M158.658 38.4215L167.195 31.2674L184.268 23.0127L204.009 38.4215V51.629L184.268 61.5347L163.994 51.629L158.658 38.4215Z" stroke="#CA66C0"/>
<path d="M290.976 243.138L296.311 221.126L303.247 204.616L314.985 212.871L321.387 243.138V276.157L303.247 294.318L276.037 312.478L258.963 308.076V294.318L276.037 280.56L290.976 243.138Z" stroke="#CA66C0"/>
</g>
<defs>
<filter id="filter0_d_21_62" x="0.5" y="0.5" width="359.01" height="359" filterUnits="userSpaceOnUse" color-interpolation-filters="sRGB">
<feFlood flood-opacity="0" result="BackgroundImageFix"/>
<feColorMatrix in="SourceAlpha" type="matrix" values="0 0 0 0 0 0 0 0 0 0 0 0 0 0 0 0 0 0 127 0" result="hardAlpha"/>
<feOffset dy="4"/>
<feGaussianBlur stdDeviation="2"/>
<feComposite in2="hardAlpha" operator="out"/>
<feColorMatrix type="matrix" values="0 0 0 0 0 0 0 0 0 0 0 0 0 0 0 0 0 0 0.25 0"/>
<feBlend mode="normal" in2="BackgroundImageFix" result="effect1_dropShadow_21_62"/>
<feBlend mode="normal" in="SourceGraphic" in2="effect1_dropShadow_21_62" result="shape"/>
</filter>
</defs>
</svg>
