<svg width="360" height="360" viewBox="0 0 360 360" fill="none" xmlns="http://www.w3.org/2000/svg">
<g filter="url(#filter0_d_28_73)">
<path d="M5 40.2857V89.6905L32.8037 146.238L109.673 235.524L225.249 330.167L281.402 351L334.283 337.905L355 292.667V241.476L329.922 205.762L281.402 158.143L143.474 26.5952L63.8785 1L32.8037 14.6905L5 40.2857Z" fill="#F599EC" stroke="black"/>
<path d="M80.7787 64.0952L89.5015 38.5H99.8597L120.031 42.6667L142.383 67.6667L146.199 86.7143L142.383 102.786L120.031 108.738L93.3177 93.2619L80.7787 64.0952Z" fill="white"/>
<path d="M50.7943 125.405L64.9688 117.071H80.7787L95.4984 127.786L111.308 145.048L120.031 169.452L111.308 183.143L80.7787 177.786L54.6105 152.786L50.7943 125.405Z" fill="white"/>
<path d="M80.7787 64.0952L89.5015 38.5H99.8597L120.031 42.6667L142.383 67.6667L146.199 86.7143L142.383 102.786L120.031 108.738L93.3177 93.2619L80.7787 64.0952Z" stroke="black"/>
<path d="M50.7943 125.405L64.9688 117.071H80.7787L95.4984 127.786L111.308 145.048L120.031 169.452L111.308 183.143L80.7787 177.786L54.6105 152.786L50.7943 125.405Z" stroke="black"/>
<path d="M147.835 205.167L116.76 234.333H112.399L154.377 264.095L184.907 240.286L212.71 196.238L230.156 152.786V117.072L177.274 66.4763L173.458 93.8573V152.786L147.835 205.167Z" fill="#38D85B"/>
<path d="M287.944 209.929L291.76 174.81L292.851 171.833L321.745 201V209.929L314.657 255.167L291.76 295.048L250.872 326.595H226.885L189.813 295.048L230.156 278.976L265.592 249.214L287.944 209.929Z" fill="#38D85B"/>
<path d="M147.835 205.167L116.76 234.333H112.399L154.377 264.095L184.907 240.286L212.71 196.238L230.156 152.786V117.072L177.274 66.4763L173.458 93.8573V152.786L147.835 205.167Z" stroke="#38D85B"/>
<path d="M287.944 209.929L291.76 174.81L292.851 171.833L321.745 201V209.929L314.657 255.167L291.76 295.048L250.872 326.595H226.885L189.813 295.048L230.156 278.976L265.592 249.214L287.944 209.929Z" stroke="#38D85B"/>
<path d="M188.178 118.262V92.6667L214.346 111.714L218.162 141.476L202.897 192.667L177.274 234.929L150.016 249.81L134.206 234.929L163.1 205.762L188.178 169.452V118.262Z" fill="#52A54B"/>
<path d="M294.486 217.072L297.757 188.5L315.203 198.024V224.81L301.573 258.738L277.586 295.048C268.136 302.786 248.365 318.262 244.875 318.262H225.249L208.894 295.048L241.059 279.572L271.044 258.738L294.486 217.072Z" fill="#52A54B"/>
<path d="M188.178 118.262V92.6667L214.346 111.714L218.162 141.476L202.897 192.667L177.274 234.929L150.016 249.81L134.206 234.929L163.1 205.762L188.178 169.452V118.262Z" stroke="#52A54B"/>
<path d="M294.486 217.072L297.757 188.5L315.203 198.024V224.81L301.573 258.738L277.586 295.048C268.136 302.786 248.365 318.262 244.875 318.262H225.249L208.894 295.048L241.059 279.572L271.044 258.738L294.486 217.072Z" stroke="#52A54B"/>
<path d="M336.464 252.19L327.741 227.786L336.464 223.024L348.458 241.476L350.639 281.357L343.006 303.976L325.016 331.952L298.847 342.071L274.86 344.452L262.866 334.333L274.86 328.381L306.48 318.857C312.84 314.492 325.997 305.405 327.741 303.976C329.486 302.548 334.283 286.317 336.464 278.381V252.19Z" fill="#CA66C0"/>
<path d="M10.4517 55.1666L19.1744 37.9047L28.9875 27.7856L50.7943 15.8809L67.6946 9.33325L85.1401 15.8809L89.5015 27.7856L60.6074 55.1666L45.8878 77.7856L48.6137 101.595L36.0747 115.881L22.9906 108.738L10.4517 77.7856V55.1666Z" fill="#CA66C0"/>
<path d="M126.573 149.809L112.944 128.976L121.121 115.881H141.293L160.374 121.238V155.762L144.019 171.833H134.206L126.573 149.809Z" fill="#CA66C0"/>
<path d="M243.785 155.762L241.059 136.119L247.056 133.143L277.586 159.928L284.128 171.833L279.766 201L269.408 227.786L251.417 252.19H230.156L216.526 236.119V219.452L224.159 205.167L235.607 183.738L243.785 155.762Z" fill="#CA66C0"/>
<path d="M336.464 252.19L327.741 227.786L336.464 223.024L348.458 241.476L350.639 281.357L343.006 303.976L325.016 331.952L298.847 342.071L274.86 344.452L262.866 334.333L274.86 328.381L306.48 318.857C312.84 314.492 325.997 305.405 327.741 303.976C329.486 302.548 334.283 286.317 336.464 278.381V252.19Z" stroke="#CA66C0"/>
<path d="M10.4517 55.1666L19.1744 37.9047L28.9875 27.7856L50.7943 15.8809L67.6946 9.33325L85.1401 15.8809L89.5015 27.7856L60.6074 55.1666L45.8878 77.7856L48.6137 101.595L36.0747 115.881L22.9906 108.738L10.4517 77.7856V55.1666Z" stroke="#CA66C0"/>
<path d="M126.573 149.809L112.944 128.976L121.121 115.881H141.293L160.374 121.238V155.762L144.019 171.833H134.206L126.573 149.809Z" stroke="#CA66C0"/>
<path d="M243.785 155.762L241.059 136.119L247.056 133.143L277.586 159.928L284.128 171.833L279.766 201L269.408 227.786L251.417 252.19H230.156L216.526 236.119V219.452L224.159 205.167L235.607 183.738L243.785 155.762Z" stroke="#CA66C0"/>
<path d="M77.5 127L82.5 167.5" stroke="black" stroke-width="4"/>
<path d="M63 145L101.5 161" stroke="black" stroke-width="4"/>
<path d="M97 71H137" stroke="black" stroke-width="4"/>
<path d="M114 55L120.5 97" stroke="black" stroke-width="4"/>
</g>
<defs>
<filter id="filter0_d_28_73" x="0.5" y="0.46582" width="359" height="359.057" filterUnits="userSpaceOnUse" color-interpolation-filters="sRGB">
<feFlood flood-opacity="0" result="BackgroundImageFix"/>
<feColorMatrix in="SourceAlpha" type="matrix" values="0 0 0 0 0 0 0 0 0 0 0 0 0 0 0 0 0 0 127 0" result="hardAlpha"/>
<feOffset dy="4"/>
<feGaussianBlur stdDeviation="2"/>
<feComposite in2="hardAlpha" operator="out"/>
<feColorMatrix type="matrix" values="0 0 0 0 0 0 0 0 0 0 0 0 0 0 0 0 0 0 0.25 0"/>
<feBlend mode="normal" in2="BackgroundImageFix" result="effect1_dropShadow_28_73"/>
<feBlend mode="normal" in="SourceGraphic" in2="effect1_dropShadow_28_73" result="shape"/>
</filter>
</defs>
</svg>
