<svg width="360" height="360" viewBox="0 0 360 360" fill="none" xmlns="http://www.w3.org/2000/svg">
<g filter="url(#filter0_d_21_73)">
<path d="M62.9819 42.3979L30.3012 99.3871L15.0151 136.484L5 201.538L24.503 267.129L77.2139 328.419L159.443 351H249.051L312.304 315.516L341.295 268.204L355 183.796L329.699 99.3871L278.569 42.3979L180.527 1L109.367 6.91398L62.9819 42.3979Z" fill="#F2EA21" stroke="#A98B3D"/>
<path d="M107.259 95.0859L137.831 98.3117L146.265 106.914L158.388 144.548V171.43L146.265 197.774L115.165 206.376L83.539 191.86L74.051 164.441V138.097L83.539 112.828L107.259 95.0859Z" fill="white"/>
<path d="M220.06 119.817L244.307 98.3117H264.864L280.678 112.828L298.599 133.258L304.925 164.441L295.437 201L264.864 216.591L239.563 206.376L224.277 187.021L214.789 155.839L220.06 119.817Z" fill="white"/>
<path d="M107.259 95.0859L137.831 98.3117L146.265 106.914L158.388 144.548V171.43L146.265 197.774L115.165 206.376L83.539 191.86L74.051 164.441V138.097L83.539 112.828L107.259 95.0859Z" stroke="#A98B3D"/>
<path d="M220.06 119.817L244.307 98.3117H264.864L280.678 112.828L298.599 133.258L304.925 164.441L295.437 201L264.864 216.591L239.563 206.376L224.277 187.021L214.789 155.839L220.06 119.817Z" stroke="#A98B3D"/>
<path d="M130.452 224.656L151.536 245.086L184.744 256.376L215.316 249.925L239.563 230.032M130.452 224.656L134.668 218.204L139.94 211.215M130.452 224.656L125.181 232.183L117.801 234.871M239.563 230.032L233.238 224.656L228.494 215.516M239.563 230.032L247.997 234.871L255.376 236.484" stroke="#A98B3D"/>
<path d="M90.9185 143.473L104.623 134.333H116.22L130.452 139.71L139.412 154.226L133.614 173.043L116.22 181.107L96.7167 175.193L87.7559 159.602L90.9185 143.473Z" fill="black"/>
<path d="M239.036 151.538L254.849 143.473H265.391L283.313 151.538L289.638 166.591V181.107L273.825 192.398H250.105L236.4 181.107L233.238 168.742L239.036 151.538Z" fill="black"/>
<path d="M90.9185 143.473L104.623 134.333H116.22L130.452 139.71L139.412 154.226L133.614 173.043L116.22 181.107L96.7167 175.193L87.7559 159.602L90.9185 143.473Z" stroke="black"/>
<path d="M239.036 151.538L254.849 143.473H265.391L283.313 151.538L289.638 166.591V181.107L273.825 192.398H250.105L236.4 181.107L233.238 168.742L239.036 151.538Z" stroke="black"/>
<path d="M65.0904 204.763L41.3706 211.753L32.4097 221.43L29.2471 237.559L34.5182 255.839L54.5483 270.355L77.741 273.581L94.6085 258.527L99.8796 237.559L86.1748 219.28L65.0904 204.763Z" fill="#C71F1F"/>
<path d="M278.569 226.806L295.437 216.591H305.452L322.319 221.43L333.916 246.161V267.129L322.319 281.645L301.235 284.871L283.313 276.269L273.298 262.828V241.86L278.569 226.806Z" fill="#C71F1F"/>
<path d="M65.0904 204.763L41.3706 211.753L32.4097 221.43L29.2471 237.559L34.5182 255.839L54.5483 270.355L77.741 273.581L94.6085 258.527L99.8796 237.559L86.1748 219.28L65.0904 204.763Z" stroke="#A98B3D"/>
<path d="M278.569 226.806L295.437 216.591H305.452L322.319 221.43L333.916 246.161V267.129L322.319 281.645L301.235 284.871L283.313 276.269L273.298 262.828V241.86L278.569 226.806Z" stroke="#A98B3D"/>
<path d="M120.437 17.6666L100.934 30.0322L83.012 41.8601L89.3373 52.0752L124.126 62.2902L153.117 82.1827L173.675 86.4838L197.395 73.5806L232.184 67.129H257.485L267.5 57.4515L257.485 41.8601L220.06 25.1935L169.458 12.8279L120.437 17.6666Z" fill="#F0D12B"/>
<path d="M110.422 292.935L89.3373 304.226L78.2681 312.29L86.1747 323.581L110.422 329.495C125.532 333.975 156.491 342.935 159.443 342.935C162.395 342.935 201.084 345.444 220.06 346.699L257.485 340.247L280.678 323.581L274.352 312.29L251.16 298.312H224.277L200.557 312.29H169.458L134.142 298.312L110.422 292.935Z" fill="#F0D12B"/>
<path d="M120.437 17.6666L100.934 30.0322L83.012 41.8601L89.3373 52.0752L124.126 62.2902L153.117 82.1827L173.675 86.4838L197.395 73.5806L232.184 67.129H257.485L267.5 57.4515L257.485 41.8601L220.06 25.1935L169.458 12.8279L120.437 17.6666Z" stroke="#F0D12B"/>
<path d="M110.422 292.935L89.3373 304.226L78.2681 312.29L86.1747 323.581L110.422 329.495C125.532 333.975 156.491 342.935 159.443 342.935C162.395 342.935 201.084 345.444 220.06 346.699L257.485 340.247L280.678 323.581L274.352 312.29L251.16 298.312H224.277L200.557 312.29H169.458L134.142 298.312L110.422 292.935Z" stroke="#F0D12B"/>
<path d="M44.006 220.892L61.9277 212.29L72.997 216.054L84.5933 226.806L90.9186 242.398L84.5933 256.376L61.9277 263.366L44.006 256.376L36.0994 238.634L44.006 220.892Z" fill="#800F0F"/>
<path d="M283.84 233.258L296.491 226.806L313.885 229.495L324.428 238.634L328.117 261.215L317.575 273.581H296.491L283.84 263.366L280.678 248.312L283.84 233.258Z" fill="#800F0F"/>
<path d="M44.006 220.892L61.9277 212.29L72.997 216.054L84.5933 226.806L90.9186 242.398L84.5933 256.376L61.9277 263.366L44.006 256.376L36.0994 238.634L44.006 220.892Z" stroke="#800F0F"/>
<path d="M283.84 233.258L296.491 226.806L313.885 229.495L324.428 238.634L328.117 261.215L317.575 273.581H296.491L283.84 263.366L280.678 248.312L283.84 233.258Z" stroke="#800F0F"/>
<path d="M81.9578 128.957L90.9186 114.979L95.6626 107.989L107.786 100.462L129.925 104.763L143.102 114.979L151.536 133.258L148.373 140.247L137.831 133.258L120.964 121.968L101.988 124.656L87.756 133.258L81.9578 128.957Z" fill="#E7E7E7"/>
<path d="M222.696 140.247L227.44 124.656L229.548 114.979L240.09 107.989L259.066 104.763L273.825 112.29L291.22 128.957L287.003 135.946L273.825 133.258L256.958 128.957L240.09 135.946L232.184 149.387H222.696V140.247Z" fill="#E7E7E7"/>
<path d="M81.9578 128.957L90.9186 114.979L95.6626 107.989L107.786 100.462L129.925 104.763L143.102 114.979L151.536 133.258L148.373 140.247L137.831 133.258L120.964 121.968L101.988 124.656L87.756 133.258L81.9578 128.957Z" stroke="#E6E6E6"/>
<path d="M222.696 140.247L227.44 124.656L229.548 114.979L240.09 107.989L259.066 104.763L273.825 112.29L291.22 128.957L287.003 135.946L273.825 133.258L256.958 128.957L240.09 135.946L232.184 149.387H222.696V140.247Z" stroke="#E6E6E6"/>
<path d="M126.235 26.8064L111.476 37.0215L101.461 45.6237L119.382 52.0753L151.536 67.129L175.783 71.4301L202.138 62.2903H236.4L245.361 54.7634L241.671 45.6237L211.626 30.5699L165.768 22.5054L126.235 26.8064Z" fill="#ECB018"/>
<path d="M108.84 302.075L90.9185 312.828L115.693 327.882L159.97 334.333L196.34 339.71L236.4 334.333L260.12 327.882V312.828L245.361 310.677H226.385L208.991 319.28H165.768L138.885 312.828L108.84 302.075Z" fill="#ECB018"/>
<path d="M126.235 26.8064L111.476 37.0215L101.461 45.6237L119.382 52.0753L151.536 67.129L175.783 71.4301L202.138 62.2903H236.4L245.361 54.7634L241.671 45.6237L211.626 30.5699L165.768 22.5054L126.235 26.8064Z" stroke="#ECB018"/>
<path d="M108.84 302.075L90.9185 312.828L115.693 327.882L159.97 334.333L196.34 339.71L236.4 334.333L260.12 327.882V312.828L245.361 310.677H226.385L208.991 319.28H165.768L138.885 312.828L108.84 302.075Z" stroke="#ECB018"/>
</g>
<defs>
<filter id="filter0_d_21_73" x="0.48877" y="0.491455" width="359.023" height="359.009" filterUnits="userSpaceOnUse" color-interpolation-filters="sRGB">
<feFlood flood-opacity="0" result="BackgroundImageFix"/>
<feColorMatrix in="SourceAlpha" type="matrix" values="0 0 0 0 0 0 0 0 0 0 0 0 0 0 0 0 0 0 127 0" result="hardAlpha"/>
<feOffset dy="4"/>
<feGaussianBlur stdDeviation="2"/>
<feComposite in2="hardAlpha" operator="out"/>
<feColorMatrix type="matrix" values="0 0 0 0 0 0 0 0 0 0 0 0 0 0 0 0 0 0 0.25 0"/>
<feBlend mode="normal" in2="BackgroundImageFix" result="effect1_dropShadow_21_73"/>
<feBlend mode="normal" in="SourceGraphic" in2="effect1_dropShadow_21_73" result="shape"/>
</filter>
</defs>
</svg>
