<svg width="360" height="360" viewBox="0 0 360 360" fill="none" xmlns="http://www.w3.org/2000/svg">
<g filter="url(#filter0_d_21_24)">
<path d="M57.9192 134.333L23.8623 142.667L7.61976 148.222L5 167.111L23.8623 192.667L57.9192 198.778L80.4491 203.222L84.6407 228.222L44.8204 246.556L35.9132 276L44.8204 301.556L76.7814 316H109.79L132.32 283.222L146.467 264.333L176.332 276L185.24 301.556L198.338 325.444L210.389 341.556L255.973 351L277.979 325.444L285.314 298.222L255.973 276L247.066 246.556L255.973 234.889L285.314 228.222H318.847L355 198.778V157.667L318.847 142.667H291.078L266.976 117.111L285.314 79.3333L277.979 53.7778L233.443 43.2222C221.043 46.7407 195.09 53.7778 190.479 53.7778C185.868 53.7778 179.127 63.037 176.332 67.6667H146.467L123.413 43.2222L109.79 12.6667L76.7814 1L44.8204 19.8889V53.7778L76.7814 79.3333V117.111L57.9192 134.333Z" fill="#CE2D2D" stroke="#721313"/>
<path d="M117.126 153.778L127.605 142.667H145.419L154.85 158.778L160.09 177.667L135.464 192.111L117.126 177.667V153.778Z" fill="white"/>
<path d="M195.719 124.333H208.294H218.249L228.728 129.889L237.111 142.667L244.446 160.444L242.35 173.222L235.015 187.667L226.632 194.333H205.674L186.811 187.667L177.904 178.222L172.141 160.444L172.665 147.111L179.476 133.778L195.719 124.333Z" fill="white"/>
<path d="M152.755 201L162.186 197.111L172.141 201L177.904 206.555M127.605 142.667L117.126 153.778V177.667L135.464 192.111L160.09 177.667L154.85 158.778L145.419 142.667H127.605ZM208.294 124.333H195.719L179.476 133.778L172.665 147.111L172.141 160.444L177.904 178.222L186.811 187.667L205.674 194.333H226.632L235.015 187.667L242.35 173.222L244.446 160.444L237.111 142.667L228.728 129.889L218.249 124.333H208.294Z" stroke="#7D1313"/>
<path d="M132.32 154.333L138.084 148.778L146.991 154.333L149.611 159.333L146.991 166.556H138.084L132.32 159.333V154.333Z" fill="black"/>
<path d="M209.341 137.667L214.581 132.667H221.392L228.204 141V148.778H217.201L209.341 145.445V137.667Z" fill="black"/>
<path d="M132.32 154.333L138.084 148.778L146.991 154.333L149.611 159.333L146.991 166.556H138.084L132.32 159.333V154.333Z" stroke="black"/>
<path d="M209.341 137.667L214.581 132.667H221.392L228.204 141V148.778H217.201L209.341 145.445V137.667Z" stroke="black"/>
<path d="M56.8711 31.5554L71.0178 22.6666L84.6406 10.4443L100.883 19.3332L110.838 42.6666V63.2221L121.317 82.6666L110.838 95.9999L93.0238 92.6665L84.6406 73.2221L68.3981 63.2221L52.1556 47.6666L56.8711 31.5554Z" fill="#ECC600"/>
<path d="M200.434 67.6666L185.763 82.6666L167.425 87.111H149.087H141.751L145.419 108.778L178.428 117.667L210.389 103.778L230.823 87.111L253.877 79.3332L249.686 57.111H226.632L200.434 67.6666Z" fill="#ECC600"/>
<path d="M253.877 182.111L263.832 162.111H272.739L281.647 176.555L293.174 182.111L312.56 168.778L334.042 164.889L341.377 176.555L334.566 201.555L312.56 220.444H293.174L258.593 225.444L243.922 215.444V197.667L253.877 182.111Z" fill="#ECC600"/>
<path d="M175.284 229.889L191.003 220.444L200.434 210.444L230.823 220.444V247.111L226.632 270.444V291L241.302 307.667L243.922 325.444L219.82 329.333L204.626 313.222L200.434 291L185.763 270.444L175.284 254.889V229.889Z" fill="#ECC600"/>
<path d="M61.0628 254.889L80.449 247.111L89.3562 241.555L98.2634 225.444V210.444L93.0238 193.778L106.123 182.111L126.033 210.444L141.751 225.444L145.419 247.111L121.317 261.555L110.838 284.889L80.449 298.778L56.8711 294.333L52.1556 270.444L61.0628 254.889Z" fill="#ECC600"/>
<path d="M19.1466 168.778L31.7214 153.778L44.8202 146L68.3981 136.555L80.449 125.444L93.0238 114.333L117.65 117.667L107.694 151L84.6406 164.889L63.6825 191.555L31.7214 186L19.1466 168.778Z" fill="#ECC600"/>
<path d="M25.958 166.555L39.0568 157.667H47.964H58.4431L70.494 150.444L78.8772 157.667L66.3023 174.333L53.7275 184.889L34.8652 178.778L25.958 166.555Z" fill="#DA8C19"/>
<path d="M87.2604 127.667L95.1197 121L107.171 127.667L103.503 138.222H95.1197L87.2604 127.667Z" fill="#DA8C19"/>
<path d="M58.4431 44.3333L66.3023 33.7777H78.8772L87.2604 28.2222H95.1197L103.503 39.3333L95.1197 50.9999L92.5 60.9999L74.1616 55.9999L58.4431 44.3333Z" fill="#DA8C19"/>
<path d="M151.183 101.555V93.2222H162.186L174.236 94.8888L194.671 87.1111L205.15 80.4444L210.389 88.7777L192.051 108.778H170.045L151.183 101.555Z" fill="#DA8C19"/>
<path d="M232.395 63.2222L241.302 60.9999L247.066 73.7777L239.207 77.6666H227.68V68.7777L232.395 63.2222Z" fill="#DA8C19"/>
<path d="M98.7874 197.667L105.599 192.667L114.506 197.667L117.126 209.889L134.94 224.333L139.132 241.555L130.748 249.889L114.506 260.444L101.931 262.667L95.1197 254.889L96.6916 239.333L103.503 228.778V209.889L98.7874 197.667Z" fill="#DA8C19"/>
<path d="M58.4431 271.555L66.3023 260.444H68.9221L74.6856 262.667L78.8772 277.667H91.452L87.2604 289.889H70.494L61.0628 287.667L58.4431 271.555Z" fill="#DA8C19"/>
<path d="M180 256.555L181.572 241.555L194.671 233.414L200.434 228.778L203.054 217.111L225.584 228.778L222.964 254.889L214.057 274.889H196.766L180 256.555Z" fill="#DA8C19"/>
<path d="M255.449 192.667L266.976 178.778L277.979 190.444L294.745 197.667L311.512 184.889L315.704 178.778H328.802V197.667L311.512 206.555L287.41 212.667L261.213 217.111L251.781 206.555L255.449 192.667Z" fill="#DA8C19"/>
<path d="M122.5 176.5V168.5H127.5L134.5 173H145.5L151.5 176.5L140.5 183H131.5L122.5 176.5Z" fill="#F0F0F0"/>
<path d="M182 168.5V164.5L187.5 161L199 168.5L218.5 173L230.5 168.5L236.5 173L230.5 183L218.5 189L199 186L185 176.5L182 168.5Z" fill="#F0F0F0"/>
</g>
<defs>
<filter id="filter0_d_21_24" x="0.476761" y="0.450684" width="359.023" height="359.099" filterUnits="userSpaceOnUse" color-interpolation-filters="sRGB">
<feFlood flood-opacity="0" result="BackgroundImageFix"/>
<feColorMatrix in="SourceAlpha" type="matrix" values="0 0 0 0 0 0 0 0 0 0 0 0 0 0 0 0 0 0 127 0" result="hardAlpha"/>
<feOffset dy="4"/>
<feGaussianBlur stdDeviation="2"/>
<feComposite in2="hardAlpha" operator="out"/>
<feColorMatrix type="matrix" values="0 0 0 0 0 0 0 0 0 0 0 0 0 0 0 0 0 0 0.25 0"/>
<feBlend mode="normal" in2="BackgroundImageFix" result="effect1_dropShadow_21_24"/>
<feBlend mode="normal" in="SourceGraphic" in2="effect1_dropShadow_21_24" result="shape"/>
</filter>
</defs>
</svg>
