<svg width="360" height="360" viewBox="0 0 360 360" fill="none" xmlns="http://www.w3.org/2000/svg">
<g filter="url(#filter0_d_28_4)">
<path d="M98.5535 29.6201L128.821 12.3288L190.456 1L233.381 29.6201L261.997 103.555L277.406 167.354L308.774 209.092L348.947 241.886L355 281.835L340.692 299.722H316.478L304.921 287.201L286.761 281.835L277.406 294.952L269.151 335.497L244.937 341.46L217.421 315.225L203.113 287.201L173.396 281.835L161.84 299.722L154.686 341.46L128.821 351L104.607 341.46L90.8491 299.722L73.7893 287.201L44.6226 306.877H15.456L5 281.835L15.456 248.445L55.0786 186.434L64.9843 136.349L73.7893 74.339L98.5535 29.6201Z" fill="#9A78E2" stroke="#501066"/>
<path d="M94.7013 96.4004L103.506 85.0717L117.815 76.7241L134.324 85.0717L144.23 103.555L147.532 125.021L140.377 144.697L126.069 151.256H111.211L94.7013 138.734L90.2988 117.269L94.7013 96.4004Z" fill="white"/>
<path d="M178.349 110.114L187.154 92.8229L200.912 88.0529L210.267 92.8229L221.824 107.133L226.777 129.194V144.697L216.871 160.199L200.912 164.373L187.154 156.026L176.698 140.523L175.047 125.021L178.349 110.114Z" fill="white"/>
<path d="M94.7013 96.4004L103.506 85.0717L117.815 76.7241L134.324 85.0717L144.23 103.555L147.532 125.021L140.377 144.697L126.069 151.256H111.211L94.7013 138.734L90.2988 117.269L94.7013 96.4004Z" stroke="#202B66"/>
<path d="M178.349 110.114L187.154 92.8229L200.912 88.0529L210.267 92.8229L221.824 107.133L226.777 129.194V144.697L216.871 160.199L200.912 164.373L187.154 156.026L176.698 140.523L175.047 125.021L178.349 110.114Z" stroke="#202B66"/>
<path d="M104.057 200.744L95.2515 215.055L93.6006 220.421L98.5534 229.961L109.56 241.29L128.27 249.041H149.733L167.893 244.867L188.255 235.327L211.368 222.806L206.415 210.881L192.657 190.608L170.094 180.472H144.23L123.318 185.838L104.057 200.744Z" fill="#38206A" stroke="#130A4A"/>
<path d="M126.069 218.632L118.365 234.731L123.868 240.097L140.377 243.675L169.544 238.308L178.349 228.172L164.591 212.073L153.585 204.918H140.377L126.069 218.632Z" fill="#2A1152"/>
<path d="M226.777 314.032L215.22 294.952V291.375L226.777 294.952L239.984 297.934H254.843L265.849 284.816L271.903 291.375L265.849 311.647L260.346 327.746H243.286L226.777 314.032Z" fill="#7C5BC0"/>
<path d="M102.406 317.61L98.0033 300.319L96.9026 297.934L93.0504 291.375L96.9026 283.623L106.808 287.201L131.572 297.934L143.679 294.952L150.283 291.375L155.236 300.319L150.283 327.746L143.679 336.69L124.418 343.249L110.11 336.69L102.406 317.61Z" fill="#7C5BC0"/>
<path d="M20.4089 249.637L36.368 227.576L40.2202 223.998L47.9246 219.824L50.1259 227.576L44.0724 238.308L40.2202 249.637L41.8712 255.6H56.1794L83.1448 249.637H93.0504L98.0033 261.562L93.0504 268.121L65.5347 283.623L47.9246 294.952L30.8649 300.319H18.2077L11.6039 284.816L14.3555 272.295L20.4089 249.637Z" fill="#7C5BC0"/>
<path d="M308.774 219.824L292.815 211.477V213.862V217.439V227.576V234.731L289.513 240.693L279.057 246.06H265.849L249.89 238.308L243.286 246.06L252.642 255.6L271.903 265.14L285.66 269.91L304.371 277.065L319.23 291.375H334.638L344.544 277.065V255.6L330.786 238.308L308.774 219.824Z" fill="#7C5BC0"/>
<path d="M107.909 43.3338C108.349 41.4258 119.466 33.3963 124.969 29.62L127.17 22.465L146.981 18.2913L166.242 14.1175L187.705 8.75122L206.415 18.2913L222.925 29.62L233.931 46.3151L236.683 68.3764L222.925 74.9352H208.066H187.705C186.384 74.9352 178.716 79.7052 175.047 82.0902L160.739 94.6115L153.035 88.649L142.028 74.9352L124.969 65.9914L107.909 57.0476C107.725 53.2714 107.469 45.2419 107.909 43.3338Z" fill="#7C5BC0"/>
<path d="M101.5 99.5L131 133.5" stroke="black" stroke-width="4"/>
<path d="M126.5 107.5L103 134.5" stroke="black" stroke-width="4"/>
<path d="M188 109L216 142.5" stroke="black" stroke-width="4"/>
<path d="M211.5 102.5L191.5 148.5" stroke="black" stroke-width="4"/>
</g>
<defs>
<filter id="filter0_d_28_4" x="0.468384" y="0.47168" width="359.059" height="359.063" filterUnits="userSpaceOnUse" color-interpolation-filters="sRGB">
<feFlood flood-opacity="0" result="BackgroundImageFix"/>
<feColorMatrix in="SourceAlpha" type="matrix" values="0 0 0 0 0 0 0 0 0 0 0 0 0 0 0 0 0 0 127 0" result="hardAlpha"/>
<feOffset dy="4"/>
<feGaussianBlur stdDeviation="2"/>
<feComposite in2="hardAlpha" operator="out"/>
<feColorMatrix type="matrix" values="0 0 0 0 0 0 0 0 0 0 0 0 0 0 0 0 0 0 0.25 0"/>
<feBlend mode="normal" in2="BackgroundImageFix" result="effect1_dropShadow_28_4"/>
<feBlend mode="normal" in="SourceGraphic" in2="effect1_dropShadow_28_4" result="shape"/>
</filter>
</defs>
</svg>
