<svg width="360" height="360" viewBox="0 0 360 360" fill="none" xmlns="http://www.w3.org/2000/svg">
<g filter="url(#filter0_d_28_125)">
<path d="M92.5 223.341L97.8354 188.234L101.57 172.809H191.204L262.165 196.213L273.902 267.489L262.165 321.745L220.015 351H157.591L101.57 331.851L80.7622 280.255L92.5 223.341Z" fill="#754F4F" stroke="#4D1A1A"/>
<path d="M20.4726 146.745L9.80183 193.553L5 228.66L20.4726 239.298L50.8841 224.404L98.3689 200.468H189.07L262.165 208.979L319.787 224.404L348.064 216.957L355 193.553L336.326 123.34L292.576 57.383L229.085 10.5745L155.991 1L98.3689 23.3404L50.8841 80.7872L20.4726 146.745Z" fill="#D23C3C" stroke="#792323"/>
<path d="M122.912 227.596L134.649 217.489H152.79L168.262 227.596V248.872L142.652 260.042L122.912 248.872V227.596Z" fill="white"/>
<path d="M200.274 237.702L211.479 227.596H225.884L236.021 233.979L245.625 248.872L239.223 264.298L220.549 272.276L200.274 260.042V237.702Z" fill="white"/>
<path d="M122.912 227.596L134.649 217.489H152.79L168.262 227.596V248.872L142.652 260.042L122.912 248.872V227.596Z" stroke="#DCDCDC"/>
<path d="M200.274 237.702L211.479 227.596H225.884L236.021 233.979L245.625 248.872L239.223 264.298L220.549 272.276L200.274 260.042V237.702Z" stroke="#DCDCDC"/>
<path d="M159.726 277.064H200.274" stroke="#261313" stroke-width="3"/>
<path d="M51.4176 110.574C45.7265 130.964 34.0243 172.383 32.7438 174.936L23.1401 200.468V214.83H39.6798L55.6859 200.468L74.8932 178.128L99.4359 174.936L126.113 166.425L135.183 146.745L121.844 107.383L135.183 80.7871H179.466L184.268 60.5743L148.521 32.3829L105.838 38.2339L51.4176 110.574Z" fill="#934242"/>
<path d="M204.543 121.745L236.021 116.425L237.088 104.723L252.561 99.4041L274.436 116.425L279.771 130.255L289.908 146.745L325.122 171.213L334.725 192.489L325.122 208.447H301.646L261.097 196.745L236.021 192.489L200.808 186.106L190.671 178.128L209.344 166.425L200.808 156.319L193.872 139.83L204.543 121.745Z" fill="#934242"/>
<path d="M190.671 38.2339L200.808 21.2126L228.018 29.1914L279.771 60.5743L311.783 99.4041V107.383L274.436 80.7871H236.021L213.079 72.8084L190.671 38.2339Z" fill="#934242"/>
<path d="M51.4176 110.574C45.7265 130.964 34.0243 172.383 32.7438 174.936L23.1401 200.468V214.83H39.6798L55.6859 200.468L74.8932 178.128L99.4359 174.936L126.113 166.425L135.183 146.745L121.844 107.383L135.183 80.7871H179.466L184.268 60.5743L148.521 32.3829L105.838 38.2339L51.4176 110.574Z" stroke="#934242" stroke-width="3"/>
<path d="M204.543 121.745L236.021 116.425L237.088 104.723L252.561 99.4041L274.436 116.425L279.771 130.255L289.908 146.745L325.122 171.213L334.725 192.489L325.122 208.447H301.646L261.097 196.745L236.021 192.489L200.808 186.106L190.671 178.128L209.344 166.425L200.808 156.319L193.872 139.83L204.543 121.745Z" stroke="#934242" stroke-width="3"/>
<path d="M190.671 38.2339L200.808 21.2126L228.018 29.1914L279.771 60.5743L311.783 99.4041V107.383L274.436 80.7871H236.021L213.079 72.8084L190.671 38.2339Z" stroke="#934242" stroke-width="3"/>
<path d="M89.8322 76.0001L117.043 47.2767L156.524 44.0852L168.796 62.1703L134.649 71.2129L107.439 90.3618L101.036 114.298C106.372 123.341 117.043 142.064 117.043 144.617C117.043 147.17 110.64 156.319 107.439 160.575H79.695L50.3505 187.17C48.0385 185.575 43.0944 181.745 41.8139 179.192C40.5334 176.638 54.7966 147.631 62.0883 133.447L89.8322 76.0001Z" fill="#922C2C"/>
<path d="M199.207 36.6384L206.677 28.6597L233.354 44.0852L278.704 68.0214L284.04 81.3192L263.765 71.2129L233.354 68.0214L210.411 54.7235L199.207 36.6384Z" fill="#922C2C"/>
<path d="M247.225 114.298L250.427 106.851C254.873 110.575 263.765 118.979 263.765 122.809V144.617L293.11 167.489L312.317 187.17L296.311 195.149C287.952 192.489 270.701 187.17 268.567 187.17H236.555L213.613 179.192L221.082 160.575C217.525 153.837 210.411 139.936 210.411 138.234C210.411 136.532 223.572 127.241 230.152 122.809L247.225 114.298Z" fill="#922C2C"/>
<path d="M89.8322 76.0001L117.043 47.2767L156.524 44.0852L168.796 62.1703L134.649 71.2129L107.439 90.3618L101.036 114.298C106.372 123.341 117.043 142.064 117.043 144.617C117.043 147.17 110.64 156.319 107.439 160.575H79.695L50.3505 187.17C48.0385 185.575 43.0944 181.745 41.8139 179.192C40.5334 176.638 54.7966 147.631 62.0883 133.447L89.8322 76.0001Z" stroke="#934242" stroke-width="3"/>
<path d="M199.207 36.6384L206.677 28.6597L233.354 44.0852L278.704 68.0214L284.04 81.3192L263.765 71.2129L233.354 68.0214L210.411 54.7235L199.207 36.6384Z" stroke="#934242" stroke-width="3"/>
<path d="M247.225 114.298L250.427 106.851C254.873 110.575 263.765 118.979 263.765 122.809V144.617L293.11 167.489L312.317 187.17L296.311 195.149C287.952 192.489 270.701 187.17 268.567 187.17H236.555L213.613 179.192L221.082 160.575C217.525 153.837 210.411 139.936 210.411 138.234C210.411 136.532 223.572 127.241 230.152 122.809L247.225 114.298Z" stroke="#934242" stroke-width="3"/>
<path d="M88.7651 277.064L97.8353 252.596L107.439 271.745L122.378 290.894L144.786 307.915L178.933 312.702L218.415 310.574L237.088 290.894H255.762L253.094 314.298L218.415 338.234L176.799 343.553L143.186 338.234L102.104 320.149L88.7651 277.064Z" fill="#592F2F" stroke="#592F2F" stroke-width="3"/>
<path d="M129.5 226.5L152 249" stroke="black" stroke-width="4"/>
<path d="M157.5 230L128.5 251.5" stroke="black" stroke-width="4"/>
<path d="M207 239L232 259" stroke="black" stroke-width="4"/>
<path d="M227.5 242.5L206.5 260" stroke="black" stroke-width="4"/>
</g>
<defs>
<filter id="filter0_d_28_125" x="0.462891" y="0.487549" width="359.056" height="359.012" filterUnits="userSpaceOnUse" color-interpolation-filters="sRGB">
<feFlood flood-opacity="0" result="BackgroundImageFix"/>
<feColorMatrix in="SourceAlpha" type="matrix" values="0 0 0 0 0 0 0 0 0 0 0 0 0 0 0 0 0 0 127 0" result="hardAlpha"/>
<feOffset dy="4"/>
<feGaussianBlur stdDeviation="2"/>
<feComposite in2="hardAlpha" operator="out"/>
<feColorMatrix type="matrix" values="0 0 0 0 0 0 0 0 0 0 0 0 0 0 0 0 0 0 0.25 0"/>
<feBlend mode="normal" in2="BackgroundImageFix" result="effect1_dropShadow_28_125"/>
<feBlend mode="normal" in="SourceGraphic" in2="effect1_dropShadow_28_125" result="shape"/>
</filter>
</defs>
</svg>
