<svg width="332" height="338" viewBox="0 0 332 338" fill="none" xmlns="http://www.w3.org/2000/svg">
<g filter="url(#filter0_d_28_139)">
<path d="M34.8582 264.95L5 303.241V320.599L23.1491 328.257L60.6182 320.599L90.4764 303.241L107.455 276.182L136.142 269.545L153.705 303.241L187.662 320.599L204.64 303.241V276.182L214.593 269.545L260.258 303.241L312.949 320.599L327 310.388V294.561L312.949 283.329L271.382 264.95L236.84 238.912L214.593 206.237L212 171.641L232.742 129.656L236.84 93.9186L227.473 55.1174L204.64 20.4006L153.705 1H90.4764L45.3964 30.6114L18.34 69.724V122.085L42.26 180.991L45.3964 223.596L34.8582 264.95Z" fill="#F2B6E9" stroke="#994C8D"/>
<path d="M34.8584 277.713L44.2256 258.313L52.422 262.397V273.119L58.2765 281.798L78.7674 273.119L93.9893 277.713L83.4511 298.646L48.3238 313.451L21.3929 321.62L12.0256 313.451L15.5384 298.646L34.8584 277.713Z" fill="#CC75BE"/>
<path d="M132.044 250.144V239.423V232.786L140.826 229.723L144.338 222.575L140.826 213.385L147.851 210.832L178.88 226.149L200.542 239.423L206.397 253.207L200.542 258.313H189.418H166.586L151.949 260.355L144.338 268.013L135.557 262.397L132.044 250.144Z" fill="#CC75BE"/>
<path d="M178.88 300.688H163.658V305.793L174.197 308.856L185.906 313.451L200.542 300.688V290.477L197.029 286.903L192.931 293.54L178.88 300.688Z" fill="#CC75BE"/>
<path d="M219.862 245.039L217.52 232.786L219.862 226.149L226.887 229.723L236.255 245.039L250.891 254.739V262.397L240.353 264.439L238.011 275.161L232.157 277.713L217.52 264.439L214.007 256.271L219.862 245.039Z" fill="#CC75BE"/>
<path d="M279.578 286.903L281.92 277.713H292.458L308.266 285.372L318.218 293.54C318.804 298.135 319.623 307.325 318.218 307.325C316.813 307.325 312.559 312.43 310.607 314.983L296.557 311.92L279.578 305.793L260.844 298.646L263.186 292.009L279.578 286.903Z" fill="#CC75BE"/>
<path d="M48.3238 210.832L44.2256 191.432C46.9578 189.9 52.422 187.041 52.422 187.858C52.422 188.675 56.325 191.602 58.2765 192.964L81.6947 197.048L93.9893 201.643L96.3311 216.959L72.9129 224.617L58.2765 232.786L49.4947 231.765L48.3238 210.832Z" fill="#CC75BE"/>
<path d="M111.553 91.3657L103.357 80.1338L105.113 75.0284H117.407L124.433 66.8597L138.484 64.8175L153.706 70.944V86.2603L145.509 109.235L140.826 131.188C140.045 136.974 138.484 148.751 138.484 149.567C138.484 150.384 132.629 151.95 129.702 152.631L119.164 146.504L117.407 131.188V110.256L111.553 91.3657Z" fill="#CC75BE"/>
<path d="M175.953 17.3372L150.193 5.59473L136.142 9.16852V19.8899L156.633 37.7588C157.57 38.5757 169.903 42.8643 175.953 44.9064L191.76 55.6278L200.542 70.944L215.764 75.0284L221.033 64.8175L211.666 47.9697L198.786 28.0586L175.953 17.3372Z" fill="#CC75BE"/>
<path d="M34.8584 277.713L44.2256 258.313L52.422 262.397V273.119L58.2765 281.798L78.7674 273.119L93.9893 277.713L83.4511 298.646L48.3238 313.451L21.3929 321.62L12.0256 313.451L15.5384 298.646L34.8584 277.713Z" stroke="#CC75BE"/>
<path d="M132.044 250.144V239.423V232.786L140.826 229.723L144.338 222.575L140.826 213.385L147.851 210.832L178.88 226.149L200.542 239.423L206.397 253.207L200.542 258.313H189.418H166.586L151.949 260.355L144.338 268.013L135.557 262.397L132.044 250.144Z" stroke="#CC75BE"/>
<path d="M178.88 300.688H163.658V305.793L174.197 308.856L185.906 313.451L200.542 300.688V290.477L197.029 286.903L192.931 293.54L178.88 300.688Z" stroke="#CC75BE"/>
<path d="M219.862 245.039L217.52 232.786L219.862 226.149L226.887 229.723L236.255 245.039L250.891 254.739V262.397L240.353 264.439L238.011 275.161L232.157 277.713L217.52 264.439L214.007 256.271L219.862 245.039Z" stroke="#CC75BE"/>
<path d="M279.578 286.903L281.92 277.713H292.458L308.266 285.372L318.218 293.54C318.804 298.135 319.623 307.325 318.218 307.325C316.813 307.325 312.559 312.43 310.607 314.983L296.557 311.92L279.578 305.793L260.844 298.646L263.186 292.009L279.578 286.903Z" stroke="#CC75BE"/>
<path d="M48.3238 210.832L44.2256 191.432C46.9578 189.9 52.422 187.041 52.422 187.858C52.422 188.675 56.325 191.602 58.2765 192.964L81.6947 197.048L93.9893 201.643L96.3311 216.959L72.9129 224.617L58.2765 232.786L49.4947 231.765L48.3238 210.832Z" stroke="#CC75BE"/>
<path d="M111.553 91.3657L103.357 80.1338L105.113 75.0284H117.407L124.433 66.8597L138.484 64.8175L153.706 70.944V86.2603L145.509 109.235L140.826 131.188C140.045 136.974 138.484 148.751 138.484 149.567C138.484 150.384 132.629 151.95 129.702 152.631L119.164 146.504L117.407 131.188V110.256L111.553 91.3657Z" stroke="#CC75BE"/>
<path d="M175.953 17.3372L150.193 5.59473L136.142 9.16852V19.8899L156.633 37.7588C157.57 38.5757 169.903 42.8643 175.953 44.9064L191.76 55.6278L200.542 70.944L215.764 75.0284L221.033 64.8175L211.666 47.9697L198.786 28.0586L175.953 17.3372Z" stroke="#CC75BE"/>
<path d="M38.9568 87.7923L56.5205 75.5393H68.2296L83.4514 77.0709L97.5023 87.7923L108.626 108.214L112.139 130.678L105.699 142.42H97.5023L81.1096 145.994L71.7423 151.61L47.1532 142.42L34.2732 118.425L38.9568 87.7923Z" fill="white"/>
<path d="M153.12 102.087L168.342 87.7923L180.637 84.2185L195.273 90.345L205.226 108.214L209.324 128.125L205.226 145.994L195.273 151.61L188.248 145.994L180.637 139.868H168.342L156.633 142.42L147.851 137.315V124.041L153.12 102.087Z" fill="white"/>
<path d="M38.9568 87.7923L56.5205 75.5393H68.2296L83.4514 77.0709L97.5023 87.7923L108.626 108.214L112.139 130.678L105.699 142.42H97.5023L81.1096 145.994L71.7423 151.61L47.1532 142.42L34.2732 118.425L38.9568 87.7923Z" stroke="#724444"/>
<path d="M153.12 102.087L168.342 87.7923L180.637 84.2185L195.273 90.345L205.226 108.214L209.324 128.125L205.226 145.994L195.273 151.61L188.248 145.994L180.637 139.868H168.342L156.633 142.42L147.851 137.315V124.041L153.12 102.087Z" stroke="#724444"/>
<path d="M110.382 153.652L120.334 161.821H137.898L146.68 153.652" stroke="#994C8D"/>
<path d="M23.1484 84.729L28.4175 90.3449L40.1266 77.5814L59.4466 67.8811L89.3048 50.5227" stroke="#994C8D"/>
<path d="M150.778 52.5645L171.855 71.965L187.662 74.5177L200.542 86.7707H219.276" stroke="#994C8D"/>
<path d="M67.0585 237.891L74.6695 228.701L86.3785 225.638L99.2585 232.275L102.771 249.123L86.3785 259.334L70.5713 249.123L67.0585 237.891Z" fill="#EAF476"/>
<path d="M173.026 174.584L189.419 169.478L197.029 174.584L206.982 184.284V200.111L197.029 210.322H177.709L164.829 192.963L173.026 174.584Z" fill="#EAF476"/>
<path d="M92.8186 23.9741L109.211 15.2949L130.873 23.9741L143.168 42.3536L134.386 58.1804L109.211 61.7542L89.8913 46.9485L86.3785 34.6955L92.8186 23.9741Z" fill="#EAF476"/>
<path d="M45.3967 169.478L58.8622 159.778H74.6695L82.2804 174.584L70.5713 184.284H54.1785L45.3967 169.478Z" fill="#EAF476"/>
<path d="M157.804 265.46L173.026 262.908H186.491L197.029 273.118L186.491 291.498L164.829 295.582L150.779 283.84V273.118L157.804 265.46Z" fill="#EAF476"/>
<path d="M246.208 268.524L258.502 265.46L272.553 273.118V283.84L258.502 287.924C254.404 285.201 246.208 279.449 246.208 278.224V268.524Z" fill="#EAF476"/>
<path d="M67.0585 237.891L74.6695 228.701L86.3785 225.638L99.2585 232.275L102.771 249.123L86.3785 259.334L70.5713 249.123L67.0585 237.891Z" stroke="#AFAA34"/>
<path d="M173.026 174.584L189.419 169.478L197.029 174.584L206.982 184.284V200.111L197.029 210.322H177.709L164.829 192.963L173.026 174.584Z" stroke="#AFAA34"/>
<path d="M92.8186 23.9741L109.211 15.2949L130.873 23.9741L143.168 42.3536L134.386 58.1804L109.211 61.7542L89.8913 46.9485L86.3785 34.6955L92.8186 23.9741Z" stroke="#AFAA34"/>
<path d="M45.3967 169.478L58.8622 159.778H74.6695L82.2804 174.584L70.5713 184.284H54.1785L45.3967 169.478Z" stroke="#AFAA34"/>
<path d="M157.804 265.46L173.026 262.908H186.491L197.029 273.118L186.491 291.498L164.829 295.582L150.779 283.84V273.118L157.804 265.46Z" stroke="#AFAA34"/>
<path d="M246.208 268.524L258.502 265.46L272.553 273.118V283.84L258.502 287.924C254.404 285.201 246.208 279.449 246.208 278.224V268.524Z" stroke="#AFAA34"/>
<path d="M140.825 11.7213L149.607 10.1897L160.145 13.7635L191.76 28.0587L205.811 44.9065L217.52 65.3282L211.08 69.9231L201.712 65.3282L191.76 50.5225L179.465 40.8222L160.145 34.1852L140.825 17.8478V11.7213Z" fill="#A62C91"/>
<path d="M107.454 81.155L109.211 76.5601L118.578 79.6234L123.847 73.4968L132.432 71.9652H142.581L147.851 81.155L142.581 102.598L136.141 133.23L133.8 147.015L123.847 143.441L121.505 129.656V110.256L118.578 92.3869L107.454 81.155Z" fill="#A62C91"/>
<path d="M149.607 223.596L144.338 215.427L147.851 213.896L157.218 219.001L176.538 230.744C181.612 233.977 191.76 240.546 191.76 240.954V251.676L176.538 253.207L149.607 251.676L142.581 259.845L136.141 256.271L133.8 245.039L139.069 235.339L144.338 233.807L149.607 223.596Z" fill="#A62C91"/>
<path d="M222.789 245.039L220.447 233.807L227.472 235.339L231.571 247.081L243.865 252.186L245.036 259.249H233.327L236.254 269.034L233.327 274.14L227.472 269.034L218.105 256.271L222.789 245.039Z" fill="#A62C91"/>
<path d="M285.432 287.924V280.777L297.727 284.351L310.607 293.54L315.291 304.262L305.338 310.899L291.287 306.304L271.381 301.198L269.04 295.582L274.894 291.498L285.432 287.924Z" fill="#A62C91"/>
<path d="M166.585 304.262V302.73H172.44L188.832 298.135L197.029 293.54V301.198L181.221 308.346L166.585 304.262Z" fill="#A62C91"/>
<path d="M51.836 205.727L48.9087 195.516L60.0324 199.601L75.8396 203.685L87.5487 205.727L89.8905 215.427L72.9124 221.554L60.0324 227.68H51.836V221.554V205.727Z" fill="#A62C91"/>
<path d="M39.5415 274.14L44.2251 263.929L49.4942 266.482L47.7378 272.608L49.4942 280.266L56.5196 285.372L68.2287 283.329L78.1815 277.203L87.5487 280.266L84.6215 288.435L69.9851 299.667L44.2251 311.409L23.1487 316.515L17.8796 309.878V302.73L29.0033 289.456L39.5415 274.14Z" fill="#A62C91"/>
<path d="M140.825 11.7213L149.607 10.1897L160.145 13.7635L191.76 28.0587L205.811 44.9065L217.52 65.3282L211.08 69.9231L201.712 65.3282L191.76 50.5225L179.465 40.8222L160.145 34.1852L140.825 17.8478V11.7213Z" stroke="#A62B91"/>
<path d="M107.454 81.155L109.211 76.5601L118.578 79.6234L123.847 73.4968L132.432 71.9652H142.581L147.851 81.155L142.581 102.598L136.141 133.23L133.8 147.015L123.847 143.441L121.505 129.656V110.256L118.578 92.3869L107.454 81.155Z" stroke="#A62B91"/>
<path d="M149.607 223.596L144.338 215.427L147.851 213.896L157.218 219.001L176.538 230.744C181.612 233.977 191.76 240.546 191.76 240.954V251.676L176.538 253.207L149.607 251.676L142.581 259.845L136.141 256.271L133.8 245.039L139.069 235.339L144.338 233.807L149.607 223.596Z" stroke="#A62B91"/>
<path d="M222.789 245.039L220.447 233.807L227.472 235.339L231.571 247.081L243.865 252.186L245.036 259.249H233.327L236.254 269.034L233.327 274.14L227.472 269.034L218.105 256.271L222.789 245.039Z" stroke="#A62B91"/>
<path d="M285.432 287.924V280.777L297.727 284.351L310.607 293.54L315.291 304.262L305.338 310.899L291.287 306.304L271.381 301.198L269.04 295.582L274.894 291.498L285.432 287.924Z" stroke="#A62B91"/>
<path d="M166.585 304.262V302.73H172.44L188.832 298.135L197.029 293.54V301.198L181.221 308.346L166.585 304.262Z" stroke="#A62B91"/>
<path d="M51.836 205.727L48.9087 195.516L60.0324 199.601L75.8396 203.685L87.5487 205.727L89.8905 215.427L72.9124 221.554L60.0324 227.68H51.836V221.554V205.727Z" stroke="#A62B91"/>
<path d="M39.5415 274.14L44.2251 263.929L49.4942 266.482L47.7378 272.608L49.4942 280.266L56.5196 285.372L68.2287 283.329L78.1815 277.203L87.5487 280.266L84.6215 288.435L69.9851 299.667L44.2251 311.409L23.1487 316.515L17.8796 309.878V302.73L29.0033 289.456L39.5415 274.14Z" stroke="#A62B91"/>
<path d="M87 113L76 138" stroke="black" stroke-width="4"/>
<path d="M94 131.5L67.5 119.5" stroke="black" stroke-width="4"/>
<path d="M186 117L166.5 129" stroke="black" stroke-width="4"/>
<path d="M162 109L183 133.5" stroke="black" stroke-width="4"/>
</g>
<defs>
<filter id="filter0_d_28_139" x="0.5" y="0.5" width="331" height="337.278" filterUnits="userSpaceOnUse" color-interpolation-filters="sRGB">
<feFlood flood-opacity="0" result="BackgroundImageFix"/>
<feColorMatrix in="SourceAlpha" type="matrix" values="0 0 0 0 0 0 0 0 0 0 0 0 0 0 0 0 0 0 127 0" result="hardAlpha"/>
<feOffset dy="5"/>
<feGaussianBlur stdDeviation="2"/>
<feComposite in2="hardAlpha" operator="out"/>
<feColorMatrix type="matrix" values="0 0 0 0 0 0 0 0 0 0 0 0 0 0 0 0 0 0 0.25 0"/>
<feBlend mode="normal" in2="BackgroundImageFix" result="effect1_dropShadow_28_139"/>
<feBlend mode="normal" in="SourceGraphic" in2="effect1_dropShadow_28_139" result="shape"/>
</filter>
</defs>
</svg>
