<svg width="360" height="360" viewBox="0 0 360 360" fill="none" xmlns="http://www.w3.org/2000/svg">
<g filter="url(#filter0_d_28_60)">
<path d="M135.218 26.5208L95.1996 61.5208V37.4583L83.7659 1H55.1815L29.1379 37.4583V94.3333L55.1815 157.042L41.8421 205.167L5 247.458V304.333L55.1815 351H95.1996L122.514 316L151.098 289.75L207.632 304.333L234.946 328.396H300.372L335.944 304.333L344.201 271.521L335.944 229.229L300.372 188.396V141L321.334 116.938L355 94.3333L344.201 61.5208L300.372 26.5208L245.744 1H191.116L135.218 26.5208Z" fill="#75D354" stroke="#074821"/>
<path d="M169.5 44L185.5 31.5L195 23.5L214.5 31.5L227.5 56L222.5 77.5L205 94L177.5 88L163.5 66L169.5 44Z" fill="white"/>
<path d="M113.5 177.5L130 161L146.5 150L166.5 158L185.5 177.5V207.5L169.5 226.5L143.5 233L123.5 221.5L113.5 198.5V177.5Z" fill="white"/>
<path d="M169.5 44L185.5 31.5L195 23.5L214.5 31.5L227.5 56L222.5 77.5L205 94L177.5 88L163.5 66L169.5 44Z" stroke="#074821"/>
<path d="M113.5 177.5L130 161L146.5 150L166.5 158L185.5 177.5V207.5L169.5 226.5L143.5 233L123.5 221.5L113.5 198.5V177.5Z" stroke="#074821"/>
<path d="M267 67L253.5 53L258 48.5H270L285.5 57.5L293 74L285.5 97.5L270 102.5V86L267 67Z" fill="#2AB338" stroke="#15782A"/>
<path d="M221.5 190.5L234.5 173.5L244.5 195L268.5 204L248.5 216.5L260.5 242L234.5 232.5L212 248L221.5 220.5L200 204L221.5 190.5Z" fill="#EDFF18"/>
<path d="M69.5 92L85.5 76.5V92L114 86.5L95 110.5L102.5 131.5L69.5 114.5L55 125V104.5L43.5 86.5L69.5 92Z" fill="#EDFF18"/>
<path d="M51 256L64 220.5L77.5 256H114L88 277L99 312.5L64 297.5L33 312.5L40 283L12 263.5L51 256Z" fill="#EDFF18"/>
<path d="M231 20L241.5 6.5L244.5 17.5H257L248.5 25.5L257 37.5H244.5L238.5 56.5L231 34.5L218 20H231Z" fill="#EDFF18"/>
<path d="M300 256L309 238V256L333.5 248L320.5 266L327 280H314L309 297.5L300 280L278.5 283L286.5 268.5L274.5 256H300Z" fill="#EDFF18"/>
<path d="M221.5 190.5L234.5 173.5L244.5 195L268.5 204L248.5 216.5L260.5 242L234.5 232.5L212 248L221.5 220.5L200 204L221.5 190.5Z" stroke="#CEED0E"/>
<path d="M69.5 92L85.5 76.5V92L114 86.5L95 110.5L102.5 131.5L69.5 114.5L55 125V104.5L43.5 86.5L69.5 92Z" stroke="#CEED0E"/>
<path d="M51 256L64 220.5L77.5 256H114L88 277L99 312.5L64 297.5L33 312.5L40 283L12 263.5L51 256Z" stroke="#CEED0E"/>
<path d="M231 20L241.5 6.5L244.5 17.5H257L248.5 25.5L257 37.5H244.5L238.5 56.5L231 34.5L218 20H231Z" stroke="#CEED0E"/>
<path d="M300 256L309 238V256L333.5 248L320.5 266L327 280H314L309 297.5L300 280L278.5 283L286.5 268.5L274.5 256H300Z" stroke="#CEED0E"/>
<path d="M133 97L153.5 91L160 88.5L170 91L181.5 97L191.5 100.5L206.5 105L218.5 97L227.5 84H243.5L254 109L273.5 123L288 140L281.5 158.5L269.5 161L254 150.5H238L218.5 161V181L206.5 190L196 186.5V170L181.5 150.5L156.5 143L140 146.5L130 143L133 129.5L124.5 116.5L133 97Z" fill="#44A65F"/>
<path d="M65.5 152L77.5 146.5L87.5 140.5L104.5 148.5L112 157L107 169L106 193.5L108.5 210L116 223.5L114.5 234.5L90.5 237.5L81 231L77.5 217.5L63 205L56.5 190L63 167.5L65.5 152Z" fill="#44A65F"/>
<path d="M170.5 243L179 241L190.5 243L199 252L210.5 260L224 258L235.5 255.5L241.5 263.5L245.5 285L252.5 294L245.5 308.5L231.5 311.5L220 298.5L202.5 289.5L181.5 287L166 281.5L156.5 263.5L159.5 250.5L170.5 243Z" fill="#44A65F"/>
<path d="M53 17L63 11L65.5 3L77.5 11L82.5 24.5L90 37L91.5 50L87.5 54.5L82.5 44L72.5 50C70.1667 53.6667 65 61.4 63 63C60.5 65 48.5 61.5 46 61C44 60.6 41.5 49.5 40.5 44L42 27L53 17Z" fill="#44A65F"/>
<path d="M133 97L153.5 91L160 88.5L170 91L181.5 97L191.5 100.5L206.5 105L218.5 97L227.5 84H243.5L254 109L273.5 123L288 140L281.5 158.5L269.5 161L254 150.5H238L218.5 161V181L206.5 190L196 186.5V170L181.5 150.5L156.5 143L140 146.5L130 143L133 129.5L124.5 116.5L133 97Z" stroke="#2EB83C"/>
<path d="M65.5 152L77.5 146.5L87.5 140.5L104.5 148.5L112 157L107 169L106 193.5L108.5 210L116 223.5L114.5 234.5L90.5 237.5L81 231L77.5 217.5L63 205L56.5 190L63 167.5L65.5 152Z" stroke="#2EB83C"/>
<path d="M170.5 243L179 241L190.5 243L199 252L210.5 260L224 258L235.5 255.5L241.5 263.5L245.5 285L252.5 294L245.5 308.5L231.5 311.5L220 298.5L202.5 289.5L181.5 287L166 281.5L156.5 263.5L159.5 250.5L170.5 243Z" stroke="#2EB83C"/>
<path d="M53 17L63 11L65.5 3L77.5 11L82.5 24.5L90 37L91.5 50L87.5 54.5L82.5 44L72.5 50C70.1667 53.6667 65 61.4 63 63C60.5 65 48.5 61.5 46 61C44 60.6 41.5 49.5 40.5 44L42 27L53 17Z" stroke="#2EB83C"/>
<path d="M137.5 170.5L154.5 218" stroke="black" stroke-width="4"/>
<path d="M180 193.5L127 200.5" stroke="black" stroke-width="4"/>
<path d="M183.5 42L201.5 81.5" stroke="black" stroke-width="4"/>
<path d="M176 67.5L214 52.5" stroke="black" stroke-width="4"/>
</g>
<defs>
<filter id="filter0_d_28_60" x="0.5" y="0.5" width="359.094" height="359" filterUnits="userSpaceOnUse" color-interpolation-filters="sRGB">
<feFlood flood-opacity="0" result="BackgroundImageFix"/>
<feColorMatrix in="SourceAlpha" type="matrix" values="0 0 0 0 0 0 0 0 0 0 0 0 0 0 0 0 0 0 127 0" result="hardAlpha"/>
<feOffset dy="4"/>
<feGaussianBlur stdDeviation="2"/>
<feComposite in2="hardAlpha" operator="out"/>
<feColorMatrix type="matrix" values="0 0 0 0 0 0 0 0 0 0 0 0 0 0 0 0 0 0 0.25 0"/>
<feBlend mode="normal" in2="BackgroundImageFix" result="effect1_dropShadow_28_60"/>
<feBlend mode="normal" in="SourceGraphic" in2="effect1_dropShadow_28_60" result="shape"/>
</filter>
</defs>
</svg>
