<svg width="176" height="199" viewBox="0 0 176 199" fill="none" xmlns="http://www.w3.org/2000/svg">
<g filter="url(#filter0_d_1_198)">
<path d="M41.7668 89.3522L58.8927 73.1133L79.9365 66.2097L110.26 67.0608L140.316 83.6099L153.495 109.331L154.7 139.515L143.373 165.933L117.704 181.66L82.6505 184.535L53.9111 174.825L36.5997 158.015L27.6753 134.07L32.3399 107.984L41.7668 89.3522Z" fill="#FFE2C0" stroke="black"/>
<path d="M69.9387 134.128L71.4387 127.628L73.4387 125.628L77.4387 121.128L86.9387 123.128L93.4387 127.628C93.6054 129.795 93.8387 134.528 93.4387 136.128C93.0387 137.728 90.6054 140.795 89.4387 142.128L80.4387 144.128L73.4387 140.628L69.9387 134.128Z" fill="#969EBC"/>
<path d="M56.4388 164.128L49.4388 169.628L54.4388 174.628L74.4388 181.128V179.628L71.4388 169.628L66.9388 166.128L56.4388 164.128Z" fill="#969EBC"/>
<path d="M74.9388 139.128L71.9388 134.128L72.9388 132.628L74.9388 133.128L77.9388 136.628L83.9388 138.128L87.9388 135.628L89.9388 136.628L88.9388 138.128L86.9388 140.628L80.9388 142.128L74.9388 139.128Z" fill="#606885"/>
<path d="M48.0319 59.9967L45.3035 75.2547L52.5625 80.1082L61.9142 81.7805L82.218 81.8556L97.1436 77.9215L109.416 68.9415L110.648 62.0508L99.9275 50.991L86.8698 35.9578L71.1555 30.1002L66.1977 32.2613L62.2764 37.1473L48.0319 59.9967Z" fill="#ADADAD" stroke="black"/>
<path d="M23.3079 93.1625L42.1188 87.3835L51.0142 85.9265L72.4784 85.1933L99.6926 77.8694L116.342 67.1325L123.569 60.8058L126.45 67.4162L139.283 66.6634L130.948 76.3475L142.549 82.4853L122.578 89.0727L129.273 99.9206L104.135 98.4731L109.95 114.243L80.4022 103.372L72.3477 117.17L56.7573 107.779L47.4185 125.918L37.8942 111.009L19.2593 115.803L25.2929 99.1047L14.4646 97.1684L23.3079 93.1625Z" fill="#83674D" stroke="black"/>
<path d="M118 126.628V119.628L122 114.628L129.5 113.128L139 119.628L138 129.628L129.5 134.128H123.5C122.7 134.128 119.5 129.128 118 126.628Z" fill="#969EBC"/>
<path d="M123.5 132.128C122.5 131.628 122 129.128 121 128.628H129.5L132 130.128L128.5 132.128C127.167 132.295 124.3 132.528 123.5 132.128Z" fill="#606885"/>
<path d="M97.9025 139.009L100.839 133.947L104.057 132.998L111.932 134.407L113.284 138.204L109.715 141.121L103.369 142.526L97.4624 141.47L97.9025 139.009Z" fill="#F2CFA5"/>
<path d="M103.176 137.92L103.493 138.993M100.187 140.433L102.456 136.268L105.673 135.319L109.611 136.023L110.823 137.764L108.995 139.469L104.705 140.733L100.68 140.521L100.187 140.433Z" stroke="black"/>
<path d="M106.394 136.972L106.71 138.044" stroke="black"/>
<path d="M27.3591 132.998L36.8509 136.727L41.4011 148.207L40.697 152.144L33.3304 156.414C30.6 155.587 24.8614 153.783 23.7506 153.178C22.6397 152.573 20.0543 148.284 18.9004 146.215L20.2206 138.832L27.3591 132.998Z" fill="#FFE9CE" stroke="black"/>
<path d="M42.611 87.4715L44.7233 75.6589L57.5204 77.9472L72.8142 77.6344L101.593 70.0823L111.052 62.631L117.151 68.293L115.743 76.168L107.268 83.7953L84.6952 87.8859L64.7597 91.4321L47.4971 91.3928L42.611 87.4715Z" fill="#737373" stroke="black"/>
<path d="M62.6319 20.9571L64.3922 11.1132L68.2938 14.8585L70.859 20.3965L73.3004 29.4679L72.1562 35.8664L70.1874 35.5144L67.1821 32.4373L62.6319 20.9571Z" fill="#737373" stroke="black"/>
<path d="M44.3516 86.2589L45.4958 79.8604L50.1178 85.2583L58.1689 85.6821L68.6289 83.997L83.8706 81.1353L95.8951 79.2221L106.215 75.4802L110.224 70.1019L112.405 66.4284L115.006 68.9253L113.862 75.3238L105.475 82.4589L88.1764 85.4608L63.055 89.6034L47.7611 89.9162L44.3516 86.2589Z" fill="#555555"/>
<path d="M50.2648 58.8722L63.665 37.9035L67.6384 35.5665L66.9343 39.504L60.0565 58.0835L48.0644 71.177L50.2648 58.8722Z" fill="#D9D9D9"/>
<path d="M27.7376 93.9546L40.6944 89.6684L43.8757 91.7611L48.3054 92.5532L60.3821 93.1889L67.6248 92.4523L105.351 85.9923L108.744 84.0594L117.219 76.4321L118.539 69.0492L121.616 66.0439L123.109 71.8981L129.508 73.0423L122.141 77.3122L129.892 82.2538L111.029 85.4838L116.952 92.1301L94.5032 92.6873L96.7685 102.743L74.6198 98.7825L68.4298 107.834L54.4561 100.764L47.1416 107.583L44.1722 101.465L28.9305 104.327L34.7684 97.2436L27.7376 93.9546Z" fill="#413B35"/>
<path d="M25.4587 140.785L29.6244 143.053L33.262 148.275L32.6459 151.721" stroke="black"/>
<path d="M29.5919 131.873L32.7604 114.154L37.5422 112.977L47.5586 127.975L57.3016 110.416L69.7107 117.714L67.0737 118.258L59.2345 113.809L57.4059 115.514L55.8934 118.291L50.7041 133.109L49.6642 144.605L45.1105 147.346L42.4214 145.342L38.9957 136.094L35.8144 134.002L29.5919 131.873Z" fill="#F2CFA6"/>
<path d="M130.925 99.2002L125.443 90.093L139.472 85.4906C141.885 89.9856 146.792 99.0915 147.116 99.5557C147.439 100.02 150.46 106.418 151.93 109.559L152.35 115.73L150.874 115.466L148.309 109.928L146.236 104.478L142.546 96.7068L136.623 90.0605L133.634 92.5736L134.863 99.9043L130.925 99.2002Z" fill="#F2CFA5"/>
<path d="M104.946 162.11L100.621 166.415L102.061 169.721L105.507 170.337L110.465 168.176L115.158 167.491L121.417 166.579L121.945 163.625L118.851 161.041L111.961 159.808L104.946 162.11Z" fill="#F2CFA5"/>
<path d="M59.5942 132.566L65.0101 121.168L87.0538 116.135" stroke="#413B35" stroke-width="3"/>
<path d="M116 114.056L128.134 105.931L138.587 109.358" stroke="#413B35" stroke-width="3"/>
<path d="M139.439 146.628L143.439 136.628V149.628L136.939 161.628L139.439 146.628Z" fill="#A94933"/>
<path d="M54.4387 134.628H64.4387L52.4387 136.128L54.4387 134.628Z" fill="#A94933"/>
<path d="M52.9387 141.628L57.4387 138.628L52.4387 145.628L52.9387 141.628Z" fill="#A94933"/>
<path d="M139.439 146.628L143.439 136.628V149.628L136.939 161.628L139.439 146.628Z" stroke="black"/>
<path d="M54.4387 134.628H64.4387L52.4387 136.128L54.4387 134.628Z" stroke="black"/>
<path d="M52.9387 141.628L57.4387 138.628L52.4387 145.628L52.9387 141.628Z" stroke="black"/>
<path d="M82.4387 49.1283L87.4387 45.6284L85.4387 54.6283L73.4387 66.1284L82.4387 49.1283Z" fill="#282626"/>
<path d="M81.4387 70.6283L89.4387 56.6283L91.2872 49.6967L91.4387 59.6283L81.4387 70.6283Z" fill="#282626"/>
<path d="M27.4387 139.128L21.4387 138.628L26.4387 134.628L31.9387 137.128L32.4387 141.128L27.4387 139.128Z" fill="#A94933"/>
<path d="M89.2978 157.397L88.4326 153.009L96.1851 156.495L96.2807 169.695L89.2978 157.397Z" fill="#A94933"/>
<path d="M137.939 105.128V95.1284L148.439 110.628L146.939 115.628L137.939 105.128Z" fill="#A94933"/>
<path d="M60.5 20.6283L62.5 10.1283L68 7.62835L74.5 18.1283L73 25.6283L68 20.6283L63.5 25.6283L60.5 20.6283Z" fill="white"/>
<path d="M63.9999 25.1283L67.9999 20.6283L72.4999 25.1283V26.6283" stroke="black"/>
<path d="M64.5 44.1284L60 40.6284L58 39.6284L46.5 58.6284V66.6284H48.5H52L53 63.6284L62 68.1284L58.5 54.6284L67 52.1284L62 47.1284L64.5 44.1284Z" fill="white"/>
<path d="M46.5 66.6284H52L53 63.6284L62 68.1284L58.5 54.6284L67 52.1284L62 47.1284L64.5 44.1284L60 40.6284" stroke="black"/>
<path d="M99.4999 120.628L100.5 111.128L107.5 113.628V117.628L114 123.628L122.5 138.628L118.5 158.128L114 139.628L99.4999 120.628Z" fill="#A94933"/>
<path d="M97.9999 151.128L105.566 149.414L115.855 147.7L121 147.128" stroke="black"/>
<path d="M121.5 133L136 116" stroke="black" stroke-width="3"/>
<path d="M139 130.5L118 118.5" stroke="black" stroke-width="3"/>
<path d="M49.5 71.5L43 66L49.5 58L53.5 38L57.5 20L70 15.5C73 18.1667 79.2 23.7 80 24.5C80.8 25.3 92 35.1667 97.5 40L112 59H105L96.5 62L91.5 68L84.5 69.5L68 64.5L61 73.5L49.5 71.5Z" fill="white"/>
<path d="M46 70.5L46.5 68L49.5 71.5L61 73.5L68 64.5L84.5 69.5L91.5 68L96.5 62L106 59H107.5" stroke="black"/>
<path d="M88.5 124L74.5 141" stroke="black" stroke-width="3"/>
<path d="M69.5 125L94 140" stroke="black" stroke-width="3"/>
<path d="M37 132.5V122L44.5 129.5L59 137.5L61.5 151L83 155C86.5 160.167 93.5 170.8 93.5 172C93.5 173.2 99.8333 175.5 103 176.5L95 179L86.5 172L77 163.5L51 157L49.5 143L37 132.5Z" fill="#A94933"/>
<path d="M38.5 131V127.5L54 140L58 151L79.5 157.5L89 171.5L76.5 160.5L54 152.5L51 140L38.5 131Z" fill="#803626"/>
</g>
<defs>
<filter id="filter0_d_1_198" x="8.79193" y="7.62835" width="150.412" height="185.413" filterUnits="userSpaceOnUse" color-interpolation-filters="sRGB">
<feFlood flood-opacity="0" result="BackgroundImageFix"/>
<feColorMatrix in="SourceAlpha" type="matrix" values="0 0 0 0 0 0 0 0 0 0 0 0 0 0 0 0 0 0 127 0" result="hardAlpha"/>
<feOffset dy="4"/>
<feGaussianBlur stdDeviation="2"/>
<feComposite in2="hardAlpha" operator="out"/>
<feColorMatrix type="matrix" values="0 0 0 0 0 0 0 0 0 0 0 0 0 0 0 0 0 0 0.25 0"/>
<feBlend mode="normal" in2="BackgroundImageFix" result="effect1_dropShadow_1_198"/>
<feBlend mode="normal" in="SourceGraphic" in2="effect1_dropShadow_1_198" result="shape"/>
</filter>
</defs>
</svg>
