<svg width="174" height="193" viewBox="0 0 174 193" fill="none" xmlns="http://www.w3.org/2000/svg">
<g filter="url(#filter0_d_1_127)">
<path d="M41.3281 84.2239L58.454 67.9849L79.4978 61.0814L109.821 61.9324L139.878 78.4815L153.056 104.203L154.262 134.386L142.934 160.805L117.265 176.532L82.2119 179.407L53.4724 169.696L36.161 152.886L27.2366 128.942L31.9013 102.855L41.3281 84.2239Z" fill="#FFE2C0" stroke="black"/>
<path d="M69.5001 129L71.0001 122.5L73.0001 120.5L77.0001 116L86.5001 118L93.0001 122.5C93.1667 124.667 93.4001 129.4 93.0001 131C92.6001 132.6 90.1667 135.667 89.0001 137L80.0001 139L73.0001 135.5L69.5001 129Z" fill="#969EBC"/>
<path d="M56.0001 159L49.0001 164.5L54.0001 169.5L74.0001 176V174.5L71.0001 164.5L66.5001 161L56.0001 159Z" fill="#969EBC"/>
<path d="M74.5001 134L71.5001 129L72.5001 127.5L74.5001 128L77.5001 131.5L83.5001 133L87.5001 130.5L89.5001 131.5L88.5001 133L86.5001 135.5L80.5001 137L74.5001 134Z" fill="#606885"/>
<path d="M47.5933 54.8683L44.8649 70.1263L52.1239 74.9799L61.4755 76.6521L81.7793 76.7273L96.7049 72.7931L108.977 63.8132L110.209 56.9225L99.4888 45.8627L86.4312 30.8295L70.7169 24.9719L65.7591 27.1329L61.8378 32.019L47.5933 54.8683Z" fill="#ADADAD" stroke="black"/>
<path d="M22.8692 88.0341L41.6802 82.2551L50.5755 80.7982L72.0397 80.065L99.2539 72.741L115.904 62.0042L123.13 55.6774L126.012 62.2879L138.845 61.535L130.51 71.2191L142.111 77.357L122.139 83.9443L128.834 94.7922L103.696 93.3447L109.511 109.115L79.9636 98.2436L71.909 112.041L56.3187 102.65L46.9798 120.79L37.4555 105.88L18.8206 110.675L24.8542 93.9763L14.026 92.04L22.8692 88.0341Z" fill="#83674D" stroke="black"/>
<path d="M117.32 112.461L119.986 110.398L127.219 111.691L129.853 116.226L129.325 119.179L125.459 121.535L120.451 120.64L116.528 116.891L117.32 112.461Z" fill="#221F1F" stroke="black"/>
<path d="M97.4638 133.881L100.401 128.819L103.618 127.87L111.493 129.278L112.846 133.076L109.276 135.993L102.93 137.398L97.0237 136.342L97.4638 133.881Z" fill="#F2CFA5"/>
<path d="M77.9717 120.744C78.183 119.563 80.1761 118.937 81.1462 118.772L87.8156 122.505L86.9355 127.427L82.8433 128.219L77.0916 125.666L77.9717 120.744Z" fill="#221F1F" stroke="black"/>
<path d="M102.738 132.792L103.054 133.864M99.7487 135.305L102.017 131.139L105.235 130.191L109.172 130.895L110.385 132.636L108.556 134.34L104.266 135.605L100.241 135.393L99.7487 135.305Z" stroke="black"/>
<path d="M105.955 131.843L106.271 132.916" stroke="black"/>
<path d="M26.9204 127.869L36.4122 131.598L40.9625 143.079L40.2584 147.016L32.8917 151.286C30.1613 150.459 24.4228 148.654 23.3119 148.049C22.2011 147.444 19.6156 143.155 18.4617 141.087L19.7819 133.704L26.9204 127.869Z" fill="#FFE9CE" stroke="black"/>
<path d="M42.1724 82.3431L44.2847 70.5305L57.0817 72.8188L72.3755 72.5061L101.154 64.9539L110.614 57.5027L116.712 63.1646L115.304 71.0397L106.829 78.667L84.2565 82.7575L64.321 86.3037L47.0584 86.2644L42.1724 82.3431Z" fill="#737373" stroke="black"/>
<path d="M62.1932 15.8287L63.9535 5.98488L67.8551 9.73015L70.4204 15.2682L72.8617 24.3395L71.7175 30.7381L69.7488 30.386L66.7435 27.309L62.1932 15.8287Z" fill="#737373" stroke="black"/>
<path d="M43.913 81.1306L45.0571 74.7321L49.6792 80.13L57.7303 80.5538L68.1902 78.8687L83.4319 76.0069L95.4565 74.0937L105.776 70.3518L109.786 64.9736L111.966 61.3001L114.567 63.7969L113.423 70.1954L105.036 77.3305L87.7378 80.3324L62.6163 84.4751L47.3224 84.7878L43.913 81.1306Z" fill="#555555"/>
<path d="M49.8261 53.7438L63.2263 32.7752L67.1998 30.4381L66.4957 34.3757L59.6178 52.9551L47.6258 66.0486L49.8261 53.7438Z" fill="#D9D9D9"/>
<path d="M27.2989 88.8263L40.2557 84.5401L43.437 86.6327L47.8668 87.4248L59.9434 88.0606L67.1862 87.324L104.912 80.8639L108.306 78.931L116.781 71.3037L118.101 63.9208L121.178 60.9155L122.671 66.7697L129.069 67.9139L121.702 72.1839L129.454 77.1254L110.591 80.3555L116.513 87.0018L94.0645 87.5589L96.3298 97.6147L74.1811 93.6541L67.9911 102.706L54.0175 95.6357L46.703 102.455L43.7336 96.3364L28.4918 99.1982L34.3298 92.1152L27.2989 88.8263Z" fill="#413B35"/>
<path d="M25.02 135.656L29.1857 137.925L32.8233 143.147L32.2073 146.592" stroke="black"/>
<path d="M29.1532 126.745L32.3217 109.026L37.1035 107.849L47.12 122.846L56.863 105.287L69.2721 112.586L66.6351 113.13L58.7959 108.681L56.9672 110.385L55.4548 113.162L50.2654 127.98L49.2255 139.477L44.6719 142.218L41.9827 140.213L38.557 130.966L35.3757 128.873L29.1532 126.745Z" fill="#F2CFA6"/>
<path d="M130.487 94.0719L125.004 84.9646L139.033 80.3623C141.447 84.8572 146.354 93.9632 146.677 94.4273C147 94.8915 150.021 101.29 151.491 104.431L151.912 110.601L150.435 110.337L147.87 104.799L145.797 99.3493L142.107 91.5784L136.185 84.9321L133.196 87.4452L134.424 94.776L130.487 94.0719Z" fill="#F2CFA5"/>
<path d="M104.507 156.981L100.182 161.287L101.623 164.592L105.068 165.208L110.026 163.047L114.72 162.363L120.978 161.45L121.506 158.497L118.413 155.912L111.522 154.68L104.507 156.981Z" fill="#F2CFA5"/>
<path d="M58.5329 120.837L67.2452 111.708L89.7563 113.83" stroke="#413B35" stroke-width="3"/>
<path d="M111 113.5L120 102H131" stroke="#413B35" stroke-width="3"/>
<path d="M139 141.5L143 131.5V144.5L136.5 156.5L139 141.5Z" fill="#A94933"/>
<path d="M54.0001 129.5H64.0001L52.0001 131L54.0001 129.5Z" fill="#A94933"/>
<path d="M52.5001 136.5L57.0001 133.5L52.0001 140.5L52.5001 136.5Z" fill="#A94933"/>
<path d="M139 141.5L143 131.5V144.5L136.5 156.5L139 141.5Z" stroke="black"/>
<path d="M54.0001 129.5H64.0001L52.0001 131L54.0001 129.5Z" stroke="black"/>
<path d="M52.5001 136.5L57.0001 133.5L52.0001 140.5L52.5001 136.5Z" stroke="black"/>
<path d="M82.0001 44L87.0001 40.5L85.0001 49.5L73.0001 61L82.0001 44Z" fill="#282626"/>
<path d="M81.0001 65.5L89.0001 51.5L90.8485 44.5683L91.0001 54.5L81.0001 65.5Z" fill="#282626"/>
<path d="M27.0001 134L21.0001 133.5L26.0001 129.5L31.5001 132L32.0001 136L27.0001 134Z" fill="#A94933"/>
<path d="M88.8591 152.268L87.994 147.881L95.7465 151.366L95.842 164.566L88.8591 152.268Z" fill="#A94933"/>
<path d="M90.0001 153L102.5 148.5L119.5 144L128 142.5" stroke="black"/>
<path d="M137.5 100V90L148 105.5L146.5 110.5L137.5 100Z" fill="#A94933"/>
</g>
<defs>
<filter id="filter0_d_1_127" x="8.35325" y="4.9772" width="150.412" height="182.936" filterUnits="userSpaceOnUse" color-interpolation-filters="sRGB">
<feFlood flood-opacity="0" result="BackgroundImageFix"/>
<feColorMatrix in="SourceAlpha" type="matrix" values="0 0 0 0 0 0 0 0 0 0 0 0 0 0 0 0 0 0 127 0" result="hardAlpha"/>
<feOffset dy="4"/>
<feGaussianBlur stdDeviation="2"/>
<feComposite in2="hardAlpha" operator="out"/>
<feColorMatrix type="matrix" values="0 0 0 0 0 0 0 0 0 0 0 0 0 0 0 0 0 0 0.25 0"/>
<feBlend mode="normal" in2="BackgroundImageFix" result="effect1_dropShadow_1_127"/>
<feBlend mode="normal" in="SourceGraphic" in2="effect1_dropShadow_1_127" result="shape"/>
</filter>
</defs>
</svg>
