<svg width="175" height="199" viewBox="0 0 175 199" fill="none" xmlns="http://www.w3.org/2000/svg">
<g filter="url(#filter0_d_1_158)">
<path d="M40.7668 90.2238L57.8927 73.9849L78.9365 67.0813L109.26 67.9324L139.316 84.4814L152.495 110.203L153.7 140.386L142.373 166.805L116.704 182.532L81.6505 185.407L52.9111 175.696L35.5997 158.886L26.6753 134.942L31.3399 108.855L40.7668 90.2238Z" fill="#FFE2C0" stroke="black"/>
<path d="M68.9387 135L70.4387 128.5L72.4387 126.5L76.4387 122L85.9387 124L92.4387 128.5C92.6054 130.667 92.8387 135.4 92.4387 137C92.0387 138.6 89.6054 141.667 88.4387 143L79.4387 145L72.4387 141.5L68.9387 135Z" fill="#969EBC"/>
<path d="M55.4388 165L48.4388 170.5L53.4388 175.5L73.4388 182V180.5L70.4388 170.5L65.9388 167L55.4388 165Z" fill="#969EBC"/>
<path d="M73.9388 140L70.9388 135L71.9388 133.5L73.9388 134L76.9388 137.5L82.9388 139L86.9388 136.5L88.9388 137.5L87.9388 139L85.9388 141.5L79.9388 143L73.9388 140Z" fill="#606885"/>
<path d="M47.0319 60.8683L44.3035 76.1263L51.5625 80.9798L60.9142 82.6521L81.218 82.7272L96.1436 78.7931L108.416 69.8131L109.648 62.9224L98.9275 51.8626L85.8698 36.8294L70.1555 30.9718L65.1977 33.1329L61.2764 38.0189L47.0319 60.8683Z" fill="#ADADAD" stroke="black"/>
<path d="M22.3079 94.0341L41.1188 88.255L50.0142 86.7981L71.4784 86.0649L98.6926 78.7409L115.342 68.0041L122.569 61.6774L125.45 68.2878L138.283 67.535L129.948 77.219L141.549 83.3569L121.578 89.9443L128.273 100.792L103.135 99.3447L108.95 115.114L79.4022 104.244L71.3477 118.041L55.7573 108.65L46.4185 126.79L36.8942 111.88L18.2593 116.675L24.2929 99.9763L13.4646 98.04L22.3079 94.0341Z" fill="#83674D" stroke="black"/>
<path d="M117 127.5V120.5L121 115.5L128.5 114L138 120.5L137 130.5L128.5 135H122.5C121.7 135 118.5 130 117 127.5Z" fill="#969EBC"/>
<path d="M122.5 133C121.5 132.5 121 130 120 129.5H128.5L131 131L127.5 133C126.167 133.167 123.3 133.4 122.5 133Z" fill="#606885"/>
<path d="M116.759 118.461L119.425 116.398L126.658 117.691L129.292 122.226L128.764 125.179L124.897 127.535L119.89 126.64L115.967 122.891L116.759 118.461Z" fill="#221F1F" stroke="black"/>
<path d="M96.9025 139.881L99.8394 134.818L103.057 133.87L110.932 135.278L112.284 139.076L108.715 141.993L102.369 143.398L96.4624 142.341L96.9025 139.881Z" fill="#F2CFA5"/>
<path d="M77.4104 126.744C77.6216 125.563 79.6147 124.937 80.5849 124.772L87.2543 128.505L86.3741 133.426L82.2819 134.219L76.5303 131.666L77.4104 126.744Z" fill="#221F1F" stroke="black"/>
<path d="M102.176 138.792L102.493 139.864M99.1874 141.305L101.456 137.139L104.673 136.191L108.611 136.895L109.823 138.635L107.995 140.34L103.705 141.605L99.6796 141.393L99.1874 141.305Z" stroke="black"/>
<path d="M105.394 137.843L105.71 138.916" stroke="black"/>
<path d="M26.3591 133.869L35.8509 137.598L40.4011 149.078L39.697 153.016L32.3304 157.286C29.6 156.459 23.8614 154.654 22.7506 154.049C21.6397 153.444 19.0543 149.155 17.9004 147.087L19.2206 139.704L26.3591 133.869Z" fill="#FFE9CE" stroke="black"/>
<path d="M41.611 88.3431L43.7233 76.5304L56.5204 78.8188L71.8142 78.506L100.593 70.9539L110.052 63.5026L116.151 69.1645L114.743 77.0396L106.268 84.6669L83.6952 88.7574L63.7597 92.3036L46.4971 92.2644L41.611 88.3431Z" fill="#737373" stroke="black"/>
<path d="M61.6319 21.8287L63.3922 11.9848L67.2938 15.7301L69.859 21.2681L72.3004 30.3395L71.1562 36.738L69.1874 36.3859L66.1821 33.3089L61.6319 21.8287Z" fill="#737373" stroke="black"/>
<path d="M43.3516 87.1305L44.4958 80.732L49.1178 86.1299L57.1689 86.5537L67.6289 84.8686L82.8706 82.0069L94.8951 80.0936L105.215 76.3518L109.224 70.9735L111.405 67.3L114.006 69.7969L112.862 76.1954L104.475 83.3305L87.1764 86.3324L62.055 90.475L46.7611 90.7878L43.3516 87.1305Z" fill="#555555"/>
<path d="M49.2648 59.7438L62.665 38.7751L66.6384 36.4381L65.9343 40.3756L59.0565 58.955L47.0644 72.0486L49.2648 59.7438Z" fill="#D9D9D9"/>
<path d="M26.7376 94.8262L39.6944 90.54L42.8757 92.6327L47.3054 93.4248L59.3821 94.0605L66.6248 93.3239L104.351 86.8638L107.744 84.9309L116.219 77.3037L117.539 69.9208L120.616 66.9155L122.109 72.7697L128.508 73.9138L121.141 78.1838L128.892 83.1254L110.029 86.3554L115.952 93.0017L93.5032 93.5589L95.7685 103.615L73.6198 99.654L67.4298 108.706L53.4561 101.636L46.1416 108.455L43.1722 102.336L27.9305 105.198L33.7684 98.1152L26.7376 94.8262Z" fill="#413B35"/>
<path d="M24.4587 141.656L28.6244 143.925L32.262 149.147L31.6459 152.592" stroke="black"/>
<path d="M28.5919 132.745L31.7604 115.026L36.5422 113.849L46.5586 128.846L56.3016 111.287L68.7107 118.586L66.0737 119.13L58.2345 114.68L56.4059 116.385L54.8934 119.162L49.7041 133.98L48.6642 145.477L44.1105 148.218L41.4214 146.213L37.9957 136.966L34.8144 134.873L28.5919 132.745Z" fill="#F2CFA6"/>
<path d="M129.925 100.072L124.443 90.9645L138.472 86.3622C140.885 90.8571 145.792 99.9631 146.116 100.427C146.439 100.891 149.46 107.29 150.93 110.431L151.35 116.601L149.874 116.337L147.309 110.799L145.236 105.349L141.546 97.5784L135.623 90.9321L132.634 93.4452L133.863 100.776L129.925 100.072Z" fill="#F2CFA5"/>
<path d="M103.946 162.981L99.6207 167.287L101.061 170.592L104.507 171.208L109.465 169.047L114.158 168.363L120.417 167.45L120.945 164.497L117.851 161.912L110.961 160.68L103.946 162.981Z" fill="#F2CFA5"/>
<path d="M58.5942 133.437L64.0101 122.039L86.0538 117.007" stroke="#413B35" stroke-width="3"/>
<path d="M115 114.928L127.134 106.803L137.587 110.229" stroke="#413B35" stroke-width="3"/>
<path d="M138.439 147.5L142.439 137.5V150.5L135.939 162.5L138.439 147.5Z" fill="#A94933"/>
<path d="M53.4387 135.5H63.4387L51.4387 137L53.4387 135.5Z" fill="#A94933"/>
<path d="M51.9387 142.5L56.4387 139.5L51.4387 146.5L51.9387 142.5Z" fill="#A94933"/>
<path d="M138.439 147.5L142.439 137.5V150.5L135.939 162.5L138.439 147.5Z" stroke="black"/>
<path d="M53.4387 135.5H63.4387L51.4387 137L53.4387 135.5Z" stroke="black"/>
<path d="M51.9387 142.5L56.4387 139.5L51.4387 146.5L51.9387 142.5Z" stroke="black"/>
<path d="M81.4387 49.9999L86.4387 46.4999L84.4387 55.4999L72.4387 66.9999L81.4387 49.9999Z" fill="#282626"/>
<path d="M80.4387 71.4999L88.4387 57.4999L90.2872 50.5683L90.4387 60.4999L80.4387 71.4999Z" fill="#282626"/>
<path d="M26.4387 140L20.4387 139.5L25.4387 135.5L30.9387 138L31.4387 142L26.4387 140Z" fill="#A94933"/>
<path d="M88.2978 158.268L87.4326 153.881L95.1851 157.366L95.2807 170.566L88.2978 158.268Z" fill="#A94933"/>
<path d="M136.939 106V95.9999L147.439 111.5L145.939 116.5L136.939 106Z" fill="#A94933"/>
<path d="M59.5 21.4999L61.5 10.9999L67 8.49993L73.5 18.9999L72 26.4999L67 21.4999L62.5 26.4999L59.5 21.4999Z" fill="white"/>
<path d="M62.9999 25.9999L66.9999 21.4999L71.4999 25.9999V27.4999" stroke="black"/>
<path d="M63.5 44.9999L59 41.4999L57 40.4999L45.5 59.4999V67.4999H47.5H51L52 64.4999L61 68.9999L57.5 55.4999L66 52.9999L61 47.9999L63.5 44.9999Z" fill="white"/>
<path d="M45.5 67.4999H51L52 64.4999L61 68.9999L57.5 55.4999L66 52.9999L61 47.9999L63.5 44.9999L59 41.4999" stroke="black"/>
<path d="M98.5 121.5L99.5 112L106.5 114.5V118.5L113 124.5L121.5 139.5L117.5 159L113 140.5L98.5 121.5Z" fill="#A94933"/>
<path d="M96.9999 152L104.566 150.286L114.855 148.571L120 148" stroke="black"/>
</g>
<defs>
<filter id="filter0_d_1_158" x="7.79192" y="8.49993" width="150.412" height="185.413" filterUnits="userSpaceOnUse" color-interpolation-filters="sRGB">
<feFlood flood-opacity="0" result="BackgroundImageFix"/>
<feColorMatrix in="SourceAlpha" type="matrix" values="0 0 0 0 0 0 0 0 0 0 0 0 0 0 0 0 0 0 127 0" result="hardAlpha"/>
<feOffset dy="4"/>
<feGaussianBlur stdDeviation="2"/>
<feComposite in2="hardAlpha" operator="out"/>
<feColorMatrix type="matrix" values="0 0 0 0 0 0 0 0 0 0 0 0 0 0 0 0 0 0 0.25 0"/>
<feBlend mode="normal" in2="BackgroundImageFix" result="effect1_dropShadow_1_158"/>
<feBlend mode="normal" in="SourceGraphic" in2="effect1_dropShadow_1_158" result="shape"/>
</filter>
</defs>
</svg>
