<svg width="173" height="191" viewBox="0 0 173 191" fill="none" xmlns="http://www.w3.org/2000/svg">
<g filter="url(#filter0_d_1_102)">
<path d="M40.3281 84.2239L57.4539 67.9849L78.4977 61.0814L108.821 61.9324L138.878 78.4815L152.056 104.203L153.262 134.386L141.934 160.805L116.265 176.532L81.2118 179.407L52.4723 169.696L35.161 152.886L26.2365 128.942L30.9012 102.855L40.3281 84.2239Z" fill="#FFE2C0" stroke="black"/>
<path d="M68.5 129L70 122.5L72 120.5L76 116L85.5 118L92 122.5C92.1667 124.667 92.4 129.4 92 131C91.6 132.6 89.1667 135.667 88 137L79 139L72 135.5L68.5 129Z" fill="#969EBC"/>
<path d="M73.5 134L70.5 129L71.5 127.5L73.5 128L76.5 131.5L82.5 133L86.5 130.5L88.5 131.5L87.5 133L85.5 135.5L79.5 137L73.5 134Z" fill="#606885"/>
<path d="M46.5932 54.8683L43.8648 70.1263L51.1238 74.9799L60.4755 76.6521L80.7793 76.7273L95.7048 72.7931L107.977 63.8132L109.209 56.9225L98.4888 45.8627L85.4311 30.8295L69.7168 24.9719L64.759 27.1329L60.8377 32.019L46.5932 54.8683Z" fill="#ADADAD" stroke="black"/>
<path d="M21.8691 88.0341L40.6801 82.2551L49.5755 80.7982L71.0397 80.065L98.2538 72.741L114.904 62.0042L122.13 55.6774L125.012 62.2879L137.845 61.535L129.51 71.2191L141.11 77.357L121.139 83.9443L127.834 94.7922L102.696 93.3447L108.511 109.115L78.9635 98.2436L70.909 112.041L55.3186 102.65L45.9798 120.79L36.4555 105.88L17.8205 110.675L23.8541 93.9763L13.0259 92.04L21.8691 88.0341Z" fill="#83674D" stroke="black"/>
<path d="M116.32 112.461L118.986 110.398L126.219 111.691L128.853 116.226L128.325 119.179L124.459 121.535L119.451 120.64L115.528 116.891L116.32 112.461Z" fill="#221F1F" stroke="black"/>
<path d="M96.4637 133.881L99.4006 128.819L102.618 127.87L110.493 129.278L111.846 133.076L108.276 135.993L101.93 137.398L96.0237 136.342L96.4637 133.881Z" fill="#F2CFA5"/>
<path d="M76.9717 120.744C77.1829 119.563 79.176 118.937 80.1461 118.772L86.8155 122.505L85.9354 127.427L81.8432 128.219L76.0916 125.666L76.9717 120.744Z" fill="#221F1F" stroke="black"/>
<path d="M101.738 132.792L102.054 133.864M98.7487 135.305L101.017 131.139L104.235 130.191L108.172 130.895L109.385 132.636L107.556 134.34L103.266 135.605L99.2409 135.393L98.7487 135.305Z" stroke="black"/>
<path d="M104.955 131.843L105.271 132.916" stroke="black"/>
<path d="M25.9204 127.869L35.4122 131.598L39.9624 143.079L39.2583 147.016L31.8917 151.286C29.1612 150.459 23.4227 148.654 22.3118 148.049C21.201 147.444 18.6156 143.155 17.4617 141.087L18.7819 133.704L25.9204 127.869Z" fill="#FFE9CE" stroke="black"/>
<path d="M41.1723 82.3431L43.2846 70.5305L56.0816 72.8188L71.3755 72.5061L100.154 64.9539L109.614 57.5027L115.712 63.1646L114.304 71.0397L105.829 78.667L83.2565 82.7575L63.321 86.3037L46.0583 86.2644L41.1723 82.3431Z" fill="#737373" stroke="black"/>
<path d="M61.1932 15.8287L62.9534 5.98488L66.8551 9.73015L69.4203 15.2682L71.8616 24.3395L70.7175 30.7381L68.7487 30.386L65.7434 27.309L61.1932 15.8287Z" fill="#737373" stroke="black"/>
<path d="M42.9129 81.1306L44.0571 74.7321L48.6791 80.13L56.7302 80.5538L67.1901 78.8687L82.4319 76.0069L94.4564 74.0937L104.776 70.3518L108.786 64.9736L110.966 61.3001L113.567 63.7969L112.423 70.1954L104.036 77.3305L86.7377 80.3324L61.6162 84.4751L46.3224 84.7878L42.9129 81.1306Z" fill="#555555"/>
<path d="M48.826 53.7438L62.2263 32.7752L66.1997 30.4381L65.4956 34.3757L58.6178 52.9551L46.6257 66.0486L48.826 53.7438Z" fill="#D9D9D9"/>
<path d="M26.2989 88.8263L39.2557 84.5401L42.437 86.6327L46.8667 87.4248L58.9434 88.0606L66.1861 87.324L103.912 80.8639L107.306 78.931L115.78 71.3037L117.101 63.9208L120.178 60.9155L121.671 66.7697L128.069 67.9139L120.702 72.1839L128.454 77.1254L109.59 80.3555L115.513 87.0018L93.0645 87.5589L95.3297 97.6147L73.1811 93.6541L66.9911 102.706L53.0174 95.6357L45.7029 102.455L42.7335 96.3364L27.4918 99.1982L33.3297 92.1152L26.2989 88.8263Z" fill="#413B35"/>
<path d="M24.02 135.656L28.1857 137.925L31.8233 143.147L31.2072 146.592" stroke="black"/>
<path d="M28.1532 126.745L31.3216 109.026L36.1034 107.849L46.1199 122.846L55.8629 105.287L68.272 112.586L65.635 113.13L57.7958 108.681L55.9672 110.385L54.4547 113.162L49.2653 127.98L48.2254 139.477L43.6718 142.218L40.9827 140.213L37.557 130.966L34.3757 128.873L28.1532 126.745Z" fill="#F2CFA6"/>
<path d="M129.487 94.0719L124.004 84.9646L138.033 80.3623C140.447 84.8572 145.354 93.9632 145.677 94.4273C146 94.8915 149.021 101.29 150.491 104.431L150.912 110.601L149.435 110.337L146.87 104.799L144.797 99.3493L141.107 91.5784L135.185 84.9321L132.195 87.4452L133.424 94.776L129.487 94.0719Z" fill="#F2CFA5"/>
<path d="M103.507 156.981L99.1819 161.287L100.623 164.592L104.068 165.208L109.026 163.047L113.72 162.363L119.978 161.45L120.506 158.497L117.413 155.912L110.522 154.68L103.507 156.981Z" fill="#F2CFA5"/>
<path d="M65.5 118.5L76 111.5L97.5 118.5" stroke="#413B35" stroke-width="3"/>
<path d="M107.5 116.5L116.5 105H127.5" stroke="#413B35" stroke-width="3"/>
<path d="M90 152.5L96 147.5L103 143.5L111 141.5H118L125 143.5" stroke="black"/>
<path d="M138 141.5L142 131.5V144.5L135.5 156.5L138 141.5Z" fill="#A94933"/>
<path d="M53 129.5H63L51 131L53 129.5Z" fill="#A94933"/>
<path d="M51.5 136.5L56 133.5L51 140.5L51.5 136.5Z" fill="#A94933"/>
<path d="M138 141.5L142 131.5V144.5L135.5 156.5L138 141.5Z" stroke="black"/>
<path d="M53 129.5H63L51 131L53 129.5Z" stroke="black"/>
<path d="M51.5 136.5L56 133.5L51 140.5L51.5 136.5Z" stroke="black"/>
</g>
<defs>
<filter id="filter0_d_1_102" x="7.35319" y="4.9772" width="150.412" height="182.936" filterUnits="userSpaceOnUse" color-interpolation-filters="sRGB">
<feFlood flood-opacity="0" result="BackgroundImageFix"/>
<feColorMatrix in="SourceAlpha" type="matrix" values="0 0 0 0 0 0 0 0 0 0 0 0 0 0 0 0 0 0 127 0" result="hardAlpha"/>
<feOffset dy="4"/>
<feGaussianBlur stdDeviation="2"/>
<feComposite in2="hardAlpha" operator="out"/>
<feColorMatrix type="matrix" values="0 0 0 0 0 0 0 0 0 0 0 0 0 0 0 0 0 0 0.25 0"/>
<feBlend mode="normal" in2="BackgroundImageFix" result="effect1_dropShadow_1_102"/>
<feBlend mode="normal" in="SourceGraphic" in2="effect1_dropShadow_1_102" result="shape"/>
</filter>
</defs>
</svg>
