<svg width="187" height="356" viewBox="0 0 187 356" fill="none" xmlns="http://www.w3.org/2000/svg">
<g filter="url(#filter0_d_23_111)">
<path d="M36.27 71.21L58.1 55.87L99.99 49.38L130.08 55.87L153.09 71.21L146.6 98.94L121.82 105.43V160.3L153.09 176.82L182 222.84V280.07L167.84 324.32L130.08 346.74H58.1L19.16 324.32L5 272.4V231.69L28.01 185.08L58.1 160.3V105.43L36.27 91.27V71.21Z" fill="#B7E2E8" stroke="#518991" stroke-width="2"/>
<path d="M61.05 75.34V11.62L75.8 1H97.6301L125.95 11.62V34.63V75.34L119.46 80.06L97.6301 84.78H75.8L61.05 75.34Z" fill="#986932" stroke="#775227" stroke-width="2"/>
<path d="M13.85 236.41L25.65 212.81L29.78 207.5H42.76L48.66 212.81L70.49 219.3L85.24 210.45L101.76 215.17L129.49 219.3L148.96 207.5L159.58 205.14L164.3 212.81C166.66 221.463 171.38 239.478 171.38 242.31C171.38 245.142 169.807 271.81 169.02 284.79L148.96 317.83C136.767 323.73 111.908 335.53 110.02 335.53H66.36C64.472 335.53 45.5133 325.697 36.27 320.78L25.65 309.57L16.21 284.79L13.85 236.41Z" fill="#284A8A" stroke="#182E58" stroke-width="3"/>
<path d="M15.62 244.67L19.75 228.74L24.47 224.02L40.4 228.74L66.95 234.05H107.66L140.7 228.74L163.71 224.02L169.02 242.31V274.76L163.71 291.28L147.19 299.54L117.69 303.08H74.62L40.4 299.54L19.75 291.28L15.62 274.76V244.67Z" fill="#F19529" stroke="#914D1C" stroke-width="3"/>
<path d="M66.95 66.49V35.81L72.85 39.35L82.29 48.2H99.9899L107.07 39.35L119.46 35.81V66.49L112.38 72.98L91.1399 77.11H76.39L66.95 66.49Z" fill="#694419" stroke="#573D1E"/>
<path d="M26.24 259.42C40.99 244.67 40.4 240.54 48.66 248.8C56.92 257.06 43.35 256.47 57.51 269.45C71.67 282.43 72.26 290.69 76.39 273.58C80.52 256.47 80.52 255.88 88.78 253.52C97.04 251.16 96.45 249.39 105.89 259.42C115.33 269.45 104.12 272.4 119.46 278.89C134.8 285.38 137.16 293.64 141.88 273.58C153.68 244.67 145.42 247.62 153.09 253.52" stroke="#206414" stroke-width="3"/>
<path d="M39.8099 187.44L62.2299 173.28H74.0299H89.3699L104.71 178.59L121.23 169.74L141.29 178.59L153.68 193.93L141.29 202.19L121.23 211.63L99.3999 202.19L84.6499 198.65L74.0299 208.09H57.5099L43.3499 202.19L33.3199 198.65L39.8099 187.44Z" fill="#2191A0"/>
<path d="M43.3499 75.93L51.6099 66.49L57.5099 69.44V78.29L62.2299 88.91L89.3699 91.86L121.23 88.91L130.08 78.29V66.49H136.57L144.24 78.29L134.21 91.86L117.1 98.94L89.3699 101.89L62.2299 98.94L46.2999 88.91L43.3499 75.93Z" fill="#2191A0"/>
<path d="M39.8099 187.44L62.2299 173.28H74.0299H89.3699L104.71 178.59L121.23 169.74L141.29 178.59L153.68 193.93L141.29 202.19L121.23 211.63L99.3999 202.19L84.6499 198.65L74.0299 208.09H57.5099L43.3499 202.19L33.3199 198.65L39.8099 187.44Z" stroke="#2191A0"/>
<path d="M43.3499 75.93L51.6099 66.49L57.5099 69.44V78.29L62.2299 88.91L89.3699 91.86L121.23 88.91L130.08 78.29V66.49H136.57L144.24 78.29L134.21 91.86L117.1 98.94L89.3699 101.89L62.2299 98.94L46.2999 88.91L43.3499 75.93Z" stroke="#2191A0"/>
</g>
<defs>
<filter id="filter0_d_23_111" x="0" y="0" width="187" height="355.74" filterUnits="userSpaceOnUse" color-interpolation-filters="sRGB">
<feFlood flood-opacity="0" result="BackgroundImageFix"/>
<feColorMatrix in="SourceAlpha" type="matrix" values="0 0 0 0 0 0 0 0 0 0 0 0 0 0 0 0 0 0 127 0" result="hardAlpha"/>
<feOffset dy="4"/>
<feGaussianBlur stdDeviation="2"/>
<feComposite in2="hardAlpha" operator="out"/>
<feColorMatrix type="matrix" values="0 0 0 0 0 0 0 0 0 0 0 0 0 0 0 0 0 0 0.25 0"/>
<feBlend mode="normal" in2="BackgroundImageFix" result="effect1_dropShadow_23_111"/>
<feBlend mode="normal" in="SourceGraphic" in2="effect1_dropShadow_23_111" result="shape"/>
</filter>
</defs>
</svg>
