<svg width="415" height="384" viewBox="0 0 415 384" fill="none" xmlns="http://www.w3.org/2000/svg">
<g filter="url(#filter0_d_23_119)">
<path d="M152.714 63.7986L158.191 91.019L161.884 109.377L186.228 135.436L253.791 192.978L304.714 207.103L337.246 195.289L355.743 202.106L376.88 192.584L385.843 168.387L381.131 144.965L370.737 135.859L346.666 127.528C340.537 119.979 328.075 104.527 327.263 103.11C326.451 101.692 319.818 89.0194 316.603 82.8601L291.648 76.6835C283.122 76.862 265.511 77.0679 263.282 76.4626C261.052 75.8573 247.4 67.363 240.852 63.1915L230.825 42.8146L199.405 30.6934L166.487 37.3161L152.714 63.7986Z" fill="#CEA209" stroke="#CEA209" stroke-width="3"/>
<path d="M49.0329 314.529L159.584 91.3973L174.537 100.245L203.799 108.189L230.162 127.914L257.547 155.996L291.514 180.778L336.486 194.783L124.952 371.048L117.094 364.725L119.476 343.828L84.0259 350.96L87.5431 325.882L75.6203 309.18L49.0329 314.529Z" fill="#EFC017" stroke="#CEA209" stroke-width="3"/>
<path d="M151.153 137.882L145.74 166.635L169.814 178.258L197.035 172.781L210.309 153.644L206.616 135.286L190.138 122.135L166.712 123.555L151.153 137.882Z" fill="#963636"/>
<path d="M153.843 275.659L151.472 306.434L163.885 309.206L184.775 305.003L214.258 284.581L219.049 265.833L197.634 254.334L175.478 258.791L153.843 275.659Z" fill="#963636"/>
<path d="M151.153 137.882L145.74 166.635L169.814 178.258L197.035 172.781L210.309 153.644L206.616 135.286L190.138 122.135L166.712 123.555L151.153 137.882Z" stroke="#611B1B" stroke-width="3"/>
<path d="M153.843 275.659L151.472 306.434L163.885 309.206L184.775 305.003L214.258 284.581L219.049 265.833L197.634 254.334L175.478 258.791L153.843 275.659Z" stroke="#611B1B" stroke-width="3"/>
<path d="M152.7 161.941L157.371 149.146L167.252 152.427L188.142 148.224L199.151 140.74L201.444 152.135L185.88 163.17L164.357 167.5L152.7 161.941Z" fill="#611B1B"/>
<path d="M157.42 303.261L159.937 289.582L186.263 276.381L199.039 264.59L212.85 271.032L199.317 285.611L176.411 299.44L157.42 303.261Z" fill="#611B1B"/>
<path d="M152.7 161.941L157.371 149.146L167.252 152.427L188.142 148.224L199.151 140.74L201.444 152.135L185.88 163.17L164.357 167.5L152.7 161.941Z" stroke="#611B1B" stroke-width="3"/>
<path d="M157.42 303.261L159.937 289.582L186.263 276.381L199.039 264.59L212.85 271.032L199.317 285.611L176.411 299.44L157.42 303.261Z" stroke="#611B1B" stroke-width="3"/>
<path d="M110.654 270.516L91.27 262.56L101.133 249.379L112.512 233.916L119.835 214.659L137.833 228.822L141.145 245.281L134.196 259.852L110.654 270.516Z" fill="#CF2525"/>
<path d="M223.128 178.07L228.05 163.248L234.38 161.974L245.917 173.485L265.436 188.659L285.577 193.828L280.899 200.039L263.938 207.403L243.55 207.553L226.821 196.428L223.128 178.07Z" fill="#CF2525"/>
<path d="M110.654 270.516L91.27 262.56L101.133 249.379L112.512 233.916L119.835 214.659L137.833 228.822L141.145 245.281L134.196 259.852L110.654 270.516Z" stroke="#AC1616" stroke-width="3"/>
<path d="M223.128 178.07L228.05 163.248L234.38 161.974L245.917 173.485L265.436 188.659L285.577 193.828L280.899 200.039L263.938 207.403L243.55 207.553L226.821 196.428L223.128 178.07Z" stroke="#AC1616" stroke-width="3"/>
<path d="M149.741 232.354L142.991 198.803L166.417 197.383L183.509 193.945C187.442 200.399 195.182 213.991 194.678 216.726C194.175 219.462 180.722 230.292 174.058 235.365L149.741 232.354Z" fill="#FFF505"/>
<path d="M226.626 247.842L228.252 229.732L242.437 231.488L251.288 219.828L271.298 221.071L256.892 247.681L237.908 258.087L226.626 247.842Z" fill="#FFF505"/>
<path d="M90.4344 307.517L105.736 288.63L115.636 308.374L135.391 308.352L130.855 328.365L114.396 331.677L95.0193 330.306L90.4344 307.517Z" fill="#FFF505"/>
<path d="M149.741 232.354L142.991 198.803L166.417 197.383L183.509 193.945C187.442 200.399 195.182 213.991 194.678 216.726C194.175 219.462 180.722 230.292 174.058 235.365L149.741 232.354Z" stroke="#DDB011" stroke-width="3"/>
<path d="M226.626 247.842L228.252 229.732L242.437 231.488L251.288 219.828L271.298 221.071L256.892 247.681L237.908 258.087L226.626 247.842Z" stroke="#DDB011" stroke-width="3"/>
<path d="M90.4344 307.517L105.736 288.63L115.636 308.374L135.391 308.352L130.855 328.365L114.396 331.677L95.0193 330.306L90.4344 307.517Z" stroke="#DDB011" stroke-width="3"/>
<path d="M170.544 41.1105L195.866 36.0161L211.575 42.0767L221.719 53.209L246.19 79.9012C250.539 80.7827 260.351 82.8483 264.81 84.0589C269.269 85.2695 279.419 86.8282 283.936 87.4562L302.811 92.88L318.532 108.818L346.048 140.826L366.822 145.867L378.865 156.618L373.827 180.684L359.904 186.778L335.957 175.788C329.533 168.958 316.052 154.764 313.517 152.64C310.981 150.515 308.734 141.966 307.928 137.956L290.177 118.475L267.387 123.06L240.017 108.148L227.832 83.5946L205.271 66.3979L179.313 68.3271L161.573 58.7231L170.544 41.1105Z" fill="#A88407" stroke="#A88407" stroke-width="3"/>
</g>
<defs>
<filter id="filter0_d_23_119" x="42.3315" y="29.1367" width="349.066" height="351.85" filterUnits="userSpaceOnUse" color-interpolation-filters="sRGB">
<feFlood flood-opacity="0" result="BackgroundImageFix"/>
<feColorMatrix in="SourceAlpha" type="matrix" values="0 0 0 0 0 0 0 0 0 0 0 0 0 0 0 0 0 0 127 0" result="hardAlpha"/>
<feOffset dy="4"/>
<feGaussianBlur stdDeviation="2"/>
<feComposite in2="hardAlpha" operator="out"/>
<feColorMatrix type="matrix" values="0 0 0 0 0 0 0 0 0 0 0 0 0 0 0 0 0 0 0.25 0"/>
<feBlend mode="normal" in2="BackgroundImageFix" result="effect1_dropShadow_23_119"/>
<feBlend mode="normal" in="SourceGraphic" in2="effect1_dropShadow_23_119" result="shape"/>
</filter>
</defs>
</svg>
